<?xml version="1.0" encoding="utf-8"?>
<!-- Generator: Adobe Illustrator 15.0.0, SVG Export Plug-In . SVG Version: 6.00 Build 0)  -->
<!DOCTYPE svg PUBLIC "-//W3C//DTD SVG 1.1//EN" "http://www.w3.org/Graphics/SVG/1.1/DTD/svg11.dtd">
<svg version="1.1" id="Calque_1" xmlns="http://www.w3.org/2000/svg" xmlns:xlink="http://www.w3.org/1999/xlink" x="0px" y="0px"
	 width="600px" height="300px" viewBox="0 0 600 300" enable-background="new 0 0 600 300" xml:space="preserve">
<g>
	<path fill="#FFFFFF" d="M108.084,82.497c0.52,2.047,0.531,4.891,0.047,8.533c-0.488,3.645-1.409,7.716-2.766,12.218
		c-1.357,4.503-3.144,9.212-5.359,14.124c-2.211,4.907-4.812,9.562-7.794,13.966c-2.982,4.402-6.333,8.355-10.058,11.855
		c-3.721,3.504-7.75,6.057-12.077,7.661c-0.844,0.213-1.457,0.817-1.846,1.808c-2.179,6.571-4.309,13.221-6.38,19.949
		c-2.073,6.732-3.91,12.894-5.503,18.478c-1.596,5.588-2.84,10.289-3.731,14.097c-0.895,3.809-1.232,6.136-1.021,6.976
		c0.366,1.446,0.972,2.447,1.813,2.998c0.843,0.555,1.763,0.896,2.756,1.029c0.994,0.133,1.919,0.126,2.777-0.029
		c0.857-0.149,1.405-0.259,1.646-0.321c1.563-0.393,3.519-1.656,5.86-3.786c2.341-2.126,4.623-4.11,6.846-5.954l4.285-1.274
		c0.238-0.061,0.508,0.003,0.813,0.179c0.601,0.363,1.073,1.201,1.405,2.523c0.427,1.687,0.107,3.592-0.954,5.716
		c-1.065,2.123-2.503,4.279-4.317,6.466c-1.816,2.187-3.894,4.345-6.236,6.472c-2.341,2.128-4.611,4.044-6.799,5.753
		c-2.195,1.703-4.079,3.107-5.655,4.213c-1.579,1.1-2.607,1.713-3.088,1.835c-2.045,0.515-4.12,0.528-6.229,0.038
		c-2.108-0.493-4.01-1.32-5.718-2.49c-1.703-1.167-3.169-2.556-4.412-4.163c-1.237-1.606-2.057-3.19-2.451-4.756
		c-0.518-2.042-0.36-5.601,0.468-10.68c0.832-5.068,2.156-11.101,3.971-18.088c1.818-6.986,4.106-14.636,6.87-22.95
		c2.761-8.313,5.813-16.734,9.163-25.258c3.346-8.527,6.953-16.797,10.812-24.813c3.861-8.012,7.815-15.282,11.859-21.812
		c4.044-6.524,8.177-11.954,12.394-16.283c4.214-4.329,8.31-6.999,12.281-8.002c1.444-0.365,2.765-0.186,3.974,0.532
		C106.934,79.976,107.719,81.054,108.084,82.497z M95.451,100.856c-0.396-1.561-1.022-2.393-1.88-2.497
		c-0.86-0.104-1.666-0.377-2.417-0.831c-2.044,1.544-3.94,3.779-5.694,6.72c-1.752,2.939-3.108,5.81-4.063,8.609
		c-0.746,2.11-1.876,5.37-3.381,9.781c-1.507,4.415-3.186,9.542-5.037,15.385c-0.09,0.667-0.086,1.174,0.004,1.535
		c0.061,0.241,0.345,0.106,0.857-0.408c3.001-2.294,5.913-5.206,8.734-8.735c2.819-3.526,5.27-7.122,7.352-10.788
		c2.081-3.66,3.653-7.194,4.713-10.596C95.695,105.631,95.969,102.906,95.451,100.856z"/>
	<path fill="#FFFFFF" d="M142.638,139.395c0.852,3.377,1.062,6.66,0.629,9.85c-0.435,3.19-1.221,6.34-2.359,9.451
		c-1.139,3.109-2.494,6.212-4.063,9.304c-1.573,3.092-3.077,6.188-4.518,9.29c-1.439,3.103-2.659,6.233-3.655,9.394
		c-0.997,3.161-1.503,6.41-1.512,9.75c0.523,0.04,0.878,0.101,1.07,0.178c0.191,0.079,0.359,0.146,0.5,0.195
		c0.14,0.05,0.316,0.069,0.525,0.058c0.212-0.008,0.638-0.096,1.282-0.259c0.726-0.186,1.372-0.58,1.944-1.197
		c0.572-0.614,1.073-1.34,1.503-2.176c0.43-0.835,0.818-1.661,1.169-2.479c0.348-0.813,0.665-1.515,0.946-2.1l5.976,0.285
		c-0.518,2.356-1.551,5.123-3.102,8.292c-1.551,3.172-3.379,6.266-5.483,9.278c-2.105,3.013-4.386,5.665-6.843,7.952
		c-2.459,2.291-4.933,3.751-7.426,4.383c-0.724,0.182-1.5,0.333-2.321,0.456c-0.827,0.123-1.596,0.127-2.311,0.007
		c-0.714-0.118-1.358-0.383-1.93-0.796c-0.576-0.409-0.986-1.096-1.229-2.063c-0.184-0.724-0.287-1.465-0.309-2.23
		c-0.022-0.765-0.123-1.509-0.306-2.231c-0.285-1.126-0.805-1.742-1.56-1.853c-0.754-0.108-1.574-0.051-2.459,0.172
		c-0.563,0.144-1.265,0.921-2.104,2.33c-0.844,1.412-1.828,3.008-2.96,4.788c-1.133,1.785-2.4,3.453-3.802,5.006
		c-1.406,1.552-2.994,2.554-4.761,3.001c-1.606,0.406-3.191,0.313-4.751-0.274c-1.562-0.588-3.003-1.468-4.324-2.632
		c-1.321-1.159-2.465-2.472-3.435-3.941c-0.967-1.465-1.638-2.923-2.003-4.371c-0.711-2.813-0.919-5.754-0.625-8.821
		c0.292-3.07,0.736-5.964,1.333-8.68c1.251-5.533,3.091-10.939,5.525-16.218c2.429-5.274,5.314-10.264,8.662-14.959
		c3.348-4.696,7.118-9.069,11.311-13.123c4.193-4.056,8.69-7.588,13.49-10.597c0.523-0.304,1.265-0.748,2.23-1.335
		c0.961-0.583,1.987-1.187,3.074-1.803c1.081-0.615,2.103-1.152,3.056-1.608c0.954-0.452,1.673-0.743,2.155-0.864
		c0.804-0.203,1.924-0.338,3.363-0.402c1.439-0.063,2.886-0.001,4.344,0.187c1.461,0.186,2.772,0.561,3.942,1.12
		c1.168,0.559,1.884,1.365,2.149,2.406L142.638,139.395z M125.554,148.463c-0.102-0.403-0.321-0.669-0.653-0.799
		c-0.333-0.127-0.7-0.143-1.1-0.04c-2.171,0.548-4.453,1.767-6.84,3.652c-2.39,1.885-4.721,4.167-6.996,6.838
		c-2.275,2.671-4.416,5.631-6.418,8.872c-2.004,3.246-3.69,6.472-5.06,9.685c-1.37,3.212-2.341,6.301-2.916,9.271
		c-0.579,2.969-0.589,5.538-0.039,7.71c0.201,0.804,0.51,1.603,0.925,2.396c0.412,0.794,0.933,1.496,1.559,2.106
		c0.625,0.612,1.316,1.062,2.072,1.34c0.755,0.277,1.616,0.295,2.581,0.052c1.445-0.365,2.921-1.465,4.423-3.301
		c1.505-1.832,2.973-4.064,4.405-6.695c1.429-2.627,2.781-5.493,4.051-8.595c1.27-3.102,2.445-6.135,3.535-9.107
		c1.087-2.969,2.015-5.727,2.785-8.272c0.765-2.549,1.359-4.517,1.779-5.905c0.138-0.46,0.334-1.132,0.583-2.008
		c0.247-0.875,0.486-1.793,0.717-2.748c0.228-0.954,0.406-1.854,0.536-2.701C125.609,149.367,125.633,148.785,125.554,148.463z"/>
	<path fill="#FFFFFF" d="M263.186,110.572c1.138,4.509,1.137,9.856-0.001,16.042c-1.143,6.19-2.96,12.363-5.459,18.527
		c-2.497,6.163-5.423,11.972-8.775,17.43c-3.353,5.459-6.658,9.769-9.916,12.925c3.391,4.184,5.717,8.76,6.974,13.724
		c0.964,3.813,1.183,8.091,0.663,12.834c-0.524,4.741-1.597,9.62-3.214,14.64c-1.621,5.019-3.752,9.955-6.399,14.801
		c-2.646,4.852-5.604,9.315-8.874,13.397c-3.271,4.086-6.757,7.55-10.462,10.39c-3.705,2.846-7.526,4.762-11.452,5.754
		c-2.082,0.527-4.373,0.826-6.872,0.907c-2.499,0.078-4.926-0.163-7.284-0.739c-2.356-0.572-4.506-1.534-6.446-2.889
		c-1.941-1.351-3.389-3.2-4.351-5.537c-2.329,4.892-5.07,9.119-8.227,12.684c-3.152,3.564-7.506,6.044-13.05,7.447
		c-5.433,1.372-10.019,0.722-13.771-1.957c-3.75-2.68-6.282-6.616-7.595-11.817c-0.672-2.654-0.567-6.244,0.316-10.772
		c0.885-4.525,2.298-9.032,4.236-13.516c1.937-4.483,4.246-8.479,6.926-11.987c2.678-3.502,5.46-5.621,8.349-6.353l10.573-2.671
		c0.491,0.983,0.985,1.718,1.478,2.205c0.494,0.494,0.887,1.315,1.178,2.469c0.235,0.929,0.207,1.916-0.078,2.971
		c-0.289,1.057-0.749,2.03-1.381,2.931c-0.634,0.897-1.354,1.694-2.161,2.391c-0.809,0.697-1.618,1.145-2.424,1.347
		c-1.273,0.323-2.499,0.452-3.686,0.381c-1.186-0.067-2.413,0.059-3.681,0.379c-1.158,0.292-2.332,0.989-3.528,2.089
		c-1.197,1.102-2.227,2.38-3.09,3.825c-0.863,1.447-1.505,2.933-1.917,4.45c-0.417,1.52-0.461,2.912-0.141,4.183
		c0.206,0.81,0.726,1.538,1.566,2.184c0.838,0.653,1.809,1.203,2.909,1.661c1.1,0.463,2.19,0.767,3.275,0.925
		c1.084,0.158,1.975,0.148,2.667-0.027c1.965-0.497,3.912-1.787,5.843-3.876c1.932-2.084,3.803-4.646,5.617-7.688
		c1.812-3.04,3.524-6.359,5.132-9.964c1.606-3.602,3.108-7.146,4.501-10.635c1.394-3.485,2.597-6.739,3.615-9.765
		c1.017-3.021,1.798-5.4,2.345-7.136c0.685-2.14,1.331-4.331,1.933-6.575c0.6-2.239,1.333-4.33,2.194-6.27
		c1.493-3.325,2.85-6.714,4.069-10.155c1.219-3.441,2.447-6.855,3.68-10.242c2.785-7.463,5.673-14.861,8.677-22.199
		c3-7.333,6.371-14.547,10.109-21.642c0.174-0.289,0.382-0.676,0.628-1.17c0.243-0.489,0.322-0.911,0.234-1.259
		c-0.291-0.171-0.782-0.171-1.475,0.004c-0.348,0.087-0.895,0.35-1.645,0.785c-0.751,0.438-1.514,0.935-2.294,1.502
		c-0.777,0.566-1.538,1.099-2.27,1.589c-0.737,0.495-1.249,0.899-1.536,1.218c-3.262,2.669-6.078,5.748-8.453,9.235
		c-2.375,3.492-4.352,7.216-5.931,11.179c-0.866,1.94-1.653,3.922-2.368,5.946c-0.721,2.026-1.378,4.037-1.979,6.031
		c-0.318,1.188-0.773,2.901-1.375,5.143c-0.603,2.243-1.288,4.507-2.062,6.79c-0.774,2.288-1.702,4.335-2.779,6.143
		c-1.08,1.812-2.255,2.875-3.526,3.194c-2.426,0.613-4.493,0.462-6.2-0.46c-1.708-0.919-2.868-2.593-3.483-5.019
		c-0.935-3.697-0.807-7.691,0.382-11.989c1.186-4.293,3.04-8.634,5.555-13.022c2.518-4.383,5.528-8.77,9.027-13.159
		c3.502-4.389,7.125-8.531,10.871-12.429c3.747-3.895,7.393-7.461,10.943-10.694c3.544-3.23,6.601-5.845,9.169-7.849
		c1.125-0.899,2.415-1.869,3.873-2.917c1.457-1.04,2.998-2.109,4.63-3.198c1.632-1.086,3.261-2.051,4.892-2.897
		c1.632-0.842,3.138-1.438,4.525-1.789c7.279-1.84,13.336-1.097,18.17,2.228C258.135,98.514,261.432,103.643,263.186,110.572z
		 M231.97,192.771c-0.232-0.922-1.155-2.133-2.763-3.634c-1.607-1.499-3.417-2.946-5.43-4.344c-2.013-1.398-3.966-2.562-5.864-3.497
		c-1.894-0.932-3.249-1.299-4.055-1.095c-0.809,0.205-1.393,0.692-1.751,1.458c-0.358,0.769-0.699,1.502-1.014,2.192
		c-0.316,0.695-0.954,2.175-1.918,4.45c-0.962,2.271-2.054,4.881-3.272,7.833c-1.221,2.953-2.52,6.073-3.899,9.376
		c-1.377,3.296-2.627,6.378-3.747,9.242c-1.119,2.865-2.054,5.251-2.797,7.162c-0.747,1.91-1.091,2.981-1.033,3.21
		c0.173,0.205,1.213,0.311,3.123,0.318c1.906,0.011,4.065-0.076,6.481-0.257c2.412-0.177,4.731-0.364,6.955-0.561
		c2.226-0.193,3.685-0.379,4.378-0.553c3.002-0.762,5.696-2.271,8.073-4.529c2.378-2.264,4.323-4.9,5.832-7.93
		c1.509-3.021,2.521-6.196,3.032-9.522C232.81,198.769,232.701,195.66,231.97,192.771z M246.964,125.184
		c-0.233-0.921-0.682-1.974-1.352-3.16c-0.667-1.183-1.468-2.271-2.391-3.267c-0.93-0.994-1.958-1.779-3.086-2.358
		c-1.13-0.571-2.272-0.712-3.426-0.421c-0.575,0.145-0.955,0.457-1.139,0.934c-0.182,0.478-0.349,0.916-0.49,1.321
		c-2.439,7.748-4.771,15.561-6.995,23.434c-2.226,7.879-5.087,15.515-8.594,22.915c-0.343,0.582-0.482,0.985-0.425,1.215
		c1.409,0.259,2.559,0.459,3.45,0.603c0.891,0.142,1.745,0.27,2.567,0.365c0.818,0.1,1.373,0.238,1.661,0.409
		c1.913-2.572,4.184-5.545,6.818-8.913c2.629-3.368,5.083-6.97,7.351-10.802c2.271-3.83,4.059-7.664,5.366-11.498
		C247.582,132.127,247.812,128.537,246.964,125.184z"/>
	<path fill="#FFFFFF" d="M335.068,126.312c1.114,4.406,1.386,8.693,0.821,12.855c-0.569,4.163-1.594,8.272-3.078,12.333
		c-1.486,4.059-3.254,8.107-5.306,12.142c-2.051,4.037-4.014,8.08-5.895,12.128c-1.877,4.048-3.466,8.133-4.77,12.256
		c-1.301,4.128-1.962,8.367-1.973,12.727c0.68,0.052,1.146,0.127,1.396,0.231c0.251,0.104,0.467,0.191,0.651,0.255
		c0.183,0.065,0.412,0.093,0.689,0.075c0.275-0.01,0.83-0.126,1.674-0.338c0.943-0.237,1.787-0.76,2.534-1.562
		c0.744-0.8,1.4-1.748,1.962-2.838c0.562-1.095,1.068-2.171,1.528-3.237c0.457-1.061,0.865-1.977,1.231-2.739l7.799,0.371
		c-0.676,3.077-2.023,6.686-4.046,10.821c-2.027,4.142-4.409,8.18-7.155,12.109c-2.749,3.934-5.727,7.394-8.932,10.381
		c-3.21,2.987-6.438,4.896-9.693,5.717c-0.941,0.24-1.956,0.439-3.029,0.598c-1.075,0.161-2.081,0.164-3.013,0.007
		c-0.933-0.152-1.772-0.498-2.522-1.036c-0.75-0.536-1.284-1.435-1.602-2.693c-0.24-0.944-0.374-1.915-0.402-2.911
		c-0.03-0.998-0.162-1.971-0.4-2.914c-0.372-1.47-1.05-2.271-2.035-2.416s-2.054-0.069-3.208,0.226
		c-0.734,0.184-1.652,1.2-2.749,3.04c-1.099,1.843-2.385,3.925-3.863,6.248c-1.477,2.329-3.129,4.507-4.963,6.534
		c-1.832,2.022-3.904,3.331-6.21,3.915c-2.101,0.53-4.169,0.409-6.203-0.359c-2.037-0.766-3.918-1.913-5.643-3.431
		c-1.722-1.515-3.214-3.231-4.482-5.147c-1.263-1.91-2.137-3.812-2.615-5.702c-0.927-3.671-1.2-7.51-0.816-11.516
		c0.383-4.004,0.964-7.78,1.741-11.326c1.632-7.224,4.036-14.277,7.208-21.165c3.173-6.885,6.94-13.395,11.31-19.522
		c4.367-6.13,9.289-11.836,14.761-17.129c5.468-5.292,11.338-9.901,17.604-13.831c0.68-0.394,1.65-0.974,2.909-1.74
		c1.258-0.76,2.595-1.546,4.011-2.354c1.414-0.802,2.744-1.503,3.992-2.098c1.244-0.59,2.184-0.969,2.811-1.128
		c1.048-0.264,2.512-0.439,4.392-0.523c1.875-0.084,3.765-0.003,5.669,0.242c1.905,0.244,3.618,0.733,5.144,1.46
		c1.524,0.731,2.459,1.782,2.805,3.142L335.068,126.312z M312.771,138.146c-0.13-0.524-0.416-0.873-0.849-1.042
		c-0.435-0.166-0.915-0.187-1.438-0.053c-2.832,0.716-5.81,2.305-8.925,4.769c-3.121,2.46-6.162,5.438-9.133,8.923
		c-2.97,3.486-5.763,7.347-8.377,11.58c-2.614,4.234-4.815,8.445-6.601,12.638c-1.786,4.193-3.059,8.225-3.807,12.101
		c-0.753,3.873-0.769,7.226-0.053,10.061c0.266,1.05,0.668,2.091,1.211,3.125c0.54,1.037,1.218,1.955,2.034,2.751
		c0.812,0.8,1.714,1.382,2.701,1.747c0.988,0.366,2.109,0.389,3.368,0.071c1.888-0.48,3.813-1.912,5.78-4.308
		c1.959-2.394,3.875-5.306,5.743-8.738c1.867-3.429,3.631-7.172,5.288-11.218c1.656-4.047,3.191-8.009,4.615-11.886
		c1.419-3.875,2.632-7.473,3.632-10.798c1.002-3.324,1.777-5.894,2.322-7.704c0.184-0.605,0.438-1.478,0.761-2.622
		c0.323-1.143,0.637-2.338,0.934-3.587c0.3-1.246,0.533-2.421,0.702-3.526C312.846,139.329,312.879,138.567,312.771,138.146z"/>
	<path fill="#FFFFFF" d="M436.965,116.881c-0.659,4.02-1.674,8.185-3.037,12.492c-1.369,4.31-2.973,8.677-4.81,13.105
		c-1.839,4.43-3.557,8.686-5.146,12.772c-1.591,4.088-2.829,7.916-3.71,11.488c-0.884,3.575-1.15,6.715-0.803,9.414
		c0.524,0.315,0.889,0.642,1.088,0.984c0.197,0.341,0.402,0.595,0.611,0.765c0.212,0.171,0.572,0.273,1.084,0.312
		c0.512,0.039,1.293-0.075,2.342-0.34c0.946-0.237,1.895-0.788,2.851-1.643c0.956-0.854,1.944-1.803,2.967-2.843
		c1.017-1.039,2.06-2.115,3.119-3.219c1.062-1.104,2.127-1.962,3.204-2.569c0.55-0.024,1.063,0.013,1.536,0.114
		c0.472,0.106,1.005,0.224,1.594,0.352c0.59,0.129,1.164,0.404,1.718,0.823c-0.183,1.496-0.787,3.41-1.815,5.733
		c-1.033,2.327-2.299,4.826-3.799,7.492c-1.505,2.67-3.257,5.348-5.257,8.027c-2.002,2.682-4.05,5.187-6.143,7.5
		c-2.095,2.315-4.243,4.309-6.444,5.98c-2.201,1.674-4.351,2.774-6.448,3.305c-2.625,0.664-4.961,0.474-7.011-0.569
		c-2.051-1.045-3.8-2.444-5.247-4.199c-1.449-1.756-2.617-3.609-3.5-5.565c-0.887-1.95-1.462-3.452-1.726-4.503
		c-0.53-2.098-0.532-4.972-0.005-8.625c0.529-3.65,1.363-7.627,2.511-11.937c1.143-4.309,2.487-8.805,4.037-13.498
		c1.549-4.688,3.114-9.104,4.69-13.244c1.577-4.138,3.011-7.849,4.302-11.135c1.29-3.282,2.238-5.728,2.837-7.332l-1.312-4.526
		c-1.052-0.625-1.914-1.164-2.583-1.606c-0.673-0.445-2.058-0.401-4.152,0.129c-3.254,0.822-6.414,2.791-9.478,5.912
		c-3.063,3.118-5.972,6.952-8.732,11.5c-2.757,4.55-5.352,9.619-7.793,15.202c-2.438,5.586-4.672,11.229-6.688,16.932
		c-2.022,5.701-3.851,11.273-5.49,16.711c-1.64,5.44-3.012,10.283-4.114,14.521c-1.105,4.245-1.964,7.7-2.572,10.366
		c-0.613,2.665-0.89,4.104-0.837,4.312c-0.522,0.581-1.268,1.274-2.238,2.073c-0.969,0.804-2.058,1.583-3.262,2.334
		c-1.206,0.75-2.459,1.432-3.754,2.038c-1.299,0.604-2.474,1.044-3.521,1.309c-1.992,0.501-4.075,0.444-6.241-0.183
		c-2.168-0.622-4.368-1.6-6.604-2.934c1.923-6.96,4.39-14.424,7.402-22.387c3.011-7.962,5.844-15.966,8.5-24.005
		c-0.528-0.312-0.829-0.628-0.908-0.943c-0.079-0.314-0.206-0.587-0.375-0.823c-0.174-0.234-0.429-0.365-0.77-0.393
		c-0.341-0.025-1.038,0.096-2.086,0.36c-0.946,0.237-1.949,0.799-3.008,1.681c-1.063,0.882-2.129,1.852-3.202,2.903
		c-1.074,1.055-2.197,2.145-3.357,3.278c-1.164,1.131-2.312,2.119-3.44,2.96c-0.576-0.075-1.113-0.219-1.614-0.428
		c-0.471-0.104-1.01-0.247-1.615-0.429c-0.604-0.184-1.182-0.481-1.735-0.901c2.46-3.522,5.283-7.253,8.475-11.187
		c3.195-3.931,6.496-7.976,9.913-12.134c3.413-4.156,6.734-8.345,9.968-12.568c3.229-4.224,6.101-8.436,8.609-12.647
		c1.804-3.021,2.968-6.694,3.496-11.013c0.523-4.322,0.875-8.345,1.048-12.073c1.649-2.315,3.771-4.303,6.366-5.963
		c2.596-1.662,4.94-2.755,7.04-3.286c3.148-0.797,5.516-1.031,7.105-0.709c1.589,0.323,2.727,0.959,3.411,1.901
		c0.685,0.943,1.068,2.019,1.151,3.226c0.081,1.208,0.256,2.338,0.521,3.385c0.266,1.05,0.743,1.85,1.442,2.399
		c0.697,0.548,1.991,0.583,3.88,0.106c1.047-0.265,2.588-1.241,4.618-2.926c2.028-1.687,4.197-3.489,6.504-5.413
		c2.305-1.922,4.474-3.726,6.503-5.411c2.028-1.687,3.567-2.662,4.62-2.928c2.833-0.717,5.174-0.723,7.026-0.018
		c1.854,0.705,3.313,1.731,4.381,3.08c1.067,1.351,1.865,2.851,2.395,4.501c0.529,1.653,0.939,3.056,1.231,4.21l0.04,0.159
		C437.542,109.229,437.621,112.865,436.965,116.881z"/>
	<path fill="#FFFFFF" d="M489.311,158.39l2.363,1.411c1.096-0.944,2.243-2.237,3.433-3.878c1.192-1.636,2.255-3.511,3.194-5.622
		l4.527-1.146l0.955,4.574c-1.22,3.117-2.778,6.218-4.668,9.306c-1.898,3.088-3.927,5.911-6.09,8.462
		c-2.164,2.555-4.358,4.714-6.587,6.482c-2.231,1.765-4.223,2.872-5.98,3.317c-2.393,0.604-4.129,0.743-5.215,0.417
		c-1.086-0.332-1.826-0.879-2.22-1.65c-0.398-0.768-0.59-1.655-0.574-2.662c0.01-1.005-0.093-1.949-0.313-2.831l-0.858-3.394
		c-0.473-0.28-0.727-0.484-0.759-0.61l-0.048-0.188l-0.376,0.094c-0.254,0.065-0.755,0.192-1.508,0.381
		c-1.132,0.288-2.206,1.193-3.226,2.72c-1.017,1.533-2.138,3.188-3.358,4.963c-1.225,1.784-2.626,3.509-4.208,5.18
		c-1.584,1.674-3.51,2.793-5.77,3.365c-2.015,0.507-3.84,0.438-5.476-0.225c-1.638-0.652-3.057-1.636-4.254-2.934
		c-1.197-1.301-2.173-2.763-2.913-4.381c-0.742-1.619-1.274-3.052-1.592-4.312c-0.824-3.267-0.869-7.271-0.127-12.008
		c0.741-4.732,2.044-9.776,3.899-15.128c1.857-5.354,4.145-10.711,6.868-16.084c2.721-5.369,5.648-10.32,8.783-14.862
		c3.135-4.535,6.378-8.363,9.733-11.491c3.357-3.119,6.55-5.063,9.563-5.825c0.378-0.096,0.965-0.276,1.769-0.548
		c0.801-0.269,1.768-0.547,2.898-0.834c1.132-0.286,2.307-0.513,3.535-0.693c1.228-0.174,2.388-0.204,3.492-0.079
		c1.07,0,1.711-0.635,1.93-1.894c2.896-10.227,6.144-20.542,9.73-30.951c3.59-10.405,6.66-20.343,9.212-29.816
		c0.563-2.012,2.045-3.826,4.446-5.438c2.403-1.611,4.479-2.639,6.242-3.083c1.381-0.35,2.666-0.573,3.843-0.671
		c1.178-0.097,2.478,0.011,3.895,0.321l1.381,5.467L489.311,158.39z M486.308,110.796c0.219-0.72,0.279-1.274,0.185-1.653
		c-0.126-0.498-0.697-0.624-1.701-0.37c-3.112,0.92-6.002,2.053-8.67,3.396c-2.669,1.347-4.288,2.222-4.853,2.629
		c-2.702,2.022-5.172,4.687-7.409,7.995c-2.242,3.308-4.153,6.868-5.729,10.677c-1.577,3.809-2.624,7.62-3.13,11.424
		c-0.508,3.81-0.396,7.157,0.335,10.048c0.573,2.263,1.247,4.134,2.02,5.607c0.773,1.481,2.605,1.851,5.499,1.119
		c2.263-0.571,4.566-2.823,6.917-6.765c2.346-3.938,4.561-8.544,6.637-13.815c2.081-5.272,3.984-10.705,5.713-16.293
		C483.852,119.21,485.248,114.544,486.308,110.796z"/>
	<path fill="#FFFFFF" d="M577.93,61.626c1.275,5.037,0.691,10.015-1.749,14.928c-2.443,4.917-6.085,9.719-10.93,14.403
		c-4.847,4.687-10.567,9.204-17.174,13.551c-6.604,4.351-13.431,8.48-20.483,12.381c-0.228,3.071,0.03,6.077,0.772,9.016
		c2.733,10.811,8.979,14.979,18.739,12.51c0.943-0.239,2.217-0.836,3.814-1.801c1.599-0.96,3.36-2.16,5.288-3.597
		c1.923-1.432,3.952-3.008,6.09-4.723c2.133-1.71,4.21-3.435,6.229-5.174l1.791,7.083l0.198,0.118
		c0.186,0.736-0.183,2.056-1.093,3.959c-0.918,1.906-2.112,4.025-3.588,6.351c-1.478,2.328-3.066,4.657-4.766,6.982
		c-1.698,2.33-3.23,4.335-4.592,6.018c-0.942,1.134-2.311,2.344-4.104,3.633c-1.797,1.292-3.696,2.499-5.701,3.621
		c-2.007,1.116-3.934,2.107-5.78,2.968c-1.851,0.857-3.245,1.405-4.189,1.645c-4.305,1.09-7.974,1.151-11.008,0.187
		c-3.035-0.96-5.564-2.473-7.593-4.526c-2.026-2.058-3.628-4.415-4.804-7.078c-1.173-2.659-2.053-5.145-2.639-7.454
		c-1.032-4.093-1.348-8.979-0.942-14.666c0.403-5.685,1.485-11.679,3.24-17.986c1.756-6.305,4.112-12.651,7.077-19.038
		c2.961-6.386,6.463-12.296,10.506-17.729c4.041-5.431,8.57-10.147,13.587-14.152c5.016-4.003,10.462-6.749,16.341-8.236
		c1.781-0.45,3.639-0.609,5.57-0.487c1.928,0.13,3.723,0.481,5.378,1.069c1.654,0.587,3.06,1.404,4.22,2.45
		C576.794,58.9,577.559,60.156,577.93,61.626z M557.642,73.453c-0.688-2.728-1.761-4.326-3.221-4.794
		c-1.459-0.469-3.145-0.068-5.058,1.195c-1.913,1.266-3.875,3.215-5.89,5.843c-2.015,2.631-3.983,5.67-5.901,9.112
		c-1.923,3.445-3.628,7.087-5.11,10.923c-1.488,3.837-2.606,7.58-3.357,11.231c3.145-2.135,6.571-4.368,10.281-6.703
		c3.706-2.331,7.079-4.888,10.118-7.667c3.035-2.776,5.384-5.741,7.043-8.897C558.205,80.542,558.572,77.127,557.642,73.453z"/>
</g>
</svg>
