<?xml version="1.0" standalone="no"?>
<!DOCTYPE svg PUBLIC "-//W3C//DTD SVG 1.1//EN" "http://www.w3.org/Graphics/SVG/1.1/DTD/svg11.dtd" >
<svg xmlns="http://www.w3.org/2000/svg">
<metadata></metadata>
<defs>
<font id="dauphineregular" horiz-adv-x="860" >
<font-face units-per-em="2048" ascent="1536" descent="-512" />
<missing-glyph horiz-adv-x="512" />
<glyph unicode="ff" horiz-adv-x="1091" d="M61 715v123h175v350q0 125 67.5 200.5t188.5 75.5v-123q-59 0 -91 -39.5t-32 -103.5v-360h313v350q0 125 67.5 200.5t188.5 75.5q116 0 186 -70t70 -186v-53h-133v41q0 70 -31 107.5t-92 37.5q-59 0 -91 -39.5t-32 -103.5v-360h184v-123h-184v-715h-133v715h-313v-715 h-133v715h-175z" />
<glyph unicode="fi" horiz-adv-x="927" d="M61 715v123h175v350q0 125 67.5 200.5t188.5 75.5v-133q-60 0 -91.5 -35t-31.5 -98v-360h446v-838h-133v715h-313v-715h-133v715h-175zM672 1087v154h153v-154h-153z" />
<glyph unicode="fl" horiz-adv-x="927" d="M61 715v123h175v350q0 125 67.5 200.5t188.5 75.5v-133q-60 0 -91.5 -35t-31.5 -98v-360h123v-123h-123v-715h-133v715h-175zM682 0h133v1444h-133v-1444z" />
<glyph unicode="ffi" horiz-adv-x="1374" d="M61 715v123h175v350q0 125 67.5 200.5t188.5 75.5v-133q-60 0 -91.5 -35t-31.5 -98v-360h313v350q0 125 67.5 200.5t188.5 75.5v-133q-60 0 -91.5 -35t-31.5 -98v-360h447v-838h-134v715h-313v-715h-133v715h-313v-715h-133v715h-175zM1118 1094v153h154v-153h-154z" />
<glyph unicode="ffl" horiz-adv-x="1374" d="M61 715v123h175v350q0 125 67.5 200.5t188.5 75.5v-123q-59 0 -91 -39.5t-32 -103.5v-360h313v350q0 125 67.5 200.5t188.5 75.5v-123q-59 0 -91 -39.5t-32 -103.5v-360h313v606h134v-1444h-134v715h-313v-715h-133v715h-313v-715h-133v715h-175z" />
<glyph unicode="www" horiz-adv-x="3606" d="M41 838h145l209 -666l213 666h137l213 -666l209 666h146l209 -666l213 666h137l213 -666l209 666h145l209 -666l213 666h137l213 -666l209 666h146l-287 -838h-135l-215 670l-213 -670h-136l-213 664l-215 -664h-135l-215 670l-213 -670h-135l-213 664l-215 -664h-135 l-215 670l-213 -670h-135z" />
<glyph unicode="gy" horiz-adv-x="1597" d="M72 -299q0 93 48 165.5t128 115.5q-74 50 -74 135q0 94 84 145q-65 43 -102 115t-37 158q0 108 71 199.5t179 115.5l131 395h127l-131 -393q112 -24 184 -116t72 -201q0 -137 -90.5 -230.5t-227.5 -93.5q-115 0 -115 -84q0 -46 30.5 -72t84.5 -26q150 0 257.5 -92.5 t107.5 -235.5t-107.5 -234.5t-257.5 -91.5t-256 91.5t-106 234.5zM205 -299q0 -89 66.5 -143t162.5 -54t164 54t68 143q0 90 -68.5 147.5t-163.5 57.5t-162 -57.5t-67 -147.5zM248 535q0 -95 52 -150t134 -55q84 0 136.5 55t52.5 150q0 94 -53 149t-136 55 q-81 0 -133.5 -55.5t-52.5 -148.5zM848 838h145l228 -658l211 658h145l-494 -1442h-135l205 606z" />
<glyph unicode="fb" horiz-adv-x="1484" d="M61 715v123h175v350q0 125 67.5 200.5t188.5 75.5v-133q-60 0 -91.5 -35t-31.5 -98v-360h123v-123h-123v-715h-133v715h-175zM682 0h133v104q77 -124 225 -124q108 0 192.5 63t127.5 162t43 213t-43 213.5t-127.5 163t-192.5 63.5q-146 0 -225 -127v713h-133v-1444z M815 418v12q3 125 63.5 213t161.5 88q103 0 163.5 -91.5t60.5 -221.5q0 -129 -60.5 -220.5t-163.5 -91.5t-164 91.5t-61 220.5z" />
<glyph unicode="fh" horiz-adv-x="1419" d="M61 715v123h175v350q0 125 67.5 200.5t188.5 75.5v-133q-60 0 -91.5 -35t-31.5 -98v-360h123v-123h-123v-715h-133v715h-175zM682 0h133v496q2 96 55 167.5t140 71.5q89 0 131.5 -55t42.5 -152v-528h133v559q0 138 -79.5 218.5t-217.5 80.5q-129 0 -205 -110v696h-133 v-1444z" />
<glyph unicode="fk" horiz-adv-x="1382" d="M61 715v123h175v350q0 125 67.5 200.5t188.5 75.5v-133q-60 0 -91.5 -35t-31.5 -98v-360h123v-123h-123v-715h-133v715h-175zM682 0h133v338l359 -338h198l-459 432l428 406h-186l-340 -322v928h-133v-1444z" />
<glyph unicode="gj" horiz-adv-x="1198" d="M72 -299q0 93 48 165.5t128 115.5q-74 50 -74 135q0 94 84 145q-65 43 -102 115t-37 158q0 108 71 199.5t179 115.5l131 395h127l-131 -393q112 -24 184 -116t72 -201q0 -137 -90.5 -230.5t-227.5 -93.5q-115 0 -115 -84q0 -46 30.5 -72t84.5 -26q150 0 257.5 -92.5 t107.5 -235.5t-107.5 -234.5t-257.5 -91.5t-256 91.5t-106 234.5zM205 -299q0 -89 66.5 -143t162.5 -54t164 54t68 143q0 90 -68.5 147.5t-163.5 57.5t-162 -57.5t-67 -147.5zM248 535q0 -95 52 -150t134 -55q84 0 136.5 55t52.5 150q0 94 -53 149t-136 55 q-81 0 -133.5 -55.5t-52.5 -148.5zM829 -502q59 0 91 40t32 104v1196h133v-1186q0 -125 -67.5 -201t-188.5 -76v123zM942 1087v154h154v-154h-154z" />
<glyph unicode="fj" horiz-adv-x="927" d="M61 715v123h175v350q0 125 67.5 200.5t188.5 75.5v-133q-60 0 -91.5 -35t-31.5 -98v-360h446v-1186q0 -125 -67.5 -201t-188.5 -76q-115 0 -185.5 70.5t-70.5 185.5v54h133v-41q0 -70 31 -108t92 -38q59 0 91 40t32 104v1073h-313v-715h-133v715h-175zM672 1087v154h153 v-154h-153z" />
<glyph unicode=" "  horiz-adv-x="512" />
<glyph unicode="&#x09;" horiz-adv-x="512" />
<glyph unicode="&#xa0;" horiz-adv-x="512" />
<glyph unicode="!" horiz-adv-x="348" d="M115 0v160h159v-160h-159zM123 307v1137h143v-1137h-143z" />
<glyph unicode="&#x22;" horiz-adv-x="780" d="M127 991l149 453h127l-149 -453h-127zM397 991l150 453h127l-150 -453h-127z" />
<glyph unicode="#" horiz-adv-x="1187" d="M102 391v129h181l108 404h-207v129h242l106 391h134l-107 -391h246l106 391h133l-106 -391h147v-129h-182l-108 -404h209v-129h-244l-105 -391h-133l105 391h-246l-105 -391h-133l105 391h-146zM416 520h246l108 404h-246z" />
<glyph unicode="$" horiz-adv-x="1161" d="M102 410h154q0 -137 88 -219t242 -82q153 0 241 82t88 219q0 53 -22 93t-76 72t-91.5 48t-120.5 46q-3 1 -5 2t-4.5 2t-5 1.5t-4.5 1.5q-172 63 -224 89q-143 71 -188 178q-27 62 -27 144q0 151 104 253t259 120v189h135v-191q147 -24 244.5 -125t97.5 -246h-153 q0 105 -80 176.5t-189 71.5q-121 0 -194.5 -69.5t-73.5 -178.5q0 -30 8.5 -56t20.5 -46t35.5 -39t44 -32t55 -28.5t59 -25t66.5 -24.5q26 -10 75.5 -27t74.5 -26t67 -26t64 -29t54.5 -32.5t50 -39t38.5 -45.5t31 -56t17 -66t7 -79q0 -95 -33 -174t-91 -131.5t-133.5 -83.5 t-162.5 -39v-187h-135v189q-178 21 -293 132t-115 294z" />
<glyph unicode="%" horiz-adv-x="1167" d="M102 1223q0 100 70 170.5t170 70.5t171 -70.5t71 -170.5t-71 -170t-171 -70t-170 70t-70 170zM109 0h141l811 1444h-141zM215 1223q0 -55 37 -94t90 -39q54 0 91.5 39.5t37.5 93.5q0 55 -38 95t-91 40t-90 -40t-37 -95zM584 219q0 100 70 171t169 71q100 0 171 -71 t71 -171q0 -99 -71 -169t-171 -70t-169.5 69.5t-69.5 169.5zM696 219q0 -55 37 -94t90 -39q54 0 91.5 39.5t37.5 93.5q0 55 -38 95t-91 40t-90 -40t-37 -95z" />
<glyph unicode="&#x26;" horiz-adv-x="1150" d="M82 473q0 135 66 245t178 169l-56 80q-45 65 -45 168q0 136 95.5 232.5t232.5 96.5q136 0 233 -97t97 -232q0 -137 -96.5 -231.5t-233.5 -94.5l324 -481q26 70 26 145v176h144v-174q0 -152 -84 -276l147 -219h-156l-82 118q-137 -118 -319 -118q-205 0 -338 142t-133 351 zM225 473q0 -141 96.5 -250.5t231.5 -109.5q147 0 244 94l-394 565q-80 -42 -129 -122.5t-49 -176.5zM369 1135q0 -45 41 -113l57 -88q39 8 86 8q84 0 135 53.5t51 139.5t-51 141t-135 55t-134 -55t-50 -141z" />
<glyph unicode="'" horiz-adv-x="509" d="M127 991l149 453h127l-149 -453h-127z" />
<glyph unicode="(" horiz-adv-x="819" d="M143 676q0 320 165.5 572t428.5 345v-153q-189 -79 -316.5 -289.5t-127.5 -474.5t127.5 -474.5t316.5 -289.5v-154q-263 93 -428.5 345.5t-165.5 572.5z" />
<glyph unicode=")" horiz-adv-x="819" d="M82 -88q189 79 316.5 289.5t127.5 474.5t-127.5 474.5t-316.5 289.5v153q263 -93 428.5 -345t165.5 -572t-165.5 -572.5t-428.5 -345.5v154z" />
<glyph unicode="*" horiz-adv-x="1130" d="M123 944v115l317 -8l-231 221l86 86l217 -228l-8 314h123l-9 -322l220 234l82 -82l-236 -223l324 8v-115l-320 8l234 -221l-86 -86l-218 227l9 -313h-123l8 320l-219 -232l-82 82l235 223z" />
<glyph unicode="+" horiz-adv-x="993" d="M102 516v125h328v373h133v-373h328v-125h-328v-373h-133v373h-328z" />
<glyph unicode="," horiz-adv-x="395" d="M20 -309l150 452h143l-149 -452h-144z" />
<glyph unicode="-" horiz-adv-x="655" d="M41 465v143h573v-143h-573z" />
<glyph unicode="." horiz-adv-x="364" d="M98 0v164h168v-164h-168z" />
<glyph unicode="/" horiz-adv-x="798" d="M102 0l492 1444h143l-491 -1444h-144z" />
<glyph unicode="0" horiz-adv-x="1085" d="M82 721q0 210 63.5 381.5t169 266.5t228.5 95t228.5 -95t169 -266.5t63.5 -381.5t-63.5 -381t-169 -265.5t-228.5 -94.5t-228.5 94.5t-169 265.5t-63.5 381zM236 721q0 -164 41 -304t112 -222t154 -82t154 82t112 222t41 304t-41 304.5t-112 223t-154 82.5t-154 -82.5 t-112 -223t-41 -304.5z" />
<glyph unicode="1" horiz-adv-x="796" d="M164 1044v123h20q103 0 181.5 80t83.5 185v12h143v-1444h-143v1178q-93 -134 -269 -134h-16z" />
<glyph unicode="2" horiz-adv-x="1052" d="M123 0v143l608 783q43 54 43 141q0 108 -74 186t-180 78t-180 -78t-74 -186v-41h-143v37q0 169 114.5 285t282.5 116q169 0 287.5 -116.5t118.5 -284.5q0 -126 -88 -240l-541 -680h629v-143h-803z" />
<glyph unicode="3" horiz-adv-x="1058" d="M111 418v8h153q0 -129 72.5 -221t191.5 -92t192 92.5t73 220.5q0 116 -75 192t-190 76h-77v144h77q93 0 155 66.5t62 172.5q0 112 -56.5 183t-160.5 71t-160.5 -71t-56.5 -183h-151q0 163 104.5 275t263.5 112q160 0 264.5 -112t104.5 -275q0 -92 -46 -172t-122 -131 q101 -45 159 -137.5t58 -218.5q0 -187 -117.5 -312.5t-300.5 -125.5q-182 0 -299.5 125.5t-117.5 312.5z" />
<glyph unicode="4" horiz-adv-x="1095" d="M123 356v144l491 944h158l-502 -955h344v349l144 133v-482h215v-133h-215v-356h-144v356h-491z" />
<glyph unicode="5" horiz-adv-x="1062" d="M113 418v8h153q0 -129 72.5 -221t191.5 -92q120 0 193.5 99.5t73.5 242.5t-74 245.5t-193 102.5q-110 0 -182 -88h-162v729h652v-133h-508v-443q91 68 200 68q186 0 303 -132.5t117 -346.5t-117 -345.5t-303 -131.5q-182 0 -299.5 125.5t-117.5 312.5z" />
<glyph unicode="6" horiz-adv-x="1083" d="M121 606q0 250 49.5 441t152.5 304t248 113q155 0 255.5 -96.5t134.5 -255.5h-144q-28 96 -92 157.5t-154 61.5q-126 0 -206 -158t-89 -395q96 158 275 158q182 0 301 -139t119 -342q0 -132 -53 -240.5t-149.5 -171.5t-217.5 -63q-194 0 -312 168.5t-118 457.5zM276 475 q0 -92 33.5 -174t97.5 -135t144 -53q120 0 193 100t73 242q0 145 -73 246.5t-193 101.5q-130 0 -202.5 -97.5t-72.5 -230.5z" />
<glyph unicode="7" horiz-adv-x="901" d="M123 0l557 1311h-557v133h717v-144l-557 -1300h-160z" />
<glyph unicode="8" horiz-adv-x="999" d="M82 408q0 125 56 220.5t155 147.5q-73 51 -117.5 130.5t-44.5 170.5q0 163 104.5 275t264.5 112q159 0 263.5 -112t104.5 -275q0 -91 -44.5 -170.5t-118.5 -130.5q100 -52 156.5 -148t56.5 -220q0 -186 -117.5 -307t-300.5 -121t-300.5 121t-117.5 307zM236 416 q0 -127 72.5 -215t191.5 -88t191.5 88t72.5 215q0 118 -75.5 203.5t-188.5 85.5t-188.5 -85.5t-75.5 -203.5zM283 1077q0 -106 62 -172.5t155 -66.5t155 66.5t62 172.5q0 112 -56.5 183t-160.5 71t-160.5 -71t-56.5 -183z" />
<glyph unicode="9" horiz-adv-x="1083" d="M113 989q0 132 53 240.5t149 171.5t217 63q194 0 312.5 -168.5t118.5 -457.5q0 -250 -50 -441t-153 -304t-248 -113q-155 0 -255 96.5t-134 255.5h143q28 -96 92 -157.5t154 -61.5q85 0 150 75t101 199t42 279q-94 -158 -273 -158q-182 0 -300.5 138.5t-118.5 342.5z M266 989q0 -145 73 -246.5t193 -101.5q130 0 202.5 97.5t72.5 230.5q0 92 -33.5 174t-97.5 135t-144 53q-120 0 -193 -100t-73 -242z" />
<glyph unicode=":" horiz-adv-x="364" d="M98 143v164h168v-164h-168zM98 649v164h168v-164h-168z" />
<glyph unicode=";" horiz-adv-x="374" d="M2 -309l150 452h143l-150 -452h-143zM127 649v164h168v-164h-168z" />
<glyph unicode="&#x3c;" horiz-adv-x="921" d="M82 573v148l737 442v-147l-614 -369l614 -371v-147z" />
<glyph unicode="=" horiz-adv-x="897" d="M102 362v123h693v-123h-693zM102 649v123h693v-123h-693z" />
<glyph unicode="&#x3e;" horiz-adv-x="921" d="M82 129v147l614 371l-614 369v147l737 -442v-148z" />
<glyph unicode="?" horiz-adv-x="1007" d="M102 1026v37q0 169 115 285t283 116q169 0 287 -116.5t118 -284.5q0 -124 -90 -240l-201 -252q-43 -54 -43 -141v-123h-147v123q0 126 88 240l201 256q41 52 41 141q0 108 -74 186t-180 78t-180 -78t-74 -186v-41h-144zM418 0v160h160v-160h-160z" />
<glyph unicode="@" horiz-adv-x="1837" d="M102 647q0 166 64.5 317.5t174 261t260.5 174t317 64.5t314 -64.5t253.5 -174.5t167 -260.5t61.5 -317.5q0 -206 -91 -336.5t-255 -130.5q-86 0 -149.5 46t-92.5 120q-86 -151 -247 -151q-109 0 -194 63t-129 162t-44 213t44 213.5t129.5 163t193.5 63.5q138 0 225 -119 v99h133v-602q0 -72 40 -113t91 -41q209 0 209 350q0 144 -49 270.5t-135 218t-209.5 144.5t-265.5 53q-191 0 -346 -90t-241.5 -247t-86.5 -349t86.5 -348.5t241.5 -246t346 -89.5q192 0 333 82l62 -108q-183 -105 -395 -105q-166 0 -317 64.5t-260.5 173.5t-174 260 t-64.5 317zM655 633q0 -129 60.5 -220t163.5 -91t164 91t61 220v12q-3 125 -64 213t-161 88q-103 0 -163.5 -91.5t-60.5 -221.5z" />
<glyph unicode="A" horiz-adv-x="1241" d="M61 0l478 1444h163l478 -1444h-148l-166 510h-493l-164 -510h-148zM418 645h405l-202 625z" />
<glyph unicode="B" horiz-adv-x="1099" d="M133 0v1444h463q155 0 264 -105t109 -258q0 -88 -40 -161.5t-108 -120.5q100 -56 158.5 -151.5t58.5 -215.5q0 -184 -128.5 -308t-313.5 -124h-463zM276 133h320q121 0 205 88.5t84 210.5q0 121 -83.5 207t-205.5 86h-320v-592zM276 860h320q92 0 155.5 64.5t63.5 156.5 q0 93 -64.5 161.5t-154.5 68.5h-320v-451z" />
<glyph unicode="C" horiz-adv-x="1249" d="M82 721q0 112 23 219t70 202t113 166.5t159 113.5t200 42q193 0 326 -124.5t194 -325.5h-159q-23 64 -55 118.5t-76 100.5t-103 72t-127 26q-80 0 -148.5 -37t-116 -98.5t-81 -141t-49.5 -164.5t-16 -169t16 -169t49.5 -164t81 -140t116 -98t148.5 -37q68 0 127 26 t103 72t76 100.5t55 118.5h159q-61 -201 -194 -325.5t-326 -124.5q-107 0 -200 41.5t-159 113t-113 166t-70 201.5t-23 219z" />
<glyph unicode="D" horiz-adv-x="1230" d="M133 0v1444h465q104 0 194.5 -41.5t154.5 -112.5t110.5 -164t69 -196t22.5 -209q0 -132 -38 -259.5t-106.5 -231t-174.5 -167t-232 -63.5h-465zM276 133h302q96 0 177 54t132 139.5t79.5 188t28.5 204.5q0 88 -15.5 172t-49 160.5t-81.5 134t-118 91.5t-153 34h-302 v-1178z" />
<glyph unicode="E" horiz-adv-x="983" d="M133 0v1444h789v-133h-646v-523h431v-135h-431v-520h646v-133h-789z" />
<glyph unicode="F" horiz-adv-x="952" d="M133 0v1444h778v-133h-635v-523h431v-135h-431v-653h-143z" />
<glyph unicode="G" horiz-adv-x="1298" d="M82 721q0 112 23 219t70 202t113 166.5t159 113.5t200 42q193 0 326 -124.5t194 -325.5h-159q-23 64 -55 118.5t-76 100.5t-103 72t-127 26q-80 0 -148.5 -37t-116 -98.5t-81 -141t-49.5 -164.5t-16 -169t16 -169t49.5 -164t81 -140t116 -98t148.5 -37q74 0 139.5 31.5 t114 87t83 125t54.5 149.5h-391v133h559q-10 -126 -51 -242t-109 -210t-171.5 -150.5t-227.5 -56.5q-107 0 -200 41.5t-159 113t-113 166t-70 201.5t-23 219z" />
<glyph unicode="H" horiz-adv-x="1167" d="M133 0v1444h143v-656h615v656h143v-1444h-143v653h-615v-653h-143z" />
<glyph unicode="I" horiz-adv-x="409" d="M133 0v1444h143v-1444h-143z" />
<glyph unicode="J" horiz-adv-x="968" d="M72 414v20h143v-20q0 -129 67.5 -215t186.5 -86t186.5 86t67.5 215v1030h143v-1030q0 -189 -108 -311.5t-289 -122.5q-119 0 -211 62t-139 160t-47 212z" />
<glyph unicode="K" horiz-adv-x="989" d="M133 0v1444h143v-651l529 651h164l-551 -686l551 -758h-185l-460 641l-48 -59v-582h-143z" />
<glyph unicode="L" horiz-adv-x="972" d="M133 0v1444h143v-1311h635v-133h-778z" />
<glyph unicode="M" horiz-adv-x="1413" d="M133 0v1444h215l359 -1190l358 1190h215v-1444h-139v1204l-373 -1204h-123l-373 1204v-1204h-139z" />
<glyph unicode="N" horiz-adv-x="1187" d="M133 0v1444h184l598 -1204v1204h140v-1444h-185l-598 1202v-1202h-139z" />
<glyph unicode="O" horiz-adv-x="1290" d="M82 721q0 112 23 219t70 202t113 166.5t159 113.5t200 42t199.5 -42t158 -113.5t112 -166.5t69 -202t22.5 -219t-22.5 -219t-69 -201.5t-112 -166t-158 -113t-199.5 -41.5t-200 41.5t-159 113t-113 166t-70 201.5t-23 219zM236 721q0 -84 16 -169t49.5 -164t81 -140 t116 -98t148.5 -37t148 37t115 97.5t80.5 140t49 164t15.5 169.5t-15.5 169.5t-49 164.5t-80.5 141t-115 98t-148 37t-148.5 -37t-116 -98.5t-81 -141t-49.5 -164.5t-16 -169z" />
<glyph unicode="P" horiz-adv-x="1089" d="M133 0v1444h465q114 0 213.5 -47t163 -139.5t63.5 -210.5q0 -119 -63.5 -211.5t-163 -139.5t-213.5 -47h-322v-649h-143zM276 782h322q125 0 206 72t81 193t-80.5 192.5t-206.5 71.5h-322v-529z" />
<glyph unicode="Q" horiz-adv-x="1290" d="M82 721q0 112 23 219t70 202t113 166.5t159 113.5t200 42t199.5 -42t158 -113.5t112 -166.5t69 -202t22.5 -219q0 -128 -30.5 -248.5t-87 -221t-146.5 -170.5t-201 -91l148 -443h-148l-143 435q-122 11 -222.5 78t-164 170.5t-97.5 230t-34 260.5zM236 721q0 -84 16 -169 t49.5 -164t81 -140t116 -98t148.5 -37t148 37t115 97.5t80.5 140t49 164t15.5 169.5t-15.5 169.5t-49 164.5t-80.5 141t-115 98t-148 37t-148.5 -37t-116 -98.5t-81 -141t-49.5 -164.5t-16 -169z" />
<glyph unicode="R" horiz-adv-x="1130" d="M133 0v1444h465q114 0 213.5 -47t163 -139.5t63.5 -210.5q0 -149 -96 -253t-240 -135l357 -659h-164l-350 649h-269v-649h-143zM276 782h322q125 0 206 72t81 193t-80.5 192.5t-206.5 71.5h-322v-529z" />
<glyph unicode="S" horiz-adv-x="1161" d="M102 410h154q0 -137 88 -219t242 -82q153 0 241 82t88 219q0 53 -22 93t-76 72t-91.5 48t-120.5 46q-3 1 -5 2t-4.5 2t-5 1.5t-4.5 1.5q-172 63 -224 89q-143 71 -188 178q-27 62 -27 144q0 165 122.5 271t295.5 106q113 0 209 -46.5t154.5 -134t58.5 -196.5h-153 q0 105 -80 176.5t-189 71.5q-121 0 -194.5 -69.5t-73.5 -178.5q0 -30 8.5 -56t20.5 -46t35.5 -39t44 -32t55 -28.5t59 -25t66.5 -24.5q26 -10 75.5 -27t74.5 -26t67 -26t64 -29t54.5 -32.5t50 -39t38.5 -45.5t31 -56t17 -66t7 -79q0 -137 -67 -236.5t-174 -146.5t-238 -47 q-97 0 -183.5 27.5t-154 80t-107 135.5t-39.5 187z" />
<glyph unicode="T" horiz-adv-x="1064" d="M31 1311v133h1003v-133h-430v-1311h-143v1311h-430z" />
<glyph unicode="U" horiz-adv-x="1085" d="M92 430v1014h144v-1014q0 -131 88.5 -224t218.5 -93t218.5 93t88.5 224v1014h143v-1014q0 -196 -131 -323t-319 -127t-319.5 127t-131.5 323z" />
<glyph unicode="V" horiz-adv-x="1241" d="M61 1444h148l412 -1270l411 1270h148l-478 -1444h-163z" />
<glyph unicode="W" horiz-adv-x="2019" d="M127 1444h147l318 -1239l346 1239h143l346 -1239l318 1239h147l-374 -1444h-164l-344 1194l-344 -1194h-164z" />
<glyph unicode="X" horiz-adv-x="1265" d="M61 0l482 797l-402 647h168l330 -533l317 533h168l-401 -668l481 -776h-168l-409 659l-398 -659h-168z" />
<glyph unicode="Y" horiz-adv-x="1097" d="M20 1444h166l361 -664l360 664h166l-450 -799v-645h-150v641z" />
<glyph unicode="Z" horiz-adv-x="1122" d="M82 0v143l782 1168h-702v133h878v-144l-794 -1167h794v-133h-958z" />
<glyph unicode="[" horiz-adv-x="573" d="M123 -246v1823h430v-133h-287v-1557h287v-133h-430z" />
<glyph unicode="\" horiz-adv-x="798" d="M61 1444h144l491 -1444h-143z" />
<glyph unicode="]" horiz-adv-x="573" d="M20 -113h287v1557h-287v133h431v-1823h-431v133z" />
<glyph unicode="^" horiz-adv-x="1239" d="M102 276l443 738h147l445 -738h-158l-361 596l-358 -596h-158z" />
<glyph unicode="_" horiz-adv-x="1024" d="M20 0h984v-143h-984v143z" />
<glyph unicode="`" horiz-adv-x="468" d="M86 1444h127l149 -453h-126z" />
<glyph unicode="a" horiz-adv-x="847" d="M82 248q0 83 47.5 145t120 91.5t156.5 29.5q106 0 188 -49v63q0 104 -43.5 157.5t-140.5 53.5q-69 0 -116.5 -42t-47.5 -103h-129q0 121 85 192.5t218 71.5q139 0 223 -81t84 -218v-344q0 -40 32.5 -93.5t65.5 -87.5l33 -34h-164q-37 29 -55 61q-90 -81 -233 -81 q-84 0 -156.5 30t-120 92.5t-47.5 145.5zM215 248q0 -75 54 -112.5t137 -37.5q131 0 188 66v166q-56 65 -188 65q-83 0 -137 -36.5t-54 -110.5z" />
<glyph unicode="b" horiz-adv-x="905" d="M102 0v1444h134v-713q79 127 225 127q108 0 192.5 -63.5t127 -163t42.5 -213.5t-42.5 -213t-127 -162t-192.5 -63q-148 0 -225 124v-104h-134zM236 406q3 -126 63.5 -213t161.5 -87q103 0 163 91t60 221t-60 221.5t-163 91.5q-101 0 -161.5 -88t-63.5 -213v-24z" />
<glyph unicode="c" d="M82 418q0 114 43 213.5t128 163t193 63.5q124 0 213.5 -79.5t126.5 -205.5h-143q-27 72 -78 115t-119 43q-103 0 -164 -92t-61 -221t61 -220.5t164 -91.5q70 0 121.5 43.5t77.5 116.5h143q-37 -127 -126.5 -206.5t-215.5 -79.5q-108 0 -193 63t-128 162t-43 213z" />
<glyph unicode="d" horiz-adv-x="925" d="M82 418q0 114 42.5 213.5t127 163t192.5 63.5q143 0 226 -125v711h133v-1444h-133v102q-81 -122 -226 -122q-108 0 -192.5 63t-127 162t-42.5 213zM221 418q0 -130 60 -221t163 -91t164.5 91.5t61.5 220.5t-61.5 221t-164.5 92t-163 -91.5t-60 -221.5z" />
<glyph unicode="e" horiz-adv-x="890" d="M82 418q0 114 43 213.5t128 163t193 63.5t192.5 -63.5t127.5 -163t43 -213.5v-19h-590q5 -124 66 -209.5t161 -85.5q70 0 128.5 45.5t87.5 116.5h139q-36 -125 -132 -205.5t-223 -80.5q-108 0 -193 63t-128 162t-43 213zM229 518h433q-21 95 -77.5 155t-138.5 60 q-83 0 -139.5 -59.5t-77.5 -155.5z" />
<glyph unicode="f" horiz-adv-x="645" d="M61 715v123h175v350q0 125 67.5 200.5t188.5 75.5q116 0 186 -70t70 -186v-53h-134v41q0 145 -122 145q-59 0 -91 -39.5t-32 -103.5v-360h184v-123h-184v-715h-133v715h-175z" />
<glyph unicode="g" horiz-adv-x="839" d="M72 -299q0 93 48 165.5t128 115.5q-74 50 -74 135q0 94 84 145q-65 43 -102 115t-37 158q0 108 71 199.5t179 115.5l131 395h127l-131 -393q112 -24 184 -116t72 -201q0 -137 -90.5 -230.5t-227.5 -93.5q-115 0 -115 -84q0 -46 30.5 -72t84.5 -26q150 0 257.5 -92.5 t107.5 -235.5t-107.5 -234.5t-257.5 -91.5t-256 91.5t-106 234.5zM205 -299q0 -89 66.5 -143t162.5 -54t164 54t68 143q0 90 -68.5 147.5t-163.5 57.5t-162 -57.5t-67 -147.5zM248 535q0 -95 52 -150t134 -55q84 0 136.5 55t52.5 150q0 94 -53 149t-136 55 q-81 0 -133.5 -55.5t-52.5 -148.5z" />
<glyph unicode="h" horiz-adv-x="839" d="M102 0v1444h134v-696q76 110 204 110q138 0 217.5 -80.5t79.5 -218.5v-559h-133v528q0 97 -42.5 152t-131.5 55q-87 0 -139.5 -71.5t-54.5 -167.5v-496h-134z" />
<glyph unicode="i" horiz-adv-x="358" d="M102 1087v154h154v-154h-154zM113 0v838h133v-838h-133z" />
<glyph unicode="j" horiz-adv-x="358" d="M-266 -315h133v-41q0 -70 31 -108t92 -38q59 0 91 40t32 104v1196h133v-1186q0 -125 -67.5 -201t-188.5 -76q-116 0 -186 70.5t-70 185.5v54zM102 1087v154h154v-154h-154z" />
<glyph unicode="k" horiz-adv-x="802" d="M102 0v1444h134v-928l339 322h187l-428 -406l459 -432h-199l-358 338v-338h-134z" />
<glyph unicode="l" horiz-adv-x="358" d="M113 0v1444h133v-1444h-133z" />
<glyph unicode="m" horiz-adv-x="1361" d="M123 0v838h133v-90q76 110 205 110q93 0 160.5 -38.5t103.5 -108.5q40 67 101.5 107t136.5 40q138 0 217.5 -80.5t79.5 -218.5v-559h-134v528q0 97 -42.5 152t-131.5 55q-88 0 -141 -74.5t-53 -173.5v-487h-133v528q0 97 -42.5 152t-131.5 55q-87 0 -140 -71.5 t-55 -167.5v-496h-133z" />
<glyph unicode="n" d="M123 0v838h133v-90q76 110 205 110q138 0 217.5 -80.5t79.5 -218.5v-559h-133v528q0 97 -42.5 152t-131.5 55q-87 0 -140 -71.5t-55 -167.5v-496h-133z" />
<glyph unicode="o" horiz-adv-x="890" d="M82 418q0 114 43 213.5t128 163t193 63.5t192.5 -63.5t127.5 -163t43 -213.5t-43 -213t-127.5 -162t-192.5 -63t-193 63t-128 162t-43 213zM221 418q0 -129 61 -220.5t164 -91.5t163.5 91.5t60.5 220.5q0 130 -60.5 221.5t-163.5 91.5t-164 -92t-61 -221z" />
<glyph unicode="p" horiz-adv-x="925" d="M123 -604v1442h133v-107q79 127 225 127q108 0 192.5 -63.5t127.5 -163t43 -213.5t-43 -213t-127.5 -162t-192.5 -63q-148 0 -225 124v-708h-133zM256 406q3 -126 63.5 -213t161.5 -87q103 0 163.5 91.5t60.5 220.5q0 130 -60.5 221.5t-163.5 91.5q-101 0 -161.5 -88 t-63.5 -213v-24z" />
<glyph unicode="q" horiz-adv-x="925" d="M82 418q0 114 42.5 213.5t127 163t192.5 63.5q143 0 226 -125v105h133v-1442h-133v706q-81 -122 -226 -122q-108 0 -192.5 63t-127 162t-42.5 213zM221 418q0 -130 60 -221t163 -91t164.5 91.5t61.5 220.5t-61.5 221t-164.5 92t-163 -91.5t-60 -221.5z" />
<glyph unicode="r" horiz-adv-x="696" d="M123 0v838h133v-76q62 96 174 96q100 0 162.5 -70.5t62.5 -185.5v-33h-133v21q0 69 -29 107t-83 38q-42 0 -73 -18.5t-47.5 -48t-24.5 -61t-9 -64.5v-543h-133z" />
<glyph unicode="s" horiz-adv-x="782" d="M82 260v6h133v-6q0 -73 54.5 -117.5t127.5 -44.5q83 0 134 34t51 106q0 38 -36 63.5t-90.5 38t-117.5 32t-117.5 43.5t-90.5 74.5t-36 122.5q0 118 86.5 182t216.5 64q124 0 209 -73t94 -191h-135q-12 62 -54.5 103.5t-113.5 41.5q-77 0 -121.5 -33t-44.5 -94 q0 -38 36 -63.5t90.5 -38t117.5 -32t117.5 -43.5t90.5 -74.5t36 -122.5q0 -123 -92.5 -190.5t-229.5 -67.5q-133 0 -224 77t-91 203z" />
<glyph unicode="t" horiz-adv-x="757" d="M61 715v123h164v399h133v-399h205v-123h-205v-445q0 -83 22.5 -125.5t80.5 -42.5t80 42.5t22 125.5h133v-32q0 -118 -61 -188t-174 -70t-174.5 70t-61.5 188v477h-164z" />
<glyph unicode="u" d="M102 279v559h134v-529q0 -97 42.5 -152t131.5 -55q87 0 139.5 71.5t54.5 168.5v496h133v-838h-133v90q-76 -110 -205 -110q-138 0 -217.5 80.5t-79.5 218.5z" />
<glyph unicode="v" horiz-adv-x="790" d="M41 838h145l209 -654l209 654h146l-287 -838h-135z" />
<glyph unicode="w" horiz-adv-x="1353" d="M41 838h145l209 -656l213 656h137l213 -656l209 656h146l-287 -838h-135l-215 629l-213 -629h-135z" />
<glyph unicode="x" horiz-adv-x="833" d="M41 0l299 432l-283 406h154l205 -297l205 297h153l-282 -406l301 -432h-152l-225 322l-223 -322h-152z" />
<glyph unicode="y" horiz-adv-x="757" d="M-61 -315h133q0 -87 26 -135t97 -48q122 0 122 203v295l-309 838h150l225 -650l209 650h145l-286 -838v-326q0 -128 -68.5 -213.5t-187.5 -85.5q-121 0 -188.5 76.5t-67.5 202.5v31z" />
<glyph unicode="z" horiz-adv-x="757" d="M82 0v127l465 584h-445v127h615v-127l-475 -584h475v-127h-635z" />
<glyph unicode="{" horiz-adv-x="847" d="M102 590v143h78q93 0 155 67t62 173v217q0 163 104.5 275t264.5 112v-133q-104 0 -160.5 -71t-56.5 -183v-217q0 -97 -49.5 -179.5t-130.5 -131.5q81 -51 130.5 -134t49.5 -178v-217q0 -112 56.5 -183t160.5 -71v-133q-160 0 -264.5 112t-104.5 275v217q0 106 -62 173 t-155 67h-78z" />
<glyph unicode="|" horiz-adv-x="389" d="M123 -143v1607h143v-1607h-143z" />
<glyph unicode="}" horiz-adv-x="847" d="M82 -121q104 0 160.5 71t56.5 183v217q0 95 49.5 178t130.5 134q-81 49 -130.5 131.5t-49.5 179.5v217q0 112 -56.5 183t-160.5 71v133q160 0 264.5 -112t104.5 -275v-217q0 -106 62 -173t155 -67h77v-143h-77q-93 0 -155 -67t-62 -173v-217q0 -163 -104.5 -275 t-264.5 -112v133z" />
<glyph unicode="~" horiz-adv-x="1044" d="M123 395q0 111 78 191t186 80q48 0 87.5 -15t65 -37t48.5 -44t50 -37t58 -15q58 0 99 43t41 103h125q0 -110 -78 -190.5t-187 -80.5q-48 0 -87.5 15t-65 37t-48.5 44t-50 37t-58 15q-58 0 -98.5 -43t-40.5 -103h-125z" />
<glyph unicode="&#xa1;" horiz-adv-x="348" d="M115 680v160h159v-160h-159zM123 532h143v-1136h-143v1136z" />
<glyph unicode="&#xa2;" d="M82 418q0 156 81 280t216 152v192h135v-192q98 -20 169 -95t103 -182h-143q-27 72 -78 115t-119 43q-103 0 -164 -92t-61 -221t61 -220.5t164 -91.5q70 0 121.5 43.5t77.5 116.5h143q-32 -109 -103 -183.5t-171 -94.5v-193h-135v193q-135 27 -216 149.5t-81 280.5z" />
<glyph unicode="&#xa3;" horiz-adv-x="1163" d="M102 649v144h154v237q0 189 108 311.5t289 122.5q90 0 166 -36t126 -96.5t78 -138.5t28 -163v-20h-144v20q0 129 -67.5 215t-186.5 86t-186.5 -86t-67.5 -215v-237h277v-144h-277v-516h539v-133h-682v649h-154z" />
<glyph unicode="&#xa5;" horiz-adv-x="1097" d="M20 1444h166l361 -666l360 666h166l-379 -672h201v-123h-270l-2 -4v-160h272v-123h-272v-362h-150v362h-270v123h270v156l-4 8h-266v123h196z" />
<glyph unicode="&#xa6;" horiz-adv-x="389" d="M123 -143v792h143v-792h-143zM123 793v671h143v-671h-143z" />
<glyph unicode="&#xa7;" horiz-adv-x="1036" d="M123 672q0 111 49 196q-49 85 -49 195q0 168 118 284.5t287 116.5q168 0 283 -116t115 -285v-37h-144v41q0 108 -74 186t-180 78q-107 0 -180.5 -78.5t-73.5 -189.5t73.5 -189.5t180.5 -78.5q169 0 287.5 -117t118.5 -285q0 -106 -49 -196q49 -90 49 -195 q0 -168 -118.5 -284.5t-287.5 -116.5q-168 0 -282.5 116t-114.5 285v37h143v-41q0 -108 74 -186t180 -78q107 0 180.5 78.5t73.5 189.5t-73.5 189.5t-180.5 78.5q-169 0 -287 117t-118 285zM274 672q0 -111 73.5 -190t180.5 -79q138 0 246 -81q8 46 8 71q0 111 -73.5 190 t-180.5 79q-140 0 -245 79q-9 -35 -9 -69z" />
<glyph unicode="&#xa8;" horiz-adv-x="651" d="M98 1094v168h168v-168h-168zM385 1094v168h168v-168h-168z" />
<glyph unicode="&#xa9;" horiz-adv-x="1837" d="M102 647q0 166 65 317.5t174.5 261t260.5 174t316 64.5q111 0 217 -29.5t195.5 -82t165 -128t128 -165t82 -195.5t29.5 -217q0 -221 -109.5 -408.5t-297.5 -297t-410 -109.5q-165 0 -316 64.5t-260.5 174t-174.5 260.5t-65 316zM244 647q0 -191 87 -347.5t242 -246.5 t345 -90t344.5 90t241.5 246.5t87 347.5t-87 348t-241.5 247.5t-344.5 90.5t-345 -90.5t-242 -247.5t-87 -348zM561 647q0 -114 43.5 -213t128.5 -162t193 -63q126 0 215.5 80t126.5 207h-140q-26 -73 -79 -118.5t-123 -45.5q-103 0 -166.5 93t-63.5 222t63.5 223.5 t166.5 94.5q68 0 120 -45t80 -117h140q-37 126 -126.5 205t-213.5 79q-108 0 -193 -63.5t-128.5 -163t-43.5 -213.5z" />
<glyph unicode="&#xaa;" horiz-adv-x="847" d="M82 1024q0 114 42.5 213.5t127 163t192.5 63.5q143 0 226 -125v105h133v-838h-133v103q-81 -123 -226 -123q-108 0 -192.5 63t-127 162t-42.5 213zM221 1024q0 -130 60 -220.5t163 -90.5t164.5 91t61.5 220t-61.5 221t-164.5 92t-163 -91.5t-60 -221.5z" />
<glyph unicode="&#xab;" horiz-adv-x="1024" d="M102 553v147l410 297v-147l-307 -223l307 -221v-148zM512 553v147l410 297v-147l-308 -223l308 -221v-148z" />
<glyph unicode="&#xac;" horiz-adv-x="993" d="M102 516v125h789v-412h-143v287h-646z" />
<glyph unicode="&#xad;" horiz-adv-x="655" d="M41 465v143h573v-143h-573z" />
<glyph unicode="&#xae;" horiz-adv-x="1837" d="M102 647q0 170 63 321.5t171.5 260t260 172t321.5 63.5q227 0 414 -107.5t294 -295t107 -414.5t-107 -414t-294 -294t-414 -107q-170 0 -321.5 63t-260 171t-171.5 259.5t-63 321.5zM244 647q0 -192 87 -348.5t241.5 -246t345.5 -89.5t345.5 89.5t241 246t86.5 348.5 t-86.5 349t-241 247t-345.5 90t-346 -90t-241.5 -247t-86.5 -349zM653 223h123v371h131l211 -371h144l-218 377q94 18 159 84.5t65 157.5q0 107 -78 176t-201 69h-336v-864zM776 711v260h174q178 0 178 -129q0 -131 -178 -131h-174z" />
<glyph unicode="&#xaf;" horiz-adv-x="727" d="M102 1114v125h523v-125h-523z" />
<glyph unicode="&#xb0;" horiz-adv-x="686" d="M102 1223q0 100 70 170.5t170 70.5t171 -70.5t71 -170.5t-71 -170t-171 -70t-170 70t-70 170zM215 1223q0 -55 37 -94t90 -39q54 0 91.5 39.5t37.5 93.5q0 55 -38 95t-91 40t-90 -40t-37 -95z" />
<glyph unicode="&#xb1;" horiz-adv-x="993" d="M102 0v125h789v-125h-789zM102 578v124h328v373h133v-373h328v-124h-328v-373h-133v373h-328z" />
<glyph unicode="&#xb2;" horiz-adv-x="763" d="M82 606v123l377 320q59 51 75.5 86t16.5 84q0 61 -44.5 94t-121.5 33q-71 0 -113.5 -42t-54.5 -104h-135q9 118 94 191t209 73q130 0 216.5 -63.5t86.5 -181.5q0 -140 -141 -258l-279 -232h432v-123h-618z" />
<glyph unicode="&#xb3;" horiz-adv-x="782" d="M82 866v6h133v-6q0 -73 54.5 -117t127.5 -44q83 0 134 33.5t51 105.5q0 56 -41 90.5t-115 34.5h-59v125h59q74 0 113 34.5t39 90.5q0 61 -44.5 94t-121.5 33q-71 0 -113.5 -42t-54.5 -104h-135q9 118 94 191t209 73q130 0 216.5 -63.5t86.5 -181.5q0 -78 -38 -120 t-108 -67q72 -25 111 -67.5t39 -120.5q0 -123 -92.5 -190.5t-229.5 -67.5q-133 0 -224 77t-91 203z" />
<glyph unicode="&#xb4;" horiz-adv-x="468" d="M106 991l150 453h127l-150 -453h-127z" />
<glyph unicode="&#xb6;" horiz-adv-x="1130" d="M61 1047q0 118 64 210.5t163.5 139.5t213.5 47h608v-133h-147v-1311h-136v649h-151v-649h-135v649h-39q-114 0 -213.5 47t-163.5 140t-64 211zM215 1047q0 -121 81 -193t206 -72h39v529h-39q-126 0 -206.5 -71.5t-80.5 -192.5zM676 782h151v529h-151v-529z" />
<glyph unicode="&#xb7;" horiz-adv-x="364" d="M98 635v164h168v-164h-168z" />
<glyph unicode="&#xb8;" horiz-adv-x="460" d="M92 -389l150 452h127l-150 -452h-127z" />
<glyph unicode="&#xb9;" horiz-adv-x="749" d="M143 1044v123h21q103 0 181 80t83 185v12h137v-838h-137v572q-93 -134 -268 -134h-17z" />
<glyph unicode="&#xba;" horiz-adv-x="890" d="M82 319v134h727v-134h-727zM82 1024q0 114 43 213.5t128 163t193 63.5t192.5 -63.5t127.5 -163t43 -213.5t-43 -213t-127.5 -162t-192.5 -63t-193 63t-128 162t-43 213zM221 1024q0 -129 61 -220t164 -91t163.5 91t60.5 220q0 130 -60.5 221.5t-163.5 91.5t-164 -92 t-61 -221z" />
<glyph unicode="&#xbb;" horiz-adv-x="1024" d="M102 258v148l308 221l-308 223v147l410 -297v-147zM512 258v148l307 221l-307 223v147l410 -297v-147z" />
<glyph unicode="&#xbc;" horiz-adv-x="1679" d="M143 1044v123h21q103 0 181 80t83 185v12h137v-838h-137v572q-93 -134 -268 -134h-17zM389 0l811 1444h141l-811 -1444h-141zM899 186v133l369 519h143v-539h174v-113h-174v-186h-123v186h-389zM1024 299h264v371z" />
<glyph unicode="&#xbd;" horiz-adv-x="1679" d="M115 1044v123h20q103 0 181 80t83 185v12h138v-838h-138v572q-93 -134 -268 -134h-16zM307 0l811 1444h142l-811 -1444h-142zM958 0v123l377 319q59 51 75.5 86t16.5 84q0 61 -44 94t-121 33q-71 0 -113.5 -41.5t-54.5 -103.5h-136q9 118 94.5 191t209.5 73 q130 0 216.5 -64t86.5 -182q0 -139 -142 -258l-278 -231h432v-123h-619z" />
<glyph unicode="&#xbe;" horiz-adv-x="1679" d="M82 866v6h133v-6q0 -73 54.5 -117t127.5 -44q83 0 134 33.5t51 105.5q0 56 -41 90.5t-115 34.5h-59v125h59q74 0 113 34.5t39 90.5q0 61 -44.5 94t-121.5 33q-71 0 -113.5 -42t-54.5 -104h-135q9 118 94 191t209 73q130 0 216.5 -63.5t86.5 -181.5q0 -78 -38 -120 t-108 -67q72 -25 111 -67.5t39 -120.5q0 -123 -92.5 -190.5t-229.5 -67.5q-133 0 -224 77t-91 203zM440 0l811 1444h142l-811 -1444h-142zM924 186v133l368 519h144v-539h174v-113h-174v-186h-123v186h-389zM1049 299h264v371z" />
<glyph unicode="&#xbf;" horiz-adv-x="1007" d="M102 -223q0 121 91 239l200 252q43 54 43 142v122h148v-122q0 -126 -88 -240l-201 -256q-41 -52 -41 -141q0 -108 74 -186.5t180 -78.5t180 78.5t74 186.5v41h143v-37q0 -169 -114.5 -285.5t-282.5 -116.5q-169 0 -287.5 117t-118.5 285zM430 680v160h160v-160h-160z" />
<glyph unicode="&#xc0;" horiz-adv-x="1241" d="M61 0h148l164 510h493l166 -510h148l-478 1444h-163zM418 645l203 625l202 -625h-405zM461 1772h125l88 -256h-125z" />
<glyph unicode="&#xc1;" horiz-adv-x="1241" d="M61 0l478 1444h163l478 -1444h-148l-166 510h-493l-164 -510h-148zM418 645h405l-202 625zM557 1516l88 256h125l-88 -256h-125z" />
<glyph unicode="&#xc2;" horiz-adv-x="1241" d="M61 0l478 1444h163l478 -1444h-148l-166 510h-493l-164 -510h-148zM385 1516l178 256h115l178 -256h-137l-101 157l-98 -157h-135zM418 645h405l-202 625z" />
<glyph unicode="&#xc3;" horiz-adv-x="1241" d="M61 0h148l164 510h493l166 -510h148l-478 1444h-163zM338 1626q79 94 172 94q48 0 117.5 -35.5t99.5 -35.5q57 0 94 53l80 -78q-79 -94 -174 -94q-48 0 -117.5 36t-97.5 36q-56 0 -94 -54zM418 645l203 625l202 -625h-405z" />
<glyph unicode="&#xc4;" horiz-adv-x="1241" d="M61 0l478 1444h163l478 -1444h-148l-166 510h-493l-164 -510h-148zM397 1556v160h160v-160h-160zM418 645h405l-202 625zM684 1556v160h160v-160h-160z" />
<glyph unicode="&#xc5;" horiz-adv-x="1241" d="M61 0l451 1366q-92 59 -92 170q0 84 58.5 142.5t142.5 58.5q83 0 141.5 -59t58.5 -142q0 -54 -25 -98.5t-69 -71.5l453 -1366h-148l-166 510h-493l-164 -510h-148zM418 645h405l-202 625zM518 1536q0 -62 51 -92h101q53 31 53 92q0 42 -30.5 74t-71.5 32q-42 0 -72.5 -32 t-30.5 -74z" />
<glyph unicode="&#xc6;" horiz-adv-x="1708" d="M0 0l838 1444h788v-133h-645v-523h430v-135h-430v-520h645v-133h-788v510h-383l-295 -510h-160zM535 645h303v522z" />
<glyph unicode="&#xc7;" horiz-adv-x="1249" d="M82 721q0 112 23 219t70 202t113 166.5t159 113.5t200 42q193 0 326 -124.5t194 -325.5h-159q-23 64 -55 118.5t-76 100.5t-103 72t-127 26q-80 0 -148.5 -37t-116 -98.5t-81 -141t-49.5 -164.5t-16 -169t16 -169t49.5 -164t81 -140t116 -98t148.5 -37q68 0 127 26 t103 72t76 100.5t55 118.5h159q-54 -180 -166 -299.5t-274 -144.5l-125 -377h-127l123 375q-99 9 -183.5 54.5t-144.5 117t-103 163t-64 193.5t-21 209z" />
<glyph unicode="&#xc8;" horiz-adv-x="983" d="M133 0h789v133h-646v520h431v135h-431v523h646v133h-789v-1444zM387 1772h125l88 -256h-125z" />
<glyph unicode="&#xc9;" horiz-adv-x="983" d="M133 0v1444h789v-133h-646v-523h431v-135h-431v-520h646v-133h-789zM430 1516l88 256h125l-88 -256h-125z" />
<glyph unicode="&#xca;" horiz-adv-x="983" d="M133 0v1444h789v-133h-646v-523h431v-135h-431v-520h646v-133h-789zM270 1516l179 256h114l178 -256h-137l-100 157l-98 -157h-136z" />
<glyph unicode="&#xcb;" horiz-adv-x="983" d="M133 0v1444h789v-133h-646v-523h431v-135h-431v-520h646v-133h-789zM303 1556v160h160v-160h-160zM590 1556v160h160v-160h-160z" />
<glyph unicode="&#xcc;" horiz-adv-x="409" d="M84 1772h125l88 -256h-125zM133 0h143v1444h-143v-1444z" />
<glyph unicode="&#xcd;" horiz-adv-x="409" d="M113 1516l88 256h125l-88 -256h-125zM133 0v1444h143v-1444h-143z" />
<glyph unicode="&#xce;" horiz-adv-x="409" d="M-31 1516l178 256h115l178 -256h-137l-100 157l-99 -157h-135zM133 0v1444h143v-1444h-143z" />
<glyph unicode="&#xcf;" horiz-adv-x="409" d="M-18 1556v160h159v-160h-159zM133 0v1444h143v-1444h-143zM268 1556v160h160v-160h-160z" />
<glyph unicode="&#xd0;" horiz-adv-x="1302" d="M41 653v135h164v656h465q104 0 194.5 -41.5t154.5 -112.5t110.5 -164t69 -196t22.5 -209q0 -132 -38 -259.5t-106.5 -231t-174.5 -167t-232 -63.5h-465v653h-164zM348 133h301q96 0 177 54t132.5 139.5t80 188t28.5 204.5q0 88 -15.5 172t-49 160.5t-82 134t-118.5 91.5 t-153 34h-301v-523h225v-135h-225v-520z" />
<glyph unicode="&#xd1;" horiz-adv-x="1187" d="M133 0h139v1202l598 -1202h185v1444h-140v-1204l-598 1204h-184v-1444zM311 1626q79 94 172 94q48 0 117.5 -35.5t99.5 -35.5q58 0 95 53l79 -78q-79 -94 -174 -94q-48 0 -117.5 36t-97.5 36q-56 0 -94 -54z" />
<glyph unicode="&#xd2;" horiz-adv-x="1290" d="M82 721q0 -112 23 -219t70 -201.5t113 -166t159 -113t200 -41.5t199.5 41.5t158 113t112 166t69 201.5t22.5 219t-22.5 219t-69 202t-112 166.5t-158 113.5t-199.5 42t-200 -42t-159 -113.5t-113 -166.5t-70 -202t-23 -219zM236 721q0 84 16 169t49.5 164.5t81 141 t116 98.5t148.5 37t148 -37t115 -98t80.5 -141t49 -164.5t15.5 -169.5t-15.5 -169.5t-49 -164t-80.5 -140t-115 -97.5t-148 -37t-148.5 37t-116 98t-81 140t-49.5 164t-16 169zM500 1772h125l88 -256h-125z" />
<glyph unicode="&#xd3;" horiz-adv-x="1290" d="M82 721q0 112 23 219t70 202t113 166.5t159 113.5t200 42t199.5 -42t158 -113.5t112 -166.5t69 -202t22.5 -219t-22.5 -219t-69 -201.5t-112 -166t-158 -113t-199.5 -41.5t-200 41.5t-159 113t-113 166t-70 201.5t-23 219zM236 721q0 -84 16 -169t49.5 -164t81 -140 t116 -98t148.5 -37t148 37t115 97.5t80.5 140t49 164t15.5 169.5t-15.5 169.5t-49 164.5t-80.5 141t-115 98t-148 37t-148.5 -37t-116 -98.5t-81 -141t-49.5 -164.5t-16 -169zM569 1516l88 256h125l-88 -256h-125z" />
<glyph unicode="&#xd4;" horiz-adv-x="1290" d="M82 721q0 112 23 219t70 202t113 166.5t159 113.5t200 42t199.5 -42t158 -113.5t112 -166.5t69 -202t22.5 -219t-22.5 -219t-69 -201.5t-112 -166t-158 -113t-199.5 -41.5t-200 41.5t-159 113t-113 166t-70 201.5t-23 219zM236 721q0 -84 16 -169t49.5 -164t81 -140 t116 -98t148.5 -37t148 37t115 97.5t80.5 140t49 164t15.5 169.5t-15.5 169.5t-49 164.5t-80.5 141t-115 98t-148 37t-148.5 -37t-116 -98.5t-81 -141t-49.5 -164.5t-16 -169zM410 1516l178 256h114l179 -256h-138l-100 157l-98 -157h-135z" />
<glyph unicode="&#xd5;" horiz-adv-x="1290" d="M82 721q0 -112 23 -219t70 -201.5t113 -166t159 -113t200 -41.5t199.5 41.5t158 113t112 166t69 201.5t22.5 219t-22.5 219t-69 202t-112 166.5t-158 113.5t-199.5 42t-200 -42t-159 -113.5t-113 -166.5t-70 -202t-23 -219zM236 721q0 84 16 169t49.5 164.5t81 141 t116 98.5t148.5 37t148 -37t115 -98t80.5 -141t49 -164.5t15.5 -169.5t-15.5 -169.5t-49 -164t-80.5 -140t-115 -97.5t-148 -37t-148.5 37t-116 98t-81 140t-49.5 164t-16 169zM362 1626q79 94 173 94q48 0 117.5 -35.5t99.5 -35.5q57 0 94 53l80 -78q-79 -94 -174 -94 q-48 0 -117.5 36t-97.5 36q-57 0 -95 -54z" />
<glyph unicode="&#xd6;" horiz-adv-x="1290" d="M82 721q0 112 23 219t70 202t113 166.5t159 113.5t200 42t199.5 -42t158 -113.5t112 -166.5t69 -202t22.5 -219t-22.5 -219t-69 -201.5t-112 -166t-158 -113t-199.5 -41.5t-200 41.5t-159 113t-113 166t-70 201.5t-23 219zM236 721q0 -84 16 -169t49.5 -164t81 -140 t116 -98t148.5 -37t148 37t115 97.5t80.5 140t49 164t15.5 169.5t-15.5 169.5t-49 164.5t-80.5 141t-115 98t-148 37t-148.5 -37t-116 -98.5t-81 -141t-49.5 -164.5t-16 -169zM428 1556v160h160v-160h-160zM715 1556v160h159v-160h-159z" />
<glyph unicode="&#xd7;" horiz-adv-x="915" d="M102 317l260 261l-260 262l95 94l260 -262l262 262l94 -94l-262 -262l262 -261l-94 -94l-262 260l-260 -260z" />
<glyph unicode="&#xd8;" horiz-adv-x="1290" d="M82 0l141 213q-69 102 -105 234.5t-36 273.5q0 112 23 219t70 202t113 166.5t159 113.5t200 42q186 0 326 -127l71 107h164l-143 -213q70 -104 106.5 -237t36.5 -273q0 -112 -22.5 -219t-69 -201.5t-112 -166t-158 -113t-199.5 -41.5q-191 0 -330 126l-71 -106h-164z M236 721q0 -204 79 -369l578 865q-103 114 -246 114q-80 0 -148.5 -37t-116 -98.5t-81 -141t-49.5 -164.5t-16 -169zM397 229q101 -116 250 -116q80 0 148 37t115 97.5t80.5 140t49 164t15.5 169.5q0 206 -82 371z" />
<glyph unicode="&#xd9;" horiz-adv-x="1085" d="M92 430q0 -196 131.5 -323t319.5 -127t319 127t131 323v1014h-143v-1014q0 -131 -88.5 -224t-218.5 -93t-218.5 93t-88.5 224v1014h-144v-1014zM365 1772h124l89 -256h-125z" />
<glyph unicode="&#xda;" horiz-adv-x="1085" d="M92 430v1014h144v-1014q0 -131 88.5 -224t218.5 -93t218.5 93t88.5 224v1014h143v-1014q0 -196 -131 -323t-319 -127t-319.5 127t-131.5 323zM467 1516l88 256h125l-88 -256h-125z" />
<glyph unicode="&#xdb;" horiz-adv-x="1085" d="M92 430v1014h144v-1014q0 -131 88.5 -224t218.5 -93t218.5 93t88.5 224v1014h143v-1014q0 -196 -131 -323t-319 -127t-319.5 127t-131.5 323zM307 1516l178 256h115l178 -256h-137l-100 157l-99 -157h-135z" />
<glyph unicode="&#xdc;" horiz-adv-x="1085" d="M92 430v1014h144v-1014q0 -131 88.5 -224t218.5 -93t218.5 93t88.5 224v1014h143v-1014q0 -196 -131 -323t-319 -127t-319.5 127t-131.5 323zM322 1556v160h159v-160h-159zM608 1556v160h160v-160h-160z" />
<glyph unicode="&#xdd;" horiz-adv-x="1097" d="M20 1444h166l361 -664l360 664h166l-450 -799v-645h-150v641zM469 1516l88 256h125l-88 -256h-125z" />
<glyph unicode="&#xde;" horiz-adv-x="1120" d="M133 0v1444h143v-314h322q114 0 213.5 -47t163 -139.5t63.5 -210.5t-63.5 -210.5t-163 -139.5t-213.5 -47h-322v-336h-143zM276 469h322q126 0 206.5 71.5t80.5 192.5t-80.5 192.5t-206.5 71.5h-322v-528z" />
<glyph unicode="&#xdf;" horiz-adv-x="870" d="M102 0v1100q0 95 34 176t107 134.5t171 53.5q152 0 243 -95.5t91 -250.5q0 -211 -173 -276q98 -53 155.5 -164.5t57.5 -239.5q0 -115 -43 -218.5t-128 -171.5t-193 -68v126q68 0 121 49.5t78.5 124t25.5 158.5q0 85 -26.5 159.5t-84 124.5t-135.5 50h-34v127h41 q81 0 140.5 60t59.5 159q0 103 -49.5 161t-146.5 58q-89 0 -133.5 -64t-44.5 -169v-1104h-134z" />
<glyph unicode="&#xe0;" horiz-adv-x="847" d="M82 248q0 -83 47.5 -145.5t120 -92.5t156.5 -30q143 0 233 81q18 -32 55 -61h164l-14 14t-31.5 35.5t-40 51.5t-31.5 57t-14 57v344q0 137 -84 218t-223 81q-133 0 -218 -71.5t-85 -192.5h129q0 61 47.5 103t116.5 42q97 0 140.5 -53.5t43.5 -157.5v-63q-82 49 -188 49 q-84 0 -156.5 -29.5t-120 -91.5t-47.5 -145zM215 248q0 74 54 110.5t137 36.5q132 0 188 -65v-166q-57 -66 -188 -66q-83 0 -137 37.5t-54 112.5zM240 1444h127l149 -453h-127z" />
<glyph unicode="&#xe1;" horiz-adv-x="847" d="M82 248q0 83 47.5 145t120 91.5t156.5 29.5q106 0 188 -49v63q0 104 -43.5 157.5t-140.5 53.5q-69 0 -116.5 -42t-47.5 -103h-129q0 121 85 192.5t218 71.5q139 0 223 -81t84 -218v-344q0 -40 32.5 -93.5t65.5 -87.5l33 -34h-164q-37 29 -55 61q-90 -81 -233 -81 q-84 0 -156.5 30t-120 92.5t-47.5 145.5zM215 248q0 -75 54 -112.5t137 -37.5q131 0 188 66v166q-56 65 -188 65q-83 0 -137 -36.5t-54 -110.5zM377 991l149 453h127l-149 -453h-127z" />
<glyph unicode="&#xe2;" horiz-adv-x="847" d="M82 248q0 83 47.5 145t120 91.5t156.5 29.5q106 0 188 -49v63q0 104 -43.5 157.5t-140.5 53.5q-69 0 -116.5 -42t-47.5 -103h-129q0 121 85 192.5t218 71.5q139 0 223 -81t84 -218v-344q0 -40 32.5 -93.5t65.5 -87.5l33 -34h-164q-37 29 -55 61q-90 -81 -233 -81 q-84 0 -156.5 30t-120 92.5t-47.5 145.5zM195 991l157 453h115l158 -453h-119l-98 297l-97 -297h-116zM215 248q0 -75 54 -112.5t137 -37.5q131 0 188 66v166q-56 65 -188 65q-83 0 -137 -36.5t-54 -110.5z" />
<glyph unicode="&#xe3;" horiz-adv-x="847" d="M82 248q0 -83 47.5 -145.5t120 -92.5t156.5 -30q143 0 233 81q18 -32 55 -61h164l-14 14t-31.5 35.5t-40 51.5t-31.5 57t-14 57v344q0 137 -84 218t-223 81q-133 0 -218 -71.5t-85 -192.5h129q0 61 47.5 103t116.5 42q97 0 140.5 -53.5t43.5 -157.5v-63q-82 49 -188 49 q-84 0 -156.5 -29.5t-120 -91.5t-47.5 -145zM145 1196q79 94 172 94q48 0 118 -35.5t100 -35.5q57 0 94 53l80 -98q-80 -95 -174 -95q-48 0 -118 36t-98 36q-57 0 -94 -53zM215 248q0 74 54 110.5t137 36.5q132 0 188 -65v-166q-57 -66 -188 -66q-83 0 -137 37.5t-54 112.5z " />
<glyph unicode="&#xe4;" horiz-adv-x="847" d="M82 248q0 83 47.5 145t120 91.5t156.5 29.5q106 0 188 -49v63q0 104 -43.5 157.5t-140.5 53.5q-69 0 -116.5 -42t-47.5 -103h-129q0 121 85 192.5t218 71.5q139 0 223 -81t84 -218v-344q0 -40 32.5 -93.5t65.5 -87.5l33 -34h-164q-37 29 -55 61q-90 -81 -233 -81 q-84 0 -156.5 30t-120 92.5t-47.5 145.5zM160 1094v168h168v-168h-168zM215 248q0 -75 54 -112.5t137 -37.5q131 0 188 66v166q-56 65 -188 65q-83 0 -137 -36.5t-54 -110.5zM446 1094v168h168v-168h-168z" />
<glyph unicode="&#xe5;" horiz-adv-x="847" d="M82 248q0 -83 47.5 -145.5t120 -92.5t156.5 -30q143 0 233 81q18 -32 55 -61h164l-14 14t-31.5 35.5t-40 51.5t-31.5 57t-14 57v344q0 137 -84 218t-223 81q-133 0 -218 -71.5t-85 -192.5h129q0 61 47.5 103t116.5 42q97 0 140.5 -53.5t43.5 -157.5v-63q-82 49 -188 49 q-84 0 -156.5 -29.5t-120 -91.5t-47.5 -145zM205 1223q0 91 62 154t153 63t154 -63t63 -154t-63 -153t-154 -62t-153 62t-62 153zM215 248q0 74 54 110.5t137 36.5q132 0 188 -65v-166q-57 -66 -188 -66q-83 0 -137 37.5t-54 112.5zM311 1223q0 -46 32 -80.5t77 -34.5 t77.5 34.5t32.5 80.5t-32.5 81t-77.5 35t-77 -35t-32 -81z" />
<glyph unicode="&#xe6;" horiz-adv-x="1423" d="M82 248q0 83 47.5 145t120 91.5t156.5 29.5q106 0 188 -49v63q0 104 -43.5 157.5t-140.5 53.5q-69 0 -116.5 -42t-47.5 -103h-129q0 121 85 192.5t218 71.5q92 0 161 -36.5t107 -104.5q103 141 270 141q108 0 192.5 -63.5t127.5 -163t43 -213.5v-19h-590 q5 -124 66 -209.5t161 -85.5q70 0 128.5 45.5t87.5 116.5h139q-36 -125 -132 -205.5t-223 -80.5q-157 0 -256 120q-47 -57 -126 -88.5t-170 -31.5q-84 0 -156.5 30t-120 92.5t-47.5 145.5zM215 248q0 -75 53.5 -109.5t137.5 -34.5q206 0 206 144q0 75 -56 111t-150 36 q-83 0 -137 -36.5t-54 -110.5zM741 518h433q-21 95 -77.5 155t-138.5 60q-83 0 -139.5 -59.5t-77.5 -155.5z" />
<glyph unicode="&#xe7;" d="M82 418q0 114 43 213.5t128 163t193 63.5q124 0 213.5 -79.5t126.5 -205.5h-143q-27 72 -78 115t-119 43q-103 0 -164 -92t-61 -221t61 -220.5t164 -91.5q70 0 121.5 43.5t77.5 116.5h143q-33 -113 -107.5 -188t-180.5 -92l-123 -377h-127l125 379q-88 19 -156 83.5 t-102.5 155t-34.5 191.5z" />
<glyph unicode="&#xe8;" horiz-adv-x="890" d="M82 418q0 -114 43 -213t128 -162t193 -63q127 0 223 80.5t132 205.5h-139q-29 -71 -87.5 -116.5t-128.5 -45.5q-100 0 -161 85.5t-66 209.5h590v19q0 114 -43 213.5t-127.5 163t-192.5 63.5t-193 -63.5t-128 -163t-43 -213.5zM229 518q21 96 77.5 155.5t139.5 59.5 q82 0 138.5 -60t77.5 -155h-433zM229 1444h127l150 -453h-127z" />
<glyph unicode="&#xe9;" horiz-adv-x="890" d="M82 418q0 114 43 213.5t128 163t193 63.5t192.5 -63.5t127.5 -163t43 -213.5v-19h-590q5 -124 66 -209.5t161 -85.5q70 0 128.5 45.5t87.5 116.5h139q-36 -125 -132 -205.5t-223 -80.5q-108 0 -193 63t-128 162t-43 213zM229 518h433q-21 95 -77.5 155t-138.5 60 q-83 0 -139.5 -59.5t-77.5 -155.5zM379 991l149 453h127l-149 -453h-127z" />
<glyph unicode="&#xea;" horiz-adv-x="890" d="M82 418q0 114 43 213.5t128 163t193 63.5t192.5 -63.5t127.5 -163t43 -213.5v-19h-590q5 -124 66 -209.5t161 -85.5q70 0 128.5 45.5t87.5 116.5h139q-36 -125 -132 -205.5t-223 -80.5q-108 0 -193 63t-128 162t-43 213zM229 518h433q-21 95 -77.5 155t-138.5 60 q-83 0 -139.5 -59.5t-77.5 -155.5zM229 991l158 453h115l157 -453h-118l-99 297l-96 -297h-117z" />
<glyph unicode="&#xeb;" horiz-adv-x="890" d="M82 418q0 114 43 213.5t128 163t193 63.5t192.5 -63.5t127.5 -163t43 -213.5v-19h-590q5 -124 66 -209.5t161 -85.5q70 0 128.5 45.5t87.5 116.5h139q-36 -125 -132 -205.5t-223 -80.5q-108 0 -193 63t-128 162t-43 213zM221 1094v168h168v-168h-168zM229 518h433 q-21 95 -77.5 155t-138.5 60q-83 0 -139.5 -59.5t-77.5 -155.5zM508 1094v168h168v-168h-168z" />
<glyph unicode="&#xec;" horiz-adv-x="358" d="M41 1444h127l149 -453h-127zM113 0h133v838h-133v-838z" />
<glyph unicode="&#xed;" horiz-adv-x="358" d="M41 991l149 453h127l-149 -453h-127zM113 0v838h133v-838h-133z" />
<glyph unicode="&#xee;" horiz-adv-x="358" d="M-39 991l158 453h114l158 -453h-119l-98 297l-96 -297h-117zM113 0v838h133v-838h-133z" />
<glyph unicode="&#xef;" horiz-adv-x="358" d="M-47 1094v168h168v-168h-168zM113 0v838h133v-838h-133zM240 1094v168h168v-168h-168z" />
<glyph unicode="&#xf0;" horiz-adv-x="890" d="M82 418q0 114 43 213.5t128 163t193 63.5q124 0 218 -84q-19 207 -121 359l-256 -121v125l182 86q-111 108 -248 108v133q212 0 365 -186l223 106v-124l-156 -74q74 -123 115 -283.5t41 -337.5v-131v-16q0 -114 -43 -213t-127.5 -162t-192.5 -63t-193 63t-128 162 t-43 213zM221 418q0 -129 61 -220.5t164 -91.5q101 0 161 88t63 216v20q-3 125 -63.5 213t-160.5 88q-103 0 -164 -92t-61 -221z" />
<glyph unicode="&#xf1;" d="M123 0h133v487q0 98 53.5 173t141.5 75q89 0 131.5 -55t42.5 -152v-528h133v559q0 138 -79.5 218.5t-217.5 80.5q-129 0 -205 -110v90h-133v-838zM147 1196q79 94 172 94q48 0 118 -35.5t100 -35.5q57 0 94 53l80 -98q-80 -95 -174 -95q-48 0 -117.5 36t-97.5 36 q-58 0 -95 -53z" />
<glyph unicode="&#xf2;" horiz-adv-x="890" d="M82 418q0 114 43 213.5t128 163t193 63.5t192.5 -63.5t127.5 -163t43 -213.5t-43 -213t-127.5 -162t-192.5 -63t-193 63t-128 162t-43 213zM221 418q0 -129 61 -220.5t164 -91.5t163.5 91.5t60.5 220.5q0 130 -60.5 221.5t-163.5 91.5t-164 -92t-61 -221zM246 1444h127 l149 -453h-127z" />
<glyph unicode="&#xf3;" horiz-adv-x="890" d="M82 418q0 114 43 213.5t128 163t193 63.5t192.5 -63.5t127.5 -163t43 -213.5t-43 -213t-127.5 -162t-192.5 -63t-193 63t-128 162t-43 213zM221 418q0 -129 61 -220.5t164 -91.5t163.5 91.5t60.5 220.5q0 130 -60.5 221.5t-163.5 91.5t-164 -92t-61 -221zM369 991 l149 453h127l-149 -453h-127z" />
<glyph unicode="&#xf4;" horiz-adv-x="890" d="M82 418q0 114 43 213.5t128 163t193 63.5t192.5 -63.5t127.5 -163t43 -213.5t-43 -213t-127.5 -162t-192.5 -63t-193 63t-128 162t-43 213zM221 418q0 -129 61 -220.5t164 -91.5t163.5 91.5t60.5 220.5q0 130 -60.5 221.5t-163.5 91.5t-164 -92t-61 -221zM233 991 l158 453h115l158 -453h-119l-99 297l-96 -297h-117z" />
<glyph unicode="&#xf5;" horiz-adv-x="890" d="M82 418q0 114 43 213.5t128 163t193 63.5t192.5 -63.5t127.5 -163t43 -213.5t-43 -213t-127.5 -162t-192.5 -63t-193 63t-128 162t-43 213zM164 1196q79 94 172 94q48 0 117.5 -35.5t99.5 -35.5q57 0 94 53l80 -98q-80 -95 -174 -95q-48 0 -117.5 36t-97.5 36 q-57 0 -94 -53zM221 418q0 -129 61 -220.5t164 -91.5t163.5 91.5t60.5 220.5q0 130 -60.5 221.5t-163.5 91.5t-164 -92t-61 -221z" />
<glyph unicode="&#xf6;" horiz-adv-x="890" d="M82 418q0 114 43 213.5t128 163t193 63.5t192.5 -63.5t127.5 -163t43 -213.5t-43 -213t-127.5 -162t-192.5 -63t-193 63t-128 162t-43 213zM217 1094v168h168v-168h-168zM221 418q0 -129 61 -220.5t164 -91.5t163.5 91.5t60.5 220.5q0 130 -60.5 221.5t-163.5 91.5 t-164 -92t-61 -221zM504 1094v168h168v-168h-168z" />
<glyph unicode="&#xf7;" horiz-adv-x="993" d="M102 516v125h789v-125h-789zM412 143v164h168v-164h-168zM412 854v164h168v-164h-168z" />
<glyph unicode="&#xf8;" horiz-adv-x="890" d="M72 -129l125 223q-55 61 -85 146t-30 178q0 114 43 213.5t128 163t193 63.5q88 0 156 -41l84 150h133l-125 -224q115 -131 115 -325q0 -114 -43 -213t-127.5 -162t-192.5 -63q-89 0 -157 38l-84 -147h-133zM221 418q0 -115 45 -197l273 486q-46 24 -93 24 q-103 0 -164 -92t-61 -221zM350 131q45 -25 96 -25q103 0 163.5 91.5t60.5 220.5q0 115 -47 198z" />
<glyph unicode="&#xf9;" d="M102 279q0 -138 79.5 -218.5t217.5 -80.5q129 0 205 110v-90h133v838h-133v-496q-2 -97 -54.5 -168.5t-139.5 -71.5q-89 0 -131.5 55t-42.5 152v529h-134v-559zM225 1444h127l150 -453h-127z" />
<glyph unicode="&#xfa;" d="M102 279v559h134v-529q0 -97 42.5 -152t131.5 -55q85 0 138 71.5t56 166.5v498h133v-838h-133v88q-75 -108 -205 -108q-138 0 -217.5 80.5t-79.5 218.5zM332 991l149 453h127l-149 -453h-127z" />
<glyph unicode="&#xfb;" d="M102 279v559h134v-529q0 -97 42.5 -152t131.5 -55q85 0 138 71.5t56 166.5v498h133v-838h-133v88q-75 -108 -205 -108q-138 0 -217.5 80.5t-79.5 218.5zM205 991l157 453h115l158 -453h-119l-98 297l-96 -297h-117z" />
<glyph unicode="&#xfc;" d="M102 279v559h134v-529q0 -97 42.5 -152t131.5 -55q85 0 138 71.5t56 166.5v498h133v-838h-133v88q-75 -108 -205 -108q-138 0 -217.5 80.5t-79.5 218.5zM203 1094v168h168v-168h-168zM489 1094v168h168v-168h-168z" />
<glyph unicode="&#xfd;" horiz-adv-x="757" d="M-61 -315h133q0 -87 26 -135t97 -48q122 0 122 203v295l-309 838h150l225 -650l209 650h145l-286 -838v-326q0 -128 -68.5 -213.5t-187.5 -85.5q-121 0 -188.5 76.5t-67.5 202.5v31zM313 991l150 453h127l-150 -453h-127z" />
<glyph unicode="&#xfe;" horiz-adv-x="915" d="M113 -604v2048h133v-713q79 127 225 127q108 0 192.5 -63.5t127.5 -163t43 -213.5t-43 -213t-127.5 -162t-192.5 -63q-148 0 -225 124v-708h-133zM246 406q3 -126 63.5 -213t161.5 -87q103 0 163 91t60 221t-60 221.5t-163 91.5q-101 0 -161.5 -88t-63.5 -213v-24z" />
<glyph unicode="&#xff;" horiz-adv-x="757" d="M-61 -315h133q0 -87 26 -135t97 -48q122 0 122 203v295l-309 838h150l225 -650l209 650h145l-286 -838v-326q0 -128 -68.5 -213.5t-187.5 -85.5q-121 0 -188.5 76.5t-67.5 202.5v31zM152 1094v168h167v-168h-167zM438 1094v168h168v-168h-168z" />
<glyph unicode="&#x100;" horiz-adv-x="1241" d="M61 0l478 1444h163l478 -1444h-148l-166 510h-493l-164 -510h-148zM369 1556v113h501v-113h-501zM418 645h405l-202 625z" />
<glyph unicode="&#x101;" horiz-adv-x="847" d="M82 248q0 83 47.5 145t120 91.5t156.5 29.5q106 0 188 -49v63q0 104 -43.5 157.5t-140.5 53.5q-69 0 -116.5 -42t-47.5 -103h-129q0 121 85 192.5t218 71.5q139 0 223 -81t84 -218v-344q0 -40 32.5 -93.5t65.5 -87.5l33 -34h-164q-37 29 -55 61q-90 -81 -233 -81 q-84 0 -156.5 30t-120 92.5t-47.5 145.5zM172 1114v125h522v-125h-522zM215 248q0 -75 54 -112.5t137 -37.5q131 0 188 66v166q-56 65 -188 65q-83 0 -137 -36.5t-54 -110.5z" />
<glyph unicode="&#x102;" horiz-adv-x="1241" d="M61 0l478 1444h163l478 -1444h-148l-166 510h-493l-164 -510h-148zM381 1772h117q0 -58 32.5 -98t90.5 -40q59 0 91.5 40t32.5 98h117q0 -105 -69.5 -172.5t-171.5 -67.5t-171 67t-69 173zM418 645h405l-202 625z" />
<glyph unicode="&#x103;" horiz-adv-x="847" d="M82 248q0 83 47.5 145t120 91.5t156.5 29.5q106 0 188 -49v63q0 104 -43.5 157.5t-140.5 53.5q-69 0 -116.5 -42t-47.5 -103h-129q0 121 85 192.5t218 71.5q139 0 223 -81t84 -218v-344q0 -40 32.5 -93.5t65.5 -87.5l33 -34h-164q-37 29 -55 61q-90 -81 -233 -81 q-84 0 -156.5 30t-120 92.5t-47.5 145.5zM184 1300h113q0 -55 37 -94t90 -39q54 0 91.5 39.5t37.5 93.5h113q0 -101 -68 -170t-174 -69t-173 69t-67 170zM215 248q0 -75 54 -112.5t137 -37.5q131 0 188 66v166q-56 65 -188 65q-83 0 -137 -36.5t-54 -110.5z" />
<glyph unicode="&#x104;" horiz-adv-x="1241" d="M61 0l478 1444h163l478 -1444h-52q-66 -3 -116 -48t-74.5 -114.5t-24.5 -150.5h-139q0 137 63.5 232t178.5 130l-150 461h-493l-164 -510h-148zM418 645h405l-202 625z" />
<glyph unicode="&#x105;" horiz-adv-x="847" d="M82 248q0 83 47.5 145t120 91.5t156.5 29.5q106 0 188 -49v63q0 104 -43.5 157.5t-140.5 53.5q-69 0 -116.5 -42t-47.5 -103h-129q0 121 85 192.5t218 71.5q139 0 223 -81t84 -218v-344q0 -40 32.5 -93.5t65.5 -87.5l33 -34q-36 0 -62 -17.5t-41.5 -45t-24.5 -70 t-12 -84.5t-3 -96h-140q0 105 29 191.5t78 129.5q-30 26 -43 53q-90 -81 -233 -81q-84 0 -156.5 30t-120 92.5t-47.5 145.5zM215 248q0 -75 54 -112.5t137 -37.5q131 0 188 66v166q-56 65 -188 65q-83 0 -137 -36.5t-54 -110.5z" />
<glyph unicode="&#x106;" horiz-adv-x="1249" d="M82 721q0 112 23 219t70 202t113 166.5t159 113.5t200 42q193 0 326 -124.5t194 -325.5h-159q-23 64 -55 118.5t-76 100.5t-103 72t-127 26q-80 0 -148.5 -37t-116 -98.5t-81 -141t-49.5 -164.5t-16 -169t16 -169t49.5 -164t81 -140t116 -98t148.5 -37q68 0 127 26 t103 72t76 100.5t55 118.5h159q-61 -201 -194 -325.5t-326 -124.5q-107 0 -200 41.5t-159 113t-113 166t-70 201.5t-23 219zM575 1516l89 256h124l-88 -256h-125z" />
<glyph unicode="&#x107;" d="M82 418q0 114 43 213.5t128 163t193 63.5q124 0 213.5 -79.5t126.5 -205.5h-143q-27 72 -78 115t-119 43q-103 0 -164 -92t-61 -221t61 -220.5t164 -91.5q70 0 121.5 43.5t77.5 116.5h143q-37 -127 -126.5 -206.5t-215.5 -79.5q-108 0 -193 63t-128 162t-43 213zM373 991 l149 453h127l-149 -453h-127z" />
<glyph unicode="&#x108;" horiz-adv-x="1249" d="M82 721q0 112 23 219t70 202t113 166.5t159 113.5t200 42q193 0 326 -124.5t194 -325.5h-159q-23 64 -55 118.5t-76 100.5t-103 72t-127 26q-80 0 -148.5 -37t-116 -98.5t-81 -141t-49.5 -164.5t-16 -169t16 -169t49.5 -164t81 -140t116 -98t148.5 -37q68 0 127 26 t103 72t76 100.5t55 118.5h159q-61 -201 -194 -325.5t-326 -124.5q-107 0 -200 41.5t-159 113t-113 166t-70 201.5t-23 219zM420 1516l178 256h115l178 -256h-137l-101 157l-98 -157h-135z" />
<glyph unicode="&#x109;" d="M82 418q0 114 43 213.5t128 163t193 63.5q124 0 213.5 -79.5t126.5 -205.5h-143q-27 72 -78 115t-119 43q-103 0 -164 -92t-61 -221t61 -220.5t164 -91.5q70 0 121.5 43.5t77.5 116.5h143q-37 -127 -126.5 -206.5t-215.5 -79.5q-108 0 -193 63t-128 162t-43 213zM236 991 l157 453h115l158 -453h-119l-98 297l-97 -297h-116z" />
<glyph unicode="&#x10a;" horiz-adv-x="1249" d="M82 721q0 112 23 219t70 202t113 166.5t159 113.5t200 42q193 0 326 -124.5t194 -325.5h-159q-23 64 -55 118.5t-76 100.5t-103 72t-127 26q-80 0 -148.5 -37t-116 -98.5t-81 -141t-49.5 -164.5t-16 -169t16 -169t49.5 -164t81 -140t116 -98t148.5 -37q68 0 127 26 t103 72t76 100.5t55 118.5h159q-61 -201 -194 -325.5t-326 -124.5q-107 0 -200 41.5t-159 113t-113 166t-70 201.5t-23 219zM565 1561v159h160v-159h-160z" />
<glyph unicode="&#x10b;" d="M82 418q0 114 43 213.5t128 163t193 63.5q124 0 213.5 -79.5t126.5 -205.5h-143q-27 72 -78 115t-119 43q-103 0 -164 -92t-61 -221t61 -220.5t164 -91.5q70 0 121.5 43.5t77.5 116.5h143q-37 -127 -126.5 -206.5t-215.5 -79.5q-108 0 -193 63t-128 162t-43 213z M367 1137v163h168v-163h-168z" />
<glyph unicode="&#x10c;" horiz-adv-x="1249" d="M82 721q0 -112 23 -219t70 -201.5t113 -166t159 -113t200 -41.5q193 0 326 124.5t194 325.5h-159q-23 -64 -55 -118.5t-76 -100.5t-103 -72t-127 -26q-80 0 -148.5 37t-116 98t-81 140t-49.5 164t-16 169t16 169t49.5 164.5t81 141t116 98.5t148.5 37q68 0 127 -26 t103 -72t76 -100.5t55 -118.5h159q-61 201 -194 325.5t-326 124.5q-107 0 -200 -42t-159 -113.5t-113 -166.5t-70 -202t-23 -219zM406 1772h135l98 -158l100 158h138l-179 -256h-114z" />
<glyph unicode="&#x10d;" d="M82 418q0 -114 43 -213t128 -162t193 -63q126 0 215.5 79.5t126.5 206.5h-143q-26 -73 -77.5 -116.5t-121.5 -43.5q-103 0 -164 91.5t-61 220.5t61 221t164 92q68 0 119 -43t78 -115h143q-37 126 -126.5 205.5t-213.5 79.5q-108 0 -193 -63.5t-128 -163t-43 -213.5z M174 1444h125l129 -295l131 295h127l-199 -453h-114z" />
<glyph unicode="&#x10e;" horiz-adv-x="1230" d="M133 0v1444h465q104 0 194.5 -41.5t154.5 -112.5t110.5 -164t69 -196t22.5 -209q0 -132 -38 -259.5t-106.5 -231t-174.5 -167t-232 -63.5h-465zM250 1772h135l98 -158l101 158h137l-178 -256h-115zM276 133h302q96 0 177 54t132 139.5t79.5 188t28.5 204.5 q0 88 -15.5 172t-49 160.5t-81.5 134t-118 91.5t-153 34h-302v-1178z" />
<glyph unicode="&#x10f;" horiz-adv-x="1128" d="M82 418q0 114 42.5 213.5t127 163t192.5 63.5q143 0 226 -125v711h133v-1444h-133v102q-81 -122 -226 -122q-108 0 -192.5 63t-127 162t-42.5 213zM221 418q0 -130 60 -221t163 -91t164.5 91.5t61.5 220.5t-61.5 221t-164.5 92t-163 -91.5t-60 -221.5zM852 969l94 196 v135h135v-135l-94 -196h-135z" />
<glyph unicode="&#x110;" horiz-adv-x="1343" d="M41 653v135h205v656h465q104 0 194.5 -41.5t154.5 -112.5t110.5 -164t69 -196t22.5 -209q0 -132 -38 -259.5t-106.5 -231t-174.5 -167t-232 -63.5h-465v653h-205zM389 133h301q96 0 177 54t132.5 139.5t80 188t28.5 204.5q0 88 -15.5 172t-49 160.5t-82 134t-118.5 91.5 t-153 34h-301v-523h225v-135h-225v-520z" />
<glyph unicode="&#x111;" horiz-adv-x="925" d="M82 418q0 114 42.5 213.5t127 163t192.5 63.5q143 0 226 -125v381h-287v125h287v205h133v-205h102v-125h-102v-1114h-133v102q-81 -122 -226 -122q-108 0 -192.5 63t-127 162t-42.5 213zM221 418q0 -130 60 -221t163 -91t164.5 91.5t61.5 220.5v12q-3 125 -64.5 213 t-161.5 88q-103 0 -163 -91.5t-60 -221.5z" />
<glyph unicode="&#x112;" horiz-adv-x="983" d="M133 0v1444h789v-133h-646v-523h431v-135h-431v-520h646v-133h-789zM287 1556v113h501v-113h-501z" />
<glyph unicode="&#x113;" horiz-adv-x="890" d="M82 418q0 114 43 213.5t128 163t193 63.5t192.5 -63.5t127.5 -163t43 -213.5v-19h-590q5 -124 66 -209.5t161 -85.5q70 0 128.5 45.5t87.5 116.5h139q-36 -125 -132 -205.5t-223 -80.5q-108 0 -193 63t-128 162t-43 213zM195 1114v125h522v-125h-522zM229 518h433 q-21 95 -77.5 155t-138.5 60q-83 0 -139.5 -59.5t-77.5 -155.5z" />
<glyph unicode="&#x114;" horiz-adv-x="983" d="M133 0v1444h789v-133h-646v-523h431v-135h-431v-520h646v-133h-789zM291 1772h117q0 -58 32 -98t90 -40q59 0 92 40.5t33 97.5h117q0 -105 -70 -172.5t-172 -67.5q-101 0 -170 67t-69 173z" />
<glyph unicode="&#x115;" horiz-adv-x="890" d="M82 418q0 114 43 213.5t128 163t193 63.5t192.5 -63.5t127.5 -163t43 -213.5v-19h-590q5 -124 66 -209.5t161 -85.5q70 0 128.5 45.5t87.5 116.5h139q-36 -125 -132 -205.5t-223 -80.5q-108 0 -193 63t-128 162t-43 213zM205 1300h112q0 -55 37 -94t90 -39 q54 0 91.5 39.5t37.5 93.5h113q0 -101 -68 -170t-174 -69t-172.5 68.5t-66.5 170.5zM229 518h433q-21 95 -77.5 155t-138.5 60q-83 0 -139.5 -59.5t-77.5 -155.5z" />
<glyph unicode="&#x116;" horiz-adv-x="983" d="M133 0v1444h789v-133h-646v-523h431v-135h-431v-520h646v-133h-789zM446 1561v159h160v-159h-160z" />
<glyph unicode="&#x117;" horiz-adv-x="890" d="M82 418q0 114 43 213.5t128 163t193 63.5t192.5 -63.5t127.5 -163t43 -213.5v-19h-590q5 -124 66 -209.5t161 -85.5q70 0 128.5 45.5t87.5 116.5h139q-36 -125 -132 -205.5t-223 -80.5q-108 0 -193 63t-128 162t-43 213zM229 518h433q-21 95 -77.5 155t-138.5 60 q-83 0 -139.5 -59.5t-77.5 -155.5zM362 1137v163h168v-163h-168z" />
<glyph unicode="&#x118;" horiz-adv-x="983" d="M133 0v1444h789v-133h-646v-523h431v-135h-431v-520h646v-133h-320q-41 -2 -69 -27.5t-41 -72.5t-18 -96.5t-5 -116.5h-139q0 100 26 183.5t72 129.5h-295z" />
<glyph unicode="&#x119;" horiz-adv-x="890" d="M82 418q0 114 43 213.5t128 163t193 63.5t192.5 -63.5t127.5 -163t43 -213.5v-19h-590q5 -124 66 -209.5t161 -85.5q70 0 128.5 45.5t87.5 116.5h139q-33 -111 -112.5 -187t-186.5 -93q-48 -30 -65 -106t-17 -193h-139q0 93 23.5 173t64.5 130q-131 30 -209 152t-78 276z M229 518h433q-21 95 -77.5 155t-138.5 60q-83 0 -139.5 -59.5t-77.5 -155.5z" />
<glyph unicode="&#x11a;" horiz-adv-x="983" d="M133 0h789v133h-646v520h431v135h-431v523h646v133h-789v-1444zM289 1772h135l98 -158l101 158h137l-178 -256h-115z" />
<glyph unicode="&#x11b;" horiz-adv-x="890" d="M82 418q0 -114 43 -213t128 -162t193 -63q127 0 223 80.5t132 205.5h-139q-29 -71 -87.5 -116.5t-128.5 -45.5q-100 0 -161 85.5t-66 209.5h590v19q0 114 -43 213.5t-127.5 163t-192.5 63.5t-193 -63.5t-128 -163t-43 -213.5zM188 1444h125l129 -295l131 295h127 l-198 -453h-115zM229 518q21 96 77.5 155.5t139.5 59.5q82 0 138.5 -60t77.5 -155h-433z" />
<glyph unicode="&#x11c;" horiz-adv-x="1298" d="M82 721q0 112 23 219t70 202t113 166.5t159 113.5t200 42q193 0 326 -124.5t194 -325.5h-159q-23 64 -55 118.5t-76 100.5t-103 72t-127 26q-80 0 -148.5 -37t-116 -98.5t-81 -141t-49.5 -164.5t-16 -169t16 -169t49.5 -164t81 -140t116 -98t148.5 -37q74 0 139.5 31.5 t114 87t83 125t54.5 149.5h-391v133h559q-10 -126 -51 -242t-109 -210t-171.5 -150.5t-227.5 -56.5q-107 0 -200 41.5t-159 113t-113 166t-70 201.5t-23 219zM414 1516l178 256h115l178 -256h-137l-101 157l-98 -157h-135z" />
<glyph unicode="&#x11d;" horiz-adv-x="839" d="M72 -299q0 93 48 165.5t128 115.5q-74 50 -74 135q0 94 84 145q-65 43 -102 115t-37 158q0 125 92 224t223 99q134 0 226 -98.5t92 -224.5q0 -137 -90.5 -230.5t-227.5 -93.5q-115 0 -115 -84q0 -46 30.5 -72t84.5 -26q150 0 257.5 -92.5t107.5 -235.5t-107.5 -234.5 t-257.5 -91.5t-256 91.5t-106 234.5zM205 -299q0 -89 66.5 -143t162.5 -54t164 54t68 143q0 90 -68.5 147.5t-163.5 57.5t-162 -57.5t-67 -147.5zM219 991l158 453h115l157 -453h-119l-98 297l-96 -297h-117zM248 535q0 -95 52 -150t134 -55q84 0 136.5 55t52.5 150 q0 94 -53 149t-136 55q-81 0 -133.5 -55.5t-52.5 -148.5z" />
<glyph unicode="&#x11e;" horiz-adv-x="1298" d="M82 721q0 112 23 219t70 202t113 166.5t159 113.5t200 42q193 0 326 -124.5t194 -325.5h-159q-23 64 -55 118.5t-76 100.5t-103 72t-127 26q-80 0 -148.5 -37t-116 -98.5t-81 -141t-49.5 -164.5t-16 -169t16 -169t49.5 -164t81 -140t116 -98t148.5 -37q74 0 139.5 31.5 t114 87t83 125t54.5 149.5h-391v133h559q-10 -126 -51 -242t-109 -210t-171.5 -150.5t-227.5 -56.5q-107 0 -200 41.5t-159 113t-113 166t-70 201.5t-23 219zM408 1772h116q0 -58 32.5 -98t90.5 -40q59 0 92 40.5t33 97.5h117q0 -105 -70 -172.5t-172 -67.5q-101 0 -170 67 t-69 173z" />
<glyph unicode="&#x11f;" horiz-adv-x="839" d="M72 -299q0 93 48 165.5t128 115.5q-74 50 -74 135q0 94 84 145q-65 43 -102 115t-37 158q0 125 92 224t223 99q134 0 226 -98.5t92 -224.5q0 -137 -90.5 -230.5t-227.5 -93.5q-115 0 -115 -84q0 -46 30.5 -72t84.5 -26q150 0 257.5 -92.5t107.5 -235.5t-107.5 -234.5 t-257.5 -91.5t-256 91.5t-106 234.5zM195 1300h112q0 -55 37 -94t90 -39q54 0 91.5 39.5t37.5 93.5h113q0 -101 -68 -170t-174 -69t-172.5 68.5t-66.5 170.5zM205 -299q0 -89 66.5 -143t162.5 -54t164 54t68 143q0 90 -68.5 147.5t-163.5 57.5t-162 -57.5t-67 -147.5z M248 535q0 -95 52 -150t134 -55q84 0 136.5 55t52.5 150q0 94 -53 149t-136 55q-81 0 -133.5 -55.5t-52.5 -148.5z" />
<glyph unicode="&#x120;" horiz-adv-x="1298" d="M82 721q0 112 23 219t70 202t113 166.5t159 113.5t200 42q193 0 326 -124.5t194 -325.5h-159q-23 64 -55 118.5t-76 100.5t-103 72t-127 26q-80 0 -148.5 -37t-116 -98.5t-81 -141t-49.5 -164.5t-16 -169t16 -169t49.5 -164t81 -140t116 -98t148.5 -37q74 0 139.5 31.5 t114 87t83 125t54.5 149.5h-391v133h559q-10 -126 -51 -242t-109 -210t-171.5 -150.5t-227.5 -56.5q-107 0 -200 41.5t-159 113t-113 166t-70 201.5t-23 219zM567 1561v159h160v-159h-160z" />
<glyph unicode="&#x121;" horiz-adv-x="839" d="M72 -299q0 93 48 165.5t128 115.5q-74 50 -74 135q0 94 84 145q-65 43 -102 115t-37 158q0 125 92 224t223 99q134 0 226 -98.5t92 -224.5q0 -137 -90.5 -230.5t-227.5 -93.5q-115 0 -115 -84q0 -46 30.5 -72t84.5 -26q150 0 257.5 -92.5t107.5 -235.5t-107.5 -234.5 t-257.5 -91.5t-256 91.5t-106 234.5zM205 -299q0 -89 66.5 -143t162.5 -54t164 54t68 143q0 90 -68.5 147.5t-163.5 57.5t-162 -57.5t-67 -147.5zM248 535q0 -95 52 -150t134 -55q84 0 136.5 55t52.5 150q0 94 -53 149t-136 55q-81 0 -133.5 -55.5t-52.5 -148.5zM350 1137 v163h168v-163h-168z" />
<glyph unicode="&#x122;" horiz-adv-x="1298" d="M82 721q0 112 23 219t70 202t113 166.5t159 113.5t200 42q193 0 326 -124.5t194 -325.5h-159q-23 64 -55 118.5t-76 100.5t-103 72t-127 26q-80 0 -148.5 -37t-116 -98.5t-81 -141t-49.5 -164.5t-16 -169t16 -169t49.5 -164t81 -140t116 -98t148.5 -37q74 0 139.5 31.5 t114 87t83 125t54.5 149.5h-391v133h559q-10 -126 -51 -242t-109 -210t-171.5 -150.5t-227.5 -56.5q-107 0 -200 41.5t-159 113t-113 166t-70 201.5t-23 219zM489 -475l107 227v135h135v-135l-106 -227h-136z" />
<glyph unicode="&#x123;" horiz-adv-x="839" d="M72 -299q0 -143 106 -234.5t256 -91.5t257.5 91.5t107.5 234.5t-107.5 235.5t-257.5 92.5q-54 0 -84.5 26t-30.5 72q0 84 115 84q137 0 227.5 93.5t90.5 230.5q0 126 -92 224.5t-226 98.5q-131 0 -223 -99t-92 -224q0 -86 37 -158t102 -115q-84 -51 -84 -145 q0 -85 74 -135q-80 -43 -128 -115.5t-48 -165.5zM205 -299q0 90 67 147.5t162 57.5t163.5 -57.5t68.5 -147.5q0 -89 -68 -143t-164 -54t-162.5 54t-66.5 143zM248 535q0 93 52.5 148.5t133.5 55.5q83 0 136 -55t53 -149q0 -95 -52.5 -150t-136.5 -55q-82 0 -134 55t-52 150z M365 991v135l149 318h135l-149 -318v-135h-135z" />
<glyph unicode="&#x124;" horiz-adv-x="1167" d="M133 0v1444h143v-656h615v656h143v-1444h-143v653h-615v-653h-143zM348 1516l178 256h115l178 -256h-137l-100 157l-99 -157h-135z" />
<glyph unicode="&#x125;" horiz-adv-x="839" d="M102 0v1444h134v-696q76 110 204 110q138 0 217.5 -80.5t79.5 -218.5v-559h-133v528q0 97 -42.5 152t-131.5 55q-87 0 -139.5 -71.5t-54.5 -167.5v-496h-134zM307 991l158 453h115l157 -453h-119l-98 297l-96 -297h-117z" />
<glyph unicode="&#x126;" horiz-adv-x="1167" d="M-10 1178v122h143v144h143v-144h615v144h143v-144h144v-122h-144v-1178h-143v653h-615v-653h-143v1178h-143zM276 788h615v390h-615v-390z" />
<glyph unicode="&#x127;" horiz-adv-x="839" d="M0 1114v125h102v205h134v-205h286v-125h-286v-366q76 110 204 110q138 0 217.5 -80.5t79.5 -218.5v-559h-133v528q0 97 -42.5 152t-131.5 55q-87 0 -139.5 -71.5t-54.5 -167.5v-496h-134v1114h-102z" />
<glyph unicode="&#x128;" horiz-adv-x="409" d="M-76 1626q79 94 172 94q48 0 117.5 -35.5t99.5 -35.5q58 0 95 53l79 -78q-79 -94 -174 -94q-48 0 -117.5 36t-97.5 36q-56 0 -94 -54zM133 0h143v1444h-143v-1444z" />
<glyph unicode="&#x129;" horiz-adv-x="358" d="M-102 1196q79 94 172 94q48 0 117.5 -35.5t99.5 -35.5q57 0 94 53l80 -98q-80 -95 -174 -95q-48 0 -117.5 36t-97.5 36q-58 0 -95 -53zM113 0h133v838h-133v-838z" />
<glyph unicode="&#x12a;" horiz-adv-x="409" d="M-45 1556v113h502v-113h-502zM133 0v1444h143v-1444h-143z" />
<glyph unicode="&#x12b;" horiz-adv-x="358" d="M-82 1114v125h522v-125h-522zM113 0v838h133v-838h-133z" />
<glyph unicode="&#x12c;" horiz-adv-x="409" d="M-35 1772h117q0 -58 32.5 -98t90.5 -40q59 0 92 40.5t33 97.5h116q0 -105 -69.5 -172.5t-171.5 -67.5t-171 67t-69 173zM133 0v1444h143v-1444h-143z" />
<glyph unicode="&#x12d;" horiz-adv-x="358" d="M-61 1300h112q0 -55 37 -94t90 -39q54 0 91.5 39.5t37.5 93.5h113q0 -101 -68 -170t-174 -69t-172.5 68.5t-66.5 170.5zM113 0v838h133v-838h-133z" />
<glyph unicode="&#x12e;" horiz-adv-x="409" d="M-90 -313q0 130 59 223.5t164 130.5v1403h143v-1444h-2q-103 0 -164 -92t-61 -221h-139z" />
<glyph unicode="&#x12f;" horiz-adv-x="358" d="M-37 -313q0 127 41.5 224.5t108.5 123.5v803h133v-838q-44 0 -74 -24.5t-44.5 -71.5t-20 -97.5t-5.5 -119.5h-139zM102 1087v154h154v-154h-154z" />
<glyph unicode="&#x130;" horiz-adv-x="409" d="M125 1561v159h160v-159h-160zM133 0v1444h143v-1444h-143z" />
<glyph unicode="&#x131;" horiz-adv-x="358" d="M113 0v838h133v-838h-133z" />
<glyph unicode="&#x132;" horiz-adv-x="1030" d="M133 414v20h143v-20q0 -129 67.5 -215t186.5 -86t186.5 86t67.5 215v1030h144v-1030q0 -189 -108.5 -311.5t-289.5 -122.5q-119 0 -211 62t-139 160t-47 212zM133 649v795h143v-795h-143z" />
<glyph unicode="&#x133;" horiz-adv-x="716" d="M92 -315h133v-41q0 -70 31 -108t92 -38q59 0 91 40t32 104v1196h133v-1186q0 -125 -67.5 -201t-188.5 -76q-116 0 -186 70.5t-70 185.5v54zM102 1087v154h154v-154h-154zM113 0v838h133v-838h-133zM461 1087v154h153v-154h-153z" />
<glyph unicode="&#x134;" horiz-adv-x="968" d="M72 414v20h143v-20q0 -129 67.5 -215t186.5 -86t186.5 86t67.5 215v1030h143v-1030q0 -189 -108 -311.5t-289 -122.5q-119 0 -211 62t-139 160t-47 212zM551 1516l178 256h115l178 -256h-137l-101 157l-98 -157h-135z" />
<glyph unicode="&#x135;" horiz-adv-x="358" d="M-266 -315h133v-41q0 -70 31 -108t92 -38q59 0 91 40t32 104v1196h133v-1186q0 -125 -67.5 -201t-188.5 -76q-116 0 -186 70.5t-70 185.5v54zM-41 991l158 453h114l158 -453h-119l-98 297l-96 -297h-117z" />
<glyph unicode="&#x136;" horiz-adv-x="989" d="M133 0v1444h143v-651l529 651h164l-551 -686l551 -758h-185l-460 641l-48 -59v-582h-143zM317 -475l107 227v135h135v-135l-106 -227h-136z" />
<glyph unicode="&#x137;" horiz-adv-x="802" d="M102 0v1444h134v-928l339 322h187l-428 -406l459 -432h-199l-358 338v-338h-134zM246 -475l106 227v135h135v-135l-106 -227h-135z" />
<glyph unicode="&#x139;" horiz-adv-x="972" d="M133 0v1444h143v-1311h635v-133h-778zM141 1516l88 256h125l-88 -256h-125z" />
<glyph unicode="&#x13a;" horiz-adv-x="358" d="M113 0v1444h133v-1444h-133zM117 1516l88 256h125l-88 -256h-125z" />
<glyph unicode="&#x13b;" horiz-adv-x="972" d="M133 0v1444h143v-1311h635v-133h-778zM297 -475l106 227v135h136v-135l-107 -227h-135z" />
<glyph unicode="&#x13c;" horiz-adv-x="358" d="M8 -475l107 227v135h135v-135l-107 -227h-135zM113 0v1444h133v-1444h-133z" />
<glyph unicode="&#x13d;" horiz-adv-x="972" d="M133 0v1444h143v-1311h635v-133h-778zM236 1772h135l98 -158l100 158h138l-179 -256h-114z" />
<glyph unicode="&#x13e;" horiz-adv-x="358" d="M113 0v1444h133v-1444h-133zM295 969l94 196v135h135v-135l-94 -196h-135z" />
<glyph unicode="&#x13f;" horiz-adv-x="972" d="M133 0v1444h143v-1311h635v-133h-778zM643 1137h168v163h-168v-163z" />
<glyph unicode="&#x140;" horiz-adv-x="358" d="M113 0v1444h133v-1444h-133zM348 1137v163h168v-163h-168z" />
<glyph unicode="&#x141;" horiz-adv-x="972" d="M133 506v143l164 88v707h143v-631l226 123v-143l-226 -123v-537h635v-133h-778v594z" />
<glyph unicode="&#x142;" horiz-adv-x="501" d="M113 465v164l143 125v690h133v-592l143 135v-164l-143 -135v-688h-133v590z" />
<glyph unicode="&#x143;" horiz-adv-x="1187" d="M133 0v1444h184l598 -1204v1204h140v-1444h-185l-598 1202v-1202h-139zM535 1516l88 256h125l-89 -256h-124z" />
<glyph unicode="&#x144;" d="M123 0v838h133v-90q76 110 205 110q138 0 217.5 -80.5t79.5 -218.5v-559h-133v528q0 97 -42.5 152t-131.5 55q-87 0 -140 -71.5t-55 -167.5v-496h-133zM373 991l149 453h127l-149 -453h-127z" />
<glyph unicode="&#x145;" horiz-adv-x="1187" d="M133 0v1444h184l598 -1204v1204h140v-1444h-185l-598 1202v-1202h-139zM399 -475l107 227v135h135v-135l-106 -227h-136z" />
<glyph unicode="&#x146;" d="M123 0v838h133v-90q76 110 205 110q138 0 217.5 -80.5t79.5 -218.5v-559h-133v528q0 97 -42.5 152t-131.5 55q-87 0 -140 -71.5t-55 -167.5v-496h-133zM256 -475l106 227v135h136v-135l-107 -227h-135z" />
<glyph unicode="&#x147;" horiz-adv-x="1187" d="M133 0h139v1202l598 -1202h185v1444h-140v-1204l-598 1204h-184v-1444zM371 1772h135l98 -158l101 158h137l-178 -256h-115z" />
<glyph unicode="&#x148;" d="M123 0h133v496q2 96 55 167.5t140 71.5q89 0 131.5 -55t42.5 -152v-528h133v559q0 138 -79.5 218.5t-217.5 80.5q-129 0 -205 -110v90h-133v-838zM174 1444h125l129 -295l131 295h127l-199 -453h-114z" />
<glyph unicode="&#x14a;" horiz-adv-x="1187" d="M133 0v1444h184l598 -1204v1204h140v-1464q0 -189 -108.5 -312t-289.5 -123v133q119 0 186.5 86.5t67.5 215.5v20h-41l-598 1202v-1202h-139z" />
<glyph unicode="&#x14b;" d="M123 0v838h133v-90q76 110 205 110q138 0 217.5 -80.5t79.5 -218.5v-711q0 -125 -67.5 -200.5t-188.5 -75.5v123q59 0 91 39.5t32 103.5v690q0 97 -42.5 152t-131.5 55q-88 0 -141.5 -75t-53.5 -173v-487h-133z" />
<glyph unicode="&#x14c;" horiz-adv-x="1290" d="M82 721q0 112 23 219t70 202t113 166.5t159 113.5t200 42t199.5 -42t158 -113.5t112 -166.5t69 -202t22.5 -219t-22.5 -219t-69 -201.5t-112 -166t-158 -113t-199.5 -41.5t-200 41.5t-159 113t-113 166t-70 201.5t-23 219zM236 721q0 -84 16 -169t49.5 -164t81 -140 t116 -98t148.5 -37t148 37t115 97.5t80.5 140t49 164t15.5 169.5t-15.5 169.5t-49 164.5t-80.5 141t-115 98t-148 37t-148.5 -37t-116 -98.5t-81 -141t-49.5 -164.5t-16 -169zM403 1556v113h502v-113h-502z" />
<glyph unicode="&#x14d;" horiz-adv-x="890" d="M82 418q0 114 43 213.5t128 163t193 63.5t192.5 -63.5t127.5 -163t43 -213.5t-43 -213t-127.5 -162t-192.5 -63t-193 63t-128 162t-43 213zM184 1114v125h523v-125h-523zM221 418q0 -129 61 -220.5t164 -91.5t163.5 91.5t60.5 220.5q0 130 -60.5 221.5t-163.5 91.5 t-164 -92t-61 -221z" />
<glyph unicode="&#x14e;" horiz-adv-x="1290" d="M82 721q0 112 23 219t70 202t113 166.5t159 113.5t200 42t199.5 -42t158 -113.5t112 -166.5t69 -202t22.5 -219t-22.5 -219t-69 -201.5t-112 -166t-158 -113t-199.5 -41.5t-200 41.5t-159 113t-113 166t-70 201.5t-23 219zM236 721q0 -84 16 -169t49.5 -164t81 -140 t116 -98t148.5 -37t148 37t115 97.5t80.5 140t49 164t15.5 169.5t-15.5 169.5t-49 164.5t-80.5 141t-115 98t-148 37t-148.5 -37t-116 -98.5t-81 -141t-49.5 -164.5t-16 -169zM408 1772h116q0 -58 32.5 -98t90.5 -40q59 0 92 40.5t33 97.5h117q0 -105 -70 -172.5t-172 -67.5 q-101 0 -170 67t-69 173z" />
<glyph unicode="&#x14f;" horiz-adv-x="890" d="M82 418q0 114 43 213.5t128 163t193 63.5t192.5 -63.5t127.5 -163t43 -213.5t-43 -213t-127.5 -162t-192.5 -63t-193 63t-128 162t-43 213zM207 1300h112q0 -55 37 -94t90 -39q54 0 91.5 39.5t37.5 93.5h113q0 -101 -68 -170t-174 -69t-172.5 68.5t-66.5 170.5zM221 418 q0 -129 61 -220.5t164 -91.5t163.5 91.5t60.5 220.5q0 130 -60.5 221.5t-163.5 91.5t-164 -92t-61 -221z" />
<glyph unicode="&#x150;" horiz-adv-x="1290" d="M82 721q0 112 23 219t70 202t113 166.5t159 113.5t200 42t199.5 -42t158 -113.5t112 -166.5t69 -202t22.5 -219t-22.5 -219t-69 -201.5t-112 -166t-158 -113t-199.5 -41.5t-200 41.5t-159 113t-113 166t-70 201.5t-23 219zM236 721q0 -84 16 -169t49.5 -164t81 -140 t116 -98t148.5 -37t148 37t115 97.5t80.5 140t49 164t15.5 169.5t-15.5 169.5t-49 164.5t-80.5 141t-115 98t-148 37t-148.5 -37t-116 -98.5t-81 -141t-49.5 -164.5t-16 -169zM442 1516l88 256h125l-88 -256h-125zM690 1516l88 256h125l-88 -256h-125z" />
<glyph unicode="&#x151;" horiz-adv-x="890" d="M82 418q0 114 43 213.5t128 163t193 63.5t192.5 -63.5t127.5 -163t43 -213.5t-43 -213t-127.5 -162t-192.5 -63t-193 63t-128 162t-43 213zM221 418q0 -129 61 -220.5t164 -91.5t163.5 91.5t60.5 220.5q0 130 -60.5 221.5t-163.5 91.5t-164 -92t-61 -221zM229 991 l150 453h127l-150 -453h-127zM508 991l149 453h127l-149 -453h-127z" />
<glyph unicode="&#x152;" horiz-adv-x="1638" d="M82 721q0 112 23 219t70 202t113 166.5t159 113.5t200 42q69 0 144 -20h786v-133h-645v-523h430v-135h-430v-520h645v-133h-786q-75 -20 -144 -20q-107 0 -200 41.5t-159 113t-113 166t-70 201.5t-23 219zM236 721q0 -84 16 -169t49.5 -164t81 -140t116 -98t148.5 -37 q92 0 141 24v1168q-56 26 -141 26q-80 0 -148.5 -37t-116 -98.5t-81 -141t-49.5 -164.5t-16 -169z" />
<glyph unicode="&#x153;" horiz-adv-x="1478" d="M82 418q0 114 43 213.5t128 163t193 63.5q99 0 173.5 -53t119.5 -143q101 196 295 196q108 0 192.5 -63.5t127.5 -163t43 -213.5v-19h-590q5 -124 66 -209.5t161 -85.5q70 0 128 45.5t87 116.5h140q-36 -125 -132 -205.5t-223 -80.5q-98 0 -173.5 51t-121.5 139 q-45 -88 -119.5 -139t-173.5 -51q-108 0 -193 63t-128 162t-43 213zM221 418q0 -129 61 -220.5t164 -91.5t163.5 91.5t60.5 220.5q0 130 -60.5 221.5t-163.5 91.5t-164 -92t-61 -221zM817 518h432q-21 95 -77.5 155t-137.5 60q-83 0 -139.5 -59.5t-77.5 -155.5z" />
<glyph unicode="&#x154;" horiz-adv-x="1130" d="M133 0v1444h465q114 0 213.5 -47t163 -139.5t63.5 -210.5q0 -149 -96 -253t-240 -135l357 -659h-164l-350 649h-269v-649h-143zM276 782h322q125 0 206 72t81 193t-80.5 192.5t-206.5 71.5h-322v-529zM457 1516l88 256h125l-88 -256h-125z" />
<glyph unicode="&#x155;" horiz-adv-x="696" d="M123 0v838h133v-76q62 96 174 96q100 0 162.5 -70.5t62.5 -185.5v-33h-133v21q0 69 -29 107t-83 38q-42 0 -73 -18.5t-47.5 -48t-24.5 -61t-9 -64.5v-543h-133zM270 991l150 453h127l-150 -453h-127z" />
<glyph unicode="&#x156;" horiz-adv-x="1130" d="M133 0v1444h465q114 0 213.5 -47t163 -139.5t63.5 -210.5q0 -149 -96 -253t-240 -135l357 -659h-164l-350 649h-269v-649h-143zM276 782h322q125 0 206 72t81 193t-80.5 192.5t-206.5 71.5h-322v-529zM379 -475l106 227v135h136v-135l-107 -227h-135z" />
<glyph unicode="&#x157;" horiz-adv-x="696" d="M123 0v838h133v-76q62 96 174 96q100 0 162.5 -70.5t62.5 -185.5v-33h-133v21q0 69 -29 107t-83 38q-42 0 -73 -18.5t-47.5 -48t-24.5 -61t-9 -64.5v-543h-133zM215 -475l107 227v135h135v-135l-107 -227h-135z" />
<glyph unicode="&#x158;" horiz-adv-x="1130" d="M133 0h143v649h269l350 -649h164l-357 659q144 31 240 135t96 253q0 118 -63.5 210.5t-163 139.5t-213.5 47h-465v-1444zM276 782v529h322q126 0 206.5 -71.5t80.5 -192.5t-81 -193t-206 -72h-322zM283 1772h135l98 -158l100 158h138l-179 -256h-114z" />
<glyph unicode="&#x159;" horiz-adv-x="696" d="M123 0h133v543q1 33 9 64.5t24.5 61t47.5 48t73 18.5q54 0 83 -38t29 -107v-21h133v33q0 115 -62.5 185.5t-162.5 70.5q-112 0 -174 -96v76h-133v-838zM133 1444h125l129 -295l131 295h127l-199 -453h-114z" />
<glyph unicode="&#x15a;" horiz-adv-x="1161" d="M102 410h154q0 -137 88 -219t242 -82q153 0 241 82t88 219q0 53 -22 93t-76 72t-91.5 48t-120.5 46q-3 1 -5 2t-4.5 2t-5 1.5t-4.5 1.5q-172 63 -224 89q-143 71 -188 178q-27 62 -27 144q0 165 122.5 271t295.5 106q113 0 209 -46.5t154.5 -134t58.5 -196.5h-153 q0 105 -80 176.5t-189 71.5q-121 0 -194.5 -69.5t-73.5 -178.5q0 -30 8.5 -56t20.5 -46t35.5 -39t44 -32t55 -28.5t59 -25t66.5 -24.5q26 -10 75.5 -27t74.5 -26t67 -26t64 -29t54.5 -32.5t50 -39t38.5 -45.5t31 -56t17 -66t7 -79q0 -137 -67 -236.5t-174 -146.5t-238 -47 q-97 0 -183.5 27.5t-154 80t-107 135.5t-39.5 187zM500 1516l88 256h125l-88 -256h-125z" />
<glyph unicode="&#x15b;" horiz-adv-x="782" d="M82 260v6h133v-6q0 -73 54.5 -117.5t127.5 -44.5q83 0 134 34t51 106q0 38 -36 63.5t-90.5 38t-117.5 32t-117.5 43.5t-90.5 74.5t-36 122.5q0 118 86.5 182t216.5 64q124 0 209 -73t94 -191h-135q-12 62 -54.5 103.5t-113.5 41.5q-77 0 -121.5 -33t-44.5 -94 q0 -38 36 -63.5t90.5 -38t117.5 -32t117.5 -43.5t90.5 -74.5t36 -122.5q0 -123 -92.5 -190.5t-229.5 -67.5q-133 0 -224 77t-91 203zM334 991l149 453h127l-149 -453h-127z" />
<glyph unicode="&#x15c;" horiz-adv-x="1161" d="M102 410h154q0 -137 88 -219t242 -82q153 0 241 82t88 219q0 53 -22 93t-76 72t-91.5 48t-120.5 46q-3 1 -5 2t-4.5 2t-5 1.5t-4.5 1.5q-172 63 -224 89q-143 71 -188 178q-27 62 -27 144q0 165 122.5 271t295.5 106q113 0 209 -46.5t154.5 -134t58.5 -196.5h-153 q0 105 -80 176.5t-189 71.5q-121 0 -194.5 -69.5t-73.5 -178.5q0 -30 8.5 -56t20.5 -46t35.5 -39t44 -32t55 -28.5t59 -25t66.5 -24.5q26 -10 75.5 -27t74.5 -26t67 -26t64 -29t54.5 -32.5t50 -39t38.5 -45.5t31 -56t17 -66t7 -79q0 -137 -67 -236.5t-174 -146.5t-238 -47 q-97 0 -183.5 27.5t-154 80t-107 135.5t-39.5 187zM334 1516l178 256h115l178 -256h-137l-101 157l-98 -157h-135z" />
<glyph unicode="&#x15d;" horiz-adv-x="782" d="M82 260v6h133v-6q0 -73 54.5 -117.5t127.5 -44.5q83 0 134 34t51 106q0 38 -36 63.5t-90.5 38t-117.5 32t-117.5 43.5t-90.5 74.5t-36 122.5q0 118 86.5 182t216.5 64q124 0 209 -73t94 -191h-135q-12 62 -54.5 103.5t-113.5 41.5q-77 0 -121.5 -33t-44.5 -94 q0 -38 36 -63.5t90.5 -38t117.5 -32t117.5 -43.5t90.5 -74.5t36 -122.5q0 -123 -92.5 -190.5t-229.5 -67.5q-133 0 -224 77t-91 203zM176 991l158 453h115l157 -453h-119l-98 297l-96 -297h-117z" />
<glyph unicode="&#x15e;" horiz-adv-x="1161" d="M102 410h154q0 -137 88 -219t242 -82q153 0 241 82t88 219q0 53 -22 93t-76 72t-91.5 48t-120.5 46q-3 1 -5 2t-4.5 2t-5 1.5t-4.5 1.5q-172 63 -224 89q-143 71 -188 178q-27 62 -27 144q0 165 122.5 271t295.5 106q113 0 209 -46.5t154.5 -134t58.5 -196.5h-153 q0 105 -80 176.5t-189 71.5q-121 0 -194.5 -69.5t-73.5 -178.5q0 -30 8.5 -56t20.5 -46t35.5 -39t44 -32t55 -28.5t59 -25t66.5 -24.5q26 -10 75.5 -27t74.5 -26t67 -26t64 -29t54.5 -32.5t50 -39t38.5 -45.5t31 -56t17 -66t7 -79q0 -188 -118 -299t-298 -127l-123 -375 h-127l123 375q-118 10 -211 60t-151 145t-58 221z" />
<glyph unicode="&#x15f;" horiz-adv-x="782" d="M82 260v6h133v-6q0 -73 54.5 -117.5t127.5 -44.5q83 0 134 34t51 106q0 38 -36 63.5t-90.5 38t-117.5 32t-117.5 43.5t-90.5 74.5t-36 122.5q0 118 86.5 182t216.5 64q124 0 209 -73t94 -191h-135q-12 62 -54.5 103.5t-113.5 41.5q-77 0 -121.5 -33t-44.5 -94 q0 -38 36 -63.5t90.5 -38t117.5 -32t117.5 -43.5t90.5 -74.5t36 -122.5q0 -111 -74.5 -176t-193.5 -78l-123 -375h-127l125 379q-108 19 -176 92t-68 180z" />
<glyph unicode="&#x160;" horiz-adv-x="1161" d="M102 410q0 -104 39.5 -187t107 -135.5t154 -80t183.5 -27.5q131 0 238 47t174 146.5t67 236.5q0 42 -7 79t-17 66t-31 56t-38.5 45.5t-50 39t-54.5 32.5t-64 29t-67 26t-74.5 26t-75.5 27q-42 15 -66.5 24.5t-59 25t-55 28.5t-44 32t-35.5 39t-20.5 46t-8.5 56 q0 109 73.5 178.5t194.5 69.5q109 0 189 -71.5t80 -176.5h153q0 109 -58.5 196.5t-154.5 134t-209 46.5q-173 0 -295.5 -106t-122.5 -271q0 -73 22.5 -130.5t56 -95.5t91 -71t107.5 -53.5t125 -47.5q8 -2 12.5 -4t11.5 -4.5t13 -4.5q154 -55 207 -85q119 -73 122 -181 q0 -137 -88 -219t-241 -82q-154 0 -242 82t-88 219h-154zM334 1772h135l98 -158l101 158h137l-178 -256h-115z" />
<glyph unicode="&#x161;" horiz-adv-x="782" d="M82 260q0 -126 91 -203t224 -77q137 0 229.5 67.5t92.5 190.5q0 72 -36 122.5t-90.5 74.5t-117.5 43.5t-117.5 32t-90.5 38t-36 63.5q0 61 44.5 94t121.5 33q71 0 113.5 -41.5t54.5 -103.5h135q-9 118 -94 191t-209 73q-130 0 -216.5 -64t-86.5 -182q0 -72 36 -122.5 t90.5 -74.5t117.5 -43.5t117.5 -32t90.5 -38t36 -63.5q0 -72 -51 -106t-134 -34q-73 0 -127.5 44.5t-54.5 117.5v6h-133v-6zM145 1444h125l129 -295l131 295h127l-198 -453h-115z" />
<glyph unicode="&#x162;" horiz-adv-x="1064" d="M31 1311v133h1003v-133h-430v-1311h-143v1311h-430zM358 -475l107 227v135h135v-135l-106 -227h-136z" />
<glyph unicode="&#x163;" horiz-adv-x="757" d="M61 715v123h164v399h133v-399h205v-123h-205v-445q0 -83 22.5 -125.5t80.5 -42.5t80 42.5t22 125.5h133v-32q0 -118 -61 -188t-174 -70t-174.5 70t-61.5 188v477h-164zM281 -475l106 227v135h135v-135l-106 -227h-135z" />
<glyph unicode="&#x164;" horiz-adv-x="1064" d="M31 1311h430v-1311h143v1311h430v133h-1003v-133zM297 1772h135l98 -158l101 158h137l-178 -256h-115z" />
<glyph unicode="&#x165;" horiz-adv-x="757" d="M61 715h164v-477q0 -118 61.5 -188t174.5 -70t174 70t61 188v32h-133q0 -83 -22 -125.5t-80 -42.5t-80.5 42.5t-22.5 125.5v445h205v123h-205v399h-133v-399h-164v-123zM467 969l94 196v135h135v-135l-94 -196h-135z" />
<glyph unicode="&#x166;" horiz-adv-x="1064" d="M31 1311v133h1003v-133h-430v-348h225v-125h-225v-838h-143v838h-225v125h225v348h-430z" />
<glyph unicode="&#x167;" horiz-adv-x="788" d="M225 469v123h164v123h-164v123h164v399h133v-399h205v-123h-205v-123h205v-123h-205v-199q0 -83 22.5 -125.5t80.5 -42.5t80 42.5t22 125.5h133v-32q0 -118 -61 -188t-174 -70t-174.5 70t-61.5 188v231h-164z" />
<glyph unicode="&#x168;" horiz-adv-x="1085" d="M92 430q0 -196 131.5 -323t319.5 -127t319 127t131 323v1014h-143v-1014q0 -131 -88.5 -224t-218.5 -93t-218.5 93t-88.5 224v1014h-144v-1014zM260 1626q79 94 172 94q48 0 117.5 -35.5t99.5 -35.5q57 0 94 53l80 -78q-79 -94 -174 -94q-48 0 -117.5 36t-97.5 36 q-56 0 -94 -54z" />
<glyph unicode="&#x169;" d="M102 279q0 -138 79.5 -218.5t217.5 -80.5q129 0 205 110v-90h133v838h-133v-496q-2 -97 -54.5 -168.5t-139.5 -71.5q-89 0 -131.5 55t-42.5 152v529h-134v-559zM147 1196q79 94 172 94q48 0 118 -35.5t100 -35.5q57 0 94 53l80 -98q-80 -95 -174 -95q-48 0 -117.5 36 t-97.5 36q-58 0 -95 -53z" />
<glyph unicode="&#x16a;" horiz-adv-x="1085" d="M92 430v1014h144v-1014q0 -131 88.5 -224t218.5 -93t218.5 93t88.5 224v1014h143v-1014q0 -196 -131 -323t-319 -127t-319.5 127t-131.5 323zM291 1556v113h502v-113h-502z" />
<glyph unicode="&#x16b;" d="M102 279v559h134v-529q0 -97 42.5 -152t131.5 -55q88 0 141 74.5t53 173.5v488h133v-838h-133v88q-75 -108 -205 -108q-138 0 -217.5 80.5t-79.5 218.5zM168 1114v125h522v-125h-522z" />
<glyph unicode="&#x16c;" horiz-adv-x="1085" d="M92 430v1014h144v-1014q0 -131 88.5 -224t218.5 -93t218.5 93t88.5 224v1014h143v-1014q0 -196 -131 -323t-319 -127t-319.5 127t-131.5 323zM301 1772h117q0 -58 32.5 -98t90.5 -40q59 0 92 40.5t33 97.5h116q0 -105 -69.5 -172.5t-171.5 -67.5t-171 67t-69 173z" />
<glyph unicode="&#x16d;" d="M102 279v559h134v-529q0 -97 42.5 -152t131.5 -55q87 0 139.5 71.5t54.5 168.5v496h133v-838h-133v90q-76 -110 -205 -110q-138 0 -217.5 80.5t-79.5 218.5zM188 1300h113q0 -55 37 -94t90 -39q54 0 91.5 39.5t37.5 93.5h113q0 -101 -68 -170t-174 -69t-173 69t-67 170z " />
<glyph unicode="&#x16e;" horiz-adv-x="1085" d="M92 430v1014h144v-1014q0 -131 88.5 -224t218.5 -93t218.5 93t88.5 224v1014h143v-1014q0 -196 -131 -323t-319 -127t-319.5 127t-131.5 323zM352 1536q0 84 58.5 142.5t142.5 58.5q83 0 142 -59t59 -142q0 -84 -58.5 -142.5t-142.5 -58.5q-85 0 -143 58t-58 143z M451 1536q0 -43 30 -74.5t72 -31.5q41 0 71.5 31.5t30.5 74.5q0 42 -30.5 74t-71.5 32q-42 0 -72 -32t-30 -74z" />
<glyph unicode="&#x16f;" d="M102 279q0 -138 79.5 -218.5t217.5 -80.5q130 0 205 108v-88h133v838h-133v-488q0 -99 -53 -173.5t-141 -74.5q-89 0 -131.5 55t-42.5 152v529h-134v-559zM213 1223q0 91 62 154t153 63t154 -63t63 -154t-63 -153t-154 -62t-153 62t-62 153zM319 1223q0 -46 32 -80.5 t77 -34.5t78 34.5t33 80.5t-33 81t-78 35t-77 -35t-32 -81z" />
<glyph unicode="&#x170;" horiz-adv-x="1085" d="M92 430v1014h144v-1014q0 -131 88.5 -224t218.5 -93t218.5 93t88.5 224v1014h143v-1014q0 -196 -131 -323t-319 -127t-319.5 127t-131.5 323zM348 1516l88 256h125l-88 -256h-125zM596 1516l88 256h125l-88 -256h-125z" />
<glyph unicode="&#x171;" d="M102 279v559h134v-529q0 -97 42.5 -152t131.5 -55q85 0 138 71.5t56 166.5v498h133v-838h-133v88q-75 -108 -205 -108q-138 0 -217.5 80.5t-79.5 218.5zM182 991l150 453h127l-150 -453h-127zM461 991l149 453h127l-149 -453h-127z" />
<glyph unicode="&#x172;" horiz-adv-x="1085" d="M92 430v1014h144v-1014q0 -131 88.5 -224t218.5 -93t218.5 93t88.5 224v1014h143v-1014q0 -129 -60.5 -232t-161.5 -159.5t-222 -58.5q-66 -3 -116 -48.5t-74.5 -115t-24.5 -150.5h-139q0 120 49 208.5t139 131.5q-131 47 -211 159.5t-80 264.5z" />
<glyph unicode="&#x173;" d="M102 279v559h134v-529q0 -97 42.5 -152t131.5 -55q87 0 139.5 71.5t54.5 168.5v496h133v-838h-10q-41 -2 -69 -27.5t-41 -72.5t-18 -96.5t-5 -116.5h-139q0 127 41 224.5t108 123.5v55q-76 -110 -205 -110q-138 0 -217.5 80.5t-79.5 218.5z" />
<glyph unicode="&#x174;" horiz-adv-x="2019" d="M127 1444h147l318 -1239l346 1239h143l346 -1239l318 1239h147l-374 -1444h-164l-344 1194l-344 -1194h-164zM774 1516l178 256h115l178 -256h-137l-100 157l-99 -157h-135z" />
<glyph unicode="&#x175;" horiz-adv-x="1353" d="M41 838h145l209 -656l213 656h137l213 -656l209 656h146l-287 -838h-135l-215 629l-213 -629h-135zM461 991l157 453h115l158 -453h-119l-98 297l-96 -297h-117z" />
<glyph unicode="&#x176;" horiz-adv-x="1097" d="M20 1444h166l361 -664l360 664h166l-450 -799v-645h-150v641zM313 1516l179 256h114l178 -256h-137l-100 157l-98 -157h-136z" />
<glyph unicode="&#x177;" horiz-adv-x="757" d="M-61 -315h133q0 -87 26 -135t97 -48q122 0 122 203v295l-309 838h150l225 -650l209 650h145l-286 -838v-326q0 -128 -68.5 -213.5t-187.5 -85.5q-121 0 -188.5 76.5t-67.5 202.5v31zM164 991l158 453h114l158 -453h-119l-98 297l-96 -297h-117z" />
<glyph unicode="&#x178;" horiz-adv-x="1097" d="M20 1444h166l361 -664l360 664h166l-450 -799v-645h-150v641zM326 1556v160h159v-160h-159zM612 1556v160h160v-160h-160z" />
<glyph unicode="&#x179;" horiz-adv-x="1122" d="M82 0v143l782 1168h-702v133h878v-144l-794 -1167h794v-133h-958zM502 1516l88 256h125l-88 -256h-125z" />
<glyph unicode="&#x17a;" horiz-adv-x="757" d="M82 0v127l465 584h-445v127h615v-127l-475 -584h475v-127h-635zM322 991l149 453h127l-149 -453h-127z" />
<glyph unicode="&#x17b;" horiz-adv-x="1122" d="M82 0v143l782 1168h-702v133h878v-144l-794 -1167h794v-133h-958zM502 1561v159h160v-159h-160z" />
<glyph unicode="&#x17c;" horiz-adv-x="757" d="M82 0v127l465 584h-445v127h615v-127l-475 -584h475v-127h-635zM324 1137v163h168v-163h-168z" />
<glyph unicode="&#x17d;" horiz-adv-x="1122" d="M82 0h958v133h-794l794 1167v144h-878v-133h702l-782 -1168v-143zM373 1772h135l98 -158l101 158h137l-178 -256h-115z" />
<glyph unicode="&#x17e;" horiz-adv-x="757" d="M82 0h635v127h-475l475 584v127h-615v-127h445l-465 -584v-127zM164 1444h125l129 -295l131 295h127l-199 -453h-115z" />
<glyph unicode="&#x192;" horiz-adv-x="733" d="M41 -215q119 0 186.5 86t67.5 215v563h-193v144h193v237q0 189 108 311.5t289 122.5v-133q-119 0 -186.5 -86t-67.5 -215v-237h238v-144h-238v-563q0 -189 -108 -311.5t-289 -122.5v133z" />
<glyph unicode="&#x218;" horiz-adv-x="1161" d="M102 410h154q0 -137 88 -219t242 -82q153 0 241 82t88 219q0 53 -22 93t-76 72t-91.5 48t-120.5 46q-3 1 -5 2t-4.5 2t-5 1.5t-4.5 1.5q-172 63 -224 89q-143 71 -188 178q-27 62 -27 144q0 165 122.5 271t295.5 106q113 0 209 -46.5t154.5 -134t58.5 -196.5h-153 q0 105 -80 176.5t-189 71.5q-121 0 -194.5 -69.5t-73.5 -178.5q0 -30 8.5 -56t20.5 -46t35.5 -39t44 -32t55 -28.5t59 -25t66.5 -24.5q26 -10 75.5 -27t74.5 -26t67 -26t64 -29t54.5 -32.5t50 -39t38.5 -45.5t31 -56t17 -66t7 -79q0 -137 -67 -236.5t-174 -146.5t-238 -47 q-97 0 -183.5 27.5t-154 80t-107 135.5t-39.5 187zM406 -475l106 227v135h135v-135l-106 -227h-135z" />
<glyph unicode="&#x219;" horiz-adv-x="782" d="M82 260v6h133v-6q0 -73 54.5 -117.5t127.5 -44.5q83 0 134 34t51 106q0 38 -36 63.5t-90.5 38t-117.5 32t-117.5 43.5t-90.5 74.5t-36 122.5q0 118 86.5 182t216.5 64q124 0 209 -73t94 -191h-135q-12 62 -54.5 103.5t-113.5 41.5q-77 0 -121.5 -33t-44.5 -94 q0 -38 36 -63.5t90.5 -38t117.5 -32t117.5 -43.5t90.5 -74.5t36 -122.5q0 -123 -92.5 -190.5t-229.5 -67.5q-133 0 -224 77t-91 203zM233 -475l107 227v135h135v-135l-106 -227h-136z" />
<glyph unicode="&#x2bc;" horiz-adv-x="509" d="M127 991l149 453h127l-149 -453h-127z" />
<glyph unicode="&#x2c6;" horiz-adv-x="716" d="M143 991l158 453h115l157 -453h-118l-99 297l-96 -297h-117z" />
<glyph unicode="&#x2c7;" horiz-adv-x="716" d="M102 1444h125l129 -295l131 295h127l-198 -453h-115z" />
<glyph unicode="&#x2d8;" horiz-adv-x="686" d="M102 1300h113q0 -55 37 -94t90 -39q54 0 91.5 39.5t37.5 93.5h113q0 -101 -68 -170t-174 -69t-173 69t-67 170z" />
<glyph unicode="&#x2d9;" horiz-adv-x="364" d="M98 1137v163h168v-163h-168z" />
<glyph unicode="&#x2da;" horiz-adv-x="686" d="M127 1223q0 91 62 154t153 63t154 -63t63 -154t-63 -153t-154 -62t-153 62t-62 153zM233 1223q0 -46 32 -80.5t77 -34.5t78 34.5t33 80.5t-33 81t-78 35t-77 -35t-32 -81z" />
<glyph unicode="&#x2db;" horiz-adv-x="561" d="M197 -313q0 149 55.5 253.5t138.5 104.5h31l57 -45q-36 0 -62 -17.5t-41.5 -45t-24.5 -70t-12 -84.5t-3 -96h-139z" />
<glyph unicode="&#x2dc;" horiz-adv-x="768" d="M102 1196q79 94 172 94q48 0 118 -35.5t100 -35.5q57 0 94 53l80 -98q-80 -95 -174 -95q-48 0 -118 36t-98 36q-57 0 -94 -53z" />
<glyph unicode="&#x2dd;" horiz-adv-x="677" d="M82 991l149 453h127l-149 -453h-127zM360 991l150 453h127l-150 -453h-127z" />
<glyph unicode="&#x394;" horiz-adv-x="1241" d="M106 0v135l433 1309h163l433 -1309v-135h-1029zM252 135h735l-366 1135z" />
<glyph unicode="&#x3a9;" horiz-adv-x="1290" d="M82 0v133h237q-115 98 -176 252.5t-61 335.5q0 112 23 219t70 202t113 166.5t159 113.5t200 42t199.5 -42t158 -113.5t112 -166.5t69 -202t22.5 -219q0 -182 -59.5 -336t-173.5 -252h233v-133h-448v133q95 36 164 133.5t100 214.5t31 240q0 85 -15.5 169.5t-49 164.5 t-80.5 141t-115 98t-148 37t-148.5 -37t-116 -98.5t-81 -141t-49.5 -164.5t-16 -169q0 -123 31.5 -240t101.5 -214.5t166 -133.5v-133h-453z" />
<glyph unicode="&#x3bc;" d="M102 -604v1442h134v-529q0 -97 42.5 -152t131.5 -55q88 0 141 74.5t53 173.5v488h133v-838h-133v88q-75 -108 -205 -108q-108 0 -163 55v-639h-134z" />
<glyph unicode="&#x3c0;" d="M41 711v127h799v-127h-82v-711h-133v711h-369v-711h-133v711h-82z" />
<glyph unicode="&#x1e80;" horiz-adv-x="2019" d="M127 1444h147l318 -1239l346 1239h143l346 -1239l318 1239h147l-374 -1444h-164l-344 1194l-344 -1194h-164zM852 1772h125l88 -256h-125z" />
<glyph unicode="&#x1e81;" horiz-adv-x="1353" d="M41 838h145l209 -656l213 656h137l213 -656l209 656h146l-287 -838h-135l-215 629l-213 -629h-135zM430 1444h127l150 -453h-127z" />
<glyph unicode="&#x1e82;" horiz-adv-x="2019" d="M127 1444h147l318 -1239l346 1239h143l346 -1239l318 1239h147l-374 -1444h-164l-344 1194l-344 -1194h-164zM948 1516l88 256h125l-88 -256h-125z" />
<glyph unicode="&#x1e83;" horiz-adv-x="1353" d="M41 838h145l209 -656l213 656h137l213 -656l209 656h146l-287 -838h-135l-215 629l-213 -629h-135zM633 991l149 453h127l-149 -453h-127z" />
<glyph unicode="&#x1e84;" horiz-adv-x="2019" d="M127 1444h147l318 -1239l346 1239h143l346 -1239l318 1239h147l-374 -1444h-164l-344 1194l-344 -1194h-164zM786 1556v160h160v-160h-160zM1073 1556v160h160v-160h-160z" />
<glyph unicode="&#x1e85;" horiz-adv-x="1353" d="M41 838h145l209 -656l213 656h137l213 -656l209 656h146l-287 -838h-135l-215 629l-213 -629h-135zM449 1094v168h167v-168h-167zM735 1094v168h168v-168h-168z" />
<glyph unicode="&#x1ef2;" horiz-adv-x="1097" d="M20 1444l453 -803v-641h150v645l450 799h-166l-360 -664l-361 664h-166zM401 1772h125l88 -256h-125z" />
<glyph unicode="&#x1ef3;" horiz-adv-x="757" d="M-61 -315h133q0 -87 26 -135t97 -48q122 0 122 203v295l-309 838h150l225 -650l209 650h145l-286 -838v-326q0 -128 -68.5 -213.5t-187.5 -85.5q-121 0 -188.5 76.5t-67.5 202.5v31zM180 1444h127l150 -453h-127z" />
<glyph unicode="&#x2000;" horiz-adv-x="886" />
<glyph unicode="&#x2001;" horiz-adv-x="1772" />
<glyph unicode="&#x2002;" horiz-adv-x="1024" />
<glyph unicode="&#x2003;" horiz-adv-x="2048" />
<glyph unicode="&#x2004;" horiz-adv-x="681" />
<glyph unicode="&#x2005;" horiz-adv-x="512" />
<glyph unicode="&#x2006;" horiz-adv-x="339" />
<glyph unicode="&#x2007;" horiz-adv-x="295" />
<glyph unicode="&#x2008;" horiz-adv-x="221" />
<glyph unicode="&#x2009;" horiz-adv-x="204" />
<glyph unicode="&#x200a;" horiz-adv-x="51" />
<glyph unicode="&#x2010;" horiz-adv-x="655" d="M41 465v143h573v-143h-573z" />
<glyph unicode="&#x2011;" horiz-adv-x="655" d="M41 465v143h573v-143h-573z" />
<glyph unicode="&#x2012;" horiz-adv-x="2048" d="M20 506v143h2008v-143h-2008z" />
<glyph unicode="&#x2013;" horiz-adv-x="1024" d="M20 506v143h984v-143h-984z" />
<glyph unicode="&#x2014;" horiz-adv-x="2048" d="M20 506v143h2008v-143h-2008z" />
<glyph unicode="&#x2018;" horiz-adv-x="460" d="M102 991l150 453h127l-150 -453h-127z" />
<glyph unicode="&#x2019;" horiz-adv-x="460" d="M102 991l150 453h127l-150 -453h-127z" />
<glyph unicode="&#x201a;" horiz-adv-x="468" d="M94 -309l150 452h127l-150 -452h-127z" />
<glyph unicode="&#x201c;" horiz-adv-x="718" d="M102 991v135l150 318h135l-149 -318v-135h-136zM373 991v135l149 318h135l-149 -318v-135h-135z" />
<glyph unicode="&#x201d;" horiz-adv-x="718" d="M102 991l150 318v135h135v-135l-149 -318h-136zM373 991l149 318v135h135v-135l-149 -318h-135z" />
<glyph unicode="&#x201e;" horiz-adv-x="739" d="M80 -309l149 317v135h136v-135l-150 -317h-135zM350 -309l150 317v135h135v-135l-150 -317h-135z" />
<glyph unicode="&#x2020;" horiz-adv-x="856" d="M82 889v123h274v452h144v-452h274v-123h-274v-1032h-144v1032h-274z" />
<glyph unicode="&#x2021;" horiz-adv-x="897" d="M102 311v123h275v455h-275v123h275v452h143v-452h275v-123h-275v-455h275v-123h-275v-454h-143v454h-275z" />
<glyph unicode="&#x2022;" horiz-adv-x="1206" d="M207 684q0 164 115.5 280.5t279.5 116.5t280.5 -116.5t116.5 -280.5t-116.5 -279.5t-280.5 -115.5t-279.5 115.5t-115.5 279.5z" />
<glyph unicode="&#x2026;" horiz-adv-x="985" d="M57 0v164h168v-164h-168zM410 0v164h168v-164h-168zM762 0v164h168v-164h-168z" />
<glyph unicode="&#x202f;" horiz-adv-x="354" />
<glyph unicode="&#x2039;" horiz-adv-x="614" d="M102 553v147l410 297v-147l-307 -223l307 -221v-148z" />
<glyph unicode="&#x203a;" horiz-adv-x="614" d="M102 258v148l308 221l-308 223v147l410 -297v-147z" />
<glyph unicode="&#x2044;" horiz-adv-x="1177" d="M123 0l811 1444h141l-811 -1444h-141z" />
<glyph unicode="&#x205f;" horiz-adv-x="443" />
<glyph unicode="&#x2074;" horiz-adv-x="931" d="M123 793v133l369 518h143v-539h174v-112h-174v-187h-123v187h-389zM248 905h264v371z" />
<glyph unicode="&#x207f;" d="M123 606v838h133v-90q76 110 205 110q138 0 217.5 -80.5t79.5 -218.5v-559h-133v529q0 97 -42.5 151.5t-131.5 54.5q-87 0 -140 -71.5t-55 -167.5v-496h-133z" />
<glyph unicode="&#x20ac;" horiz-adv-x="1169" d="M41 514v133h182q-2 25 -2 74v70h-180v133h195q40 242 160.5 391t275.5 149q139 0 251.5 -122.5t163.5 -327.5h-147q-41 139 -112 223t-156 84q-99 0 -178.5 -111t-112.5 -286h336v-133h-350q-2 -23 -2 -70q0 -51 2 -74h350v-133h-334q33 -174 111.5 -282.5t177.5 -108.5 q86 0 156.5 83t111.5 224h147q-51 -205 -163 -327.5t-252 -122.5q-155 0 -274.5 147.5t-159.5 386.5h-197z" />
<glyph unicode="&#x2116;" horiz-adv-x="2009" d="M133 0h139v1202l598 -1202h185v1444h-140v-1204l-598 1204h-184v-1444zM1200 319v134h727v-134h-727zM1200 1024q0 114 43.5 213.5t128.5 163t193 63.5t192.5 -63.5t127 -163t42.5 -213.5t-42.5 -213t-127 -162t-192.5 -63t-193 63t-128.5 162t-43.5 213zM1339 1024 q0 -129 61.5 -220t164.5 -91t163 90.5t60 220.5t-60 221.5t-163 91.5t-164.5 -92t-61.5 -221z" />
<glyph unicode="&#x2122;" horiz-adv-x="1710" d="M82 1321h215v-715h133v715h215v123h-563v-123zM768 606v838h174l236 -653l235 653h174v-838h-125v600l-223 -600h-123l-223 600v-600h-125z" />
<glyph unicode="&#x2190;" horiz-adv-x="1269" d="M61 578l345 206v-145h761v-123h-761v-145z" />
<glyph unicode="&#x2191;" horiz-adv-x="659" d="M123 946l207 344l207 -344h-146v-762h-123v762h-145z" />
<glyph unicode="&#x2192;" horiz-adv-x="1269" d="M102 516v123h762v145l344 -206l-344 -207v145h-762z" />
<glyph unicode="&#x2193;" horiz-adv-x="659" d="M123 487h145v762h123v-762h146l-207 -344z" />
<glyph unicode="&#x2194;" horiz-adv-x="1495" d="M61 578l345 206v-145h684v145l344 -206l-344 -207v145h-684v-145z" />
<glyph unicode="&#x2195;" horiz-adv-x="659" d="M123 344h145v602h-145l207 344l207 -344h-146v-602h146l-207 -344z" />
<glyph unicode="&#x2196;" horiz-adv-x="1071" d="M123 1012l389 -97l-102 -102l538 -541l-86 -86l-540 539l-103 -102z" />
<glyph unicode="&#x2197;" horiz-adv-x="1071" d="M123 272l539 541l-103 102l389 97l-96 -389l-102 102l-541 -539z" />
<glyph unicode="&#x2198;" horiz-adv-x="1071" d="M123 926l86 86l541 -539l102 102l96 -389l-389 97l103 102z" />
<glyph unicode="&#x2199;" horiz-adv-x="1071" d="M123 186l96 389l103 -102l540 539l86 -86l-538 -541l102 -102z" />
<glyph unicode="&#x2202;" horiz-adv-x="1083" d="M121 455q0 203 119 342t301 139q176 0 272 -158q-6 155 -42 279t-101.5 199t-149.5 75v133q145 0 248 -113t153 -304t50 -441q0 -289 -118 -457.5t-312 -168.5q-121 0 -217.5 63t-149.5 171.5t-53 240.5zM274 455q0 -142 73.5 -242t193.5 -100q80 0 144 53t97 135t33 174 q0 85 -29 158t-93 121.5t-152 48.5q-121 0 -194 -101.5t-73 -246.5z" />
<glyph unicode="&#x220f;" horiz-adv-x="1167" d="M133 0v1444h901v-1444h-143v1309h-615v-1309h-143z" />
<glyph unicode="&#x2211;" horiz-adv-x="1122" d="M82 0v143l393 578l-393 579v144h958v-144h-776l342 -507v-144l-342 -506h776v-143h-958z" />
<glyph unicode="&#x2212;" horiz-adv-x="1024" d="M20 506v143h984v-143h-984z" />
<glyph unicode="&#x221a;" horiz-adv-x="1204" d="M0 0v133h219l176 -512l623 1823h145l-700 -2048h-135l-209 604h-119z" />
<glyph unicode="&#x221e;" horiz-adv-x="1759" d="M82 418q0 114 43 213.5t128 163t193 63.5q69 0 130.5 -20t105.5 -49.5t84.5 -73.5t65 -80t49.5 -82q32 57 55.5 93t63 80.5t80.5 70t102 43.5t133 18q108 0 192.5 -63.5t127 -163t42.5 -213.5t-42.5 -213t-127 -162t-192.5 -63q-72 0 -133 17.5t-102 43t-80.5 69.5 t-63 80t-55.5 93q-26 -45 -50 -81t-65 -80t-84.5 -73t-105 -49t-130.5 -20q-108 0 -193 63t-128 162t-43 213zM221 418q0 -129 61 -220.5t164 -91.5q58 0 109 20.5t82.5 43.5t67.5 73t49.5 74t42.5 82q2 4 3.5 6.5t3.5 6t3 6.5q-62 124 -98 172q-105 140 -263 141 q-103 0 -164 -92t-61 -221zM954 418q65 -129 92 -168q79 -116 199 -138q34 -6 70 -6q103 0 163 91t60 221t-60 221.5t-163 91.5q-43 0 -80 -8.5t-65 -21.5t-54.5 -36.5t-44 -43.5t-38 -54.5t-33 -58t-32.5 -62.5q-9 -19 -14 -28z" />
<glyph unicode="&#x222b;" horiz-adv-x="733" d="M41 -215q119 0 186.5 86t67.5 215v944q0 189 108 311.5t289 122.5v-133q-119 0 -186.5 -86t-67.5 -215v-944q0 -189 -108 -311.5t-289 -122.5v133z" />
<glyph unicode="&#x2248;" horiz-adv-x="978" d="M102 348v127q133 57 242 57q59 0 102.5 -10t65 -22.5t53 -22.5t68.5 -10q110 0 244 59v-127q-133 -57 -244 -57q-59 0 -102.5 10.5t-65 22.5t-53 22.5t-68.5 10.5q-105 0 -242 -60zM102 610v127q135 58 244 58q59 0 102.5 -10.5t65 -22.5t53 -22.5t68.5 -10.5 q108 0 242 59v-126q-135 -58 -242 -58q-59 0 -102.5 10.5t-65 22.5t-53 22.5t-68.5 10.5q-107 0 -244 -60z" />
<glyph unicode="&#x2260;" horiz-adv-x="897" d="M102 137l146 225h-146v123h226l106 164h-332v123h412l148 225h133l-148 -225h148v-123h-228l-106 -164h334v-123h-414l-145 -225h-134z" />
<glyph unicode="&#x2264;" horiz-adv-x="993" d="M123 446v148l737 -444v-148zM123 737v148l737 442v-147l-614 -369l614 -371v-147z" />
<glyph unicode="&#x2265;" horiz-adv-x="993" d="M123 2v148l737 444v-148zM127 272v148l614 371l-614 368v148l737 -443v-147z" />
<glyph unicode="&#x25a0;" horiz-adv-x="1566" d="M143 0v1444h1280v-1444h-1280z" />
<glyph unicode="&#x25ca;" horiz-adv-x="966" d="M82 721l321 723h160l322 -723l-322 -721h-160zM231 721l252 -584l252 584l-252 586z" />
<glyph unicode="&#x25e6;" horiz-adv-x="1206" d="M207 684q0 164 115.5 280.5t279.5 116.5t280.5 -116.5t116.5 -280.5t-116.5 -279.5t-280.5 -115.5t-279.5 115.5t-115.5 279.5z" />
<glyph unicode="&#xe000;" horiz-adv-x="839" d="M0 0v840h840v-840h-840z" />
<glyph horiz-adv-x="851" d="M125 418q0 64 9.5 124.5t32.5 118.5t57 101t86.5 69.5t117.5 26.5q108 0 192.5 -63.5t127.5 -163t43 -213.5t-43 -213t-127.5 -162t-192.5 -63q-81 0 -142 39t-94.5 104t-50 139.5t-16.5 155.5zM203 418q0 -129 61 -220.5t164 -91.5t163 91t60 221t-60 221.5t-163 91.5 t-164 -92t-61 -221z" />
<glyph horiz-adv-x="905" d="M82 418q0 114 42.5 213.5t127 163t192.5 63.5q143 0 226 -125v105h133v-838h-133v102q-81 -122 -226 -122q-108 0 -192.5 63t-127 162t-42.5 213zM221 418q0 -130 60 -221t163 -91t164.5 91.5t61.5 220.5t-61.5 221t-164.5 92t-163 -91.5t-60 -221.5z" />
<glyph horiz-adv-x="890" d="M82 1024q0 114 43 213.5t128 163t193 63.5t192.5 -63.5t127.5 -163t43 -213.5v-18h-590q5 -124 66 -209.5t161 -85.5q70 0 128.5 45t87.5 116h139q-36 -125 -132 -205.5t-223 -80.5q-108 0 -193 63t-128 162t-43 213zM229 1124h433q-21 95 -77.5 155t-138.5 60 q-83 0 -139.5 -59.5t-77.5 -155.5z" />
<glyph horiz-adv-x="913" d="M84 1024q0 114 42.5 213.5t127 163t192.5 63.5q149 0 232 -135v115h133v-856q0 -134 -98 -216.5t-240 -82.5t-240 82.5t-98 216.5h133q0 -166 205 -166q93 0 149 52.5t56 143.5v101q-81 -133 -232 -133q-108 0 -192.5 63t-127 162t-42.5 213zM223 1024q0 -130 60 -220.5 t163 -90.5t164.5 91t61.5 220t-61.5 221t-164.5 92t-163 -91.5t-60 -221.5z" />
<glyph horiz-adv-x="337" d="M92 1587v154h154v-154h-154zM102 606v838h134v-838h-134z" />
<glyph horiz-adv-x="931" d="M102 330v1114h134v-107q79 127 225 127q108 0 192.5 -63.5t127 -163t42.5 -213.5t-42.5 -213t-127 -162t-192.5 -63q-148 0 -225 125v-381h-134zM236 1012q3 -126 63 -212.5t162 -86.5q103 0 163 90.5t60 220.5t-60 221.5t-163 91.5q-101 0 -161.5 -88t-63.5 -213v-24z " />
<glyph horiz-adv-x="716" d="M123 606v838h133v-76q62 96 174 96q100 0 162.5 -70.5t62.5 -185.5v-32h-133v20q0 69 -29 107t-83 38q-42 0 -73 -18.5t-47.5 -48t-24.5 -61t-9 -64.5v-543h-133z" />
<glyph horiz-adv-x="757" d="M61 1311v133h164v287h133v-287h205v-133h-205v-416q0 -84 22.5 -130t80.5 -46q57 0 79.5 45.5t22.5 130.5h133v-31q0 -112 -65.5 -195t-169.5 -83q-111 0 -173.5 78.5t-62.5 199.5v447h-164z" />
<glyph d="M123 885v559h133v-529q0 -97 42.5 -151.5t131.5 -54.5q85 0 138.5 71t56.5 166v498h133v-838h-133v88q-75 -108 -205 -108q-138 0 -217.5 80.5t-79.5 218.5z" />
<glyph horiz-adv-x="364" d="M98 606v164h168v-164h-168z" />
<glyph horiz-adv-x="337" d="M102 606v1166h134v-1166h-134z" />
<glyph horiz-adv-x="925" d="M82 418q0 114 42.5 213.5t127 163t192.5 63.5q143 0 226 -125v105h133v-1123q0 -139 -94.5 -239.5t-231.5 -100.5q-140 0 -228.5 81.5t-88.5 217.5v45h133v-14q0 -95 47 -151t137 -56q89 0 141 66t52 162v376q-81 -122 -226 -122q-108 0 -192.5 63t-127 162t-42.5 213z M221 418q0 -130 60 -221t163 -91t164.5 91.5t61.5 220.5t-61.5 221t-164.5 92t-163 -91.5t-60 -221.5z" />
<glyph horiz-adv-x="905" d="M82 1024q0 114 42.5 213.5t127 163t192.5 63.5q143 0 226 -125v105h133v-838h-133v103q-81 -123 -226 -123q-108 0 -192.5 63t-127 162t-42.5 213zM221 1024q0 -130 60 -220.5t163 -90.5t164.5 91t61.5 220t-61.5 221t-164.5 92t-163 -91.5t-60 -221.5z" />
<glyph horiz-adv-x="833" d="M41 606l299 432l-283 406h154l205 -297l205 297h153l-282 -406l301 -432h-152l-225 322l-223 -322h-152z" />
<glyph horiz-adv-x="593" d="M82 1321v123h143q0 128 68.5 213.5t187.5 85.5v-127q-115 0 -123 -172h154v-123h-154v-715h-133v715h-143z" />
<glyph horiz-adv-x="759" d="M10 838h146l227 -658l211 658h145l-493 -1442h-135l204 606z" />
<glyph horiz-adv-x="425" d="M96 1772h125l88 -256h-125z" />
<glyph horiz-adv-x="425" d="M117 1516l88 256h125l-88 -256h-125z" />
<glyph horiz-adv-x="614" d="M72 1516l178 256h115l178 -256h-137l-101 157l-98 -157h-135z" />
<glyph horiz-adv-x="614" d="M84 1556v160h160v-160h-160zM371 1556v160h159v-160h-159z" />
<glyph horiz-adv-x="614" d="M27 1626q79 94 172 94q48 0 117.5 -35.5t99.5 -35.5q57 0 94 53l80 -78q-79 -94 -174 -94q-48 0 -117.5 36t-97.5 36q-57 0 -95 -54z" />
<glyph horiz-adv-x="614" d="M57 1556v113h502v-113h-502z" />
<glyph horiz-adv-x="614" d="M68 1772h116q0 -58 32.5 -98t90.5 -40q59 0 92 40.5t33 97.5h117q0 -105 -70 -172.5t-172 -67.5q-101 0 -170 67t-69 173z" />
<glyph horiz-adv-x="614" d="M113 1536q0 84 58 142.5t142 58.5q83 0 142 -59t59 -142q0 -84 -58.5 -142.5t-142.5 -58.5q-85 0 -142.5 58t-57.5 143zM211 1536q0 -43 30 -74.5t72 -31.5q41 0 72 31.5t31 74.5q0 42 -31 74t-72 32q-42 0 -72 -32t-30 -74z" />
<glyph horiz-adv-x="614" d="M72 1772h135l98 -158l101 158h137l-178 -256h-115z" />
<glyph horiz-adv-x="905" d="M102 606v1166h134v-435q79 127 225 127q108 0 192.5 -63.5t127 -163t42.5 -213.5t-42.5 -213t-127 -162t-192.5 -63q-148 0 -225 125v-105h-134zM236 1012q3 -126 63 -212.5t162 -86.5q103 0 163 90.5t60 220.5t-60 221.5t-163 91.5q-101 0 -161.5 -88t-63.5 -213v-24z " />
<glyph d="M82 1024q0 114 43 213.5t128 163t193 63.5q124 0 213.5 -79t126.5 -205h-143q-27 72 -78 114.5t-119 42.5q-103 0 -164 -92t-61 -221t61 -220t164 -91q70 0 121.5 43t77.5 116h143q-37 -127 -126.5 -206.5t-215.5 -79.5q-108 0 -193 63t-128 162t-43 213z" />
<glyph horiz-adv-x="905" d="M82 1024q0 114 42.5 213.5t127 163t192.5 63.5q143 0 226 -125v433h133v-1166h-133v103q-81 -123 -226 -123q-108 0 -192.5 63t-127 162t-42.5 213zM221 1024q0 -130 60 -220.5t163 -90.5t164.5 91t61.5 220t-61.5 221t-164.5 92t-163 -91.5t-60 -221.5z" />
<glyph horiz-adv-x="839" d="M102 606v1166h134v-418q76 110 204 110q138 0 217.5 -80.5t79.5 -218.5v-559h-133v529q0 97 -42.5 151.5t-131.5 54.5q-87 0 -139.5 -71.5t-54.5 -167.5v-496h-134z" />
<glyph horiz-adv-x="368" d="M0 309v123q59 0 91 39.5t32 103.5v869h133v-858q0 -125 -67.5 -201t-188.5 -76zM113 1587v154h153v-154h-153z" />
<glyph horiz-adv-x="813" d="M102 606v1166h134v-650l339 322h187l-428 -406l459 -432h-199l-358 338v-338h-134z" />
<glyph horiz-adv-x="1361" d="M123 606v838h133v-90q76 110 205 110q93 0 160.5 -37.5t101.5 -107.5q41 68 103 106.5t137 38.5q138 0 217.5 -80.5t79.5 -218.5v-559h-134v529q0 97 -42.5 151.5t-131.5 54.5q-87 0 -139.5 -71.5t-54.5 -167.5v-496h-133v529q0 97 -42.5 151.5t-131.5 54.5 q-87 0 -140 -71.5t-55 -167.5v-496h-133z" />
<glyph horiz-adv-x="890" d="M82 1024q0 114 43 213.5t128 163t193 63.5t192.5 -63.5t127.5 -163t43 -213.5t-43 -213t-127.5 -162t-192.5 -63t-193 63t-128 162t-43 213zM221 1024q0 -129 61 -220t164 -91t163.5 91t60.5 220q0 130 -60.5 221.5t-163.5 91.5t-164 -92t-61 -221z" />
<glyph horiz-adv-x="931" d="M102 1024q0 114 43 213.5t127.5 163t192.5 63.5q142 0 225 -125v105h133v-1114h-133v379q-81 -123 -225 -123q-108 0 -192.5 63t-127.5 162t-43 213zM242 1024q0 -130 60 -220.5t163 -90.5t164 91t61 220t-61 221t-164 92t-163 -91.5t-60 -221.5z" />
<glyph horiz-adv-x="782" d="M82 866v6h133v-6q0 -73 54.5 -117t127.5 -44q83 0 134 33.5t51 105.5q0 33 -27 56t-70 37t-95 26.5t-104 31t-95 44t-70 72t-27 108.5q0 118 86.5 181.5t216.5 63.5q124 0 209 -73t94 -191h-135q-12 62 -54.5 104t-113.5 42q-77 0 -121.5 -33t-44.5 -94q0 -33 27 -56 t70 -37t95 -26.5t104 -31t95 -44t70 -72t27 -108.5q0 -123 -92.5 -190.5t-229.5 -67.5q-133 0 -224 77t-91 203z" />
<glyph horiz-adv-x="790" d="M41 1444h145l209 -653l209 653h146l-287 -838h-135z" />
<glyph horiz-adv-x="757" d="M8 1444h150l221 -633h10l203 633h145l-274 -801q-21 -95 -85.5 -153t-160.5 -58v127q67 0 96 57z" />
<glyph horiz-adv-x="757" d="M82 606v127l465 584h-445v127h615v-127l-475 -584h475v-127h-635z" />
<glyph horiz-adv-x="1353" d="M41 1444h145l209 -656l213 656h137l213 -656l209 656h146l-287 -838h-135l-215 629l-213 -629h-135z" />
<glyph horiz-adv-x="890" d="M82 1024q0 114 43 213.5t128 163t193 63.5t192.5 -63.5t127.5 -163t43 -213.5v-18h-590q5 -124 66 -209.5t161 -85.5q70 0 128.5 45t87.5 116h139q-36 -125 -132 -205.5t-223 -80.5q-108 0 -193 63t-128 162t-43 213zM229 1124h433q-21 95 -77.5 155t-138.5 60 q-83 0 -139.5 -59.5t-77.5 -155.5zM383 1516l88 256h125l-88 -256h-125z" />
<glyph horiz-adv-x="446" d="M143 1561v159h160v-159h-160z" />
<glyph horiz-adv-x="561" d="M115 -313q0 170 98.5 274.5t265.5 104.5v-66q-103 0 -164 -92t-61 -221h-139z" />
<glyph horiz-adv-x="624" d="M82 1516l88 256h125l-88 -256h-125zM330 1516l88 256h125l-88 -256h-125z" />
<glyph horiz-adv-x="512" d="M111 991v135l149 318h135l-149 -318v-135h-135z" />
<glyph horiz-adv-x="512" d="M154 -475l106 227v135h135v-135l-106 -227h-135z" />
<glyph horiz-adv-x="0" />
<glyph horiz-adv-x="905" d="M82 1024q0 114 42.5 213.5t127 163t192.5 63.5q143 0 226 -125v105h133v-838h-133v103q-81 -123 -226 -123q-108 0 -192.5 63t-127 162t-42.5 213zM221 1024q0 -130 60 -220.5t163 -90.5t164.5 91t61.5 220t-61.5 221t-164.5 92t-163 -91.5t-60 -221.5zM383 1516l88 256 h125l-88 -256h-125z" />
<glyph horiz-adv-x="905" d="M82 1024q0 114 42.5 213.5t127 163t192.5 63.5q143 0 226 -125v105h133v-838h-133v103q-81 -123 -226 -123q-108 0 -192.5 63t-127 162t-42.5 213zM221 1024q0 -130 60 -220.5t163 -90.5t164.5 91t61.5 220t-61.5 221t-164.5 92t-163 -91.5t-60 -221.5zM301 1772h125 l88 -256h-125z" />
<glyph horiz-adv-x="905" d="M82 1024q0 114 42.5 213.5t127 163t192.5 63.5q143 0 226 -125v105h133v-838h-133v103q-81 -123 -226 -123q-108 0 -192.5 63t-127 162t-42.5 213zM215 1516l178 256h115l178 -256h-137l-100 157l-99 -157h-135zM221 1024q0 -130 60 -220.5t163 -90.5t164.5 91t61.5 220 t-61.5 221t-164.5 92t-163 -91.5t-60 -221.5z" />
<glyph horiz-adv-x="905" d="M82 1024q0 114 42.5 213.5t127 163t192.5 63.5q143 0 226 -125v105h133v-838h-133v103q-81 -123 -226 -123q-108 0 -192.5 63t-127 162t-42.5 213zM221 1024q0 -130 60 -220.5t163 -90.5t164.5 91t61.5 220t-61.5 221t-164.5 92t-163 -91.5t-60 -221.5zM227 1556v160h160 v-160h-160zM514 1556v160h160v-160h-160z" />
<glyph horiz-adv-x="905" d="M82 1024q0 114 42.5 213.5t127 163t192.5 63.5q143 0 226 -125v105h133v-838h-133v103q-81 -123 -226 -123q-108 0 -192.5 63t-127 162t-42.5 213zM150 1626q79 94 172 94q48 0 117.5 -35.5t99.5 -35.5q57 0 94 53l80 -78q-79 -94 -174 -94q-48 0 -117.5 36t-97.5 36 q-57 0 -95 -54zM221 1024q0 -130 60 -220.5t163 -90.5t164.5 91t61.5 220t-61.5 221t-164.5 92t-163 -91.5t-60 -221.5z" />
<glyph d="M82 1024q0 114 43 213.5t128 163t193 63.5q124 0 213.5 -79t126.5 -205h-143q-27 72 -78 114.5t-119 42.5q-103 0 -164 -92t-61 -221t61 -220t164 -91q70 0 121.5 43t77.5 116h143q-32 -106 -100.5 -180.5t-163.5 -97.5l-131 -397h-127l129 391q-94 14 -166.5 79 t-109.5 158t-37 199z" />
<glyph horiz-adv-x="890" d="M82 1024q0 -114 43 -213t128 -162t193 -63q127 0 223 80.5t132 205.5h-139q-29 -71 -87.5 -116t-128.5 -45q-100 0 -161 85.5t-66 209.5h590v18q0 114 -43 213.5t-127.5 163t-192.5 63.5t-193 -63.5t-128 -163t-43 -213.5zM229 1124q21 96 77.5 155.5t139.5 59.5 q82 0 138.5 -60t77.5 -155h-433zM301 1772h125l88 -256h-125z" />
<glyph horiz-adv-x="890" d="M82 1024q0 114 43 213.5t128 163t193 63.5t192.5 -63.5t127.5 -163t43 -213.5v-18h-590q5 -124 66 -209.5t161 -85.5q70 0 128.5 45t87.5 116h139q-36 -125 -132 -205.5t-223 -80.5q-108 0 -193 63t-128 162t-43 213zM215 1516l178 256h115l178 -256h-137l-100 157 l-99 -157h-135zM229 1124h433q-21 95 -77.5 155t-138.5 60q-83 0 -139.5 -59.5t-77.5 -155.5z" />
<glyph horiz-adv-x="890" d="M82 1024q0 114 43 213.5t128 163t193 63.5t192.5 -63.5t127.5 -163t43 -213.5v-18h-590q5 -124 66 -209.5t161 -85.5q70 0 128.5 45t87.5 116h139q-36 -125 -132 -205.5t-223 -80.5q-108 0 -193 63t-128 162t-43 213zM223 1556v160h160v-160h-160zM229 1124h433 q-21 95 -77.5 155t-138.5 60q-83 0 -139.5 -59.5t-77.5 -155.5zM510 1556v160h160v-160h-160z" />
<glyph horiz-adv-x="358" d="M96 1516l88 256h125l-88 -256h-125zM113 606v838h133v-838h-133z" />
<glyph horiz-adv-x="358" d="M55 1772h125l88 -256h-125zM113 606h133v838h-133v-838z" />
<glyph horiz-adv-x="358" d="M-53 1516l178 256h115l178 -256h-137l-101 157l-98 -157h-135zM113 606v838h133v-838h-133z" />
<glyph horiz-adv-x="358" d="M-45 1556v160h160v-160h-160zM113 606v838h133v-838h-133zM242 1556v160h159v-160h-159z" />
<glyph d="M123 606h133v496q2 96 55 167.5t140 71.5q89 0 131.5 -54.5t42.5 -151.5v-529h133v559q0 138 -79.5 218.5t-217.5 80.5q-129 0 -205 -110v90h-133v-838zM170 1626q79 94 172 94q48 0 117.5 -35.5t99.5 -35.5q57 0 94 53l80 -78q-79 -94 -174 -94q-48 0 -117.5 36 t-97.5 36q-56 0 -94 -54z" />
<glyph horiz-adv-x="890" d="M82 1024q0 114 43 213.5t128 163t193 63.5t192.5 -63.5t127.5 -163t43 -213.5t-43 -213t-127.5 -162t-192.5 -63t-193 63t-128 162t-43 213zM221 1024q0 -129 61 -220t164 -91t163.5 91t60.5 220q0 130 -60.5 221.5t-163.5 91.5t-164 -92t-61 -221zM383 1516l88 256h125 l-88 -256h-125z" />
<glyph horiz-adv-x="890" d="M82 1024q0 114 43 213.5t128 163t193 63.5t192.5 -63.5t127.5 -163t43 -213.5t-43 -213t-127.5 -162t-192.5 -63t-193 63t-128 162t-43 213zM221 1024q0 -129 61 -220t164 -91t163.5 91t60.5 220q0 130 -60.5 221.5t-163.5 91.5t-164 -92t-61 -221zM301 1772h125l88 -256 h-125z" />
<glyph horiz-adv-x="890" d="M82 1024q0 114 43 213.5t128 163t193 63.5t192.5 -63.5t127.5 -163t43 -213.5t-43 -213t-127.5 -162t-192.5 -63t-193 63t-128 162t-43 213zM213 1516l178 256h115l178 -256h-137l-101 157l-98 -157h-135zM221 1024q0 -129 61 -220t164 -91t163.5 91t60.5 220 q0 130 -60.5 221.5t-163.5 91.5t-164 -92t-61 -221z" />
<glyph horiz-adv-x="890" d="M82 1024q0 114 43 213.5t128 163t193 63.5t192.5 -63.5t127.5 -163t43 -213.5t-43 -213t-127.5 -162t-192.5 -63t-193 63t-128 162t-43 213zM221 1024q0 -129 61 -220t164 -91t163.5 91t60.5 220q0 130 -60.5 221.5t-163.5 91.5t-164 -92t-61 -221zM223 1556v160h160 v-160h-160zM510 1556v160h160v-160h-160z" />
<glyph horiz-adv-x="890" d="M82 1024q0 114 43 213.5t128 163t193 63.5t192.5 -63.5t127.5 -163t43 -213.5t-43 -213t-127.5 -162t-192.5 -63t-193 63t-128 162t-43 213zM166 1626q79 94 172 94q48 0 117.5 -35.5t99.5 -35.5q57 0 94 53l80 -78q-79 -94 -174 -94q-48 0 -117.5 36t-97.5 36 q-56 0 -94 -54zM221 1024q0 -129 61 -220t164 -91t163.5 91t60.5 220q0 130 -60.5 221.5t-163.5 91.5t-164 -92t-61 -221z" />
<glyph d="M123 885v559h133v-529q0 -97 42.5 -151.5t131.5 -54.5q88 0 141.5 74.5t53.5 172.5v488h133v-838h-133v88q-75 -108 -205 -108q-138 0 -217.5 80.5t-79.5 218.5zM362 1516l89 256h124l-88 -256h-125z" />
<glyph d="M123 885q0 -138 79.5 -218.5t217.5 -80.5q129 0 205 110v-90h133v838h-133v-496q-2 -96 -55 -167.5t-140 -71.5q-89 0 -131.5 54.5t-42.5 151.5v529h-133v-559zM301 1772h125l88 -256h-125z" />
<glyph d="M123 885v559h133v-529q0 -97 42.5 -151.5t131.5 -54.5q85 0 138.5 71t56.5 166v498h133v-838h-133v88q-75 -108 -205 -108q-138 0 -217.5 80.5t-79.5 218.5zM195 1516l178 256h114l179 -256h-138l-100 157l-98 -157h-135z" />
<glyph d="M123 885v559h133v-529q0 -97 42.5 -151.5t131.5 -54.5q87 0 140 71.5t55 167.5v496h133v-838h-133v90q-76 -110 -205 -110q-138 0 -217.5 80.5t-79.5 218.5zM227 1556v160h160v-160h-160zM514 1556v160h160v-160h-160z" />
</font>
</defs>
</svg>
