<?xml version="1.0" standalone="no"?>
<!DOCTYPE svg PUBLIC "-//W3C//DTD SVG 1.1//EN" "http://www.w3.org/Graphics/SVG/1.1/DTD/svg11.dtd" >
<svg xmlns="http://www.w3.org/2000/svg" xmlns:xlink="http://www.w3.org/1999/xlink" version="1.1">
<metadata></metadata>
<defs>
<font id="leucadiaregular" horiz-adv-x="1138" >
<font-face units-per-em="2048" ascent="1638" descent="-410" />
<missing-glyph horiz-adv-x="624" />
<glyph horiz-adv-x="0" />
<glyph unicode="&#xd;" horiz-adv-x="624" />
<glyph unicode=" "  horiz-adv-x="624" />
<glyph unicode="&#x09;" horiz-adv-x="624" />
<glyph unicode="&#xa0;" horiz-adv-x="624" />
<glyph unicode="!" horiz-adv-x="796" d="M-59 31q0 29 14 60.5t37.5 59t52.5 46t57 18.5q20 0 37 -7t35 -11q0 -10 8 -20.5t8 -35.5q0 -29 -15 -59.5t-39.5 -57t-55.5 -43t-60 -16.5q-23 0 -51 20.5t-28 45.5zM190 436q0 8 20.5 55.5t55.5 120t80 164.5t92 188.5t94.5 189.5t87 171t67.5 131t38 68q23 37 62.5 49 t80.5 12q27 0 57.5 -14.5t45.5 -36.5l-695 -1141l-67 -2q-14 10 -16.5 19.5t-2.5 25.5z" />
<glyph unicode="&#x22;" horiz-adv-x="1024" d="M268 856q16 92 47 193.5t56 195.5q16 59 59 104.5t107 47.5q29 2 48 -13.5t13 -46.5q-6 -35 -23.5 -74.5t-35.5 -74.5l-154 -287q-14 -25 -33.5 -57.5t-54.5 -34.5q-23 0 -28 14.5t-1 32.5zM621 837.5q-5 14.5 0 32.5q16 92 46.5 193.5t55.5 196.5q16 59 59 104t107 47 q29 2 48 -13t13 -46q-6 -35 -23.5 -75t-35.5 -75l-154 -287q-14 -25 -33.5 -57.5t-54.5 -34.5q-23 0 -28 14.5z" />
<glyph unicode="#" horiz-adv-x="681" d="M-51 481q0 33 28.5 49.5t67.5 22.5t78 6h61q98 0 198.5 -1t197.5 -13q23 -4 45 -15.5t22 -40.5q0 -31 -29.5 -45t-68.5 -20t-79 -5t-60 1q-25 0 -86.5 1t-129 3t-126 5t-74.5 9t-30.5 14.5t-14.5 28.5zM25 725q0 33 28.5 49.5t66.5 22.5t77 6h61q98 0 198.5 -1t198.5 -14 q23 -4 45.5 -15t22.5 -38l-2 -2q0 -31 -29.5 -45t-68.5 -20t-78 -5t-60 1q-25 0 -86 1t-128.5 3t-126 5t-74.5 9t-30.5 14.5t-14.5 28.5zM78 328q0 16 9 61t22.5 105.5t31 128t33.5 128t30.5 105.5t20.5 59q10 18 27.5 35t42.5 15q23 0 34 -17.5t11 -36.5v-2q0 -23 -8 -65.5 t-20.5 -96t-28 -113t-30.5 -113.5t-29.5 -98t-22.5 -69q-10 -27 -32 -54.5t-52 -27.5q-23 0 -31 19.5t-8 36.5zM315 313q0 14 9.5 60.5t22.5 107t30.5 128t34 128t31 105.5t20.5 59q10 18 27.5 34.5t41.5 14.5q23 0 34.5 -17.5t11.5 -37.5q0 -23 -8.5 -66t-20.5 -96 t-27.5 -112.5t-31 -113.5t-30 -98t-22.5 -69q-10 -27 -31.5 -54.5t-52.5 -29.5q-23 0 -31 19.5t-8 37.5z" />
<glyph unicode="$" horiz-adv-x="1251" />
<glyph unicode="%" horiz-adv-x="1024" d="M96 49q18 39 58.5 119t93.5 183.5t116.5 224t131 239.5t134 229.5t126 195.5t107.5 136t79 51q27 0 53.5 -14t26.5 -45v2q0 -29 -18.5 -64.5t-32.5 -60.5q-8 -16 -28.5 -40.5t-43 -51.5t-44 -51.5t-34.5 -42.5q-70 -90 -133 -182.5t-123 -190.5q-33 -53 -61.5 -106.5 t-57.5 -106.5q-10 -18 -29.5 -58t-45 -90.5t-54 -103.5t-55 -99t-51.5 -79t-41 -39q-14 -6 -29 -6q-20 0 -33.5 15.5t-11.5 35.5zM385 1153q0 68 43 115t113 47q35 0 57.5 -19.5t22.5 -54.5q0 -23 -16.5 -52.5t-41 -57t-53.5 -47t-51 -19.5q-43 0 -58.5 24.5t-15.5 63.5z M416 236q2 68 44 114.5t109 46.5q35 0 57.5 -19t22.5 -54q0 -23 -16.5 -52.5t-41 -57.5t-53 -47.5t-51.5 -19.5q-43 0 -57 25t-14 64z" />
<glyph unicode="&#x26;" horiz-adv-x="1593" d="M223 174q0 78 53.5 156t128 146.5t157.5 124.5t143 91q16 10 43.5 45t56.5 78t56.5 83t41.5 60q18 23 52 58t77 74.5t92.5 79.5t95.5 72t87 52.5t67 20.5q16 0 30.5 -1t29.5 -1q4 -18 9 -24.5t7 -28.5h-2q0 -57 -44 -130t-105.5 -142.5t-129 -127t-116.5 -84.5 q-12 2 -25.5 10.5t-17.5 22.5l282 283v41q-16 4 -17 7t-24 3q-43 0 -93 -50.5t-98 -118t-87 -135t-58 -102.5q-2 -2 -8 -15t-13 -27.5t-13.5 -27t-6.5 -16.5q0 -39 41 -39q8 0 39 17.5t72 40.5q47 25 99.5 46t91.5 21q27 0 44 -13t17 -42q0 -16 -11.5 -35.5t-27.5 -37 t-35.5 -30t-36.5 -12.5q-10 0 -15 6.5t-10 12.5t-12.5 12t-21.5 6q-43 0 -94 -29.5t-95.5 -72.5t-75 -93.5t-30.5 -93.5q0 -18 11.5 -40.5t27.5 -42t36.5 -33t41.5 -13.5q12 0 34.5 7.5t45 17.5t45 20.5t35.5 16.5l28 -39q-12 -27 -52 -63.5t-88 -71.5t-95 -59.5t-76 -24.5 q-41 0 -77 19.5t-64 49.5q-29 35 -45.5 78t-16.5 84q2 51 10.5 101.5t12.5 99.5q2 12 3 24.5t1 24.5q-16 4 -17.5 7t-21.5 3q-27 0 -50.5 -20.5t-42 -49t-29.5 -61.5t-13 -55q16 -12 33.5 -22.5t32 -21.5t23.5 -26.5t9 -38.5q0 -31 -16.5 -65.5t-43 -64t-59.5 -48t-65 -18.5 q-39 0 -67 16.5t-46 42t-26.5 59t-8.5 66.5z" />
<glyph unicode="'" horiz-adv-x="512" d="M317 846q0 10 2.5 21.5t6.5 21.5l104 362q16 53 58 97.5t102 44.5q27 0 49.5 -12.5t22.5 -41.5v-2q0 -12 -7.5 -34.5t-17.5 -45t-21.5 -45t-19.5 -34.5l-160 -279q-14 -25 -33.5 -55.5t-54.5 -30.5q-31 0 -31 33z" />
<glyph unicode="(" horiz-adv-x="796" d="M12 303q0 195 58.5 361.5t157 312t229.5 272.5t274 240q6 6 23.5 15t36 18.5t36 16.5t25.5 7t10 -9t2 -13v-2q0 -2 -22.5 -25.5t-58 -58.5t-77.5 -77t-80 -79t-67 -66.5t-39 -39.5q-16 -20 -31.5 -40t-31.5 -40q-23 -29 -41.5 -58.5t-36.5 -58.5q-141 -225 -210 -478 t-60 -521l-21 -29q-16 4 -27.5 24.5t-21.5 51.5q-8 33 -14.5 73.5t-8.5 79.5t-3 72t-1 51z" />
<glyph unicode=")" horiz-adv-x="796" d="M23 8v29q162 131 280.5 274.5t198.5 304t123 342t55 385.5q2 35 8 71t2 71l29 -2q6 -16 16 -47t19.5 -65t16.5 -64.5t7 -46.5q2 -35 -1 -70t-3 -70v-37q0 -18 4 -36l2 2h-2q-14 -147 -80.5 -303t-167 -297.5t-224.5 -257t-253 -183.5h-30z" />
<glyph unicode="*" horiz-adv-x="1251" d="M106 686q0 29 16.5 54.5t41 46t53.5 35t55 20.5q33 6 61.5 9t55.5 8t55.5 14.5t61.5 27.5q4 4 12 12.5t8 14.5l-6 6q-23 12 -48.5 21.5t-53.5 9.5q-20 0 -40 -3.5t-40 -3.5q-35 0 -65.5 15.5t-30.5 58.5q0 23 17 46.5t42 45.5q25 23 53.5 36.5t51.5 13.5q39 0 53 -16.5 t22 -43.5q10 -33 20.5 -71.5t51.5 -69.5q2 -2 10 -2q10 0 17.5 16.5t12.5 38t9 43t4 31.5q-2 23 -7 45t-5 45q2 41 22.5 80t55.5 63q45 33 94 33q18 0 31 -6q25 -8 24 -45q-2 -29 -15 -57.5t-30 -51.5q-18 -25 -39.5 -46t-42.5 -44q-23 -29 -39 -60.5t-32 -64.5 q-2 -4 -4.5 -6t-2.5 -6q0 -10 13 -6q4 0 16 4q37 20 63.5 40.5t49 43l46 46t50.5 48.5q27 23 65.5 45.5t75.5 22.5q25 0 41 -17q12 -18 13 -47l-2 2q0 -31 -15.5 -56.5t-40 -46t-53.5 -33.5t-53 -19q-43 -10 -65.5 -12.5t-44 -5.5t-49.5 -12t-77 -32q-4 -4 -11 -7t-7 -11 l12 -6q23 -10 47.5 -18.5t50.5 -8.5q23 0 42.5 3t41.5 3q33 0 64 -14.5t31 -55.5q0 -23 -15.5 -46t-38.5 -46q-25 -23 -54.5 -39t-53.5 -16q-51 0 -72 49q-12 31 -14 47.5t-5 30.5t-14.5 29.5t-44.5 44.5q-8 8 -14 10q-10 0 -17.5 -8t-5.5 -19q-10 -27 -18 -55.5t-8 -56.5 q0 -23 6 -45.5t6 -44.5q0 -41 -22.5 -80t-57.5 -64q-43 -33 -92 -33q-18 0 -31 7q-27 10 -26 43q0 29 14 57.5t31 50.5q29 37 47 57.5t34.5 40t33 45t40.5 72.5q2 4 4.5 7t2.5 7q0 2 -5 7q-6 0 -11 -4.5t-9 -8.5q-31 -23 -61.5 -41t-57.5 -45q-25 -23 -46 -47t-46 -47 q-29 -25 -67.5 -46t-77.5 -21q-25 0 -37 22q-10 16 -11 43z" />
<glyph unicode="+" horiz-adv-x="681" d="M-23 477q0 39 44.5 57.5t100.5 24.5t111.5 5t79.5 -1q72 0 148 1t147 -7q23 -2 44.5 -13t21.5 -40q0 -18 -12.5 -30.5t-30 -21t-35.5 -11.5t-33 -5q-72 -6 -145.5 -7t-145.5 -3h-53q-37 0 -77 1t-75.5 3t-48.5 6q-16 4 -28.5 13.5t-12.5 27.5zM178 178q0 14 10.5 60.5 t25.5 107t33.5 128t36 126.5t33 104.5t21.5 57.5q10 20 27.5 38.5t42.5 18.5q23 0 33 -17.5t10 -37.5t-9.5 -62.5t-22.5 -96.5t-30.5 -114.5t-34 -116t-32 -100.5t-23.5 -67q-10 -27 -32.5 -54.5t-53.5 -27.5q-23 0 -29 17.5t-6 35.5z" />
<glyph unicode="," horiz-adv-x="681" d="M53 -334q53 25 111.5 59.5t111 77.5t93.5 94.5t57 110.5q6 20 15.5 50t9.5 51q0 2 -1 4t-1 4q-18 18 -25.5 27.5t-15 12.5t-20.5 2t-44 -1l-10 2q-10 0 -9 -20.5t1 -30.5q0 -51 -20.5 -93.5t-82.5 -44.5q-39 0 -53 31t-14 66q0 43 18.5 82.5t49 71.5t70.5 50.5t83 18.5 q74 0 116 -45t42 -117l2 2q0 -88 -47.5 -167t-119 -144.5t-154.5 -115.5t-157 -79z" />
<glyph unicode="-" horiz-adv-x="681" d="M-23 492q0 35 41 51q25 10 58 15t65.5 6t61 0t43.5 -1h172t172 -8q27 -4 54.5 -19.5t27.5 -43.5q0 -31 -42 -44.5t-96.5 -18.5t-105.5 -3t-72 2h-2h-67t-97.5 1t-95.5 3t-61 6q-20 6 -38 18.5t-18 35.5z" />
<glyph unicode="." horiz-adv-x="681" d="M174 127q10 35 33.5 65.5t54.5 55t65.5 40t67.5 17.5q68 4 105 -42t14 -116h-2q-10 -35 -33.5 -66.5t-53.5 -55t-64.5 -39t-69.5 -17.5q-70 -4 -103.5 43t-13.5 115z" />
<glyph unicode="/" horiz-adv-x="569" d="M63 0l351 1399q10 39 37.5 71.5t68.5 32.5q37 0 50.5 -25.5t13.5 -56.5v-12q0 -6 -2 -10l-422 -1399q-4 -14 -22.5 -35.5t-33.5 -21.5q-20 0 -30.5 13t-10.5 32v12z" />
<glyph unicode="0" horiz-adv-x="1251" d="M86 209q0 41 9 86t24.5 90t33 88t33.5 78q35 76 90.5 173t125 198.5t152.5 198t173 171t185.5 120.5t189.5 46q55 0 102 -29t47 -92q0 -25 -17 -55.5t-43 -57t-54.5 -45t-51.5 -18.5q-25 0 -40 12.5t-28 28t-29.5 27.5t-45.5 12q12 -31 22.5 -69.5t16.5 -79.5t9 -82 t3 -76q-4 -184 -61 -359q-31 -88 -87.5 -194.5t-133 -199.5t-172 -156.5t-201.5 -63.5q-55 0 -101.5 18.5t-80 50t-52 78t-18.5 101.5zM375 489q0 -90 26.5 -136t124.5 -46q35 0 66 19.5t57 42.5q55 51 98.5 125.5t73 157.5t45 167t15.5 158q0 61 -11.5 122.5t-17.5 123.5 v-2q-70 -31 -135.5 -97.5t-121.5 -148.5t-101 -167t-74 -155q-12 -33 -28.5 -81t-16.5 -83z" />
<glyph unicode="1" horiz-adv-x="1251" d="M59 63q0 20 42 88t106.5 160t143.5 197.5t151.5 200t130 168t80.5 102.5v49q-10 18 -15.5 23.5t-27.5 5.5q-14 0 -54.5 -32t-83.5 -72t-81.5 -77.5t-53.5 -52.5l-82 19l-2 67q123 102 245 199.5t245 196.5q66 53 129 107t129 108q18 16 40.5 21t47.5 5q29 0 38 -8t32 -12 v-80q0 -4 -29 -49t-77 -119t-110.5 -167t-128 -192.5t-131 -197.5t-120 -180t-93 -140.5t-51.5 -81.5q-14 -25 -25.5 -56.5t-18.5 -66t-11 -67.5t-6 -61q-12 -23 -31.5 -41.5t-48.5 -18.5h-254q-18 10 -21.5 21.5t-3.5 33.5z" />
<glyph unicode="2" horiz-adv-x="1251" d="M4 109q0 16 11.5 44.5t27.5 59.5t32.5 59.5t24.5 42.5q61 100 142.5 173t179.5 137q63 41 127.5 76.5t130.5 70.5t139.5 77t138 96t107.5 121t43 153q0 53 -35 78.5t-84 25.5q-31 0 -61.5 -8t-55 -24.5t-40 -41t-15.5 -59.5q0 -12 12.5 -26.5t30 -29t34.5 -26.5t26 -21 l-2 3q-23 -72 -79.5 -110t-129.5 -38q-61 0 -95 21.5t-34 89.5q0 37 18 82t49 82.5t70 65.5t78 30l2 -2l-2 8q18 12 64 36.5t96.5 49.5t94.5 44t62 19q47 0 92 -25.5t79 -64.5t54.5 -87t20.5 -93q0 -35 -26.5 -92t-64.5 -115.5t-79 -109t-70 -68.5q-59 -39 -145 -87 t-181.5 -102.5t-193.5 -113.5t-183 -120.5t-146.5 -125t-86.5 -125.5q72 57 158 85t175 47.5t177 42t164 71.5h78v-78q0 -14 -32 -58t-73 -93.5t-79.5 -90t-55.5 -47.5q-27 -12 -52.5 -16t-53.5 -4q-43 0 -110.5 1t-138.5 6t-135.5 15.5t-101.5 26.5q-12 0 -29.5 3 t-32.5 10.5t-25.5 18.5t-10.5 30z" />
<glyph unicode="3" horiz-adv-x="1251" d="M-33 322q0 41 21.5 88t56.5 86t79 64.5t87 25.5q16 0 36.5 -7.5t39 -18.5t31 -27.5t12.5 -34.5t-19.5 -47t-44 -59t-44 -58.5t-19.5 -48.5q0 -27 15 -49.5t38 -37t49.5 -22.5t50.5 -8q59 0 127 38t126.5 95t98.5 125t40 127t-42 86t-100.5 37t-121 12t-99.5 10 q-4 27 -10 51.5t-8 49.5q51 37 123.5 70.5t151.5 68.5t157 74t139 88t99 111.5t36 142.5q-41 41 -98 64.5t-117 27.5q-70 -41 -70 -129q0 -29 5.5 -55.5t5.5 -55.5q0 -33 -12.5 -55.5t-34 -35.5t-49 -19t-56.5 -6q-53 0 -86 33.5t-33 86.5q0 41 31 83t81 82t111.5 74 t123 59.5t117 41t89.5 15.5q49 0 90 -18.5t72 -51.5t48.5 -76t17.5 -90q0 -100 -38 -164.5t-98.5 -106.5t-137.5 -68.5t-155.5 -51.5t-153.5 -54.5t-130 -76.5q53 4 104.5 6t104.5 2q35 0 76 -10t75.5 -30.5t57 -51.5t22.5 -74q0 -72 -30.5 -150.5t-77.5 -153.5 t-105.5 -138.5t-113.5 -104.5q-78 -57 -170.5 -86.5t-190.5 -29.5q-72 0 -140.5 23.5t-121.5 67.5t-86 106.5t-33 138.5z" />
<glyph unicode="4" horiz-adv-x="1251" d="M-6 483q33 51 78 103.5t95 102.5t102.5 96t99.5 85q90 74 168.5 151t151.5 159t143.5 166t146.5 170q23 25 61.5 45t71.5 20q12 0 34.5 -4t46.5 -11t40 -19.5t16 -28.5q0 -49 -52 -116t-135 -140.5t-184.5 -149.5t-197.5 -143.5t-176 -121.5t-123 -87q18 -20 52 -32.5 t74 -19t79 -9.5t65 -7q61 92 130 165t143.5 135.5t154.5 123t162 129.5q18 -10 22.5 -20.5t4.5 -30.5q0 -12 -17.5 -44t-44 -73t-58.5 -86t-58.5 -86t-44 -72.5t-17.5 -44.5q0 -20 13.5 -34.5t34 -23.5t42 -13t37.5 -4q23 0 45.5 7t44.5 11l60 -41q-4 -23 -24.5 -45 t-37.5 -37h-84q-49 0 -98 -6t-96 -22q-43 -14 -92.5 -59.5t-94.5 -103t-80.5 -115.5t-54.5 -99q-16 -41 -19 -84t-8 -84q-35 -27 -78.5 -33t-86.5 -6q-47 0 -92.5 7t-86.5 36q0 14 -1 27.5t-1 25.5t21.5 44t49.5 69t53.5 69.5t35.5 49.5q41 66 78 132t78 132 q-43 -8 -87 -14.5t-91 -6.5q-29 0 -54.5 9.5t-54.5 9.5q-43 0 -70.5 -12.5t-50 -31t-44 -40t-54.5 -41.5q-10 -2 -21.5 -3t-21.5 -1q-8 0 -22.5 11t-20.5 15z" />
<glyph unicode="5" horiz-adv-x="1251" d="M-20 328q0 37 13 79t37.5 78.5t59.5 60t76 23.5q43 0 83 -24.5t68 -52.5q-8 -20 -25.5 -46t-34.5 -51.5t-30.5 -50.5t-13.5 -43t13.5 -43t34 -46.5t43 -36.5t40.5 -15q66 0 134.5 48t123.5 117.5t90 148.5t35 140q0 35 -18.5 59.5t-46 41t-61.5 25t-62 8.5 q-53 0 -102.5 -18.5t-96.5 -35.5q-20 12 -21 41q0 14 21.5 50t54.5 86.5t72 105.5t76 107.5t65.5 95.5t40.5 63q14 25 36 64t46.5 75.5t52 67.5t56.5 39q20 6 47.5 8t56.5 2q31 0 60.5 -2t52.5 -2q45 0 90 5t86 30h61q14 0 17.5 -16.5t3.5 -24.5q0 -47 -33 -82t-85 -60.5 t-114.5 -44t-122 -34t-108.5 -29.5t-74 -31q-55 -39 -96 -85t-74 -97t-60.5 -106.5t-58.5 -114.5q27 29 65 59.5t81 56t87 42t85 16.5q57 0 96 -21.5t63.5 -57.5t35 -82t10.5 -97h2q0 -121 -59.5 -249t-154.5 -232.5t-217 -171t-247 -66.5q-74 0 -139.5 21.5t-113.5 63.5 t-75.5 102.5t-27.5 138.5z" />
<glyph unicode="6" horiz-adv-x="1251" d="M18 430q0 76 19.5 149.5t48.5 141.5q88 217 228.5 400.5t344.5 301.5q41 23 82 41.5t82 36.5q53 25 115.5 46.5t124.5 21.5q41 0 79 -18.5t66.5 -49.5t46 -69.5t17.5 -79.5q0 -23 -15.5 -59t-38 -70.5t-50 -60t-52.5 -25.5q-12 0 -33.5 6t-41 16t-34 23.5t-14.5 29.5 q0 39 14.5 72t14.5 70q0 35 -13.5 66.5t-54.5 31.5q-33 0 -63 -12q-25 -10 -52.5 -27.5t-50.5 -32.5q-166 -100 -274 -241.5t-152 -333.5v-2q66 74 144 107.5t174 33.5q129 0 211 -74.5t84 -205.5q0 -29 -3 -60t-14 -59q-49 -152 -142 -283t-230 -213q-57 -35 -126 -45 t-134 -10q-74 0 -131.5 45t-96.5 110.5t-59.5 142.5t-20.5 138zM291 528q0 -61 10 -113.5t35.5 -91t70 -61t113.5 -22.5q41 0 75 23.5t59.5 59t40 77.5t14.5 79q0 55 -20.5 106.5t-57.5 90.5t-86 61.5t-105 22.5q-47 0 -90 -12v2q-4 -16 -13 -49t-19.5 -67t-18.5 -63.5 t-8 -42.5z" />
<glyph unicode="7" horiz-adv-x="1251" d="M-55 -4q0 6 45 58t120.5 134t174 187.5t203 217.5t209 221.5t191.5 201.5t150.5 157.5t85.5 90.5q-23 -10 -47 -16.5t-49 -6.5q-63 0 -122.5 19.5t-123.5 19.5q-70 0 -106.5 -20.5t-63 -49t-53.5 -62.5t-76 -58q-16 4 -20 19t-4 28q0 31 30.5 93t72.5 128.5t85 125 t68 81.5q16 -20 22 -48t4 -55q4 -4 8.5 -8t10.5 -6q49 0 95 16.5t92 37t92 37.5t98 20q72 4 141 4h141v-2q6 -14 6 -31q0 -25 -9 -45.5t-23.5 -39t-32 -33.5t-31.5 -32q-29 -33 -53.5 -68.5t-50.5 -70.5q-61 -84 -124 -165t-126 -161q-104 -135 -210 -265t-210 -265 q-49 -63 -98 -127.5t-92 -130.5q-12 -20 -17.5 -47t-11.5 -51.5t-17.5 -45t-39.5 -30.5h-312q-14 0 -18 17.5t-4 25.5z" />
<glyph unicode="8" horiz-adv-x="1251" d="M0 328q0 129 58.5 222t150.5 161.5t202.5 115.5t215.5 80q4 109 23.5 206t62.5 180t112.5 149.5t175.5 116.5q45 20 103.5 24t105.5 4q82 0 116 -49t34 -125q0 -96 -51.5 -185t-130 -161t-173 -125t-178.5 -78q6 -47 20.5 -91t29 -89t25.5 -91t11 -95q0 -111 -48 -206 t-125.5 -165t-179.5 -110t-208 -40q-174 0 -263 87.5t-89 263.5zM174 354q0 -78 45 -127t127 -49q59 0 102.5 27.5t73 73t48 102.5t28.5 116.5t13 116t3 99.5v75h-2q-63 -41 -139 -79.5t-142.5 -87t-111.5 -112t-45 -155.5zM807 1012q47 35 111.5 73.5t123 86t98.5 102.5 t40 125q0 14 -12.5 23.5t-29 15.5t-35 8t-28.5 2q-78 0 -129 -31t-81.5 -81t-44 -112.5t-13.5 -127.5v-84z" />
<glyph unicode="9" horiz-adv-x="1251" d="M16 270q0 31 17.5 69t45 72.5t61.5 58.5t67 24q16 0 34.5 -6.5t34 -17.5t26.5 -26.5t11 -31.5q0 -18 -10 -39t-22.5 -40.5t-22.5 -40t-10 -38.5q0 -14 11 -33.5t27.5 -36t35 -28t34.5 -11.5q63 0 124 35t115 91.5t102 128t89 144t73 141.5t52 120q-23 -16 -66.5 -39 t-93 -43.5t-94.5 -34.5t-71 -14q-49 0 -82 18.5t-53.5 48t-29.5 68.5t-9 80q0 39 10 94t26.5 111.5t40 106.5t50.5 79l31.5 31.5l31.5 31.5q43 43 82 71t82 43.5t91 21.5t110 6q72 0 125 -27.5t90 -74t55 -105.5t18 -125q0 -104 -36.5 -230t-102 -255t-156 -249t-193.5 -214 t-217 -150.5t-228 -56.5q-55 0 -109.5 20.5t-97.5 57.5t-71 87t-28 107zM559 995q0 -63 27.5 -108t99.5 -45t135 22t129 51q16 47 20.5 88t4.5 93q0 41 -5 79.5t-20.5 71.5t-45.5 52.5t-79 19.5q-43 0 -90 -35t-86 -85t-64.5 -106.5t-25.5 -97.5z" />
<glyph unicode=":" horiz-adv-x="681" d="M94 94q0 41 20.5 80t51.5 69.5t70.5 49t78.5 18.5q53 0 88 -33.5t35 -87.5q0 -41 -19.5 -79.5t-52 -69.5t-72.5 -49.5t-81 -18.5q-53 0 -86 34t-33 87zM299 621q0 41 20.5 79.5t51 69.5t69.5 49.5t78 18.5q53 0 89 -33t36 -86q0 -41 -19.5 -80t-51 -69.5t-72.5 -49 t-82 -18.5q-53 0 -86 32.5t-33 86.5z" />
<glyph unicode=";" horiz-adv-x="681" d="M-8 -342q53 25 112.5 57.5t114.5 74.5t97 92t57 110q4 14 8 27.5t8 27.5q2 10 5 27.5t-1 25.5q-10 16 -38.5 34t-53.5 18q-8 0 -15 -3.5t-10 -13.5q-6 -25 -4 -49.5t-4 -50.5q-10 -35 -35.5 -54.5t-60.5 -19.5q-29 0 -44 14.5t-21.5 38t-5.5 50t8 49.5q8 31 29.5 59.5 t50 52t61.5 37.5t63 14q51 2 87 -17t56.5 -52t23.5 -76t-9 -92q-18 -74 -68.5 -140.5t-117 -120.5t-141 -95t-146.5 -68zM203 602q0 41 20.5 81t53 70.5t73.5 50t80 19.5q51 0 85 -31.5t34 -82.5q0 -41 -20.5 -81t-53.5 -71t-74 -50.5t-82 -19.5q-51 0 -83.5 32t-32.5 83z " />
<glyph unicode="&#x3c;" horiz-adv-x="1024" d="M74 623q0 31 51 63.5t130 64t174 60.5t184 50.5t160 34.5t99 13q18 0 45 -7t27 -36t-28.5 -44t-68.5 -22t-80 -10.5t-60 -7.5q-201 -35 -388 -116q-6 -2 -26.5 -9.5t-42 -15.5t-38.5 -16.5t-17 -12.5l30 -16q31 -16 62.5 -29.5t64.5 -27.5q90 -41 179.5 -82t179.5 -82 q37 -14 75.5 -27.5t73.5 -34.5q16 -10 32.5 -24.5t18.5 -36.5q0 -20 -16 -34.5t-35 -14.5q-31 0 -100.5 24.5t-156.5 61.5t-181 84t-171 94t-127 88t-50 68z" />
<glyph unicode="=" horiz-adv-x="1024" d="M162 434q0 29 28.5 42t51.5 18q88 10 178 12t178 2h55t86 -6t80 -19.5t35 -38.5q0 -10 -8 -19t-17 -15q-10 -10 -45.5 -16.5t-84 -9.5t-103.5 -5t-106.5 -3t-92.5 -1h-61q-12 0 -42 1t-58.5 7t-51 18.5t-22.5 32.5zM229 682q0 29 29 42t51 17q88 10 178.5 12.5t178.5 2.5 h55t85 -6.5t79 -19.5t35 -38q0 -10 -8.5 -19t-14.5 -16q-10 -10 -46 -16t-84 -9t-103.5 -5t-106.5 -3t-92 -1h-62q-12 0 -41.5 1t-58.5 7t-51.5 18.5t-22.5 32.5z" />
<glyph unicode="&#x3e;" horiz-adv-x="1024" d="M90 889q0 29 26.5 36t47.5 7q29 0 99.5 -13.5t159.5 -35t184 -50t174 -60.5t130.5 -64.5t51.5 -63.5h-2q0 -27 -50.5 -67.5t-127 -88t-170 -94.5t-180.5 -84t-156.5 -61.5t-100.5 -24.5q-18 0 -35.5 14.5t-17.5 34.5q0 23 18.5 36.5t34.5 23.5q35 20 74 34.5t76 28.5 q90 41 179 82t179 82q33 14 64.5 27.5t62.5 29.5l31 17q0 4 -17.5 12t-39 16.5t-42 15.5t-26.5 9q-186 82 -387 117q-20 4 -60.5 7t-80 10t-69.5 22.5t-30 44.5z" />
<glyph unicode="?" horiz-adv-x="1024" d="M-39 49q0 68 43 115t113 47q35 0 57.5 -19.5t22.5 -54.5q0 -23 -16.5 -52.5t-41 -57t-53.5 -47t-51 -19.5q-43 0 -58.5 24.5t-15.5 63.5zM137 459q0 35 32 85t76 102t90 96t73 65q55 41 142 101.5t169 132t141.5 149.5t59.5 153q0 51 -17.5 70t-66.5 19q-53 0 -92 -28 t-69 -69t-54.5 -88t-48 -88t-49 -68.5t-60.5 -27.5t-61.5 13.5t-26.5 53.5q0 37 30.5 85.5t73.5 94.5t89 85t75 59q70 47 156 86t172 39q90 0 137 -47t47 -137v2q0 -20 -10 -55t-24.5 -71t-32 -69t-31.5 -49q-39 -45 -85 -84t-93 -76q-74 -59 -156 -124.5t-156.5 -138.5 t-138 -153.5t-100.5 -170.5q-33 -4 -65 -12.5t-64 -8.5q-27 0 -44.5 25.5t-17.5 48.5z" />
<glyph unicode="@" d="M115 403q0 68 29.5 147t80.5 157.5t118 151.5t141.5 129t151.5 90t146 34q45 0 89 -18.5t79 -49t56.5 -71.5t21.5 -88q0 -66 -31.5 -132.5t-79 -129t-101.5 -116.5t-99 -97q-29 -25 -66 -53.5t-78 -28.5q-45 0 -45 16t2 47q0 12 -7 16.5t-17 2.5q-6 0 -19.5 -12.5 t-29 -28t-35 -28.5t-37.5 -13t-32.5 10t-25 26.5t-16.5 35t-6 34.5q0 70 39 139.5t98.5 130t129 105.5t130.5 65q12 4 41 12.5t39 10.5q10 0 24.5 -3t30 -9t25.5 -15.5t10 -21.5q0 -57 -26.5 -103.5t-62 -89.5t-69.5 -87t-46 -97q10 -4 10 -6h12q16 0 29.5 18.5t23.5 28.5 l7 -2q25 31 56.5 72t60 85t48 88t19.5 83q0 66 -36 118t-107 56q-27 0 -52.5 -8.5t-50.5 -18.5q-86 -35 -168 -90t-145.5 -128t-101 -160t-37.5 -185q0 -63 17 -104.5t49 -66t78 -33.5t103 -9q45 0 83 15.5t72 33.5t64.5 33.5t61.5 15.5q6 0 6 -4q-6 -18 -41 -42.5 t-77 -47.5t-83 -40t-61 -21q-55 -12 -111 -13q-129 0 -205.5 64.5t-76.5 199.5zM457 549q0 -18 8 -35.5t29 -17.5q20 0 61 43t82 97t71.5 106.5t30.5 72.5q0 8 -10 8q-37 0 -84 -29.5t-89 -71.5t-70.5 -89t-28.5 -84z" />
<glyph unicode="A" horiz-adv-x="1251" d="M-129 217q0 59 5 90t15.5 52.5t26.5 45t41 70.5q16 16 26.5 33.5t22.5 34.5q41 53 99.5 72.5t123.5 19.5q33 0 56.5 -13.5t23.5 -50.5q0 -20 -13 -41.5t-32.5 -39t-42 -28.5t-43.5 -11q-20 0 -34.5 13t-36.5 13q-16 0 -34 -8t-32 -22.5t-23.5 -31t-9.5 -34.5 q0 -35 32 -66.5t67 -31.5q59 0 122.5 45t125 106.5t114.5 128t88 109.5q0 16 -13.5 21t-27.5 5q-27 0 -49.5 -11t-48.5 -13q-31 23 -31 63q0 35 21.5 55.5t51.5 31t63.5 13.5t58.5 3q27 0 53.5 -3t50.5 -16q37 45 110.5 127t167 180.5t197 200t200.5 184t181 135t135 52.5 q45 0 76 -31h2h-2q-94 -156 -192.5 -309.5t-195.5 -309t-186 -314t-165 -324.5q-25 -55 -45.5 -112.5t-38.5 -115.5q-10 -29 -19.5 -58.5t-21.5 -57.5q-8 -16 -25.5 -29.5t-38 -23t-42 -14.5t-37.5 -5q-45 0 -72 35t-27 75q0 33 10.5 65t22.5 62.5t22.5 61.5t10.5 63 q0 29 -7.5 55.5t-43.5 26.5q-14 0 -43 -32.5t-71 -82t-95.5 -107.5t-113.5 -107.5t-128 -82t-137 -32.5q-98 0 -151.5 62.5t-53.5 158.5zM782 705q27 -68 31 -144q0 -25 -6 -49l33 -20l510 790q-23 -6 -68 -45t-99.5 -94.5t-114.5 -122t-115.5 -128t-100.5 -112.5t-70 -75z " />
<glyph unicode="B" horiz-adv-x="1478" d="M-94 203q0 47 33.5 118.5t85 138t111 114t110.5 47.5h125q4 -18 10 -28.5t6 -31.5q0 -16 -9 -32.5t-23.5 -29t-31 -20.5t-30.5 -8q-23 0 -42.5 6t-41.5 6q-20 0 -45 -13t-45.5 -33.5t-33.5 -44t-13 -46.5q0 -14 11 -28.5t27.5 -26.5t34 -19.5t29.5 -7.5q35 0 76 26.5 t84 69.5t85 96.5t80 105.5t67.5 98.5t45.5 72.5q20 33 40 68t42 63q39 49 74 101.5t70 103.5q78 113 158.5 222.5t172.5 211.5q4 4 10.5 11.5t6.5 13.5q-4 4 -17 4q-6 0 -20 -4t-29.5 -10.5t-30 -11.5t-20.5 -9q-66 -31 -120 -79t-97 -107q-23 -29 -43.5 -59.5t-38.5 -61.5 q-10 -18 -29.5 -53t-42 -70t-48 -60.5t-48.5 -25.5q-43 0 -67.5 22.5t-24.5 65.5q0 66 38 132.5t98.5 129t137 120.5t155.5 107.5t151.5 88.5t123.5 61q23 10 51.5 21.5t60.5 22.5t62.5 18.5t55.5 7.5q129 0 195.5 -76t66.5 -199q0 -80 -45 -178t-112.5 -190.5t-146.5 -169 t-147 -115.5q39 -84 39 -172q0 -68 -28.5 -144.5t-76.5 -153.5t-112.5 -146.5t-136.5 -124t-145.5 -86t-143.5 -31.5q-37 0 -79 9t-78.5 28.5t-63.5 50.5t-33 74q-59 -72 -126.5 -118t-166.5 -46q-96 0 -147 60.5t-51 152.5zM621 424q2 -4 33.5 -12.5t72.5 -15.5t79 -13 t50 -6q53 0 102.5 27.5t87 71.5t60 97.5t22.5 104.5q0 16 -20.5 48t-48 63.5t-55 55t-41.5 23.5t-23.5 -11t-17.5 -21t-34 -44t-58.5 -78t-69.5 -93.5t-67.5 -92.5t-51 -71.5t-20.5 -32.5zM1061 1014l11 -5t25.5 -11.5t28 -11.5t17.5 -9q43 35 101.5 80t112.5 99t92 112.5 t38 117.5q0 16 -6 39t-17.5 43.5t-28 35t-36.5 14.5q-10 0 -15.5 -7.5t-9.5 -13.5q-74 -119 -144.5 -240.5t-160.5 -230.5q-8 -8 -8 -12z" />
<glyph unicode="C" horiz-adv-x="1366" d="M-14 1061q0 41 19.5 86t52 84t74.5 63.5t85 24.5q20 0 32.5 -6t31.5 -10v-60q-10 -8 -24.5 -23.5t-27 -33t-20.5 -34.5t-8 -32q0 -27 30.5 -55.5t57.5 -28.5q25 0 74 45t102 103.5t99 113t65 74.5q35 41 71.5 79t77.5 73q41 37 101.5 79t127 77.5t133 59t122.5 23.5 q37 0 62.5 -15t41.5 -41t23.5 -57.5t7.5 -62.5h2q0 -72 -45 -148.5t-110.5 -146t-138.5 -126t-130 -87.5q-117 -66 -247 -111.5t-261 -76.5q-41 -76 -66.5 -159t-25.5 -169q0 -31 7 -64.5t23.5 -61t43 -45t63.5 -17.5q39 0 75 15.5t63.5 42t45 62t17.5 74.5q0 35 -18.5 61.5 t-55.5 26.5q-23 0 -42 -6t-42 -6q-14 10 -16 20.5t-2 26.5q0 29 25.5 64t62.5 63.5t75.5 48t65.5 19.5q31 0 58.5 -15.5t47 -40t31.5 -55.5t12 -59q0 -61 -29.5 -139t-78.5 -158t-114.5 -156t-137.5 -135t-144.5 -95t-138.5 -36q-51 0 -92 23.5t-69.5 60.5t-44 84t-15.5 96 q0 78 21.5 152.5t49.5 149.5t55.5 151t37.5 151q-31 29 -70 42.5t-74.5 28.5t-60 42t-24.5 82zM584 1079q35 12 94 35t129 52.5t141.5 66.5t129 79t94 88t36.5 93v2q0 49 -32.5 65.5t-77.5 16.5q-35 0 -64.5 -14.5t-54.5 -36.5q-4 -8 -23.5 -28.5t-42 -44t-44 -45.5 t-29.5 -30q-70 -72 -134.5 -145.5t-121.5 -153.5z" />
<glyph unicode="D" horiz-adv-x="1593" d="M8 162q0 57 31 126.5t81 130t111.5 101.5t122.5 41q23 0 29 -6t25 -10v-74q-20 -43 -44 -50t-63 -7q-57 0 -86 -54l2 -67q10 -14 27.5 -31.5t38.5 -17.5q31 0 84 57t115.5 146.5t128 197t124 206.5t102.5 177t62 109q53 86 107.5 170t115.5 166q8 8 6 18q0 8 -12 8 q-16 0 -50 -11t-50 -20q-80 -39 -132.5 -113.5t-91 -149.5t-70.5 -130t-71 -55q-41 0 -72.5 26.5t-31.5 69.5q0 59 42 130t108.5 141.5t150.5 137t170 117t165 81t134 30.5q74 0 130 -26.5t93 -71.5t55.5 -105.5t18.5 -130.5q0 -33 -10.5 -78t-25.5 -92t-30.5 -91t-27.5 -75 q-29 -74 -79 -184.5t-117 -232t-146.5 -243.5t-166.5 -219.5t-180.5 -158.5t-185.5 -61q-59 0 -126.5 16t-108.5 63q-43 -41 -97.5 -75.5t-117.5 -34.5q-39 0 -74 18.5t-59.5 48t-39 66.5t-14.5 76zM672 389q0 -8 11 -12t26.5 -7t30 -4t22.5 -1q78 0 152.5 48t141 126.5 t124 178t98.5 200t63.5 193.5t22.5 159v16q0 14 -2 27.5t-5 24t-7 10.5q-4 -2 -8.5 -4.5t-8.5 -6.5q-158 -242 -321.5 -471t-331.5 -463q-8 -8 -8 -14z" />
<glyph unicode="E" horiz-adv-x="1366" d="M-8 227q0 70 35.5 152t90 164t117 158.5t117 136t91 95.5t36.5 38q-10 10 -20 10q-6 0 -16.5 -8t-39.5 -8q-47 0 -66.5 33.5t-19.5 74.5q0 12 11.5 36t28 48.5t34 42t31.5 17.5q18 0 36.5 -1.5t37.5 -1.5q10 -16 6 -47.5t-4 -50.5q4 -4 4 -10q0 -4 -1 -9t1 -8.5t12 -3.5 q66 68 146.5 152t173 155.5t192.5 121t201 49.5q27 0 56.5 -7.5t54 -21.5t41 -36.5t16.5 -53.5q0 -66 -49.5 -132.5t-120 -119.5t-150.5 -87t-139 -34q-20 0 -37.5 8t-34.5 19q29 37 83 64.5t107.5 57t93.5 64.5t40 88q0 33 -21.5 45.5t-50.5 12.5q-57 0 -121.5 -37 t-119 -92.5t-90 -120t-35.5 -119.5q0 -18 9 -42t24.5 -43.5t36 -32.5t40.5 -13q10 0 28.5 9t38 20.5t38 20.5t30.5 9q23 0 38.5 -17.5t15.5 -37.5l-2 2q0 -37 -38 -71t-88.5 -59.5t-103.5 -40.5t-84 -15q-51 0 -99 15t-71 69q-33 -39 -81 -93.5t-93 -115t-76.5 -120 t-31.5 -112.5q0 -23 13 -46t32.5 -42.5t44 -32t45.5 -12.5q37 0 72.5 16.5t64.5 43t46 61.5t17 70q0 20 -2 30q-16 20 -41.5 34.5t-52.5 23.5l2 53q6 6 24.5 17.5t39 21.5t41 17t28.5 7q23 0 43.5 -11t37 -29.5t25.5 -41t9 -45.5q0 -94 -53 -187t-134 -167t-179.5 -120 t-190.5 -46q-96 0 -158.5 62.5t-62.5 156.5z" />
<glyph unicode="F" horiz-adv-x="1251" d="M-88 203q0 82 32.5 153.5t86 130t122 100.5t142.5 64h8q23 0 40 -16.5t17 -38.5q0 -18 -10 -43t-27.5 -45.5t-38 -34.5t-42.5 -14q-18 0 -37 4t-37 4t-40 -9t-40 -23.5t-29.5 -34t-11.5 -42.5q0 -45 37 -78.5t82 -33.5q55 0 121.5 44t126 106.5t101.5 133t46 123.5 q-33 23 -75 29t-76 29v10q0 61 35.5 107t101.5 46q16 0 24 -2v-8q2 -16 -1 -30.5t-1 -28.5q0 -23 8.5 -36t30.5 -13q14 0 57.5 40t99.5 99t117.5 128t113 129t84 101t32.5 43q-4 2 -14 2h-324q-31 0 -45 -12t-18 -30.5t-2 -41t2 -45.5q0 -66 -34 -87t-95 -21q-43 0 -71 18.5 t-28 65.5q0 66 43 117t112 90t155 66.5t171 44t160.5 24.5t124.5 8q16 0 23 -2q31 6 61 6q31 0 60.5 2t57.5 11.5t54 33.5l58 -18v2l2 -2h-2q-4 -41 -35 -74t-73 -59.5t-87 -45t-80 -28.5q-86 -109 -160.5 -221.5t-160.5 -220.5q4 -12 15 -36t11 -34v-14 q-76 -57 -141.5 -138.5t-127.5 -168.5t-127 -173t-137.5 -154.5t-159.5 -110.5t-198 -42q-39 0 -73.5 15.5t-61 42t-41 62.5t-14.5 75z" />
<glyph unicode="G" horiz-adv-x="1478" d="M2 150q0 86 43 179t112.5 169.5t157.5 127t179 50.5q47 0 84.5 -21.5t37.5 -74.5q0 -25 -12 -46.5t-31.5 -38t-43 -26.5t-46.5 -10q-14 0 -27.5 10t-27.5 22.5t-28.5 22.5t-30.5 10q-80 0 -126 -55q-44 -53 -44 -125v-6q0 -68 43 -102.5t106 -34.5q80 0 149.5 40t130 99 t108.5 129t85 129q18 29 38 60.5t36 62.5v8l-6 4q-41 -4 -82 -6t-82 -2q-57 0 -78.5 27.5t-31 64.5t-17.5 76t-41 61q-10 -2 -18 -2t-17 -2q-29 0 -57.5 8.5t-52 24.5t-39 41t-15.5 57q0 18 12.5 43t31 46.5t40 38t39.5 16.5q16 2 33 2h35q4 -8 4 -15q0 -18 -8 -34.5 t-8 -34.5t10 -27.5t26 -17.5h33q23 0 34 15t22 32q49 88 117.5 170t152.5 144.5t181 99t204 36.5q61 0 110.5 -44t57.5 -103q-18 -94 -91 -169t-171.5 -131t-204 -95t-187.5 -62l-8 -10q0 -14 12.5 -25.5t29 -19.5t33.5 -12t30 -4q43 0 76.5 16t58 34.5t42 35t30.5 16.5 l77 2q20 -12 17 -41h2q0 -29 -23.5 -56.5t-55.5 -52t-66.5 -44t-57.5 -31.5q-8 -59 -30.5 -115.5t-49.5 -110.5q-10 -23 -37.5 -70.5t-63.5 -108t-76 -125t-79 -119t-71.5 -90t-51.5 -37.5l-12 14q-8 -2 -21.5 -14.5t-28.5 -25.5t-31.5 -26.5t-29.5 -19.5 q-14 -6 -43.5 -13.5t-62.5 -14.5t-62.5 -11t-46.5 -4q-117 0 -173 65.5t-56 176.5zM819 1128l6 -6q23 0 65 12.5t92 32t103.5 45t96.5 53t70.5 55.5t27.5 52v-2q0 37 -26.5 50.5t-55.5 11.5q-57 0 -118.5 -26t-114 -67t-91 -94t-53.5 -108z" />
<glyph unicode="H" horiz-adv-x="1593" d="M10 164q0 57 26.5 126.5t72 130t103.5 101.5q55 39 116 39h6l96 -2q4 -16 9 -19t5 -26q0 -18 -16 -39.5t-38.5 -39t-47.5 -30t-41 -12.5t-27.5 5t-27.5 5q-35 0 -63.5 -30.5t-28.5 -65.5q0 -14 9 -29.5t22.5 -27.5t29.5 -20.5t31 -8.5q53 0 113.5 44t119 105.5t107.5 125 t82 102.5l2 35q-29 10 -65 11h-14q-28 0 -52 -3q-12 8 -15.5 16.5t-3.5 24.5q0 29 20.5 52.5t51.5 41t63.5 27.5t57.5 10q23 0 42 -9t36 -9q4 0 6 4t6 8q63 111 147 233.5t179.5 242.5t195.5 229.5t199 191.5h84q12 -8 14 -16.5t2 -22.5q0 -2 -45 -67.5t-115.5 -167 t-155.5 -222.5t-164 -232.5t-140.5 -198.5t-85.5 -120q6 -20 6 -53t3 -64.5t13 -58t35 -35.5q35 39 73.5 105.5t79.5 143.5t84 157t87 147.5t88.5 112.5t89.5 53q16 -10 23 -21t7 -32q0 -2 -20.5 -43t-51 -103.5t-67.5 -137t-70.5 -141t-58.5 -119t-33 -68.5 q-29 -66 -51 -133.5t-39 -139.5q-12 -49 -27.5 -97t-41 -86t-65.5 -61.5t-99 -23.5q-12 0 -27.5 10.5t-28 23.5t-20.5 29.5t-8 28.5q0 31 10 63.5t21.5 64.5t21.5 64.5t10 63.5q0 27 -15.5 52.5t-31.5 46.5q-31 -6 -61.5 -37t-58 -69t-53.5 -77t-46 -63q-37 -41 -80 -82 t-92 -73t-103.5 -52.5t-113.5 -20.5q-47 0 -84 20.5t-61.5 53.5t-38 74t-13.5 84z" />
<glyph unicode="I" horiz-adv-x="909" d="M-344 154q0 70 35 150.5t92 150t130 115.5t146 46q78 0 78 -71q0 -18 -10 -42t-25.5 -45.5t-36 -36.5t-38.5 -15q-25 0 -45.5 13t-44.5 13q-53 0 -89 -33.5t-36 -89.5q0 -70 38.5 -91t98.5 -21q51 0 101 25.5t97.5 66.5t91.5 94t81.5 107.5t69.5 105.5t54 90 q25 45 48.5 93t52.5 91q-8 12 -13.5 15.5t-21.5 3.5q-10 0 -34.5 -20.5t-51.5 -44t-50.5 -44t-31.5 -20.5q-20 0 -33.5 21.5t-13.5 37.5q0 37 17.5 63.5t44 46t56 36t56.5 34.5q139 98 279.5 206t248.5 243q20 27 37 52.5t35 51.5q16 23 36.5 38.5t49.5 15.5q20 0 27.5 -5.5 t23.5 -9.5v-84q0 -2 -18.5 -30.5t-41 -62.5t-42 -62.5t-23.5 -32.5q-160 -238 -314.5 -475.5t-295.5 -487.5q-39 -70 -104.5 -146.5t-146.5 -140t-169 -104.5t-174 -41q-102 0 -161.5 64.5t-59.5 165.5z" />
<glyph unicode="J" horiz-adv-x="909" d="M-350 158q0 72 42 158.5t106.5 162.5t143 126t154.5 50q33 0 57.5 -17t24.5 -52q0 -18 -13 -45t-32.5 -50.5t-42 -41t-41.5 -17.5q-25 0 -46 21.5t-46 21.5t-49.5 -17.5t-44 -42t-32.5 -53t-13 -51.5q0 -59 42 -95t97 -36q53 0 120.5 48t140.5 124t146.5 169t138 182.5 t117 166t80.5 117.5q59 84 121 166t127 160q-72 -31 -138.5 -53.5t-126.5 -51t-113.5 -71.5t-96.5 -117q-4 -6 0 -14q0 -23 9.5 -47.5t13.5 -47.5q-10 -57 -53.5 -80.5t-96.5 -23.5q-55 0 -82.5 32.5t-27.5 86.5q0 90 59 162.5t149.5 132t198 106.5t203.5 83t166.5 63.5 t87.5 48.5q10 12 38.5 40.5t61.5 59.5t63.5 53.5t45.5 22.5q23 0 46 -26.5t23 -49.5v2q0 -25 -12 -48.5t-30.5 -44t-40 -37.5t-40.5 -30q-51 -80 -106 -157.5t-109 -155.5q-135 -193 -271 -386.5t-253 -397.5q-47 -82 -109.5 -163t-139.5 -145.5t-167 -103.5t-192 -39 q-111 0 -184.5 63.5t-73.5 178.5z" />
<glyph unicode="K" horiz-adv-x="1478" d="M-31 178q0 66 31 134.5t80 124t113.5 91t132.5 35.5q29 0 52 -20.5t23 -48.5q0 -20 -11 -38t-27.5 -30t-36 -19.5t-35.5 -7.5q-18 0 -35.5 6.5t-36.5 6.5q-14 0 -30.5 -11.5t-31 -27t-24.5 -32.5t-10 -30q0 -47 35 -61t71 -14q45 0 84 26q14 10 51 52t84.5 101.5 t99.5 126t95 126t70.5 102.5t27.5 55q0 27 -32 41h-33q-12 0 -22.5 -7t-21.5 -16t-22.5 -17.5t-25.5 -8.5q-29 0 -43.5 17.5t-14.5 44.5q0 39 22.5 65.5t54.5 43t70 23.5t68 7q25 0 48.5 -6t46.5 -6q29 0 67.5 43t83.5 107.5t93 140t94.5 140t87.5 107.5t71 43 q23 0 43.5 -13t36.5 -30q-16 -37 -52 -95t-79 -127t-90 -140.5t-85 -136t-62.5 -116.5t-24.5 -81q29 37 95.5 101.5t145 128t153.5 109.5t120 46q16 0 32.5 -6t32.5 -8v-82q-10 -10 -29.5 -30t-41 -40t-42 -34.5t-34.5 -14.5q-6 0 -10 4l2 2q2 6 -4 7t-10 1q-29 0 -85.5 -47 t-115 -110.5t-107.5 -125t-67 -90.5v-36q-1 -57 -13 -113q-11 -48 -10 -97v-16l2 -75q8 -6 22.5 -14.5t29 -17.5t24.5 -20.5t10 -21.5q0 -37 -29.5 -85t-72.5 -91t-90 -73t-84 -30q-53 0 -84 31t-31 84q0 43 25.5 109.5t56.5 139.5t56.5 141.5t25.5 111.5q0 27 -31 41 q-49 -49 -97 -119t-98.5 -143.5t-104.5 -147.5t-114.5 -131t-129 -93t-150.5 -36q-39 0 -76 20.5t-63.5 52t-43 71.5t-16.5 77z" />
<glyph unicode="L" d="M-207 166q0 49 26.5 99t68.5 91t93.5 67t100.5 26q25 0 54.5 -12.5t47.5 -28.5q-10 -20 -31.5 -40t-43.5 -20q-18 0 -25.5 6t-26.5 6q-35 0 -61.5 -31.5t-26.5 -64.5q0 -23 28 -39t48 -16q23 0 62.5 33.5t88 85t97.5 114t90 122t66.5 107.5t25.5 68q0 43 -27.5 55.5 t-61.5 21.5t-61.5 28.5t-27.5 77.5q0 18 15.5 51t39 65.5t49 56t43.5 23.5h93q4 -16 9 -17t5 -18q0 -12 -10.5 -25.5t-21.5 -27.5t-21.5 -28.5t-10.5 -28.5q0 -43 20.5 -49t55.5 -6q20 0 35.5 3t32.5 17q31 31 55.5 71t52.5 74q29 37 71 87.5t93 102.5t106.5 104.5t113 92 t112.5 65.5t104 26q45 0 77 -38t32 -81q0 -41 -14.5 -80t-34.5 -74q-47 -80 -116 -149.5t-148.5 -127t-167.5 -102.5t-172 -80q-74 -141 -172.5 -267t-202.5 -245q-8 -8 -8 -14l8 -8q14 -6 43 -23.5t57.5 -38t53 -36t30.5 -15.5q10 0 24.5 13.5t30 30t27.5 33.5t21 26h43 q12 -6 14 -16.5t2 -20.5q0 -51 -36 -90t-66 -74q-25 -29 -49.5 -58.5t-53.5 -53t-61.5 -39t-75.5 -15.5q-78 0 -135.5 46t-79.5 118q-20 -20 -49 -47t-60.5 -49.5t-65.5 -39t-65 -16.5q-49 0 -82.5 21.5t-54 55.5t-30 76t-9.5 83zM913 1032q2 0 3.5 -1t5.5 -1 q16 0 47.5 15.5t69.5 39t77 54t71 60.5t52.5 58t20.5 46q0 35 -12.5 45t-45.5 10q-43 0 -84 -35t-77.5 -82t-66.5 -98t-50 -84q-8 -16 -11 -27z" />
<glyph unicode="M" horiz-adv-x="1705" d="M51 207q0 31 21 57q8 49 37.5 97.5t72.5 88t95.5 64.5t101.5 25q25 0 47.5 -14.5t22.5 -43.5q0 -43 -31 -66.5t-70 -23.5q-18 0 -35.5 6t-36.5 6q-33 0 -61.5 -32.5t-28.5 -63.5t22.5 -52.5t53.5 -21.5q55 0 128 52.5t160 138.5t182 195.5t193.5 224t198 224.5t190.5 196 t174 138t148 52q14 0 27.5 -4t28.5 -8q4 -14 8 -15q4 0 4 -18q0 -33 -21.5 -51.5t-50 -30.5t-60.5 -21.5t-52 -23.5q-25 -16 -61 -47t-72.5 -66.5t-69.5 -70.5t-49 -60q-18 -29 -45 -77t-55.5 -106t-56.5 -121.5t-49.5 -123t-34.5 -110.5t-13 -84q0 -31 28 -45 q49 41 91.5 90t78.5 102q31 45 67 107.5t78 125t88 114t95 71.5q39 -20 39 -63q0 -8 -22.5 -43t-56.5 -86.5t-74 -113t-73.5 -122.5t-56 -116.5t-22.5 -96.5q0 -23 17.5 -30t33.5 -7t33.5 6t34.5 15q27 -20 26 -52q0 -35 -29.5 -83t-71.5 -91t-89 -72.5t-82 -29.5 q-29 0 -53.5 13.5t-24.5 47.5q0 12 7 33t16.5 44.5t18.5 46t15 34.5l-32 31q-39 -18 -74 -60.5t-71 -85.5t-72.5 -74.5t-79.5 -31.5q-20 0 -36 12t-24 29.5t-12 38t-4 39.5q0 27 15.5 70.5t38 95t50 105.5t50 100t38 78t15.5 40l-2 4q-10 -2 -45 -48t-85.5 -113.5 t-115 -146.5t-137 -145.5t-150.5 -111.5t-155 -45q-106 0 -146.5 56.5t-40.5 154.5z" />
<glyph unicode="N" horiz-adv-x="1478" d="M-115 182q0 66 29 132.5t78 119.5t111.5 88t129.5 35q23 0 51.5 -13.5t28.5 -39.5q0 -16 -13 -34.5t-33.5 -34t-41 -26t-37.5 -10.5q-16 0 -32.5 6.5t-32.5 6.5q-35 0 -62.5 -27t-27.5 -61q0 -39 30.5 -68t67.5 -29q35 0 73 19.5t66 42.5q66 53 126.5 117.5t117.5 133 t113.5 139.5t111.5 134q35 39 96.5 108.5t138.5 151.5t163 167t166.5 153.5t151.5 112.5t118 44h49q10 -10 13 -24.5t3 -30.5q0 -37 -17 -62.5t-43 -44t-56.5 -33t-57.5 -28.5q-37 -18 -83 -52t-92 -74t-87 -81t-67 -71q-10 -12 -33 -61.5t-49.5 -118t-55 -147.5t-52 -148.5 t-39 -121t-15.5 -67.5t4 -31.5t27 -15.5q18 0 47.5 45t68.5 114.5t86 153.5t98.5 161t105.5 138.5t110 83.5q29 -18 28 -47q0 -12 -13 -38.5t-30.5 -57.5t-35 -58.5t-25.5 -39.5q-53 -78 -100.5 -160t-85.5 -168q-20 -47 -42 -112.5t-45.5 -133t-50 -126t-61.5 -93.5 q-33 -31 -86 -31q-47 0 -76 29t-45 71t-21.5 89t-5.5 82q0 59 12.5 115.5t30 110.5t38 108.5t36.5 109.5l4 14l-6 9q-8 -4 -22.5 -21.5t-29.5 -39t-28.5 -42t-19.5 -29.5q-49 -74 -121 -177t-159 -198.5t-183 -163t-195 -67.5q-215 0 -215 213z" />
<glyph unicode="O" horiz-adv-x="1593" d="M219 262q0 92 50 220t133 266.5t191.5 275.5t224.5 244.5t230.5 175t211.5 67.5q33 0 53 -13t32.5 -34.5t17.5 -48t5 -53.5q0 -72 -20.5 -141.5t-55.5 -134t-82 -122t-100 -100.5q-39 -109 -81 -218t-107 -204q-37 -55 -97.5 -130.5t-131 -143.5t-147.5 -116t-151 -48 q-39 0 -70.5 28.5t-55 68.5t-37 84t-13.5 77zM506 459q0 -53 21.5 -87t80.5 -34q55 0 109.5 48t100.5 113.5t83 136.5t60 114q-45 -31 -73 -49.5t-55.5 -27.5t-61.5 -12.5t-89 -3.5q-27 20 -27 50q0 25 17.5 40t42 23t51.5 12t45 6q18 4 52 19.5t67 37t57.5 46t24.5 45.5 q0 16 -9.5 27.5t-21.5 17.5l-80 -12q-29 18 -29 47q0 20 16.5 42.5t39 41t49.5 31t45 12.5q25 0 38 -12.5t22.5 -31t18.5 -38t21 -33.5q53 23 75 77t22 105q0 20 -7.5 43t-19.5 41.5t-30.5 30.5t-41.5 12q-14 0 -46 -20.5t-65.5 -46t-63.5 -52t-42 -38.5 q-57 -61 -126.5 -149.5t-129 -187t-100.5 -198.5t-41 -186z" />
<glyph unicode="P" horiz-adv-x="1366" d="M-80 223q0 49 28.5 106.5t73 105.5t98.5 81t105 33q18 0 37 -4t31 -21v-51q-16 -14 -41 -29.5t-47 -15.5q-16 0 -27.5 5t-27.5 5q-12 0 -29 -10t-32 -24.5t-26.5 -31t-11.5 -28.5q0 -35 29 -58.5t59 -23.5q39 0 93.5 46t106.5 109.5t93 127t51 100.5q-14 10 -31.5 20.5 t-33 22.5t-25.5 26.5t-10 35.5q0 12 8 29.5t18.5 33.5t22.5 31.5t21 23.5l71 -16q-23 -18 -22 -49q0 -10 1 -13.5t3 -5.5t4 -5t4 -11q14 -4 18.5 -7t20.5 -3q14 0 49 34.5t80 89t94 120t94 125t81 106.5t50 65q-39 -10 -77.5 -36.5t-74.5 -55t-68.5 -51t-57.5 -22.5 q-23 0 -39 17t-16 40q0 33 31.5 65.5t80.5 62.5t110.5 54.5t120 42t108.5 27.5t79 10q53 0 101.5 -14.5t84 -44t57 -72.5t21.5 -100v-2q0 -59 -23.5 -115.5t-54.5 -104.5q-57 -86 -136 -154.5t-171 -116.5t-192.5 -74.5t-202.5 -28.5q-51 -78 -113.5 -180.5t-139.5 -194.5 t-168 -155.5t-198 -63.5q-31 0 -57 20.5t-44.5 49t-30 62.5t-11.5 60zM762 748q74 12 158 42.5t155.5 80t118.5 117t47 155.5q0 47 -17.5 86t-60.5 59q-53 -49 -107.5 -116.5t-106.5 -142.5t-99 -148.5t-88 -132.5z" />
<glyph unicode="Q" horiz-adv-x="1593" d="M387 221q0 43 9.5 96.5t23.5 107.5t32.5 105.5t36.5 90.5q29 63 85.5 147t130 173t158.5 176t173 156.5t173 111.5t159 42q53 0 92 -30.5t39 -85.5q0 -72 -47 -164t-112.5 -182.5t-138.5 -169t-122 -123.5q-4 -41 -17 -88t-32.5 -94.5t-42 -90.5t-45.5 -77 q-25 -39 -53.5 -74t-55 -71t-44 -76t-17.5 -91q0 -47 17.5 -68.5t38 -32.5t38 -19.5t17.5 -30.5q0 -18 -14.5 -38t-35 -34t-43 -23.5t-40.5 -9.5q-37 0 -52.5 19.5t-19.5 47t-1 59.5t3 54q0 35 -11.5 65t-58.5 30q-29 0 -54.5 -16.5t-53.5 -16.5q-33 0 -54.5 25.5t-35 62.5 t-19.5 75t-6 62zM662 446q0 -20 1 -43.5t9 -43t23.5 -32t43.5 -12.5q31 0 65 28t62.5 65.5t48 79.5t19.5 69t-13.5 50.5t-13.5 51.5q0 18 8.5 49t21.5 61t31.5 52.5t39.5 22.5q8 0 17 -8.5t18.5 -20.5t16.5 -24.5t9 -20.5q25 31 62.5 78t73.5 100t60.5 106.5t24.5 92.5 t-13 66.5t-58 27.5q-37 0 -84.5 -28.5t-95.5 -74.5t-95 -103.5t-88 -115t-70.5 -108.5t-44.5 -84q-29 -68 -54 -136.5t-25 -144.5z" />
<glyph unicode="R" horiz-adv-x="1478" d="M-70 199q0 57 26 119.5t69 114.5t98 87t117 35q8 0 22 -5t27.5 -13.5t23 -18.5t9.5 -20q0 -18 -10.5 -36t-27 -31t-36 -22.5t-35.5 -9.5t-28.5 6.5t-28.5 6.5q-43 0 -70 -21.5t-27 -66.5q0 -43 27 -67t68 -24q37 0 79.5 33t89 85t91.5 115.5t86 125t74.5 114t56.5 80.5 q-6 18 -19.5 23.5t-29.5 5.5q-27 0 -50.5 -12t-52.5 -12q-16 0 -28.5 8t-22.5 18q0 10 -1 18.5t-1 18.5q0 29 21.5 50.5t51 35.5t62.5 21.5t55 7.5q23 0 44.5 -6.5t44.5 -6.5t50 21.5t57 54.5t59.5 75t55 81t47 72.5t34.5 52.5q2 4 4 6t2 4q0 4 -4 4q-25 0 -60 -26.5 t-72.5 -58.5t-72.5 -58.5t-57 -26.5q-20 0 -37 14.5t-33 24.5q0 16 2 33.5t12 34.5q14 20 44 43.5t65 45t68.5 39t56.5 29.5q78 41 165 66.5t177 25.5q55 0 104 -17t86 -49t59.5 -78t22.5 -103q0 -86 -49 -173t-124 -156t-166 -113t-175 -44q-29 0 -58.5 -2t-58.5 -6 q-10 -2 -11 -6t-1 -14q0 -12 12.5 -48t12.5 -73q-2 -55 -6.5 -110.5t-4.5 -110.5q0 -31 3.5 -47.5t12.5 -27.5t24.5 -19.5t41.5 -22.5q2 -4 2 -10q0 -4 2 -11q0 -35 -27.5 -82t-67.5 -90t-85 -72.5t-80 -29.5q-23 0 -39 11t-26 29.5t-15.5 40t-5.5 40.5q0 31 18.5 88 t42 121.5t42 125t18.5 95.5q0 10 -6 31.5t-16 21.5h-15q-20 0 -52 -45t-75 -111.5t-96 -145.5t-115.5 -145.5t-135.5 -111.5t-152 -45q-94 0 -136.5 57.5t-42.5 143.5zM924 913q4 -6 12 -6q61 0 127.5 16.5t123 51.5t92.5 88t36 125q0 23 -6 50.5t-19.5 51t-33 40 t-48.5 16.5q-6 0 -28.5 -29t-54 -74t-66.5 -98t-64.5 -100.5t-50 -84t-20.5 -47.5z" />
<glyph unicode="S" d="M-94 236q0 23 10 55.5t18 54.5q53 131 152.5 227.5t235.5 143.5q4 0 14 4t21.5 7t22.5 6t13 3q23 0 51.5 -14t30.5 -43v2v-2q0 -23 -13 -49.5t-33.5 -48t-45.5 -36t-49 -14.5q-18 0 -32.5 11.5t-35.5 11.5q-37 0 -71.5 -22.5t-60 -56.5t-42 -72.5t-16.5 -73.5 q0 -20 10 -32.5t25.5 -19t33 -8.5t33.5 -2q66 0 135.5 52.5t132 125t111.5 151.5t76 130q6 12 15 30.5t16.5 38t12.5 39t5 33.5q-29 27 -57.5 38.5t-52 25.5t-38 40.5t-14.5 86.5q0 33 12.5 67.5t35 64.5t53 48t65.5 18q14 0 32.5 -18t29.5 -29v-41q-8 -6 -21.5 -18 t-26 -26.5t-21.5 -30t-9 -25.5q0 -45 13 -59.5t54 -14.5q43 0 79 37t71 91.5t74.5 118t92 117.5t120 91t159.5 37q25 0 43.5 -12.5t30.5 -33t17.5 -42.5t5.5 -45q0 -57 -32 -121t-80 -122t-102.5 -105.5t-101.5 -73.5q-49 -29 -98 -43.5t-109 -22.5q-14 -4 -18 -9t-10 -19 q-35 -68 -77 -157t-92.5 -182t-108.5 -183.5t-128 -161t-149.5 -114.5t-171.5 -44q-47 0 -92.5 19.5t-79 52t-54 76.5t-20.5 92zM971 1028q0 -4 8 -8q4 0 12 4q37 10 84 32.5t89 53.5t70 70t28 84q0 18 -8.5 40.5t-32.5 22.5q-39 0 -77 -35t-71 -82t-57.5 -96t-38.5 -80z " />
<glyph unicode="T" horiz-adv-x="1251" d="M-86 174q0 43 16.5 95.5t42 102.5t58 93t65.5 70q16 14 45 30.5t59.5 31.5t61.5 25.5t51 10.5q23 0 47.5 -14.5t24.5 -38.5h-2q0 -20 -12.5 -45t-29.5 -45.5t-38.5 -35t-44.5 -14.5q-16 0 -31.5 7.5t-33.5 7.5t-40 -18.5t-39.5 -43t-29.5 -51.5t-12 -43q0 -20 11 -33.5 t27.5 -20.5t36 -9.5t35.5 -2.5q47 0 87 15.5t75 41t65.5 58.5t57.5 68q72 86 127 183t115 189q147 223 352 404q29 25 57.5 50.5t57.5 49.5q8 4 8 8q-4 8 -13 9h-383q-35 0 -48 -15.5t-13 -46.5q0 -23 3 -43t3 -41q0 -66 -39 -87t-98 -21q-39 0 -65.5 22.5t-26.5 63.5 q0 12 12 35.5t28.5 50t34 49t27.5 33.5q43 47 109.5 82.5t142.5 60.5t152.5 37t140.5 12q31 0 61.5 -6t61.5 -6q70 0 146.5 16.5t135.5 55.5h41q10 -8 13.5 -14.5t3.5 -20.5q0 -33 -20.5 -57.5t-50.5 -44t-61.5 -34t-56.5 -24.5q-23 -10 -45 -33q-27 -27 -69.5 -66.5 t-86.5 -81.5t-83 -82t-58 -69q-72 -104 -139 -208.5t-133 -215.5q-39 -61 -68.5 -122.5t-60.5 -120t-70 -113.5t-98 -109q-29 -27 -80 -55.5t-108.5 -52t-112.5 -38.5t-94 -15q-84 0 -144.5 52t-60.5 138z" />
<glyph unicode="U" horiz-adv-x="1478" d="M55 168q0 16 5.5 44t11.5 56.5t13 56t13 42.5q10 31 45 87t81 123.5t98.5 139t95.5 130t71.5 96.5t28.5 40q0 8 -10 8t-21.5 -3t-23.5 -3q-47 0 -94 10.5t-86 34t-62.5 61t-23.5 93.5q0 31 13 67.5t35.5 68.5t52.5 53.5t62 21.5q25 0 55.5 -11.5t49.5 -27.5v-62 q-35 -23 -61.5 -40t-26.5 -64q0 -53 34.5 -71.5t80.5 -18.5q78 0 135 52t105 114.5t88 115t81 52.5q16 0 28.5 -10.5t19.5 -25t11.5 -31.5t4.5 -30q0 -57 -26 -95t-60.5 -67.5t-71.5 -54t-59 -55.5q-20 -27 -52 -73t-69 -103.5t-75 -120.5t-67.5 -121.5t-49 -106.5 t-19.5 -79q0 -20 2 -42t28 -22h15q29 0 63.5 29t71.5 73t74 98t69.5 106.5t59 97.5t43.5 67q84 119 163.5 237t159.5 236q43 63 86 130t90 126q12 16 32 22.5t40 6.5q29 0 46.5 -18.5t17.5 -44.5l2 -2q-2 -25 -33 -81.5t-80 -134t-110.5 -171t-127 -190.5t-127 -192.5 t-109.5 -176t-78 -143t-30 -95.5q0 -23 17.5 -39t40.5 -16q25 0 47 11t47 13q12 -8 14 -16t2 -25q0 -41 -34.5 -96t-86 -105.5t-107.5 -84t-97 -33.5q-25 0 -34 15t-9 38q0 51 17 99t20 98l-21 20q-45 -31 -91 -76t-94 -88t-99.5 -73.5t-106.5 -30.5q-74 0 -114 56t-40 124z " />
<glyph unicode="V" horiz-adv-x="1251" d="M109 164q0 80 33.5 172t85 181t112.5 168t115 134q10 10 10 15q-2 4 -37 7t-76 16t-73.5 46t-32.5 98q0 31 10 61t28.5 53.5t45 37.5t59.5 14q18 0 34.5 -7t33.5 -17v-62q-4 1 -8 1q-25 0 -49 -24q-26 -26 -27 -57q0 -35 26.5 -57t59.5 -22q29 0 59.5 21.5t63 48t62.5 48 t54 21.5q59 0 60 -60q0 -33 -15.5 -53t-37 -34.5t-44 -27t-38.5 -32.5q-41 -51 -79 -107.5t-73 -109.5t-60.5 -110.5t-25.5 -123.5q0 -27 12.5 -58.5t44.5 -31.5q18 0 46 17.5t55.5 42t52.5 49t37 39.5q51 61 117.5 142t126 170t100.5 182.5t41 174.5q0 33 -13.5 64 t-13.5 61q0 23 13.5 45.5t32 41t41 29.5t42.5 11q27 0 45.5 -25t18.5 -50q0 -88 -43 -218.5t-116 -275.5t-169 -289.5t-200.5 -260.5t-212 -187.5t-203.5 -71.5q-70 0 -100.5 49t-30.5 111z" />
<glyph unicode="W" horiz-adv-x="1820" d="M319 168q0 45 20.5 104.5t52.5 127t73 136t83 132t81 117t65 87.5q8 8 8 13q-4 6 -42.5 14t-83 28.5t-81 58.5t-36.5 104q0 31 13 62.5t36.5 59t53.5 45t63 17.5q23 0 42 -10.5t35 -24.5l3 -55q-23 -20 -52.5 -38t-29.5 -52q0 -47 32.5 -66.5t73.5 -19.5q39 0 90 28.5 t109.5 73.5t119 101.5t115 111.5t99.5 103.5t71 76.5q10 4 21 4h20q29 0 51.5 -15t22.5 -50q0 -12 -9 -32.5t-21.5 -42t-26 -41t-19.5 -30.5q-82 -102 -186.5 -183t-214.5 -146q-27 -14 -53 -41q-31 -31 -77 -90.5t-89 -129t-75 -136t-32 -109.5q0 -12 14.5 -31.5t35 -39 t40 -34t27.5 -14.5t8 8q20 49 39.5 96.5t44.5 94.5q27 49 75 125.5t107.5 151.5t124 133.5t121.5 70.5q12 -10 25.5 -20.5t13.5 -30.5q0 -8 -24.5 -40t-62.5 -78t-82 -102.5t-82 -116t-62.5 -117.5t-24.5 -109q0 -35 7 -55.5t48 -20.5q53 0 102.5 41t92.5 97t76.5 117.5 t56.5 102.5q47 94 72.5 189.5t58.5 193.5q8 20 28.5 47t45.5 27q23 0 43 -23.5t20 -46.5q0 -14 -7 -42.5t-17.5 -61.5t-19.5 -63.5t-13 -49.5q-14 -63 -53 -150t-94.5 -182.5t-125 -188.5t-145.5 -167t-151.5 -120t-147.5 -46q-49 0 -76.5 41t-38.5 82q-59 -68 -141 -95.5 t-168 -27.5q-29 0 -50 16.5t-36.5 41t-23 52t-7.5 52.5z" />
<glyph unicode="X" horiz-adv-x="1366" d="M-51 135q0 18 17.5 46t42 53.5t51 43t44.5 17.5q14 0 18.5 -7t10.5 -15.5t17.5 -15.5t37.5 -7q29 0 69 16.5t83 40t81 48t58 42.5q10 10 14.5 17.5t8.5 21.5q4 18 10 44t12 52.5t10.5 52t4.5 44.5q0 10 -2 14t-3.5 6t-3.5 5t-2 12h-67q-23 0 -48.5 -17.5t-47.5 -17.5 q-29 0 -53.5 20.5t-24.5 48.5q0 31 18.5 55.5t45 44t56 34t52.5 24.5q20 -12 30.5 -30.5t38.5 -18.5q16 0 30.5 2t29.5 10q23 10 44 35t34 45q33 49 82 116.5t111.5 140.5t133 143.5t142 126t143.5 90t135 34.5q29 0 50.5 -15t21.5 -46v4q0 -63 -47 -141t-111.5 -152 t-135.5 -136t-120 -97q-55 -39 -112.5 -69t-118.5 -58q-23 -10 -36 -46t-13 -61q0 -35 34 -35q10 0 34 12.5t50.5 28t51 29.5t36.5 21q20 10 54 21t72 21.5t74 16.5t58 6q20 0 49 -3t55.5 -13.5t45 -26.5t18.5 -45q0 -14 -12 -36.5t-29.5 -42t-37 -34t-35.5 -14.5 q-18 0 -37 1t-37 1q-4 12 -6 30.5t-6 35t-14.5 29t-28.5 12.5q-57 0 -129 -35t-135.5 -88.5t-107.5 -119t-44 -124.5q0 -20 7 -46t20.5 -49.5t33 -39t41.5 -15.5q53 0 102.5 34t90.5 63q12 -10 26.5 -19.5t24.5 -21.5q-4 -47 -46 -97.5t-100.5 -91.5t-122 -67.5 t-106.5 -26.5q-49 0 -89 18.5t-70.5 50t-52 71.5t-34.5 83q-4 10 -8 11q-4 0 -51 -34t-111.5 -76t-133 -76t-115.5 -34q-49 0 -85 32t-36 83zM879 973q0 -6 6 -6q4 0 7 2t5 2q33 20 93.5 64t119.5 97.5t103 107.5t44 95q0 18 -4 22.5t-16 14.5h-35q-16 0 -47 -24.5 t-66.5 -63.5t-72.5 -87t-67.5 -92t-50 -80t-19.5 -52z" />
<glyph unicode="Y" horiz-adv-x="1251" d="M-152 78q0 27 10.5 60.5t20.5 58.5q23 57 55.5 113.5t74.5 106.5t93.5 90t110.5 60q14 4 41 11.5t41 7.5q37 0 71.5 -19.5t34.5 -62.5q0 -59 -47 -100.5t-104 -41.5q-18 0 -49 -25.5t-61.5 -59t-53.5 -68.5t-23 -53q0 -16 9.5 -26.5t24 -15.5t28.5 -6.5t27 -1.5 q39 0 89 26t103 68t104.5 95t93.5 107.5t69.5 105.5t33.5 88q-27 23 -57.5 33t-59.5 35v34q0 80 22.5 156t49.5 150.5t49.5 150.5t22.5 154q0 35 -12.5 56t-53.5 21q-23 0 -44 -7t-44 -7q-10 0 -31 4v88q0 31 26 66t62.5 62.5t76.5 46t69 18.5q37 0 57.5 -18.5t31.5 -46 t14 -60.5t3 -59q-2 -61 -11 -120t-13 -118q-8 -111 -12 -219q0 -29 2 -58.5t6 -58.5l4 -4q2 0 2 -4q0 -2 2 -2h20q31 0 77 36t98.5 91t105.5 123.5t99 134t80 122t48 85.5q8 18 20.5 48t28 58.5t35 49t43.5 20.5h115q33 -27 33 -64v-2l-32 -47t-84 -124t-120.5 -176 t-141.5 -204.5t-143.5 -209t-130 -190.5t-101.5 -148.5t-54 -81.5q-57 -92 -132 -192.5t-165 -184.5t-196.5 -139.5t-227.5 -55.5q-51 0 -94 19.5t-74 52.5t-48.5 76t-17.5 92z" />
<glyph unicode="Z" horiz-adv-x="1251" d="M-68 104q0 80 40 156t104.5 145.5t146.5 134t165 123t161 109.5t135 94q80 59 167 110.5t169 110.5q29 20 55.5 50t52 62t49 65.5t48.5 60.5q4 4 4 6q-4 10 -12 10h-17q-66 0 -130 17.5t-130 17.5q-12 0 -31.5 -1t-36 -6t-29 -16.5t-12.5 -29.5t5.5 -35.5t5.5 -36.5 q0 -20 -14.5 -31.5t-33 -16.5t-39 -6t-34.5 -1q-35 0 -56.5 10.5t-21.5 50.5q0 59 54.5 114.5t130 96.5t154.5 66t130 25q63 0 125.5 -18.5t126.5 -18.5q31 0 60.5 7t54.5 27l39 3q12 -8 14 -15.5t2 -21.5v-2q0 -33 -26.5 -59.5t-58.5 -46t-59.5 -35t-31.5 -27.5 q-4 -20 -8 -37t-15 -37q-37 -82 -106.5 -152.5t-152.5 -133t-170 -117t-158 -101.5q-23 -16 -65 -49t-89 -75t-96 -89t-89 -93t-66 -85t-26 -66q0 -59 62 -59q29 0 62.5 11.5t67.5 24.5t67.5 24.5t62.5 11.5q33 0 43 -23.5t10 -50.5q0 -25 -16.5 -64.5t-41 -78.5t-53 -68 t-53.5 -29h-69q-14 0 -17.5 12.5t-3.5 20.5q0 23 6 43q-10 16 -20 30.5t-33 14.5q-20 0 -75.5 -20.5t-118 -46t-117.5 -46t-76 -20.5q-43 0 -57.5 33t-14.5 67z" />
<glyph unicode="[" horiz-adv-x="569" d="M0 0q0 31 16.5 107.5t44 183t64.5 232.5t79 255t88 252t90 222.5t84 167t73 85.5l37.5 22.5t39.5 16.5q18 0 56.5 6t83.5 6q47 0 93 -11t79 -46q12 -14 16 -30.5t-5 -31t-33.5 -23.5t-65.5 -9q-20 0 -37 7t-31 14.5t-29.5 14.5t-35.5 7q-23 0 -37.5 -4t-32.5 -14 q-6 -4 -24.5 -35t-43 -77t-53.5 -99.5t-53.5 -103.5t-43 -88t-24.5 -52q-12 -27 -42.5 -101.5t-69.5 -172t-79 -204t-70 -197.5t-43 -154.5t1 -73.5q35 -27 50.5 -23t27.5 19.5t30.5 33t59.5 19.5q35 2 51.5 -12.5t19.5 -36t-4.5 -42t-17.5 -30.5q-20 -18 -68 -20.5t-99.5 2 t-92.5 11.5t-49 7z" />
<glyph unicode="\" horiz-adv-x="569" d="M-39 1487q-8 53 7.5 62.5t31.5 9.5q47 0 67.5 -17.5t24.5 -21.5q23 -18 54.5 -84t68.5 -162t77 -215t79 -245t74.5 -251t66.5 -233.5t53.5 -191.5t34.5 -126q-4 -10 -15.5 -18t-21.5 -8q-16 0 -31 14q-12 14 -35.5 68.5t-50 130t-55.5 164t-54.5 169t-46 144t-30.5 90.5 q-18 53 -34.5 96t-33 83t-35 81t-42.5 92q-10 25 -26.5 57.5t-33 68.5t-31 70t-24.5 58q-10 23 -22.5 57.5t-16.5 57.5z" />
<glyph unicode="]" horiz-adv-x="569" d="M-18 4q0 14 12 22.5t29.5 11.5t35 4t27.5 1t29.5 -1t38 0t32 8t13.5 24q0 18 17 79.5t43 147.5t56.5 186.5t57 194.5t46 172t23.5 119q2 14 6.5 52t11.5 85t13 98.5t10 95.5t4 72q0 31 -6 35q-18 10 -35.5 27.5t-39.5 17.5q-41 0 -68 5t-68 5q-10 0 -24.5 2t-28.5 7.5 t-23.5 12.5t-9.5 19h-2q0 23 42 32t96.5 12t104.5 2t69 -1q6 0 17 -5t23.5 -11t22.5 -12t14 -11q18 -16 15.5 -83.5t-19 -167t-43 -223.5t-58.5 -253t-62.5 -256t-56 -233.5t-42 -184t-16.5 -108.5q-6 0 -55.5 -4t-105.5 -7t-101 -1t-45 12z" />
<glyph unicode="^" horiz-adv-x="1024" />
<glyph unicode="_" horiz-adv-x="1024" />
<glyph unicode="`" d="M51 1225q0 37 26.5 63.5t63.5 26.5q35 0 61.5 -11.5t48 -29t41 -40t40.5 -44.5q16 -18 52 -53t70.5 -75t61.5 -78t27 -60q0 -27 -29 -27t-81 27.5t-108.5 63.5t-108.5 73t-81 55q-29 20 -55.5 44t-26.5 65h-2z" />
<glyph unicode="a" d="M-57 225q0 72 25.5 143.5t56.5 133.5q63 125 153 236.5t198.5 203.5t233.5 164t258 115q14 4 41 12t56.5 16t55.5 13.5t38 5.5q20 0 55 -7.5t69 -20.5t58.5 -33.5t24.5 -47.5v2q0 -86 -30 -159.5t-76 -141t-102.5 -132t-109.5 -130.5t-96 -135.5t-64 -149.5 q12 -4 16.5 -7l7.5 -5t8 -3t22 -1q18 0 35.5 11t33 28.5t28.5 35t24 29.5l94 -28q-27 -53 -83 -120t-125 -126t-141.5 -99t-136.5 -40q-18 0 -38.5 2t-37 9t-27.5 20.5t-11 37.5q0 18 4 37t4 37q0 29 -17.5 36t-39.5 7q-14 0 -43 -28.5t-67 -64.5t-81 -64.5t-88 -28.5 q-41 0 -75 23.5t-58.5 59t-38.5 76.5t-14 78zM295 485q0 -20 5 -41.5t16.5 -40t27.5 -30t41 -11.5q37 0 84 35t97 89.5t99.5 121t93.5 131t77.5 120.5t52.5 87q6 10 17.5 29.5t22.5 41t19 41t8 27.5q0 10 -7 15.5t-17 5.5q-55 0 -124 -31t-139.5 -81t-138 -115.5t-120 -134 t-84 -136t-31.5 -123.5z" />
<glyph unicode="b" d="M-12 225q0 25 15 66t36.5 86t42 86t33.5 61q35 61 98 165t145 223.5t177.5 241.5t191.5 220.5t188.5 160.5t167.5 62q31 0 55.5 -21.5t24.5 -51.5l2 2h2q0 -31 -23.5 -80t-61.5 -107.5t-86 -118t-95 -106.5t-90 -77.5t-72 -30.5q-4 0 -6 1t-4 1q59 86 125 165.5 t121 169.5v56l-25 24q-35 -10 -72.5 -48t-60.5 -66q-25 -31 -75 -105t-113.5 -170t-130 -202.5t-121.5 -200.5t-91 -166t-36 -96q0 -39 19.5 -67t60.5 -28q47 0 99 40t95 96.5t72 118t29 104.5q0 6 -7.5 7t-9.5 1q-31 10 -49 28.5t-18 53.5t30.5 60.5t63.5 25.5 q14 0 29.5 -9t32 -19.5t31.5 -19.5t30 -9q14 0 31.5 10t34 24.5t32.5 29.5t29 24l20 -66l-2 4q-18 -53 -65 -80.5t-95 -48.5q-12 -6 -16 -20q-6 -31 -11 -57.5t-20 -57.5q-18 -39 -58 -102.5t-89 -127t-99.5 -117.5t-87.5 -77q-14 -8 -40.5 -21.5t-56 -25.5t-58.5 -20.5 t-45 -8.5q-39 0 -71 19.5t-55.5 50.5t-35.5 68.5t-12 72.5z" />
<glyph unicode="c" horiz-adv-x="1024" d="M-4 313q0 68 20.5 137.5t49.5 129.5q49 109 122.5 211t163.5 188t196.5 152.5t221.5 103.5q12 4 33.5 10t46 12.5t46.5 10.5t34 4q59 0 91 -40t32 -95v2q0 -47 -20.5 -91t-54.5 -80t-77 -59.5t-88 -29.5q-18 20 -47 22q2 39 13.5 63.5t21.5 59.5q-2 8 -17 8 q-96 0 -186 -48t-158.5 -125t-110.5 -172t-42 -189q0 -82 52 -138.5t136 -56.5q20 0 55 12.5t73 28.5t72 32.5t54 26.5h94q-2 -41 -34.5 -88t-84 -93t-115 -88t-127 -73.5t-120.5 -50t-96 -18.5q-80 0 -129 24.5t-76 68.5t-36 102.5t-9 125.5z" />
<glyph unicode="d" d="M2 168q0 53 29.5 122.5t79 144.5t112 146.5t128 129t129 92.5t112.5 35q6 0 19.5 1t31.5 1t37.5 -2t36.5 -9q16 -4 24 15q84 145 179.5 290.5t171.5 280.5q16 29 59 44.5t72 15.5q23 0 41 -3.5t39 -13.5v-59l-732 -1192l21 -21q20 10 45 31t47 49h49l-2 -49 q-31 -43 -72 -83t-84 -70.5t-83.5 -49t-69.5 -18.5q-39 0 -54.5 9t-18.5 22.5t1 29t4 29.5v37q-6 6 -6 8v2h-4h-16q-18 0 -40 -19.5t-47.5 -42t-56 -42t-67.5 -19.5q-33 0 -55.5 16.5t-36 41t-18.5 52t-5 48.5zM233 330q0 -37 6.5 -62.5t53.5 -25.5q37 0 88 51t103.5 123.5 t100.5 151.5t79 132q6 10 6 17q0 8 -17 8q-51 -2 -97 -12.5t-56 -14.5q-49 -20 -96.5 -62t-86 -94.5t-61.5 -108.5t-23 -103z" />
<glyph unicode="e" horiz-adv-x="1024" d="M-2 293q0 80 34 182.5t95 210t145 210.5t183.5 184t210 131.5t225.5 50.5q35 0 69.5 -11.5t62.5 -30t44 -43t16 -53.5q0 -98 -67.5 -177t-178 -142.5t-252 -112.5t-288.5 -88q-18 -55 -18 -112q0 -211 190 -211q18 0 52 10t76 27.5t89 39t92 43.5v-92l2 -2 q0 -14 -25.5 -45t-63.5 -66.5t-80 -70.5t-74 -59q-23 -16 -62 -32t-81 -27t-80 -18t-56 -7q-84 0 -135 31.5t-79 78.5t-37 101.5t-9 99.5zM346 721q68 25 146.5 50.5t147.5 62t114 86.5t45 122q-1 52 -25 68q-13 8 -30 9q-16 0 -35 -7q-41 -14 -90.5 -53t-100.5 -93.5 t-96 -118t-76 -126.5z" />
<glyph unicode="f" horiz-adv-x="681" d="M-88 -27q0 80 48 177.5t122 222.5q4 8 -23 39q0 33 25 50t57.5 37.5t63.5 51.5t41 88q2 2 2 4t-17 2q-14 0 -34.5 -15.5t-38.5 -21.5q-2 0 -6 2q-6 4 -7 21q0 8 12.5 20.5t29 24.5t34 24.5t25.5 20.5q37 25 73.5 60.5t69.5 75.5t59.5 79t43.5 68q2 6 26.5 34.5t61 68.5 t81 86t87.5 84t78.5 63.5t56.5 25.5h47q10 -10 10 -49q0 -88 -108.5 -226.5t-346.5 -302.5q-10 -8 -23 -20t-22 -25q-68 -106 -135 -215.5t-120.5 -200.5t-87.5 -152.5t-34 -74.5l3 -51q6 0 8 -4t18 -4q25 0 51.5 32.5t50 77t42 87.5t24.5 63q4 14 5 31.5t2 36t5 36t13 31.5 q8 14 28.5 36t45 43.5t49 37.5t41.5 18l8 -4q4 -2 7 -4t7 -2q-16 -29 -61 -66.5t-74 -82.5q-6 -10 -14.5 -36t-17.5 -57.5t-19.5 -65.5t-16.5 -58q-8 -29 -41.5 -82.5t-79 -105.5t-91.5 -91t-81 -39q-27 0 -40 12.5t-18 27.5t-5 32v24zM563 927q6 1 17 7q61 43 103 82 t69.5 72.5t44 64.5t26.5 57v27q-6 6 -12 6q-4 0 -10 6q-20 -10 -45 -33.5t-41 -46.5q-10 -16 -51 -77.5t-101 -153.5q-6 -12 0 -11z" />
<glyph unicode="g" horiz-adv-x="1024" d="M-31 -360q0 57 39 136t113 164t178 165.5t233 142.5q18 4 19.5 12t-0.5 19l-4 16q-14 -4 -30.5 -15.5t-34 -22.5t-34 -20.5t-28.5 -9.5q-31 0 -52.5 16.5t-33.5 39t-18.5 44t-6.5 31.5q0 72 49.5 173.5t143.5 199.5t231 175t311 102q59 -10 77 -39t18 -54 q0 -43 -38 -107.5t-87 -133t-98.5 -137t-71.5 -121.5q4 -4 4 -8t1 -6.5t4 -3.5t15 -1q10 0 26.5 8.5t34 19.5t36 21.5t32.5 14.5q4 0 9 -4q8 -8 8 -29q0 -10 -43 -45t-100.5 -80t-116 -94t-90.5 -86q-25 -29 -65 -87.5t-89 -131t-104.5 -149.5t-110.5 -140.5t-109.5 -104 t-99.5 -40.5h-45q-20 0 -33.5 25.5t-22 57t-12.5 58.5t-4 29zM115 -252q0 -23 10 -40t35 -17q23 0 53.5 31.5t65 81t73.5 112t76 123.5q4 8 5 15t-15 3q-51 -16 -105.5 -50t-98.5 -77t-71.5 -90t-27.5 -92zM545 528q0 -33 8 -56t43 -23q47 0 102.5 62t132.5 204q10 18 32 48 t43.5 58.5t36.5 50t15 23.5q0 16 -16 19.5t-29 3.5q-45 -2 -108.5 -43t-121.5 -100.5t-98 -126t-40 -120.5z" />
<glyph unicode="h" d="M-51 23q0 12 20.5 49t50 85t63.5 99t60 92l-20 23q-23 -10 -55.5 -34t-75.5 -34v64q53 27 119.5 86t132 127.5t123 133t92.5 101.5q6 6 43 59.5t94 129t128 162.5t144.5 161t144 123t126.5 49q27 0 39 -8t22 -8q0 -10 8.5 -18.5t8.5 -34.5l-3 2q0 -39 -36.5 -119 t-106.5 -175.5t-171 -194.5t-228 -177q-8 -4 -14.5 -11t14.5 3q18 10 42.5 22.5t47 22.5t42 18t30.5 8q23 0 47 -12t43 -29q6 -22 6 -46q0 -42 -18 -86q-28 -70 -72.5 -143t-93 -143.5t-74.5 -131.5v-35q4 0 5 -2t4 -4t8 -4.5t20 -2.5q23 0 41 15.5t38 38.5h50v-66 q-25 -25 -61 -59.5t-75.5 -65t-79.5 -51t-75 -20.5q-31 0 -53.5 12t-39 32.5t-24.5 44t-8 44.5q0 12 27.5 67.5t69.5 127t91 151.5t90 141l2 37q-10 10 -14 10h-29t-59.5 -21.5t-66 -52t-65.5 -66.5t-56 -67q-33 -41 -72 -95t-76 -114.5t-69.5 -125t-55.5 -125.5h-172 q-10 10 -14 12t-4 29zM669 833.5q5 -2.5 15 8.5q68 53 126 112.5t102 114.5t76 101.5t46 72.5l2 37q-10 10 -18 12t-19 13q-59 -45 -105 -100.5t-85 -114t-73 -121t-66 -123.5q-6 -10 -1 -12.5z" />
<glyph unicode="i" horiz-adv-x="569" d="M-84 152q0 31 20.5 80t51 105t69.5 116.5t77 116t70 100.5t48 71q25 37 52.5 83t55 93.5t52 95.5t41.5 91q10 14 28.5 37.5t53.5 23.5h192q6 -10 12 -18q10 -16 11 -31l-512 -778v-51l30 -33q43 14 85 41t85 55l49 -47q-27 -45 -76 -99t-108 -101.5t-123.5 -80 t-120.5 -32.5q-49 0 -77.5 19.5t-43 45t-18.5 53t-4 44.5zM752 1456v60q0 35 30.5 61.5t68.5 44.5t70.5 27.5t36.5 9.5q35 0 56.5 -11.5t38.5 -11.5v-123q-39 -63 -85 -82.5t-102 -19.5q-33 0 -57.5 7t-56.5 38z" />
<glyph unicode="j" horiz-adv-x="681" d="M-246 -137q0 98 52.5 191t132 171t178 138.5t190.5 97.5q47 78 91 150.5t85 142.5q2 2 2 4q0 4 -20 4q-10 0 -22.5 -9.5t-27 -19.5t-28.5 -20.5t-27 -12.5q-10 10 -13 11.5t1 23.5q0 10 39 48t92 86.5t107.5 98.5t87.5 83q23 23 32 55.5t19 54.5q4 10 22.5 25.5 t45.5 15.5h116l9 -12q6 -8 6 -21l-328 -538q10 -10 12 -14.5t27 -4.5q23 0 52.5 19.5t62.5 30.5q6 -25 -9.5 -47.5t-41 -44t-54.5 -41t-51 -37.5q-47 -41 -108.5 -100.5t-112.5 -119.5q-16 -18 -47 -65t-72 -106.5t-89 -125t-100.5 -120t-106.5 -89t-103 -34.5 q-43 0 -64.5 11t-29 29.5t-7.5 43.5v47zM-119 -16q0 -23 12.5 -31t32.5 -33q10 10 22.5 17.5t22.5 9.5q70 102 140.5 208.5t138.5 215.5q-68 -35 -133.5 -90.5t-118.5 -112.5t-85 -108.5t-32 -75.5zM911 1417q0 29 15.5 50.5t38 35t47 19.5t39.5 6q23 0 38 -4t37 -25v-41h-2 q0 -12 -10 -27.5t-25.5 -30t-31 -24.5t-27.5 -10h-102q0 10 -8.5 18.5t-8.5 32.5z" />
<glyph unicode="k" horiz-adv-x="1024" d="M-57 8v84q0 14 25.5 55t59 92.5t67.5 105.5t52 95l-24 27q-33 -27 -72 -52.5t-92 -41.5v73q135 104 265 212t239 239q29 35 66.5 88t79.5 114.5t85 123t80 112.5q12 16 45 50t78 75t96 84t100.5 79t92.5 58.5t67 22.5h97q20 -19 20 -78q0 -57 -46 -143t-132 -185.5 t-206 -203t-267 -199.5q-16 -12 -2 -21l12 -10q27 18 60.5 38t65.5 36t60.5 26.5t42.5 10.5q16 0 33 -10.5t31 -25.5t22.5 -32.5t8.5 -34.5q0 -33 -21.5 -74.5t-59.5 -91t-89.5 -103.5t-112.5 -111q-10 -8 -16 -19.5t-2 -28.5q4 -43 5 -80q0 -12 -1 -24q-1 -24 -1 -41t1 -27 q2 -2 6 -8q8 -12 16 -20q27 10 55.5 29.5t51.5 33.5q6 -4 14 -8q6 -4 13.5 -7t13.5 -3v-56h-2q0 -25 -23.5 -52t-59.5 -55t-78 -52.5t-78 -43t-59 -28.5l-24 -10q-37 0 -59.5 15.5t-36.5 37t-19.5 44t-5.5 36.5q0 72 24.5 116t49.5 78.5t39 68.5q6 14 6 31q0 24 -12 54 q-6 16 -20.5 48t-32.5 67q-4 8 -9.5 9t-13.5 -9q-51 -68 -108.5 -145.5t-106.5 -151.5t-83 -139.5t-40 -108.5q-10 -12 -27.5 -21.5t-34 -16.5t-29.5 -11t-15 -4q-27 0 -64 9t-61 9zM599 677q-1 -5 9 -9q70 -23 103 -88q12 -12 20 2q29 45 48.5 85t19.5 54q0 27 -6.5 44 t-32.5 19q-25 -2 -69 -30.5t-87 -67.5q-4 -4 -5 -9zM739 977q0 -4 11 2q84 70 159.5 146.5t133 143t90 116t32.5 61.5v57q-6 6 -6 8q0 4 -2 5h-6h-18q-31 0 -82.5 -54.5t-107.5 -135.5t-109.5 -173t-90.5 -168q-4 -4 -4 -8z" />
<glyph unicode="l" horiz-adv-x="569" d="M-164 137q0 35 34 113t91 182.5t135 226t166 244.5t182.5 235.5t185.5 200.5t176 140.5t152 52.5q25 0 41.5 -16t16.5 -41q0 -35 -22.5 -91.5t-62.5 -123t-95.5 -136t-121 -128t-139 -99.5t-149.5 -49q-14 0 -25 -14q-61 -96 -121.5 -195.5t-108.5 -182.5t-78 -140.5 t-30 -71.5q0 -25 11.5 -37t27 -18.5t29.5 -7.5t19 -1q27 0 72.5 24.5t88.5 45.5l49 2q4 0 9 -4q8 -8 8 -31q0 -29 -25.5 -58.5t-63.5 -57t-84 -52t-88 -43t-72 -30t-38 -11.5q-35 0 -66.5 16.5t-54 42t-36 56.5t-13.5 57zM487 961q0 -4 11 2q57 25 116.5 69.5t107.5 95 t78.5 100.5t30.5 85q0 27 -13 32t-23 15q-39 -16 -79 -56t-67 -81q-20 -31 -62 -95.5t-95 -150.5q-4 -10 -5 -16z" />
<glyph unicode="m" horiz-adv-x="1593" d="M-184 6q72 143 145.5 283.5t144.5 283.5q-4 4 -5 9.5t-5 5.5q-37 0 -63.5 -12.5t-48 -30t-43 -37t-50.5 -35.5l-55 57q70 68 168 144t195.5 156.5t181.5 165.5t125 169q16 35 16 76q0 43 23 78q41 23 98 39t105 16q35 0 61.5 -7t58.5 -21v-13q0 -23 -2 -45t-18 -39 q10 -10 12 -17t6 -10t12.5 -4t26.5 -1q23 0 73 28.5t106.5 62t106.5 61.5t73 28q51 0 76.5 -13.5t35.5 -34t13.5 -43t11.5 -43t27.5 -33.5t62.5 -13q23 0 73 24.5t105 53t106.5 53t75.5 24.5q43 0 71 -14.5t44 -39t23.5 -56t7.5 -68.5q0 -76 -48 -181.5t-115 -215 t-134.5 -212t-108.5 -171.5v-62l39 -37q59 18 114.5 54.5t115.5 56.5v-80q0 -14 -27 -45t-68 -69.5t-90 -78.5t-94 -74t-81 -55.5t-50 -21.5h-39q-41 2 -74.5 20.5t-57.5 47t-36 66.5t-12 77q0 63 29.5 135t74.5 145.5t98.5 146.5t98.5 140.5t74.5 128t29.5 105.5 q0 43 -18.5 55t-58.5 12q-59 0 -134 -62.5t-155 -161.5t-160 -220t-147.5 -237.5t-118.5 -215t-74 -153.5q-90 -51 -192 -51q-33 0 -61 14t-50 37v75l563 855l-2 106q-2 4 -8 10t-10 6q-10 0 -18.5 -1t-18.5 -1q-66 0 -138.5 -48t-146.5 -123.5t-144.5 -171t-131 -189.5 t-107.5 -177t-76 -136q-4 -8 -18 -35t-28.5 -55.5t-27 -55.5t-12.5 -35q-20 -29 -61 -46t-74 -29q-31 0 -62.5 2t-62.5 6q-16 4 -33.5 11t-33.5 7z" />
<glyph unicode="n" d="M-141 35q68 119 160 251t178 267q-8 8 -9 14q0 6 -2 11.5t-8 7.5t-26 2q-18 0 -42 -11.5t-48.5 -25.5t-51 -29.5t-51.5 -25.5q-10 4 -18 10q-8 4 -18.5 10t-18.5 16q61 53 138 110.5t159 118t160.5 123t144.5 128.5q47 47 76.5 123.5t50.5 144.5q41 35 96 53.5t96 18.5 q61 0 89 -13.5t36 -34t4 -43t-4 -42.5t10.5 -34t47.5 -14q20 0 65 21.5t96.5 46.5t96.5 46.5t65 21.5q55 0 86 -21.5t44.5 -51.5t15.5 -62.5t2 -55.5v-2q0 -63 -31 -134t-76 -143.5t-99 -145.5t-102.5 -140.5t-81 -129t-38.5 -112.5q8 -8 10 -15t5 -11t12 -7.5t30 -3.5 q18 0 39.5 11.5t45.5 26t48.5 29.5t46.5 21q10 -2 19 -6l18 -9t18 -15q-10 -27 -39.5 -65t-69.5 -80t-89 -82t-98.5 -72.5t-97.5 -53t-89 -20.5q-51 0 -84 28.5t-51 67.5t-25.5 79t-7.5 61q0 41 26.5 105t67.5 138t91.5 153t98.5 147.5t87 122.5t57 81l-2 59 q-16 16 -26.5 27.5t-51.5 11.5q-63 0 -133.5 -43t-142.5 -113.5t-142.5 -161.5t-134 -186.5t-119 -187.5t-95.5 -164.5t-63.5 -119t-23.5 -50.5q-12 -8 -33.5 -18t-47 -18.5t-52 -13.5t-47.5 -5q-39 0 -75.5 21.5t-71.5 56.5z" />
<glyph unicode="o" d="M-12 332q0 121 49 252t132 258t192.5 241.5t227.5 200.5t238.5 137.5t227.5 51.5q68 0 110.5 -17.5t67 -40t34 -47.5t9.5 -41q0 -53 -8 -112.5t-25 -122.5q-4 -20 17 -11q35 18 64.5 54t68.5 77q10 0 24.5 1t29.5 -2t25.5 -14t10.5 -34q0 -49 -28 -92t-68.5 -78 t-91 -62.5t-97.5 -45.5q-10 -4 -19.5 -13.5t-17.5 -27.5q-59 -143 -143 -282.5t-178.5 -253t-191.5 -191.5t-187 -103q-29 -8 -75 -19t-97 -11q-90 0 -148.5 36.5t-92.5 90t-47 114t-13 107.5zM373 586q0 -57 19.5 -95t49 -59.5t64.5 -30t61 -8.5q70 0 133.5 45t118.5 110.5 t103.5 142.5t87.5 140q6 10 7 20.5t-9 14.5q-35 16 -69 39t-58 45v115q12 8 23 20.5t26.5 24.5t36 20.5t47.5 8.5q29 0 57 -17q22 -9 16 11q-20 72 -64 125t-97 53q-37 0 -84 -27t-97.5 -70t-99.5 -95t-89 -102t-67.5 -92t-35.5 -67q-12 -31 -25.5 -69.5t-26 -75.5 t-20.5 -71t-8 -56z" />
<glyph unicode="p" d="M-231 -514l665 1044l-2 37q2 4 2 6q0 4 -22 5q-23 0 -36.5 -13.5t-28.5 -27t-36.5 -20.5t-60.5 7q0 10 10 33t21 31q104 53 196 133t193 207q10 12 14 30.5t10 37t14.5 33.5t24.5 22q16 8 47 14t56 6t39 -3t36 -13q0 -23 -7 -45.5t-7 -55.5q-4 -2 -2 -4q4 -4 27 -4 q12 0 39.5 15.5t58.5 34t58.5 33.5t39.5 15q29 0 46.5 -19t27.5 -41.5t14 -43t4 -22.5q0 -53 -30.5 -136.5t-84 -172.5t-126 -175t-154.5 -148.5t-171 -89.5q-43 -14 -86 -14q-46 0 -91 15q-8 4 -20.5 7t-22.5 7q-16 8 -29 -10q-119 -178 -223 -348t-197 -359 q-4 -12 -27.5 -28.5t-45.5 -16.5h-117q-4 4 -8 12q-8 16 -8 25zM516 369q2 -2 8 -2q14 2 21.5 -1.5t23.5 -13.5q40 -24 77 -24q18 0 34 6q53 16 97 61t80 107.5t60.5 122t38 104.5t13.5 53q0 20 -14.5 30.5t-36.5 33.5q-20 -6 -48 -21.5t-57 -38t-57.5 -53.5t-50.5 -65 q-47 -74 -93.5 -143.5t-91.5 -137.5q-8 -14 -4 -18z" />
<glyph unicode="q" d="M-12 -510l508 817q4 4 2 6t-6.5 4t-18.5 2t-36.5 -14t-47 -30.5t-47.5 -31t-37 -14.5q-33 0 -53.5 18.5t-30.5 43t-13 51.5t-3 41q0 23 8 61.5t10 69.5q2 41 31 98.5t76 120t106.5 126t122 115.5t123.5 88t111 46q82 16 139 19q24 1 46 1q28 0 50 -2q45 -4 74 -14 q0 -2 9 -4t21.5 -4t24.5 -3t19 -1v-51l-375 -621q6 -6 7 -10t3 -7t7 -4t18 -1q12 0 24 9t24.5 22.5t26 28.5t25.5 26h51l2 -56q-55 -41 -119.5 -95t-130.5 -105q-90 -70 -168.5 -162t-146.5 -191.5t-125 -197t-104 -174.5q-8 -14 -26.5 -25.5t-40.5 -21t-42 -14.5t-33 -5 q-25 0 -40 14.5t-25 30.5zM422 563q0 -41 25.5 -69.5t68.5 -28.5q29 0 62.5 23.5t68.5 61.5t72 86t72 99q49 72 69.5 116t22.5 66.5t-8.5 29.5t-20.5 7q-16 0 -38.5 1t-49.5 -3t-57.5 -15t-61.5 -34q-43 -31 -84 -73t-72.5 -88t-50 -92t-18.5 -87z" />
<glyph unicode="r" horiz-adv-x="796" d="M-129 406q0 12 26.5 43.5t71.5 73.5t103.5 92.5t121 100.5t125 98t115.5 87q-35 4 -66.5 12.5t-56 23.5t-39 42t-14.5 65q0 43 26.5 90.5t66.5 86.5t87 63.5t86 24.5q20 0 41 -4.5t37 -13.5t26.5 -22.5t10.5 -33.5q0 -35 -39 -81t-88 -93q0 -16 20.5 -34.5t36.5 -35.5 q47 25 106.5 53.5t117 55t102.5 44t66 17.5q37 0 61.5 -14t38.5 -34.5t20 -42.5t6 -38q0 -47 -26.5 -105.5t-61 -115.5t-69.5 -104.5t-51 -73.5q-72 -109 -142.5 -218.5t-118.5 -224.5q8 -8 10.5 -14t5.5 -10t10 -6t28 -2q20 0 44.5 20.5t53.5 39.5q28 18 60 25q6 1 14 1 q25 0 51 -21q-16 -25 -30.5 -55.5t-22.5 -46.5q-27 -29 -81 -74t-112.5 -87t-114 -71.5t-85.5 -29.5q-33 0 -65 21.5t-54.5 50t-36.5 60.5t-14 50q0 90 49 195.5t113.5 214t128 212t92.5 189.5q-20 18 -66 29q-29 -27 -80 -70t-115.5 -95t-135 -106.5t-138.5 -104.5 t-127 -91t-98 -64q-8 0 -17 6q-14 10 -14 50z" />
<glyph unicode="s" horiz-adv-x="796" d="M-125 348q0 10 6 25.5t15.5 33t20.5 34t22 24.5q47 35 108.5 79t125 90t124.5 92t106 85q84 72 155 130t135.5 99t127 63.5t129.5 22.5q37 0 75 -14t68.5 -38.5t49 -57.5t18.5 -70h-2q0 -8 -6 -31.5t-20.5 -50t-36 -48t-52.5 -25.5h-88q-8 14 -16 38.5t-20.5 48t-32 41 t-51.5 17.5q-23 0 -19 -23q6 -31 8 -71l2 -52q0 -13 -1 -25q-1 -38 -3 -66.5t-2 -36.5q0 -55 -13 -140.5t-42 -181.5t-72 -193.5t-101 -175t-133 -127t-165 -49.5q-53 0 -106.5 24.5t-96.5 65.5t-69.5 92.5t-26.5 104.5q0 47 18.5 97t47 100.5t66.5 99.5t75 92q14 16 7 20.5 t-20 -6.5q-53 -37 -109 -75.5t-110 -85.5zM250 252q0 -33 18.5 -55.5t41 -37t43 -20.5t24.5 -6q45 0 86 40t75.5 102.5t62.5 136t48.5 141.5t33.5 120l17 68q4 6 6 42v10q0 31 -8 61q-4 16 -20 6q-70 -51 -140.5 -112.5t-117.5 -100.5q-35 -29 -76 -57q-27 -51 -45 -104.5 t-28.5 -99.5t-15.5 -82t-5 -52z" />
<glyph unicode="t" horiz-adv-x="681" d="M-27 184q0 27 11.5 73t27.5 81q10 23 49 89.5t94.5 158.5t123 200.5t135.5 212.5q8 10 -12.5 16.5t-32.5 4.5q-24 -1 -42 -1t-31 1q-26 2 -36 0q-12 12 -27.5 18t-27.5 21q0 12 12 29.5t25 27.5l186 2q8 -2 24.5 6.5t34 19.5t31.5 22.5t17 17.5q172 264 192 264h150 q4 2 10 -4q10 -10 10 -37q0 -12 -15.5 -41t-37 -64.5t-44 -73.5t-34.5 -69q29 -37 54.5 -45t49 -6t46 3t47.5 -15h2q-10 -41 -43 -53.5t-73 -14.5q-27 -1 -54 -1h-28h-6q-39 0 -67 -13q-16 -8 -58 -61.5t-95.5 -130.5t-109.5 -167t-102 -169.5t-77 -140t-31 -79.5 q0 -27 18.5 -50t47.5 -23q16 0 42.5 11t57.5 27.5t63.5 37t57.5 38.5l74 2q2 -39 -44 -95t-111 -108.5t-134.5 -89t-114.5 -36.5t-82 20t-64.5 51t-43 67t-15.5 66z" />
<glyph unicode="u" d="M-37 221q0 76 46 183.5t113.5 225.5t145.5 237.5t143.5 219t105.5 171.5q32 57 32 83q0 7 -2 11q-4 10 10 25.5t37.5 28.5t52.5 23.5t51 10.5q18 0 49 -3t61 -11.5t51.5 -22.5t21.5 -37q0 -10 -23.5 -54t-62.5 -108.5t-89.5 -144.5t-102.5 -162t-102 -162t-89 -144.5 t-62.5 -108.5t-23.5 -56q0 -23 3 -30t7 -11t6 -9t2 -24q10 0 16.5 -3t14.5 -8t21.5 -8t35.5 -3q59 0 136 67.5t159 172t163 230.5t146.5 240.5t109.5 203.5t54 120q16 8 32.5 20.5t35 24.5t38 20.5t42.5 8.5q4 0 34.5 -3t67.5 -12.5t74 -26t53 -40.5l-674 -1037l41 -36 q43 10 87 47t97 73q18 0 44 -7t45 -25q-4 -12 -34 -51t-75 -89.5t-98.5 -104.5t-104.5 -99t-94 -75t-68 -30h-170q-8 12 -14 35t-10 50.5t-5 58t-1 57.5q-8 10 -9.5 13t-2.5 4t-8 0t-29 -1q-23 0 -73 -33.5t-107.5 -74.5t-108.5 -75t-74 -34q-57 0 -91 47t-50.5 103.5 t-21.5 102.5z" />
<glyph unicode="v" horiz-adv-x="909" d="M-29 276q0 84 41 182.5t102.5 199t133 200.5t135 191.5t106.5 169t48 133.5q12 12 36.5 23t52 20.5t55.5 14.5t48 5q43 0 63.5 -13t38.5 -13l-2 -105q0 -6 -33.5 -62.5t-85 -140.5t-110.5 -181t-111.5 -184t-86 -151.5t-33.5 -81.5q0 -41 19.5 -68.5t43 -43t46 -21.5 t30.5 -6q90 0 166 57.5t139.5 141.5t117.5 181t103 179q10 18 7 21.5t-9 5.5q-29 6 -59.5 17t-56 29.5t-42 46.5t-16.5 64q0 33 15.5 60t38 45t49 27.5t49.5 9.5t45 -18.5t46.5 -40t48.5 -39t44 -17.5t41.5 12.5t43 33t41 44t34.5 47.5h82q8 -8 14 -12t9 -9t4 -14.5t1 -31.5 h-2q0 -43 -26.5 -80t-66.5 -66.5t-89 -51t-92 -36.5q-27 -6 -35 -39q-18 -72 -57 -155.5t-88.5 -166.5t-101.5 -160t-97 -138.5t-78 -100t-43 -45.5q-90 -61 -144.5 -97t-95 -52t-78.5 -20.5t-98 -4.5q-92 0 -150.5 28t-92 72t-46 98t-12.5 107z" />
<glyph unicode="w" horiz-adv-x="1366" d="M-184 244q0 23 7 70.5t19.5 103t28.5 111t37 92.5q49 96 112.5 207.5t130 231.5t132 241.5t123.5 234.5q4 10 18 24.5t33.5 29t44 24.5t51.5 10l221 2q10 -10 17.5 -15t11.5 -11.5t6 -18.5t2 -39q0 -14 -45 -91t-112.5 -186.5t-146.5 -237.5t-146.5 -242.5t-112.5 -202.5 t-45 -119q0 -47 31.5 -65.5t78.5 -18.5q59 0 124 43t130.5 114.5t130 166t124 195.5t111.5 202.5t92 188.5t66.5 152.5t34.5 96.5q18 8 38 22.5t41.5 29t45 24.5t49.5 10h201q0 -12 5 -18.5t10.5 -15.5t10.5 -22.5t5 -39.5q0 -33 -43 -105.5t-107.5 -170t-140.5 -209 t-140.5 -219t-108.5 -202t-44 -157.5q0 -27 4 -36t8.5 -13t9.5 -11.5t5 -27.5q18 0 51 -12.5t76 -12.5q86 0 165 62.5t157.5 158t156.5 207t160 207.5q16 14 14 23.5t-14 11.5q-92 14 -138.5 69.5t-46.5 135.5q0 23 15.5 53.5t41 58t58.5 47t66 19.5q27 0 52.5 -21.5t52 -48 t52 -48t50.5 -21.5q27 0 59.5 17t68 41t70.5 46.5t66 32.5q12 -2 24 -8q10 -4 21.5 -11.5t21.5 -17.5h2q-29 -86 -100.5 -156.5t-151.5 -117.5q-61 -76 -139 -196t-171 -254t-198.5 -269t-219 -244t-232.5 -177.5t-240 -68.5q-35 0 -73.5 1t-73.5 21.5t-61.5 67.5t-36.5 140 l-7 12q-8 16 -26 35q-61 -31 -137 -74t-146.5 -82t-129 -66.5t-85.5 -27.5q-82 0 -128 44t-69.5 101.5t-29.5 112.5t-6 76z" />
<glyph unicode="x" horiz-adv-x="1024" d="M-61 84q0 14 14 55t40.5 84t62.5 76t79 33q39 0 56.5 -25.5t50.5 -56.5q33 14 56.5 32.5t59.5 47.5l125 125q23 23 17 57q-6 60 -6 104t6 72q-8 0 -10.5 3t-5.5 6t-11 6.5t-29 3.5q-18 0 -61 -28t-98.5 -67t-114.5 -82t-111 -73q-6 10 -12 18q-4 8 -10 17.5t-14 17.5 q49 49 111.5 102.5t129 108.5t132 112.5t118.5 116.5q25 27 45.5 60.5t43 70.5t48 71t56.5 60q20 16 63 34t78 18q39 0 62.5 -15.5t39.5 -29.5v-117q-43 -29 -104.5 -50.5t-108.5 -25.5q-27 -12 -39 -36.5t-15 -53.5t-2 -57.5t1 -49.5q0 -31 2 -65.5t6 -73.5q2 -8 6 -14 t17 10l75 76q88 88 201 177t229.5 162t229.5 118t199 45q39 0 65.5 -27t26.5 -66q0 -47 -26.5 -83.5t-62.5 -61.5t-70 -38t-48 -13q-20 0 -37.5 9t-32 21.5t-30 21.5t-33.5 9q-25 0 -59.5 -15t-74.5 -40t-83 -56.5t-84 -66.5q-96 -80 -199 -180l-147 -139 q-10 -10 -13.5 -18.5t2.5 -24.5q39 -86 105.5 -145.5t177.5 -59.5q18 0 51 9t71 24.5t78 34t70 36.5q10 -2 19 -6q18 -8 33 -24q-14 -27 -47 -68t-77 -86t-95.5 -90t-102.5 -81t-96 -58.5t-80 -22.5q-61 0 -109.5 29.5t-87.5 79t-66.5 113t-45.5 130.5q-2 6 -8.5 8.5 t-16.5 -6.5l-59 -57q-121 -119 -217.5 -196.5t-186.5 -77.5q-16 0 -35.5 9t-37 23.5t-28.5 33t-11 36.5z" />
<glyph unicode="y" horiz-adv-x="1024" d="M-63 -440q0 80 39.5 163.5t117.5 165.5t190.5 159t260.5 140q10 10 17 21.5t16 21.5q2 0 2 5q0 6 -13 14q-14 -10 -35.5 -22.5t-42 -22.5t-40 -17.5t-31.5 -7.5q-33 0 -51.5 17.5t-27.5 42t-11 50t-2 40.5q0 82 43 161.5t99 159.5t109.5 163t73.5 171q23 20 64 32.5 t65 12.5q23 0 37 -3t37 -13l2 -47q0 -12 -36 -71.5t-87 -137.5t-106.5 -164t-91.5 -154q8 -14 22 -25.5t41 -11.5q39 0 88 42t100.5 104.5t98.5 136.5t85 138.5t61.5 108.5t23.5 46q18 16 48 33.5t54 17.5h100q0 -10 8.5 -15t8.5 -32v-2q0 -10 -25.5 -52t-64.5 -99.5 t-84 -125t-86 -130t-70 -112.5t-33 -77l23 -23q27 8 70 33t73 35l-2 -65q-63 -41 -139 -88.5t-139 -98.5q-39 -33 -83 -76t-79 -86q-10 -14 -44 -65t-82 -121t-107.5 -147.5t-121 -143t-124 -108.5t-115.5 -43q-35 0 -55.5 21.5t-31.5 51t-14 58t-3 41.5zM88 -322 q0 -27 13.5 -36t23.5 -19q53 37 98 84t84 100.5t74 110.5t70 115v2q6 10 4 19t-13 3q-72 -39 -136 -88t-112.5 -99t-77 -100.5t-28.5 -91.5z" />
<glyph unicode="z" horiz-adv-x="909" d="M-72 373q10 31 62.5 92t128.5 134t167 149.5t181 139t170 102.5t133 40q23 0 56.5 -15.5t58.5 -39.5v-55q0 -10 -20.5 -47t-52.5 -90.5t-74 -119t-84 -133t-80.5 -133t-67.5 -118.5q10 -16 26.5 -28.5t47.5 -12.5q16 0 66 15t106.5 33.5t107.5 34t66 15.5 q29 0 63.5 -22.5t59.5 -45.5q1 -8 1 -16q0 -28 -10 -65q-14 -48 -38.5 -92t-57.5 -74.5t-70 -30.5h-83l-37 39q-2 14 11 38.5t38 49.5l2 39q-6 0 -8 3t-5.5 6t-9.5 5t-22 2q-35 0 -90.5 -27.5t-122 -62.5t-138 -63.5t-137.5 -28.5q-72 0 -93 20.5t-21 61.5q0 10 19.5 49 t50 95t71.5 127t83 144.5t84 147.5t75 135q-6 0 -8.5 2t-5.5 4t-9 4t-22 2q-18 0 -60.5 -29.5t-95.5 -73.5t-111.5 -96.5t-106.5 -98.5t-81 -77.5t-37 -35.5z" />
<glyph unicode="{" horiz-adv-x="681" d="M115 -199q0 47 6 93.5t16 93.5l80 397q4 18 6 36.5t2 39.5q0 53 -16 83.5t-34.5 51t-35 35t-16.5 33.5q0 12 5 22t11 21l2 4q51 4 82 20.5t50.5 44t29.5 64.5t19 80l88 442q8 39 18 83t29.5 82t51.5 62.5t83 24.5q45 0 86 -20.5t80 -39.5v-2q4 -10 8 -21t4 -22 q0 -14 -10 -18t-23 -4q-16 0 -34.5 3t-36.5 3q-23 0 -39.5 -8t-20.5 -31l-117 -565q-8 -37 -18 -80t-29.5 -81t-50.5 -62.5t-78 -24.5h-24l2 -4q53 -41 74.5 -94.5t19.5 -118.5q0 -45 -7 -89t-16 -89l-88 -549q-2 -6 -2 -19q0 -29 13.5 -48t31 -35.5t30.5 -31t13 -34.5 q-2 -16 -11 -32.5t-27 -16.5q-27 0 -56.5 24.5t-56.5 58.5t-47.5 68.5t-28.5 57.5q-10 27 -14 55.5t-4 56.5z" />
<glyph unicode="|" horiz-adv-x="1241" />
<glyph unicode="}" horiz-adv-x="681" d="M-57 -459q0 29 19.5 43.5t46 27.5t52 32.5t35.5 56.5l148 518q16 53 32.5 104.5t42 95.5t63.5 80t93 60l2 4q-102 8 -102 117q0 37 7 74t17 71l133 535q0 8 -2 14q0 23 -20.5 30t-44 10t-44 6t-20.5 16q0 16 16.5 29.5t18.5 21.5q35 6 70 14t69 8q57 0 89 -30.5t32 -87.5 q0 -39 -8 -77t-18 -75l-107 -420q-6 -27 -12 -53.5t-6 -52.5q0 -49 15 -62.5t33.5 -14.5t34 -5t13.5 -35l-2 -6q2 -6 2 -19q0 -29 -24.5 -42t-57.5 -33.5t-67.5 -60.5t-55.5 -120l-96 -374q-18 -72 -44 -146t-75 -129q-18 -18 -49 -45t-67.5 -50.5t-72.5 -39.5t-63 -16 t-26 26z" />
<glyph unicode="~" horiz-adv-x="681" d="M-1 355q-1 7 1 15.5t5 15.5l3 7q25 37 55.5 72t67.5 62.5t78 45t82 17.5q16 0 52 -4t76 -10.5t73.5 -13.5t44.5 -15q25 -14 46 -24.5t42 -10.5q37 2 65.5 24.5t54.5 53.5q8 16 19 28q10 10 21.5 19.5t27.5 9.5q23 2 24 -8t-3 -21q-7 -12 -21 -28q-55 -76 -127 -136.5 t-160 -62.5q-18 0 -55 4t-77 9.5t-73.5 12.5t-44.5 13q-23 14 -45 25.5t-49 11.5q-25 0 -56.5 -22.5t-51.5 -51.5q-8 -16 -19 -26q-10 -10 -20 -16.5t-25 -4.5q-10 2 -11 9z" />
<glyph unicode="&#xa1;" horiz-adv-x="796" />
<glyph unicode="&#xa2;" horiz-adv-x="1251" />
<glyph unicode="&#xa3;" horiz-adv-x="1251" />
<glyph unicode="&#xa4;" horiz-adv-x="1251" />
<glyph unicode="&#xa5;" horiz-adv-x="1251" />
<glyph unicode="&#xa6;" horiz-adv-x="1241" />
<glyph unicode="&#xa7;" horiz-adv-x="1024" />
<glyph unicode="&#xa8;" horiz-adv-x="681" d="M-14 1210q12 53 58 93t99 40t85 -37.5t20 -91.5l-2 -2q-12 -53 -59.5 -92t-102.5 -39q-53 0 -81 40t-17 89zM420 1217q12 53 58 93t100 40q53 0 84.5 -38t19.5 -91l-2 -2q-12 -53 -59.5 -92.5t-102.5 -39.5q-53 0 -80.5 40t-17.5 90z" />
<glyph unicode="&#xa9;" horiz-adv-x="1529" d="M76 686q0 147 54 276.5t148.5 226.5t222.5 153.5t273 56.5q147 0 276.5 -55.5t225.5 -150.5t151.5 -225t55.5 -282t-56.5 -283t-152.5 -227t-226 -151.5t-276 -55.5q-143 0 -270 57.5t-221.5 156t-149.5 228.5t-55 275zM199 688q0 -125 46 -233.5t126 -189.5t186.5 -127 t226.5 -46q119 0 223.5 48t183.5 129t124 189.5t45 229.5q0 123 -46 229.5t-126 186.5t-186.5 126t-227.5 46q-119 0 -223.5 -47t-182 -128t-123.5 -187.5t-46 -225.5zM422 756q0 20 11 41.5t27.5 39t39 29t43.5 11.5q12 0 20 -4.5t12 -4.5v-28q-14 -10 -27 -27.5t-11 -28.5 q0 -12 15 -26.5t30 -12.5q16 0 44.5 26t62.5 61.5t72 74.5t73 66q10 8 37.5 26.5t63.5 38t75 33.5t73 14q25 0 38.5 -10t21.5 -23.5t10 -27.5t2 -20q0 -23 -15.5 -54.5t-45 -64.5t-70.5 -66t-90 -57q-61 -31 -132 -52.5t-130 -33.5q-23 -37 -35 -76t-12 -80q0 -12 3 -26.5 t11 -28.5t22.5 -23.5t34.5 -9.5q43 0 74 28.5t31 61.5q0 23 -12.5 33t-26.5 10q-12 0 -19.5 -3t-23.5 -3q-6 4 -8 7t-2 16q0 16 15 32.5t34.5 28.5t40 20.5t28.5 8.5q35 -2 56.5 -29t21.5 -49q0 -41 -32.5 -98.5t-82 -110.5t-107.5 -91t-112 -38q-33 0 -55 14.5t-35.5 34 t-18.5 40t-5 34.5q0 37 11 71.5t25.5 70.5l29 72t20.5 73q-14 12 -36 18t-40 13.5t-31.5 19.5t-13.5 39zM733 764q172 59 248 104t76 90q0 33 -47 39q-16 2 -35 -2t-35 -20q-2 -6 -22.5 -23.5t-50 -45t-65.5 -64.5t-69 -78z" />
<glyph unicode="&#xaa;" horiz-adv-x="684" />
<glyph unicode="&#xab;" horiz-adv-x="1024" d="M176 424q0 8 13.5 15t23.5 16l344 256q10 8 20.5 15t20.5 7q16 0 16 -18q0 -20 -19.5 -51t-53.5 -66l-179 -186l80 -142q25 -43 41.5 -81.5t16.5 -59.5q0 -18 -19 -18q-12 0 -28.5 13t-32.5 32l-211 231q-8 10 -20.5 19.5t-12.5 17.5zM459 424q0 8 13 15t24 16l344 256 q10 8 20 15t21 7q16 0 16 -18q0 -20 -19.5 -51t-54.5 -66l-178 -186l80 -142q25 -43 41 -81.5t16 -59.5q0 -18 -18 -18q-12 0 -28.5 13t-33.5 32l-210 231q-8 10 -20.5 19.5t-12.5 17.5z" />
<glyph unicode="&#xac;" horiz-adv-x="1024" />
<glyph unicode="&#xad;" horiz-adv-x="681" d="M-23 492q0 35 41 51q25 10 58 15t65.5 6t61 0t43.5 -1h172t172 -8q27 -4 54.5 -19.5t27.5 -43.5q0 -31 -42 -44.5t-96.5 -18.5t-105.5 -3t-72 2h-2h-67t-97.5 1t-95.5 3t-61 6q-20 6 -38 18.5t-18 35.5z" />
<glyph unicode="&#xae;" horiz-adv-x="1529" d="M76 686q0 147 54 276.5t148.5 226.5t222.5 153.5t273 56.5q147 0 276.5 -55.5t225.5 -150.5t151.5 -225t55.5 -282t-56.5 -283t-152.5 -227t-226 -151.5t-276 -55.5q-143 0 -270 57.5t-221.5 156t-149.5 228.5t-55 275zM199 688q0 -125 46 -233.5t126 -189.5t186.5 -127 t226.5 -46q119 0 223.5 48t183.5 129t124 189.5t45 229.5q0 123 -46 229.5t-126 186.5t-186.5 126t-227.5 46q-119 0 -223.5 -47t-182 -128t-123.5 -187.5t-46 -225.5zM346 410q0 27 12.5 59.5t35 62t53 49t65.5 19.5q10 0 26.5 -10t16.5 -21q0 -14 -8 -24t-18.5 -16.5 t-19.5 -9.5t-13 -3q-10 0 -14.5 3t-14.5 3q-35 0 -43 -16.5t-10 -30.5q0 -29 17.5 -38t33.5 -9q29 0 69.5 43t79.5 96.5t70 100.5t37 55q-6 16 -27 16q-10 0 -26.5 -6t-26.5 -6q-12 0 -18.5 5t-10.5 9l-2 19q-2 18 13.5 30.5t35 19.5t37 9t19.5 2q10 0 22.5 -3t22.5 -3 q18 0 38.5 19.5t42 48t42 62.5t41.5 61q8 14 -9 6q-23 -12 -42 -27.5t-35.5 -29t-29.5 -23.5t-26 -10q-10 0 -18 8t-19 14q0 4 1.5 16.5t9.5 20.5q20 25 56 46.5t69 37.5q41 23 88 36t94 13q66 0 105.5 -40t39.5 -93q0 -45 -26.5 -91t-66.5 -84t-89 -61.5t-94 -23.5 q-4 0 -21.5 -1t-40.5 -3q-10 0 -6 -10q4 -12 8.5 -24.5t4.5 -20.5q4 -39 -2.5 -81t-4.5 -85q2 -10 15.5 -18.5t29.5 -16.5q6 -18 -8 -46t-36.5 -53.5t-48 -43t-44.5 -17.5q-14 0 -23.5 8t-14.5 19.5t-7 21.5t-2 15q0 6 10.5 39.5t22.5 71.5t23.5 72t11.5 40q0 10 -1 16 t-7 17q-4 4 -5 4q2 0 -10 0q-16 0 -46 -50.5t-73 -112t-97 -111.5t-120 -50q-31 0 -50 12.5t-28.5 28.5t-12.5 34.5t-3 33.5zM881 803q-6 -14 4 -15q66 0 123 29q39 20 59 55t20 68q0 35 -13 54.5t-34 27.5q-12 4 -18 0q-14 -18 -32.5 -46t-38 -57.5t-38 -60.5t-32.5 -55z " />
<glyph unicode="&#xaf;" horiz-adv-x="681" d="M-16 1292q-4 29 8 43.5t28 20.5q18 8 43 8l555 4q16 0 29 -8q10 -6 20.5 -19.5t12.5 -37.5q4 -29 -6 -43.5t-23 -24.5q-14 -10 -33 -14l-487 82q-37 -31 -68 -46q-27 -12 -50 -9t-29 44z" />
<glyph unicode="&#xb0;" horiz-adv-x="819" d="M100 1040q8 63 40 123t80 108t107.5 78.5t123.5 39.5q63 8 115 -10.5t88 -55.5t52.5 -91.5t8.5 -117.5t-41 -123.5t-81 -107.5t-107.5 -78t-123.5 -39q-63 -8 -115 10.5t-88 55t-51.5 91t-7.5 117.5zM215 1055q-10 -82 37 -132.5t127 -41.5q39 4 76 23.5t67.5 49t51 67.5 t26.5 79t-5 73.5t-33.5 56t-55.5 35t-74 7.5q-39 -4 -76 -24.5t-66.5 -50.5t-50 -66.5t-24.5 -75.5z" />
<glyph unicode="&#xb1;" horiz-adv-x="1024" />
<glyph unicode="&#xb2;" horiz-adv-x="749" />
<glyph unicode="&#xb3;" horiz-adv-x="749" />
<glyph unicode="&#xb4;" horiz-adv-x="681" d="M176 1010q0 23 28.5 62.5t64.5 79.5t71 75l47 47q23 23 42.5 45t41 39.5t47 29t60.5 11.5q37 0 63.5 -26.5t26.5 -63.5q0 -41 -27 -64.5t-57 -44.5q-27 -18 -79 -54t-109.5 -73t-110 -64.5t-80.5 -27.5q-29 0 -29 29z" />
<glyph unicode="&#xb5;" />
<glyph unicode="&#xb6;" />
<glyph unicode="&#xb7;" horiz-adv-x="681" d="M172 449q6 35 26.5 65.5t48 54t61.5 38t67 14.5q35 2 62.5 -10.5t46 -34t25.5 -51t-1 -64.5h2q-16 -72 -76.5 -121t-130.5 -53q-70 -2 -107.5 46t-23.5 116z" />
<glyph unicode="&#xb8;" horiz-adv-x="681" d="M-38 -372.5q-3 12.5 13 28.5q14 12 29.5 15t28.5 1q14 -2 28 -8q35 -16 67 -21t73 -3q35 0 69.5 22.5t44.5 58.5q10 39 -12 56.5t-57 15.5q-16 0 -31.5 -2t-32.5 -6l-16 16l139 199h86l-92 -131q18 6 36.5 8t37.5 2q37 0 66.5 -7t49 -25.5t25.5 -47t-4 -69.5 q-14 -53 -53 -88t-87 -54.5t-99.5 -28t-92.5 -8.5q-39 0 -89 11.5t-81 23.5q-20 8 -33 19q-10 10 -13 22.5z" />
<glyph unicode="&#xb9;" horiz-adv-x="749" />
<glyph unicode="&#xba;" horiz-adv-x="684" />
<glyph unicode="&#xbb;" horiz-adv-x="1024" d="M94 129q0 20 19.5 51t54.5 66l178 186l-80 141q-25 43 -41 82t-16 60q0 18 18 18q12 0 28.5 -13t33.5 -32l211 -231q8 -10 20 -19.5t12 -17.5t-13 -15.5t-23 -15.5l-344 -256q-10 -8 -20.5 -15t-20.5 -7q-16 0 -17 18zM426 129q0 20 19.5 51t54.5 66l178 186l-80 141 q-25 43 -41 82t-16 60q0 18 18 18q12 0 28.5 -13t33.5 -32l210 -231q8 -10 20.5 -19.5t12.5 -17.5t-13 -15.5t-24 -15.5l-344 -256q-10 -8 -20 -15t-21 -7q-16 0 -16 18z" />
<glyph unicode="&#xbc;" horiz-adv-x="1875" />
<glyph unicode="&#xbd;" horiz-adv-x="1875" />
<glyph unicode="&#xbe;" horiz-adv-x="1875" />
<glyph unicode="&#xbf;" horiz-adv-x="1024" />
<glyph unicode="&#xc0;" horiz-adv-x="1251" d="M-127 217q0 59 5 90t15.5 52.5t27 45t40.5 70.5q16 16 26.5 33.5t22.5 34.5q41 53 99.5 72.5t123.5 19.5q33 0 56.5 -13.5t23.5 -50.5q0 -20 -13 -41.5t-32.5 -39t-42 -28.5t-43.5 -11q-20 0 -34.5 13t-36.5 13q-16 0 -34 -8t-32 -22.5t-23.5 -31t-9.5 -34.5 q0 -35 32 -66.5t67 -31.5q59 0 122.5 45t125 106.5t114.5 128t88 109.5q0 16 -13 21t-26 5q-27 0 -49 -11t-49 -13q-16 10 -24.5 27.5t-8.5 35.5q0 35 21.5 55.5t51.5 31t63.5 14.5t58.5 4q29 0 55.5 -3t50.5 -16q37 45 111 127t166 179.5t195.5 199t200.5 184t180 135 t134 52.5q45 0 76 -31h2h2h-2q-94 -156 -192.5 -309.5t-195.5 -309t-186 -314t-165 -324.5q-25 -55 -45.5 -112.5t-38.5 -117.5q-10 -29 -18.5 -58.5t-20.5 -57.5q-6 -14 -23.5 -27.5t-39 -23t-43 -14.5t-37.5 -5q-47 0 -74 35t-27 75q0 33 10.5 65t22.5 62.5t22.5 61.5 t10.5 63q0 29 -7.5 55.5t-43.5 26.5q-12 0 -42 -32.5t-72 -82t-95.5 -107.5t-113.5 -107.5t-128 -82t-137 -32.5q-98 0 -151.5 62.5t-53.5 158.5zM786 705q29 -70 29 -144q-2 -12 -3 -24.5t-5 -24.5l35 -20l510 790q-23 -6 -68 -45t-99.5 -94.5t-113.5 -122t-114.5 -128 t-100.5 -112.5t-70 -75zM1192 2126q0 37 26.5 63.5t63.5 26.5q35 0 60.5 -11.5t47 -28.5t42 -39.5t41.5 -45.5q12 -12 46.5 -47t70.5 -75t64.5 -80t28.5 -62q0 -29 -28 -29q-27 0 -80 27.5t-109.5 64.5t-108.5 73t-79 54q-31 20 -57.5 44t-26.5 65h-2z" />
<glyph unicode="&#xc1;" horiz-adv-x="1251" d="M-129 217q0 59 5 90t15.5 52.5t26.5 45t41 70.5q16 16 26.5 33.5t22.5 34.5q41 53 99.5 72.5t123.5 19.5q33 0 56.5 -13.5t23.5 -50.5q0 -20 -13 -41.5t-32.5 -39t-42 -28.5t-43.5 -11q-20 0 -34.5 13t-36.5 13q-16 0 -34 -8t-32 -22.5t-23.5 -31t-9.5 -34.5 q0 -35 32 -66.5t67 -31.5q59 0 122.5 45t125 106.5t114.5 128t88 109.5q0 16 -13.5 21t-27.5 5q-27 0 -49.5 -11t-48.5 -13q-31 23 -31 63q0 35 21.5 55.5t51.5 31t63.5 13.5t58.5 3q27 0 53.5 -3t50.5 -16q37 45 110.5 127t167 180.5t197 200t200.5 184t181 135t135 52.5 q45 0 76 -31h2h-2q-94 -156 -192.5 -309.5t-195.5 -309t-186 -314t-165 -324.5q-25 -55 -45.5 -112.5t-38.5 -115.5q-10 -29 -19.5 -58.5t-21.5 -57.5q-8 -16 -25.5 -29.5t-38 -23t-42 -14.5t-37.5 -5q-45 0 -72 35t-27 75q0 33 10.5 65t22.5 62.5t22.5 61.5t10.5 63 q0 29 -7.5 55.5t-43.5 26.5q-14 0 -43 -32.5t-71 -82t-95.5 -107.5t-113.5 -107.5t-128 -82t-137 -32.5q-98 0 -151.5 62.5t-53.5 158.5zM782 705q27 -68 31 -144q0 -25 -6 -49l33 -20l510 790q-23 -6 -68 -45t-99.5 -94.5t-114.5 -122t-115.5 -128t-100.5 -112.5t-70 -75z M1620 1760q0 23 28.5 62.5t64.5 79.5t71 75l47 47q23 23 42.5 45t41 39.5t47 29t60.5 11.5q37 0 63.5 -26.5t26.5 -63.5q0 -41 -27 -64.5t-57 -44.5q-27 -18 -79 -54t-109.5 -73t-110 -64.5t-80.5 -27.5q-29 0 -29 29z" />
<glyph unicode="&#xc2;" horiz-adv-x="1251" d="M-131 217q0 59 5 90t15.5 52.5t26.5 45t41 70.5q16 16 26.5 33.5t22.5 34.5q41 53 99.5 72.5t123.5 19.5q33 0 56.5 -13.5t23.5 -50.5q0 -20 -13 -41.5t-32.5 -39t-42 -28.5t-43.5 -11q-20 0 -34.5 13t-37.5 13q-16 0 -33.5 -8t-31.5 -22.5t-23.5 -31t-9.5 -34.5 q0 -35 32 -66.5t66 -31.5q59 0 123 45t125.5 106.5t114.5 128t88 109.5q0 16 -13.5 21t-25.5 5q-27 0 -49.5 -11t-48.5 -13q-16 10 -24.5 27.5t-8.5 35.5q0 35 21.5 55.5t51 31t63.5 14.5t59 4q29 0 55.5 -3t50.5 -16q37 45 110.5 127t166 179.5t196 199t200.5 184t180 135 t134 52.5q45 0 76 -31h2h2h-2q-94 -156 -192.5 -309.5t-195.5 -309t-186 -314t-165 -324.5q-25 -55 -45.5 -112.5t-38.5 -117.5q-10 -29 -18.5 -58.5t-20.5 -57.5q-6 -14 -23.5 -27.5t-39 -23t-43 -14.5t-37.5 -5q-47 0 -74 35t-27 75q0 33 10.5 65t22.5 62.5t22.5 61.5 t10.5 63q0 29 -7.5 55.5t-43.5 26.5q-12 0 -42 -32.5t-72 -82t-95.5 -107.5t-113.5 -107.5t-128 -82t-137 -32.5q-98 0 -151.5 62.5t-53.5 158.5zM782 705q29 -70 29 -144q-2 -12 -3 -24.5t-5 -24.5l35 -20l510 790q-23 -6 -68 -45t-99.5 -94.5t-113.5 -122t-114.5 -128 t-100.5 -112.5t-70 -75zM1158 1699q-1 11 18 25h-2q12 10 44.5 43t76.5 78t95.5 97.5t98.5 98.5t88 82t63 50q18 10 27.5 5t24 -14.5t38 -15.5t70.5 6q33 -106 60 -194q12 -37 22 -75t19.5 -70.5t15.5 -57t6 -35.5q4 -20 -3 -36.5t-20.5 -14.5t-34 25.5t-44.5 79.5 q-29 72 -56.5 121t-50.5 81q-25 37 -45 62q-61 -45 -129 -98q-59 -45 -134 -103.5t-153 -122.5q-25 -18 -46 -25.5t-34.5 -5t-14.5 13.5z" />
<glyph unicode="&#xc3;" horiz-adv-x="1251" d="M-328 166q0 51 2 87t10.5 66.5t27 61.5t52.5 70q35 43 60.5 68.5t53.5 39.5t65 19.5t96 5.5q33 0 55.5 -14.5t22.5 -51.5q0 -20 -13.5 -41.5t-33 -39t-43 -28t-41.5 -10.5q-23 0 -37.5 14.5t-36.5 14.5q-18 0 -34.5 -9t-31 -23.5t-22.5 -32t-8 -33.5q0 -35 31.5 -67 t66.5 -32q59 0 123.5 45.5t126 106.5t114 126.5t89.5 108.5q0 16 -14.5 23.5t-28.5 7.5q-27 0 -50.5 -11t-50.5 -15q-31 27 -30 63q0 35 23.5 55.5t56 31.5t68.5 15.5t60 4.5q33 0 63 -7.5t56 -27.5l53 94q25 43 89.5 119t150.5 166t184.5 181t192.5 167t173 123t124 47 q43 0 76 -33h-2q-96 -162 -200 -321.5t-203 -321.5t-191.5 -327t-165.5 -341q-31 -72 -51.5 -148.5t-51.5 -148.5q-6 -16 -23.5 -29.5t-39 -22.5t-44 -14t-38.5 -5q-47 0 -72.5 34.5t-25.5 75.5q0 35 10 66t22.5 62.5t22.5 63t10 64.5q0 29 -7 54.5t-42 25.5 q-12 0 -42 -32.5t-72 -83t-96 -107.5t-114.5 -107.5t-129 -83t-138.5 -32.5q-98 0 -152.5 65.5t-54.5 157.5zM586 662h2q18 -45 26.5 -98.5t-4.5 -100.5l31 -23l512 795q-25 -8 -69 -46t-99 -93.5t-114.5 -121t-115 -126t-100.5 -110.5t-69 -76zM1155 1706q0 33 34 73 t81 73.5t97 57t83 23.5q35 0 61.5 -11t50 -24.5t44 -24.5t41.5 -11q37 0 62.5 20.5t47 46t41 47t41.5 21.5q6 0 14.5 -3t8.5 -14q0 -12 -9.5 -21t-17.5 -20q-27 -33 -57.5 -68.5t-65.5 -64t-76 -47t-88 -18.5q-37 0 -63.5 11t-50 24.5t-45 24.5t-50.5 11t-52 -18 t-41.5 -41.5t-35 -42t-32.5 -18.5q-20 0 -23 14z" />
<glyph unicode="&#xc4;" horiz-adv-x="1251" d="M-242 207q0 68 11.5 105.5t27 64t30.5 51.5t23 66q39 -2 57.5 18t40 46t59.5 47.5t118 21.5q49 0 63.5 -22.5t14.5 -45.5q0 -27 -16.5 -49.5t-38 -36.5t-44 -22.5t-32.5 -8.5q-23 0 -35 13.5t-37 13.5q-23 0 -40 -10t-30.5 -25.5t-20.5 -33t-7 -29.5q0 -20 10 -39 t25.5 -32t33 -20.5t29.5 -7.5q57 0 118.5 42t121 101.5t115 126t98.5 117.5q2 10 -7.5 20.5t-33.5 10.5q-25 0 -52.5 -13t-48.5 -13q-10 10 -20 25.5t-10 39.5q0 43 33.5 64.5t73.5 31t75 9.5h39q66 0 107.5 -39t64 -93.5t28 -109.5t-3.5 -88q10 -10 15.5 -11t15.5 -12 l514 793q-29 -6 -73 -46t-96 -95.5t-107.5 -117t-102.5 -114.5t-80.5 -87t-46.5 -34q-23 0 -40 10.5t-38 20.5v84q6 10 59.5 73.5t135.5 152.5t183.5 189.5t200.5 186.5t188.5 142.5t146.5 56.5q23 0 40 -7.5t38 -27.5v2v-2q-137 -229 -271.5 -436t-250 -402.5t-205.5 -385 t-140 -382.5q-4 -16 -23.5 -28.5t-43 -21.5t-46 -14t-32.5 -5q-29 0 -47.5 12t-28.5 29.5t-15 37t-5 31.5t10 49t21.5 78t21.5 78t10 49q0 39 -9 59.5t-42 20.5q-14 0 -43 -32.5t-71 -82t-95 -107.5t-113.5 -107.5t-128 -82t-139.5 -32.5q-53 0 -92 18.5t-64.5 49t-38 70.5 t-12.5 83zM1254.5 1728.5q-15.5 40.5 9.5 92.5q27 53 82 93t108 40t75 -39t-7 -94q-27 -55 -84.5 -94t-114.5 -39q-53 0 -68.5 40.5zM1686.5 1728.5q-15.5 40.5 9.5 92.5q27 53 82 93t108 40t75 -39t-7 -94q-27 -55 -84.5 -94t-114.5 -39q-53 0 -68.5 40.5z" />
<glyph unicode="&#xc5;" horiz-adv-x="1251" d="M-129 217q0 59 5 90t15.5 52.5t26.5 45t41 70.5q16 16 26.5 33.5t22.5 34.5q41 53 99.5 72.5t123.5 19.5q33 0 56.5 -13.5t23.5 -50.5q0 -20 -13 -41.5t-32.5 -39t-42 -28.5t-43.5 -11q-20 0 -34.5 13t-36.5 13q-16 0 -34 -8t-32 -22.5t-23.5 -31t-9.5 -34.5 q0 -35 32 -66.5t67 -31.5q59 0 122.5 45t125 106.5t114.5 128t88 109.5q0 16 -13.5 21t-27.5 5q-27 0 -49.5 -11t-48.5 -13q-31 23 -31 63q0 35 21.5 55.5t51.5 31t63.5 13.5t58.5 3q27 0 53.5 -3t50.5 -16q37 45 110.5 127t167 180.5t197 200t200.5 184t181 135t135 52.5 q45 0 76 -31h2h-2q-94 -156 -192.5 -309.5t-195.5 -309t-186 -314t-165 -324.5q-25 -55 -45.5 -112.5t-38.5 -115.5q-10 -29 -19.5 -58.5t-21.5 -57.5q-8 -16 -25.5 -29.5t-38 -23t-42 -14.5t-37.5 -5q-45 0 -72 35t-27 75q0 33 10.5 65t22.5 62.5t22.5 61.5t10.5 63 q0 29 -7.5 55.5t-43.5 26.5q-14 0 -43 -32.5t-71 -82t-95.5 -107.5t-113.5 -107.5t-128 -82t-137 -32.5q-98 0 -151.5 62.5t-53.5 158.5zM782 705q27 -68 31 -144q0 -25 -6 -49l33 -20l510 790q-23 -6 -68 -45t-99.5 -94.5t-114.5 -122t-115.5 -128t-100.5 -112.5t-70 -75z M1478 1886.5q-7 38.5 3 84.5q10 43 38 83.5t64.5 71.5t79.5 49.5t88 20.5t80 -13.5t58.5 -44t30.5 -67.5t-3 -84q-12 -45 -38.5 -86t-63.5 -72t-80 -49t-90 -20q-45 -2 -81 14t-57.5 45t-28.5 67.5zM1579 1975q-10 -47 16.5 -82t73.5 -33t93.5 39t56.5 84h2 q10 47 -18.5 80.5t-75.5 31.5t-91 -37.5t-57 -82.5z" />
<glyph unicode="&#xc6;" horiz-adv-x="1933" />
<glyph unicode="&#xc7;" horiz-adv-x="1366" d="M-109 -356q0 20 23 31.5t39 13.5q29 0 68.5 -17.5t99.5 -17.5q43 0 85 26.5t42 77.5q0 29 -22.5 40.5t-47.5 8.5q-39 0 -65 -8l-17 17l131 188q-43 10 -75.5 36t-55 61.5t-34 76.5t-11.5 80q0 78 21.5 153.5t49.5 151.5t55.5 150.5t37.5 152.5q-31 29 -70 42.5 t-74.5 28.5t-60 42t-24.5 82q0 41 19.5 86t52 84t73.5 63.5t84 24.5q16 0 32.5 -6t33.5 -10v-62q-10 -8 -24.5 -23.5t-27 -32t-20.5 -33.5t-8 -32q0 -27 30.5 -55.5t57.5 -28.5q25 0 74 44t101 101.5t98 113t67 77.5q35 41 71.5 79t77.5 73q41 37 101.5 79t126 77.5t132 59 t122.5 23.5q37 0 62.5 -15t42.5 -41t24.5 -57.5t7.5 -62.5h2h-2q0 -72 -44 -148.5t-108.5 -145t-137.5 -126t-132 -90.5q-119 -66 -248 -110.5t-260 -77.5q-41 -76 -66.5 -158t-25.5 -168q0 -31 7 -64.5t23.5 -61t43 -45t63.5 -17.5q39 0 75 15.5t63.5 42t45 62t17.5 74.5 q0 35 -18.5 61.5t-55.5 26.5q-23 0 -42 -6t-42 -8q-14 10 -16 21.5t-2 27.5q0 29 25.5 62.5t62.5 63.5t75.5 49.5t65.5 19.5q31 0 58.5 -15.5t47 -40t31.5 -54t12 -58.5q0 -94 -59 -212t-150.5 -225.5t-197 -185.5t-197.5 -94l-82 -119q37 12 74 13q25 0 50.5 -4.5t46 -16.5 t33.5 -32.5t13 -51.5q0 -63 -33.5 -106t-83.5 -69t-109.5 -38t-110.5 -12q-14 0 -50 5t-73 14t-66 23.5t-29 35.5zM582 1077q37 14 98 38t131 53.5t140.5 66.5t127 78t92 87t35.5 93v2q0 49 -32.5 65.5t-77.5 16.5q-33 0 -65 -14.5t-54 -36.5q-35 -35 -70 -73t-69 -73 q-70 -72 -134.5 -146.5t-121.5 -156.5z" />
<glyph unicode="&#xc8;" horiz-adv-x="1366" d="M-8 229q0 70 35.5 152t90 164t117 158.5t117 136t90.5 95.5l35 36q-10 10 -20 10q-4 0 -14.5 -8t-39.5 -8q-47 0 -66.5 33.5t-19.5 74.5q0 12 11.5 36t27 48.5t34 42t30.5 17.5q18 0 36.5 -1.5t37.5 -1.5q10 -16 7 -47.5t-3 -50.5q4 -4 4 -10q0 -4 -1 -9t2 -8.5t13 -3.5 q66 68 146.5 152t173 155.5t192.5 121t201 49.5q25 0 54.5 -7.5t54 -21.5t41 -36.5t16.5 -53.5q0 -66 -49.5 -132.5t-121 -119.5t-150.5 -87t-140 -34q-20 0 -37.5 8t-34.5 19q29 37 84 64.5t108.5 57t93.5 64.5t40 88q0 33 -22.5 45.5t-51.5 12.5q-57 0 -120.5 -37 t-118 -92.5t-90 -120t-35.5 -119.5q0 -18 9 -42t24.5 -43.5t35 -32.5t39.5 -13q10 0 28.5 9t38 20.5t38 20.5t30.5 9q23 0 39.5 -17.5t16.5 -37.5l-2 2q0 -37 -38 -71t-89.5 -59.5t-104.5 -40.5t-84 -15q-51 0 -99 14t-71 67q-31 -39 -79 -93t-93 -114.5t-76.5 -120 t-31.5 -112.5q0 -20 13 -43.5t32.5 -43t44 -32t47.5 -12.5q37 0 72.5 16.5t64.5 44t46 61.5t17 71q-2 8 -2 14q0 8 -2 16q-16 18 -41.5 32.5t-52.5 23.5v53q6 6 24.5 17.5t39 21.5t41 17t28.5 7q23 0 44.5 -11t38 -29.5t25.5 -41t9 -45.5q0 -94 -53 -187t-134 -167 t-179.5 -120t-190.5 -46q-96 0 -158.5 62.5t-62.5 158.5zM868 1958q0 37 27 63.5t63 26.5q35 0 60.5 -11.5t47 -28.5t42 -39.5t41.5 -45.5q12 -12 46 -47t69.5 -75t64.5 -80t29 -62q0 -29 -29 -29q-27 0 -80 28t-109.5 64.5t-108.5 72.5t-79 54q-31 20 -57.5 44t-26.5 65z " />
<glyph unicode="&#xc9;" horiz-adv-x="1366" d="M-8 227q0 70 35.5 152t90 164t117 158.5t117 136t91 95.5t36.5 38q-10 10 -20 10q-6 0 -16.5 -8t-39.5 -8q-47 0 -66.5 33.5t-19.5 74.5q0 12 11.5 36t28 48.5t34 42t31.5 17.5q18 0 36.5 -1.5t37.5 -1.5q10 -16 6 -47.5t-4 -50.5q4 -4 4 -10q0 -4 -1 -9t1 -8.5t12 -3.5 q66 68 146.5 152t173 155.5t192.5 121t201 49.5q27 0 56.5 -7.5t54 -21.5t41 -36.5t16.5 -53.5q0 -66 -49.5 -132.5t-120 -119.5t-150.5 -87t-139 -34q-20 0 -37.5 8t-34.5 19q29 37 83 64.5t107.5 57t93.5 64.5t40 88q0 33 -21.5 45.5t-50.5 12.5q-57 0 -121.5 -37 t-119 -92.5t-90 -120t-35.5 -119.5q0 -18 9 -42t24.5 -43.5t36 -32.5t40.5 -13q10 0 28.5 9t38 20.5t38 20.5t30.5 9q23 0 38.5 -17.5t15.5 -37.5l-2 2q0 -37 -38 -71t-88.5 -59.5t-103.5 -40.5t-84 -15q-51 0 -99 15t-71 69q-33 -39 -81 -93.5t-93 -115t-76.5 -120 t-31.5 -112.5q0 -23 13 -46t32.5 -42.5t44 -32t45.5 -12.5q37 0 72.5 16.5t64.5 43t46 61.5t17 70q0 20 -2 30q-16 20 -41.5 34.5t-52.5 23.5l2 53q6 6 24.5 17.5t39 21.5t41 17t28.5 7q23 0 43.5 -11t37 -29.5t25.5 -41t9 -45.5q0 -94 -53 -187t-134 -167t-179.5 -120 t-190.5 -46q-96 0 -158.5 62.5t-62.5 156.5zM1153 1618q0 23 28.5 62.5t64.5 79.5t71 75l47 47q23 23 42.5 45t41 39.5t47 29t60.5 11.5q37 0 63.5 -26.5t26.5 -63.5q0 -41 -27 -64.5t-57 -44.5q-27 -18 -79 -54t-109.5 -73t-110 -64.5t-80.5 -27.5q-29 0 -29 29z" />
<glyph unicode="&#xca;" horiz-adv-x="1366" d="M-8 227q0 70 35.5 152t90 164t117 158.5t117 136t91 95.5t36.5 38q-10 10 -20 10q-6 0 -16.5 -8t-39.5 -8q-47 0 -66.5 33.5t-19.5 74.5q0 12 11.5 36t28 48.5t34 42t31.5 17.5q18 0 36.5 -1.5t37.5 -1.5q10 -16 6 -47.5t-4 -50.5q4 -4 4 -10q0 -4 -1 -9t1 -8.5t12 -3.5 q66 68 146.5 152t173 155.5t192.5 121t201 49.5q27 0 56.5 -7.5t54 -21.5t41 -36.5t16.5 -53.5q0 -66 -49.5 -132.5t-120 -119.5t-150.5 -87t-139 -34q-20 0 -37.5 8t-34.5 19q29 37 83 64.5t107.5 57t93.5 64.5t40 88q0 33 -21.5 45.5t-50.5 12.5q-57 0 -121.5 -37 t-119 -92.5t-90 -120t-35.5 -119.5q0 -18 9 -42t24.5 -43.5t36 -32.5t40.5 -13q10 0 28.5 9t38 20.5t38 20.5t30.5 9q23 0 38.5 -17.5t15.5 -37.5l-2 2q0 -37 -38 -71t-88.5 -59.5t-103.5 -40.5t-84 -15q-51 0 -99 15t-71 69q-33 -39 -81 -93.5t-93 -115t-76.5 -120 t-31.5 -112.5q0 -23 13 -46t32.5 -42.5t44 -32t45.5 -12.5q37 0 72.5 16.5t64.5 43t46 61.5t17 70q0 20 -2 30q-16 20 -41.5 34.5t-52.5 23.5l2 53q6 6 24.5 17.5t39 21.5t41 17t28.5 7q23 0 43.5 -11t37 -29.5t25.5 -41t9 -45.5q0 -94 -53 -187t-134 -167t-179.5 -120 t-190.5 -46q-96 0 -158.5 62.5t-62.5 156.5zM951 1502.5q-1 11.5 17 25.5q12 10 45 43t77 78t95.5 97.5t98.5 98.5t88 81.5t63 50.5q18 10 27.5 5t23 -14.5t38 -15.5t69.5 6q33 -106 59 -194q23 -76 44.5 -145.5t23.5 -92.5q4 -20 -3 -36.5t-21.5 -14.5t-35 25.5t-45.5 78.5 q-29 72 -59.5 110t-52.5 54q-27 20 -51 23q-57 -23 -125 -60q-57 -31 -130 -76.5t-151 -109.5q-25 -18 -46 -25.5t-34.5 -5.5t-14.5 13.5z" />
<glyph unicode="&#xcb;" horiz-adv-x="1366" d="M-8 227q0 70 35.5 152t90 164t117 158.5t117 136t91 95.5t36.5 38q-10 10 -20 10q-6 0 -16.5 -8t-39.5 -8q-47 0 -66.5 33.5t-19.5 74.5q0 12 11.5 36t28 48.5t34 42t31.5 17.5q18 0 36.5 -1.5t37.5 -1.5q10 -16 6 -47.5t-4 -50.5q4 -4 4 -10q0 -4 -1 -9t1 -8.5t12 -3.5 q66 68 146.5 152t173 155.5t192.5 121t201 49.5q27 0 56.5 -7.5t54 -21.5t41 -36.5t16.5 -53.5q0 -66 -49.5 -132.5t-120 -119.5t-150.5 -87t-139 -34q-20 0 -37.5 8t-34.5 19q29 37 83 64.5t107.5 57t93.5 64.5t40 88q0 33 -21.5 45.5t-50.5 12.5q-57 0 -121.5 -37 t-119 -92.5t-90 -120t-35.5 -119.5q0 -18 9 -42t24.5 -43.5t36 -32.5t40.5 -13q10 0 28.5 9t38 20.5t38 20.5t30.5 9q23 0 38.5 -17.5t15.5 -37.5l-2 2q0 -37 -38 -71t-88.5 -59.5t-103.5 -40.5t-84 -15q-51 0 -99 15t-71 69q-33 -39 -81 -93.5t-93 -115t-76.5 -120 t-31.5 -112.5q0 -23 13 -46t32.5 -42.5t44 -32t45.5 -12.5q37 0 72.5 16.5t64.5 43t46 61.5t17 70q0 20 -2 30q-16 20 -41.5 34.5t-52.5 23.5l2 53q6 6 24.5 17.5t39 21.5t41 17t28.5 7q23 0 43.5 -11t37 -29.5t25.5 -41t9 -45.5q0 -94 -53 -187t-134 -167t-179.5 -120 t-190.5 -46q-96 0 -158.5 62.5t-62.5 156.5zM928 1755q12 53 58 93t99 40t85 -37.5t20 -91.5l-2 -2q-12 -53 -59.5 -92t-102.5 -39q-53 0 -81 40t-17 89zM1362 1762q12 53 58 93t100 40q53 0 84.5 -38t19.5 -91l-2 -2q-12 -53 -59.5 -92.5t-102.5 -39.5q-53 0 -80.5 40 t-17.5 90z" />
<glyph unicode="&#xcc;" horiz-adv-x="909" d="M-344 154q0 70 35 150.5t92 150t130 115.5t146 46q78 0 78 -71q0 -18 -10 -42t-25.5 -45.5t-36 -36.5t-38.5 -15q-25 0 -45.5 13t-44.5 13q-53 0 -89 -33.5t-36 -89.5q0 -70 38.5 -91t98.5 -21q51 0 101 25.5t97.5 66.5t91.5 94t81.5 107.5t68.5 105.5t53 90 q27 45 49.5 93t51.5 91q-8 12 -13.5 15.5t-21.5 3.5q-10 0 -33.5 -20.5t-50.5 -44t-50.5 -44t-31.5 -20.5q-20 0 -33.5 21.5t-13.5 37.5q0 37 17.5 63.5t44 46t56 36t56.5 34.5q139 98 279.5 206t248.5 243q20 25 37 50.5t35 51.5q16 23 36.5 39.5t49.5 16.5q20 0 27.5 -5.5 t23.5 -9.5v-84q0 -2 -18.5 -30.5t-41 -62.5t-42 -62.5t-23.5 -34.5q-160 -236 -313.5 -473.5t-294.5 -487.5q-39 -70 -104.5 -146.5t-146.5 -140t-169 -104.5t-174 -41q-104 0 -163.5 64.5t-59.5 165.5zM797 2056q0 35 26.5 61.5t63.5 26.5q35 0 60.5 -10t47 -27.5t41 -39 t39.5 -44.5q12 -14 47 -49t71 -75.5t64.5 -80.5t28.5 -63q0 -29 -29 -29q-27 0 -80 29t-109 66t-108.5 72.5t-78.5 54.5q-31 20 -57.5 43.5t-26.5 64.5z" />
<glyph unicode="&#xcd;" horiz-adv-x="909" d="M-344 154q0 70 35 150.5t92 150t130 115.5t146 46q78 0 78 -71q0 -18 -10 -42t-25.5 -45.5t-36 -36.5t-38.5 -15q-25 0 -45.5 13t-44.5 13q-53 0 -89 -33.5t-36 -89.5q0 -70 38.5 -91t98.5 -21q51 0 101 25.5t97.5 66.5t91.5 94t81.5 107.5t69.5 105.5t54 90 q25 45 48.5 93t52.5 91q-8 12 -13.5 15.5t-21.5 3.5q-10 0 -34.5 -20.5t-51.5 -44t-50.5 -44t-31.5 -20.5q-20 0 -33.5 21.5t-13.5 37.5q0 37 17.5 63.5t44 46t56 36t56.5 34.5q139 98 279.5 206t248.5 243q20 27 37 52.5t35 51.5q16 23 36.5 38.5t49.5 15.5q20 0 27.5 -5.5 t23.5 -9.5v-84q0 -2 -18.5 -30.5t-41 -62.5t-42 -62.5t-23.5 -32.5q-160 -238 -314.5 -475.5t-295.5 -487.5q-39 -70 -104.5 -146.5t-146.5 -140t-169 -104.5t-174 -41q-102 0 -161.5 64.5t-59.5 165.5zM1114 1659q0 23 28.5 62.5t64.5 79.5t71 75l47 47q23 23 42.5 45 t41 39.5t47 29t60.5 11.5q37 0 63.5 -26.5t26.5 -63.5q0 -41 -27 -64.5t-57 -44.5q-27 -18 -79 -54t-109.5 -73t-110 -64.5t-80.5 -27.5q-29 0 -29 29z" />
<glyph unicode="&#xce;" horiz-adv-x="909" d="M-344 154q0 70 35 150.5t92 150t130 115.5t146 46q78 0 78 -71q0 -18 -10 -42t-25.5 -45.5t-36 -36.5t-38.5 -15q-25 0 -45.5 13t-44.5 13q-53 0 -89 -33.5t-36 -89.5q0 -70 38.5 -91t98.5 -21q51 0 101 25.5t97.5 66.5t91.5 94t81.5 107.5t69.5 105.5t54 90 q25 45 48.5 93t52.5 91q-8 12 -13.5 15.5t-21.5 3.5q-10 0 -34.5 -20.5t-51.5 -44t-50.5 -44t-31.5 -20.5q-20 0 -33.5 21.5t-13.5 37.5q0 37 17.5 63.5t44 46t56 36t56.5 34.5q139 98 279.5 206t248.5 243q20 27 37 52.5t35 51.5q16 23 36.5 38.5t49.5 15.5q20 0 27.5 -5.5 t23.5 -9.5v-84q0 -2 -18.5 -30.5t-41 -62.5t-42 -62.5t-23.5 -32.5q-160 -238 -314.5 -475.5t-295.5 -487.5q-39 -70 -104.5 -146.5t-146.5 -140t-169 -104.5t-174 -41q-102 0 -161.5 64.5t-59.5 165.5zM835 1549.5q-1 11.5 17 25.5q12 10 45 43t77 78t95.5 97.5t98.5 98.5 t88 81.5t63 50.5q18 10 27.5 5t23 -14.5t38 -15.5t69.5 6q33 -106 59 -194q23 -76 44.5 -145.5t23.5 -92.5q4 -20 -3 -36.5t-21.5 -14.5t-35 25.5t-45.5 78.5q-29 72 -59.5 110t-52.5 54q-27 20 -51 23q-57 -23 -125 -60q-57 -31 -130 -76.5t-151 -109.5q-25 -18 -46 -25.5 t-34.5 -5.5t-14.5 13.5z" />
<glyph unicode="&#xcf;" horiz-adv-x="909" d="M-344 154q0 70 35 150.5t92 150t130 115.5t146 46q78 0 78 -71q0 -18 -10 -42t-25.5 -45.5t-36 -36.5t-38.5 -15q-25 0 -45.5 13t-44.5 13q-53 0 -89 -33.5t-36 -89.5q0 -70 38.5 -91t98.5 -21q51 0 101 25.5t97.5 66.5t91.5 94t81.5 107.5t69.5 105.5t54 90 q25 45 48.5 93t52.5 91q-8 12 -13.5 15.5t-21.5 3.5q-10 0 -34.5 -20.5t-51.5 -44t-50.5 -44t-31.5 -20.5q-20 0 -33.5 21.5t-13.5 37.5q0 37 17.5 63.5t44 46t56 36t56.5 34.5q139 98 279.5 206t248.5 243q20 27 37 52.5t35 51.5q16 23 36.5 38.5t49.5 15.5q20 0 27.5 -5.5 t23.5 -9.5v-84q0 -2 -18.5 -30.5t-41 -62.5t-42 -62.5t-23.5 -32.5q-160 -238 -314.5 -475.5t-295.5 -487.5q-39 -70 -104.5 -146.5t-146.5 -140t-169 -104.5t-174 -41q-102 0 -161.5 64.5t-59.5 165.5zM768 1767q12 53 58 93t99 40t85 -37.5t20 -91.5l-2 -2 q-12 -53 -59.5 -92t-102.5 -39q-53 0 -81 40t-17 89zM1202 1774q12 53 58 93t100 40q53 0 84.5 -38t19.5 -91l-2 -2q-12 -53 -59.5 -92.5t-102.5 -39.5q-53 0 -80.5 40t-17.5 90z" />
<glyph unicode="&#xd0;" horiz-adv-x="1593" />
<glyph unicode="&#xd1;" horiz-adv-x="1478" d="M-115 182q0 66 29 132.5t78 119.5t111.5 88t129.5 35q23 0 51.5 -13.5t28.5 -39.5q0 -16 -13 -34.5t-33.5 -34t-41 -26t-37.5 -10.5q-16 0 -32.5 6.5t-32.5 6.5q-35 0 -62.5 -27t-27.5 -61q0 -39 30.5 -68t67.5 -29q35 0 73 19.5t66 42.5q66 53 126.5 117.5t117.5 133 t113.5 139.5t111.5 134q35 39 96.5 108.5t138.5 151.5t163 167t166.5 153.5t151.5 112.5t118 44h49q10 -10 13 -24.5t3 -30.5q0 -37 -17 -62.5t-43 -44t-56.5 -33t-57.5 -28.5q-37 -18 -83 -52t-92 -74t-87 -81t-67 -71q-10 -12 -33 -61.5t-49.5 -118t-55 -147.5t-52 -148.5 t-39 -121t-15.5 -67.5t4 -31.5t27 -15.5q18 0 47.5 45t68.5 114.5t86 153.5t98.5 161t105.5 138.5t110 83.5q29 -18 28 -47q0 -12 -13 -38.5t-30.5 -57.5t-35 -58.5t-25.5 -39.5q-53 -78 -100.5 -160t-85.5 -168q-20 -47 -42 -112.5t-45.5 -133t-50 -126t-61.5 -93.5 q-33 -31 -86 -31q-47 0 -76 29t-45 71t-21.5 89t-5.5 82q0 59 12.5 115.5t30 110.5t38 108.5t36.5 109.5l4 14l-6 9q-8 -4 -22.5 -21.5t-29.5 -39t-28.5 -42t-19.5 -29.5q-49 -74 -121 -177t-159 -198.5t-183 -163t-195 -67.5q-215 0 -215 213zM1349 1603.5q-1 6.5 1 14.5 t8 20q25 37 55.5 73t67.5 63.5t78 45t82 17.5q33 2 59.5 -10t48.5 -29q25 -14 46.5 -24.5t41.5 -10.5q37 2 65.5 24.5t55.5 53.5q8 16 18 29q10 10 21.5 19.5t28.5 9.5q23 2 23.5 -8.5t-3.5 -20.5q-6 -13 -20 -29q-55 -76 -127 -137t-160 -64q-37 -2 -63.5 10.5t-49.5 28.5 q-23 14 -45 24.5t-49 8.5q-25 0 -56.5 -22.5t-52.5 -51.5q-8 -14 -18 -24t-20.5 -17.5t-24.5 -3.5q-10 4 -11 10.5z" />
<glyph unicode="&#xd2;" horiz-adv-x="1593" d="M219 262q0 92 50 220t133 266.5t191.5 275.5t224.5 244.5t230.5 175t211.5 67.5q33 0 53 -13t32.5 -34.5t17.5 -48t5 -53.5q0 -72 -20.5 -141.5t-55.5 -134t-83 -122t-101 -100.5q-39 -109 -81 -218t-107 -204q-37 -55 -96.5 -130.5t-130 -143.5t-147.5 -116t-151 -48 q-39 0 -70.5 28.5t-55 68.5t-37 84t-13.5 77zM506 459q0 -53 21.5 -87t80.5 -34q55 0 109.5 48t100.5 113.5t83 136.5t60 114q-45 -31 -73 -49.5t-55.5 -27.5t-61.5 -12.5t-89 -3.5q-27 20 -27 50q0 25 17.5 40t42 23t51.5 12t45 6q18 4 52 19.5t67 37t57.5 46t24.5 45.5 q0 16 -9.5 27.5t-21.5 17.5l-80 -12q-29 18 -29 47q0 20 16.5 42.5t39 41t49.5 31t45 12.5q25 0 38 -12.5t22.5 -31t18.5 -38t21 -33.5q53 23 75 77t22 105q0 20 -7.5 43t-19.5 41.5t-30.5 30.5t-41.5 12q-14 0 -46 -20.5t-65.5 -46t-63.5 -52t-42 -38.5 q-57 -61 -126.5 -149.5t-129 -187t-100.5 -198.5t-41 -186zM895 1933q0 37 26.5 63.5t63.5 26.5q35 0 60.5 -11t47 -28.5t41 -40t40.5 -45.5l46.5 -46.5t70.5 -74.5t64.5 -80t28.5 -63q0 -29 -28 -28q-27 0 -80 27.5t-109.5 64.5t-108.5 72.5t-79 54.5q-31 20 -57.5 43.5 t-26.5 64.5z" />
<glyph unicode="&#xd3;" horiz-adv-x="1593" d="M219 262q0 92 50 220t133 266.5t191.5 275.5t224.5 244.5t230.5 175t211.5 67.5q33 0 53 -13t32.5 -34.5t17.5 -48t5 -53.5q0 -72 -20.5 -141.5t-55.5 -134t-82 -122t-100 -100.5q-39 -109 -81 -218t-107 -204q-37 -55 -97.5 -130.5t-131 -143.5t-147.5 -116t-151 -48 q-39 0 -70.5 28.5t-55 68.5t-37 84t-13.5 77zM506 459q0 -53 21.5 -87t80.5 -34q55 0 109.5 48t100.5 113.5t83 136.5t60 114q-45 -31 -73 -49.5t-55.5 -27.5t-61.5 -12.5t-89 -3.5q-27 20 -27 50q0 25 17.5 40t42 23t51.5 12t45 6q18 4 52 19.5t67 37t57.5 46t24.5 45.5 q0 16 -9.5 27.5t-21.5 17.5l-80 -12q-29 18 -29 47q0 20 16.5 42.5t39 41t49.5 31t45 12.5q25 0 38 -12.5t22.5 -31t18.5 -38t21 -33.5q53 23 75 77t22 105q0 20 -7.5 43t-19.5 41.5t-30.5 30.5t-41.5 12q-14 0 -46 -20.5t-65.5 -46t-63.5 -52t-42 -38.5 q-57 -61 -126.5 -149.5t-129 -187t-100.5 -198.5t-41 -186zM1153 1563q0 23 28.5 62.5t64.5 79.5t71 75l47 47q23 23 42.5 45t41 39.5t47 29t60.5 11.5q37 0 63.5 -26.5t26.5 -63.5q0 -41 -27 -64.5t-57 -44.5q-27 -18 -79 -54t-109.5 -73t-110 -64.5t-80.5 -27.5 q-29 0 -29 29z" />
<glyph unicode="&#xd4;" horiz-adv-x="1593" d="M219 262q0 92 50 220t133 266.5t191.5 275.5t224.5 244.5t230.5 175t211.5 67.5q33 0 53 -13t32.5 -34.5t17.5 -48t5 -53.5q0 -72 -20.5 -141.5t-55.5 -134t-83 -122t-101 -100.5q-39 -109 -81 -218t-107 -204q-37 -55 -96.5 -130.5t-130 -143.5t-147.5 -116t-151 -48 q-39 0 -70.5 28.5t-55 68.5t-37 84t-13.5 77zM506 459q0 -53 21.5 -87t80.5 -34q55 0 109.5 48t100.5 113.5t83 136.5t60 114q-45 -31 -73 -49.5t-55.5 -27.5t-61.5 -12.5t-89 -3.5q-27 20 -27 50q0 25 17.5 40t42 23t51.5 12t45 6q18 4 52 19.5t67 37t57.5 46t24.5 45.5 q0 16 -9.5 27.5t-21.5 17.5l-80 -12q-29 18 -29 47q0 20 16.5 42.5t39 41t49.5 31t45 12.5q25 0 38 -12.5t22.5 -31t18.5 -38t21 -33.5q53 23 75 77t22 105q0 20 -7.5 43t-19.5 41.5t-30.5 30.5t-41.5 12q-14 0 -46 -20.5t-65.5 -46t-63.5 -52t-42 -38.5 q-57 -61 -126.5 -149.5t-129 -187t-100.5 -198.5t-41 -186zM775.5 1471.5q-0.5 11.5 17.5 25.5q12 10 44.5 43t76.5 78t95.5 97t98.5 98.5t88 82t64 50.5q18 10 27 5t22.5 -14.5t38 -15.5t69.5 6q33 -106 60 -194q23 -76 44 -145.5t23 -92.5q4 -20 -3 -36.5t-21.5 -14.5 t-35 25.5t-44.5 78.5q-59 139 -105.5 201.5t-48.5 62.5q-61 -45 -129 -98q-59 -45 -134 -103.5t-153 -121.5q-25 -18 -46 -25.5t-34.5 -5.5t-14 13.5z" />
<glyph unicode="&#xd5;" horiz-adv-x="1593" d="M219 262q0 92 50 220t133 266.5t191.5 275.5t224.5 244.5t230.5 175t211.5 67.5q33 0 53 -13t32.5 -34.5t17.5 -48t5 -53.5q0 -72 -20.5 -141.5t-55.5 -134t-82 -122t-100 -100.5q-39 -109 -81 -218t-107 -204q-37 -55 -97.5 -130.5t-131 -143.5t-147.5 -116t-151 -48 q-39 0 -70.5 28.5t-55 68.5t-37 84t-13.5 77zM506 459q0 -53 21.5 -87t80.5 -34q55 0 109.5 48t100.5 113.5t83 136.5t60 114q-45 -31 -73 -49.5t-55.5 -27.5t-61.5 -12.5t-89 -3.5q-27 20 -27 50q0 25 17.5 40t42 23t51.5 12t45 6q18 4 52 19.5t67 37t57.5 46t24.5 45.5 q0 16 -9.5 27.5t-21.5 17.5l-80 -12q-29 18 -29 47q0 20 16.5 42.5t39 41t49.5 31t45 12.5q25 0 38 -12.5t22.5 -31t18.5 -38t21 -33.5q53 23 75 77t22 105q0 20 -7.5 43t-19.5 41.5t-30.5 30.5t-41.5 12q-14 0 -46 -20.5t-65.5 -46t-63.5 -52t-42 -38.5 q-57 -61 -126.5 -149.5t-129 -187t-100.5 -198.5t-41 -186zM907 1556.5q-1 6.5 1 14.5t8 20q25 37 55.5 73t67.5 63.5t78 45t82 17.5q33 2 59.5 -10t48.5 -29q25 -14 46.5 -24.5t41.5 -10.5q37 2 65.5 24.5t55.5 53.5q8 16 18 29q10 10 21.5 19.5t28.5 9.5q23 2 23.5 -8.5 t-3.5 -20.5q-6 -13 -20 -29q-55 -76 -127 -137t-160 -64q-37 -2 -63.5 10.5t-49.5 28.5q-23 14 -45 24.5t-49 8.5q-25 0 -56.5 -22.5t-52.5 -51.5q-8 -14 -18 -24t-20.5 -17.5t-24.5 -3.5q-10 4 -11 10.5z" />
<glyph unicode="&#xd6;" horiz-adv-x="1593" d="M219 262q0 92 50 220t133 266.5t191.5 275.5t224.5 244.5t230.5 175t211.5 67.5q33 0 53 -13t32.5 -34.5t17.5 -48t5 -53.5q0 -72 -20.5 -141.5t-55.5 -134t-83 -122t-101 -100.5q-39 -109 -81 -218t-107 -204q-37 -55 -96.5 -130.5t-130 -143.5t-147.5 -116t-151 -48 q-39 0 -70.5 28.5t-55 68.5t-37 84t-13.5 77zM506 459q0 -53 21.5 -87t80.5 -34q55 0 109.5 48t100.5 113.5t83 136.5t60 114q-45 -31 -73 -49.5t-55.5 -27.5t-61.5 -12.5t-89 -3.5q-27 20 -27 50q0 25 17.5 40t42 23t51.5 12t45 6q18 4 52 19.5t67 37t57.5 46t24.5 45.5 q0 16 -9.5 27.5t-21.5 17.5l-80 -12q-29 18 -29 47q0 20 16.5 42.5t39 41t49.5 31t45 12.5q25 0 38 -12.5t22.5 -31t18.5 -38t21 -33.5q53 23 75 77t22 105q0 20 -7.5 43t-19.5 41.5t-30.5 30.5t-41.5 12q-14 0 -46 -20.5t-65.5 -46t-63.5 -52t-42 -38.5 q-57 -61 -126.5 -149.5t-129 -187t-100.5 -198.5t-41 -186zM890 1676q-13 40 19 89q16 25 42 48.5t54.5 42t59.5 29.5t57 11q53 -4 69.5 -41.5t-17.5 -91.5v2q-35 -53 -97.5 -91t-120.5 -38q-53 0 -66 40zM1329.5 1678q-12.5 40 20.5 89q16 25 41.5 48.5t54.5 42t59.5 29.5 t57.5 11q53 -4 69.5 -41.5t-18.5 -91.5v2q-18 -27 -44 -50t-55.5 -40.5t-60.5 -28t-59 -10.5q-53 0 -65.5 40z" />
<glyph unicode="&#xd7;" horiz-adv-x="1024" />
<glyph unicode="&#xd8;" horiz-adv-x="1593" />
<glyph unicode="&#xd9;" horiz-adv-x="1478" d="M55 168q0 16 5.5 44t11.5 56.5t13 56t13 44.5q10 31 45 87t81 123.5t98.5 139.5t95.5 130t71.5 96t28.5 40q0 6 -8 6q-12 0 -23.5 -3t-23.5 -3q-47 0 -94 10.5t-86 34t-62.5 61t-23.5 93.5q0 31 13 67.5t35.5 68.5t53.5 53.5t63 21.5q25 0 56 -11.5t49 -27.5l-2 -62 q-35 -23 -61.5 -40t-26.5 -64q0 -53 34.5 -71.5t80.5 -18.5q78 0 135 52t105 114.5t88 115t81 52.5q16 0 28.5 -10.5t19.5 -25t11.5 -31.5t4.5 -30q0 -57 -26 -95t-60.5 -67.5t-71.5 -54t-59 -55.5q-18 -27 -51 -73t-70 -103.5t-75 -120.5t-67.5 -121.5t-49 -108 t-19.5 -77.5q0 -20 2 -42t31 -22h12q29 0 63.5 29t71.5 73t74 98t69.5 106.5t59 97.5t43.5 67q84 119 163.5 237t159.5 236q43 63 86 130t90 126q12 16 32 22.5t40 6.5q29 0 46.5 -18.5t17.5 -44.5l2 -2q-2 -25 -33 -81.5t-80 -134t-110.5 -171t-127 -190.5t-127 -192.5 t-109.5 -176t-78 -143t-30 -95.5q0 -23 17.5 -39t40.5 -16q25 0 47 11t47 13q12 -8 14 -16t2 -23q0 -41 -34.5 -96t-86 -105.5t-106.5 -85t-96 -34.5q-25 0 -34 15t-9 38q-2 51 15 99t20 98l-21 20q-45 -31 -91 -76t-94 -88t-99.5 -73.5t-106.5 -30.5q-74 0 -114 56t-40 124 zM758 1999q0 37 26.5 63.5t63.5 26.5q35 0 60.5 -11.5t47 -28.5t41 -39.5t39.5 -45.5l47 -47t71 -75t64.5 -80t28.5 -62q0 -31 -28 -31q-27 0 -80.5 28.5t-109.5 65.5t-108.5 73t-78.5 54q-31 20 -57.5 44t-26.5 65z" />
<glyph unicode="&#xda;" horiz-adv-x="1478" d="M55 168q0 16 5.5 44t11.5 56.5t13 56t13 42.5q10 31 45 87t81 123.5t98.5 139t95.5 130t71.5 96.5t28.5 40q0 8 -10 8t-21.5 -3t-23.5 -3q-47 0 -94 10.5t-86 34t-62.5 61t-23.5 93.5q0 31 13 67.5t35.5 68.5t52.5 53.5t62 21.5q25 0 55.5 -11.5t49.5 -27.5v-62 q-35 -23 -61.5 -40t-26.5 -64q0 -53 34.5 -71.5t80.5 -18.5q78 0 135 52t105 114.5t88 115t81 52.5q16 0 28.5 -10.5t19.5 -25t11.5 -31.5t4.5 -30q0 -57 -26 -95t-60.5 -67.5t-71.5 -54t-59 -55.5q-20 -27 -52 -73t-69 -103.5t-75 -120.5t-67.5 -121.5t-49 -106.5 t-19.5 -79q0 -20 2 -42t28 -22h15q29 0 63.5 29t71.5 73t74 98t69.5 106.5t59 97.5t43.5 67q84 119 163.5 237t159.5 236q43 63 86 130t90 126q12 16 32 22.5t40 6.5q29 0 46.5 -18.5t17.5 -44.5l2 -2q-2 -25 -33 -81.5t-80 -134t-110.5 -171t-127 -190.5t-127 -192.5 t-109.5 -176t-78 -143t-30 -95.5q0 -23 17.5 -39t40.5 -16q25 0 47 11t47 13q12 -8 14 -16t2 -25q0 -41 -34.5 -96t-86 -105.5t-107.5 -84t-97 -33.5q-25 0 -34 15t-9 38q0 51 17 99t20 98l-21 20q-45 -31 -91 -76t-94 -88t-99.5 -73.5t-106.5 -30.5q-74 0 -114 56t-40 124z M989 1669q0 23 28.5 62.5t64.5 79.5t71 75l47 47q23 23 42.5 45t41 39.5t47 29t60.5 11.5q37 0 63.5 -26.5t26.5 -63.5q0 -41 -27 -64.5t-57 -44.5q-27 -18 -79 -54t-109.5 -73t-110 -64.5t-80.5 -27.5q-29 0 -29 29z" />
<glyph unicode="&#xdb;" horiz-adv-x="1478" d="M55 168q0 16 5.5 44t11.5 56.5t13 56t13 44.5q10 31 45 87t81 123.5t98.5 139.5t95.5 130t71.5 96t28.5 40q0 6 -8 6q-12 0 -23.5 -3t-23.5 -3q-47 0 -94 10.5t-86 34t-62.5 61t-23.5 93.5q0 31 13 67.5t35.5 68.5t53.5 53.5t63 21.5q25 0 56 -11.5t49 -27.5l-2 -62 q-35 -23 -61.5 -40t-26.5 -64q0 -53 34.5 -71.5t80.5 -18.5q78 0 135 52t105 114.5t88 115t81 52.5q16 0 28.5 -10.5t19.5 -25t11.5 -31.5t4.5 -30q0 -57 -26 -95t-60.5 -67.5t-71.5 -54t-59 -55.5q-18 -27 -51 -73t-70 -103.5t-75 -120.5t-67.5 -121.5t-49 -108 t-19.5 -77.5q0 -20 2 -42t31 -22h12q29 0 63.5 29t71.5 73t74 98t69.5 106.5t59 97.5t43.5 67q84 119 163.5 237t159.5 236q43 63 86 130t90 126q12 16 32 22.5t40 6.5q29 0 46.5 -18.5t17.5 -44.5l2 -2q-2 -25 -33 -81.5t-80 -134t-110.5 -171t-127 -190.5t-127 -192.5 t-109.5 -176t-78 -143t-30 -95.5q0 -23 17.5 -39t40.5 -16q25 0 47 11t47 13q12 -8 14 -16t2 -23q0 -41 -34.5 -96t-86 -105.5t-106.5 -85t-96 -34.5q-25 0 -34 15t-9 38q-2 51 15 99t20 98l-21 20q-45 -31 -91 -76t-94 -88t-99.5 -73.5t-106.5 -30.5q-74 0 -114 56t-40 124 zM818.5 1615q-0.5 11 17.5 25q12 10 44.5 43t76.5 78t95.5 97.5t98.5 98.5t88 82t64 50q18 10 27 5t22.5 -14t38 -15.5t69.5 6.5q33 -106 60 -195q23 -76 44 -145.5t23 -92.5q4 -20 -3 -36.5t-21.5 -14.5t-35 25.5t-44.5 79.5q-59 139 -105.5 201.5t-48.5 62.5 q-61 -45 -129 -98q-59 -45 -134 -103.5t-153 -122.5q-25 -18 -46 -25.5t-34.5 -5t-14 13.5z" />
<glyph unicode="&#xdc;" horiz-adv-x="1478" d="M55 168q0 16 5.5 44t11.5 56.5t13 56t13 42.5q10 31 45 87t81 123.5t98.5 139t95.5 130t71.5 96.5t28.5 40q0 8 -10 8t-21.5 -3t-23.5 -3q-47 0 -94 10.5t-86 34t-62.5 61t-23.5 93.5q0 31 13 67.5t35.5 68.5t52.5 53.5t62 21.5q25 0 55.5 -11.5t49.5 -27.5v-62 q-35 -23 -61.5 -40t-26.5 -64q0 -53 34.5 -71.5t80.5 -18.5q78 0 135 52t105 114.5t88 115t81 52.5q16 0 28.5 -10.5t19.5 -25t11.5 -31.5t4.5 -30q0 -57 -26 -95t-60.5 -67.5t-71.5 -54t-59 -55.5q-20 -27 -52 -73t-69 -103.5t-75 -120.5t-67.5 -121.5t-49 -106.5 t-19.5 -79q0 -20 2 -42t28 -22h15q29 0 63.5 29t71.5 73t74 98t69.5 106.5t59 97.5t43.5 67q84 119 163.5 237t159.5 236q43 63 86 130t90 126q12 16 32 22.5t40 6.5q29 0 46.5 -18.5t17.5 -44.5l2 -2q-2 -25 -33 -81.5t-80 -134t-110.5 -171t-127 -190.5t-127 -192.5 t-109.5 -176t-78 -143t-30 -95.5q0 -23 17.5 -39t40.5 -16q25 0 47 11t47 13q12 -8 14 -16t2 -25q0 -41 -34.5 -96t-86 -105.5t-107.5 -84t-97 -33.5q-25 0 -34 15t-9 38q0 51 17 99t20 98l-21 20q-45 -31 -91 -76t-94 -88t-99.5 -73.5t-106.5 -30.5q-74 0 -114 56t-40 124z M795 1773q12 53 58 93t99 40t85 -37.5t20 -91.5l-2 -2q-12 -53 -59.5 -92t-102.5 -39q-53 0 -81 40t-17 89zM1229 1780q12 53 58 93t100 40q53 0 84.5 -38t19.5 -91l-2 -2q-12 -53 -59.5 -92.5t-102.5 -39.5q-53 0 -80.5 40t-17.5 90z" />
<glyph unicode="&#xdd;" horiz-adv-x="1251" d="M-152 78q0 27 10.5 60.5t20.5 58.5q23 57 55.5 113.5t74.5 106.5t93.5 90t110.5 60q14 4 41 11.5t41 7.5q37 0 71.5 -19.5t34.5 -62.5q0 -59 -47 -100.5t-104 -41.5q-18 0 -49 -25.5t-61.5 -59t-53.5 -68.5t-23 -53q0 -16 9.5 -26.5t24 -15.5t28.5 -6.5t27 -1.5 q39 0 89 26t103 68t104.5 95t93.5 107.5t69.5 105.5t33.5 88q-27 23 -57.5 33t-59.5 35v34q0 80 22.5 156t49.5 150.5t49.5 150.5t22.5 154q0 35 -12.5 56t-53.5 21q-23 0 -44 -7t-44 -7q-10 0 -31 4v88q0 31 26 66t62.5 62.5t76.5 46t69 18.5q37 0 57.5 -18.5t31.5 -46 t14 -60.5t3 -59q-2 -61 -11 -120t-13 -118q-8 -111 -12 -219q0 -29 2 -58.5t6 -58.5l4 -4q2 0 2 -4q0 -2 2 -2h20q31 0 77 36t98.5 91t105.5 123.5t99 134t80 122t48 85.5q8 18 20.5 48t28 58.5t35 49t43.5 20.5h115q33 -27 33 -64v-2l-32 -47t-84 -124t-120.5 -176 t-141.5 -204.5t-143.5 -209t-130 -190.5t-101.5 -148.5t-54 -81.5q-57 -92 -132 -192.5t-165 -184.5t-196.5 -139.5t-227.5 -55.5q-51 0 -94 19.5t-74 52.5t-48.5 76t-17.5 92zM987 1715q0 23 28.5 62.5t64.5 79.5t71 75l47 47q23 23 42.5 45t41 39.5t47 29t60.5 11.5 q37 0 63.5 -26.5t26.5 -63.5q0 -41 -27 -64.5t-57 -44.5q-27 -18 -79 -54t-109.5 -73t-110 -64.5t-80.5 -27.5q-29 0 -29 29z" />
<glyph unicode="&#xde;" horiz-adv-x="1366" />
<glyph unicode="&#xdf;" />
<glyph unicode="&#xe0;" d="M-57 225q0 72 25.5 143.5t56.5 133.5q63 125 153 236.5t198.5 203.5t232.5 164t257 115q14 4 41 12t56.5 16t55 13.5t38.5 5.5q23 0 57.5 -7.5t68.5 -20.5t58.5 -33.5t24.5 -47.5q0 -86 -30 -159.5t-76 -141t-102.5 -132t-109.5 -130.5t-96 -135.5t-64 -149.5 q12 -2 16.5 -5l7.5 -5t8 -3t22 -1q18 0 35.5 11t33 28.5t28.5 35t24 29.5l96 -28q-27 -53 -83 -120t-125 -126t-141.5 -99t-136.5 -40q-39 0 -77.5 11t-38.5 58q0 18 4 37t4 37q0 29 -17.5 36t-39.5 7q-14 0 -43 -28.5t-67 -64.5t-81 -64.5t-88 -28.5q-41 0 -75 23.5 t-58.5 59t-38.5 76.5t-14 78zM295 483q0 -20 5 -41.5t16.5 -40t28.5 -30t42 -11.5q37 0 84 35t97 89.5t100.5 121t93.5 131t76.5 120.5t52.5 87q6 10 16.5 29.5t21.5 41t19 41t8 27.5q0 10 -7 15.5t-17 5.5q-55 0 -124 -31t-139.5 -81t-138 -115.5t-120 -134t-84 -136 t-31.5 -123.5zM672 1675q0 37 26.5 63.5t63.5 26.5q35 0 60.5 -11t47 -28.5t41 -40t39.5 -45.5q12 -12 47 -46.5t71 -74.5t64.5 -80t28.5 -63q0 -31 -28 -30q-27 0 -80.5 28.5t-109.5 65.5t-108.5 72.5t-78.5 54.5q-31 20 -57.5 43.5t-26.5 64.5z" />
<glyph unicode="&#xe1;" d="M-57 225q0 72 25.5 143.5t56.5 133.5q63 125 153 236.5t198.5 203.5t233.5 164t258 115q14 4 41 12t56.5 16t55.5 13.5t38 5.5q20 0 55 -7.5t69 -20.5t58.5 -33.5t24.5 -47.5v2q0 -86 -30 -159.5t-76 -141t-102.5 -132t-109.5 -130.5t-96 -135.5t-64 -149.5 q12 -4 16.5 -7l7.5 -5t8 -3t22 -1q18 0 35.5 11t33 28.5t28.5 35t24 29.5l94 -28q-27 -53 -83 -120t-125 -126t-141.5 -99t-136.5 -40q-18 0 -38.5 2t-37 9t-27.5 20.5t-11 37.5q0 18 4 37t4 37q0 29 -17.5 36t-39.5 7q-14 0 -43 -28.5t-67 -64.5t-81 -64.5t-88 -28.5 q-41 0 -75 23.5t-58.5 59t-38.5 76.5t-14 78zM295 485q0 -20 5 -41.5t16.5 -40t27.5 -30t41 -11.5q37 0 84 35t97 89.5t99.5 121t93.5 131t77.5 120.5t52.5 87q6 10 17.5 29.5t22.5 41t19 41t8 27.5q0 10 -7 15.5t-17 5.5q-55 0 -124 -31t-139.5 -81t-138 -115.5t-120 -134 t-84 -136t-31.5 -123.5zM864 1346q0 23 28.5 62.5t64.5 79.5t71 75l47 47q23 23 42.5 45t41 39.5t47 29t60.5 11.5q37 0 63.5 -26.5t26.5 -63.5q0 -41 -27 -64.5t-57 -44.5q-27 -18 -79 -54t-109.5 -73t-110 -64.5t-80.5 -27.5q-29 0 -29 29z" />
<glyph unicode="&#xe2;" d="M-57 223q0 72 25.5 143.5t56.5 133.5q63 125 153 236.5t198.5 203.5t232.5 164t257 115q14 4 41 12t56.5 16t55 13.5t38.5 5.5q23 0 57.5 -7.5t68.5 -20.5t58.5 -33.5t24.5 -47.5q0 -86 -30 -159.5t-76 -141.5t-102.5 -132.5t-109.5 -130t-96 -135t-64 -149.5 q12 -2 16.5 -5l7.5 -5t8 -3t22 -1q18 0 35.5 11t33 28.5t28.5 35t24 29.5l96 -28q-27 -53 -83 -120t-125 -126t-141.5 -99t-136.5 -40q-39 0 -77.5 11t-38.5 58q0 18 4 37t4 37q0 29 -17.5 36t-39.5 7q-14 0 -43 -28.5t-67 -64.5t-81 -64.5t-88 -28.5q-41 0 -75 23.5 t-58.5 59t-38.5 76.5t-14 78zM295 481q0 -20 5 -41.5t16.5 -40t28.5 -30t42 -11.5q37 0 84 35t97 89.5t100.5 121t93.5 131t76.5 120.5t52.5 87q6 10 16.5 29.5t21.5 41t19 41t8 27.5q0 10 -7 15.5t-17 5.5q-55 0 -124 -31t-139.5 -81t-138 -115.5t-120 -134t-84 -136 t-31.5 -123.5zM749 1385.5q-1 7.5 13 19.5v-2q12 12 59 61t102.5 107.5t108.5 111t80 68.5q12 8 19.5 3t17.5 -12t27.5 -11.5t50.5 4.5q25 -82 45 -150q16 -59 30.5 -111.5t16.5 -68.5q4 -16 -1 -28.5t-16.5 -11.5t-25.5 18.5t-33 60.5q-45 109 -79 156t-36 47 q-45 -37 -96 -76q-43 -35 -98 -79t-115 -93q-18 -14 -34.5 -19.5t-25.5 -3.5t-10 9.5z" />
<glyph unicode="&#xe3;" d="M-57 225q0 72 25.5 143.5t56.5 133.5q63 125 153 236.5t198.5 203.5t233.5 164t258 115q14 4 41 12t56.5 16t55.5 13.5t38 5.5q20 0 55 -7.5t69 -20.5t58.5 -33.5t24.5 -47.5v2q0 -86 -30 -159.5t-76 -141t-102.5 -132t-109.5 -130.5t-96 -135.5t-64 -149.5 q12 -4 16.5 -7l7.5 -5t8 -3t22 -1q18 0 35.5 11t33 28.5t28.5 35t24 29.5l94 -28q-27 -53 -83 -120t-125 -126t-141.5 -99t-136.5 -40q-18 0 -38.5 2t-37 9t-27.5 20.5t-11 37.5q0 18 4 37t4 37q0 29 -17.5 36t-39.5 7q-14 0 -43 -28.5t-67 -64.5t-81 -64.5t-88 -28.5 q-41 0 -75 23.5t-58.5 59t-38.5 76.5t-14 78zM295 485q0 -20 5 -41.5t16.5 -40t27.5 -30t41 -11.5q37 0 84 35t97 89.5t99.5 121t93.5 131t77.5 120.5t52.5 87q6 10 17.5 29.5t22.5 41t19 41t8 27.5q0 10 -7 15.5t-17 5.5q-55 0 -124 -31t-139.5 -81t-138 -115.5t-120 -134 t-84 -136t-31.5 -123.5zM638 1337.5q-1 6.5 1 14.5t8 20q25 37 55.5 73t67.5 63.5t78 45t82 17.5q33 2 59.5 -10t48.5 -29q25 -14 46.5 -24.5t41.5 -10.5q37 2 65.5 24.5t55.5 53.5q8 16 18 29q10 10 21.5 19.5t28.5 9.5q23 2 23.5 -8.5t-3.5 -20.5q-6 -13 -20 -29 q-55 -76 -127 -137t-160 -64q-37 -2 -63.5 10.5t-49.5 28.5q-23 14 -45 24.5t-49 8.5q-25 0 -56.5 -22.5t-52.5 -51.5q-8 -14 -18 -24t-20.5 -17.5t-24.5 -3.5q-10 4 -11 10.5z" />
<glyph unicode="&#xe4;" d="M-57 225q0 72 25.5 143.5t56.5 133.5q63 125 153 236.5t198.5 203.5t232.5 164t257 115q14 4 41 12t56.5 16t55 13.5t38.5 5.5q23 0 57.5 -7.5t68.5 -20.5t58.5 -33.5t24.5 -47.5q0 -86 -30 -159.5t-76 -141t-102.5 -132t-109.5 -130.5t-96 -135.5t-64 -149.5 q12 -2 16.5 -5l7.5 -5t8 -3t22 -1q18 0 35.5 11t33 28.5t28.5 35t24 29.5l96 -28q-27 -53 -83 -120t-125 -126t-141.5 -99t-136.5 -40q-39 0 -77.5 11t-38.5 58q0 18 4 37t4 37q0 29 -17.5 36t-39.5 7q-14 0 -43 -28.5t-67 -64.5t-81 -64.5t-88 -28.5q-41 0 -75 23.5 t-58.5 59t-38.5 76.5t-14 78zM295 483q0 -20 5 -41.5t16.5 -40t28.5 -30t42 -11.5q37 0 84 35t97 89.5t100.5 121t93.5 131t76.5 120.5t52.5 87q6 10 16.5 29.5t21.5 41t19 41t8 27.5q0 10 -7 15.5t-17 5.5q-55 0 -124 -31t-139.5 -81t-138 -115.5t-120 -134t-84 -136 t-31.5 -123.5zM681.5 1365q-13.5 40 18.5 89q16 25 42 47.5t54.5 41t59.5 28.5t57 10q53 0 70 -38t-18 -91t-97.5 -90t-119.5 -37q-53 0 -66.5 40zM1120.5 1364q-12.5 41 20.5 90q16 25 41.5 47.5t54.5 41t59.5 28.5t57.5 10q53 0 69.5 -38t-18.5 -91q-18 -27 -44 -50.5 t-55.5 -41t-60.5 -26.5t-59 -9q-53 -2 -65.5 39z" />
<glyph unicode="&#xe5;" d="M-57 225q0 72 25.5 143.5t56.5 133.5q63 125 153 236.5t198.5 203.5t233.5 164t258 115q14 4 41 12t56.5 16t55.5 13.5t38 5.5q20 0 55 -7.5t69 -20.5t58.5 -33.5t24.5 -47.5v2q0 -86 -30 -159.5t-76 -141t-102.5 -132t-109.5 -130.5t-96 -135.5t-64 -149.5 q12 -4 16.5 -7l7.5 -5t8 -3t22 -1q18 0 35.5 11t33 28.5t28.5 35t24 29.5l94 -28q-27 -53 -83 -120t-125 -126t-141.5 -99t-136.5 -40q-18 0 -38.5 2t-37 9t-27.5 20.5t-11 37.5q0 18 4 37t4 37q0 29 -17.5 36t-39.5 7q-14 0 -43 -28.5t-67 -64.5t-81 -64.5t-88 -28.5 q-41 0 -75 23.5t-58.5 59t-38.5 76.5t-14 78zM295 485q0 -20 5 -41.5t16.5 -40t27.5 -30t41 -11.5q37 0 84 35t97 89.5t99.5 121t93.5 131t77.5 120.5t52.5 87q6 10 17.5 29.5t22.5 41t19 41t8 27.5q0 10 -7 15.5t-17 5.5q-55 0 -124 -31t-139.5 -81t-138 -115.5t-120 -134 t-84 -136t-31.5 -123.5zM876 1433.5q-7 38.5 3 84.5q10 43 38 83.5t64.5 71.5t79.5 49.5t88 20.5t80 -13.5t58.5 -44t30.5 -67.5t-3 -84q-12 -45 -38.5 -86t-63.5 -72t-80 -49t-90 -20q-45 -2 -81 14t-57.5 45t-28.5 67.5zM977 1522q-10 -47 16.5 -82t73.5 -33t93.5 39 t56.5 84h2q10 47 -18.5 80.5t-75.5 31.5t-91 -37.5t-57 -82.5z" />
<glyph unicode="&#xe6;" horiz-adv-x="1478" />
<glyph unicode="&#xe7;" horiz-adv-x="1024" d="M-146.5 -358.5q-3.5 12.5 13.5 28.5q14 12 29.5 15.5t27.5 1.5q14 -2 29 -9q35 -16 66.5 -21t72.5 -3q35 0 70 22.5t45 59.5q10 39 -12.5 56.5t-57.5 14.5q-16 0 -31.5 -2t-31.5 -6l-17 17l127 180q-59 10 -96 37.5t-57.5 69.5t-27.5 95.5t-7 114.5q0 68 20.5 137.5 t49.5 129.5q49 109 122.5 211t163.5 188t196.5 152.5t221.5 103.5q12 4 33.5 10t46 12.5t46.5 10.5t34 4q59 0 91 -40t32 -95v2q0 -47 -20.5 -91t-54.5 -80t-77 -59.5t-88 -29.5q-18 20 -47 22q2 39 13.5 63.5t21.5 59.5q-2 8 -17 8q-96 0 -186 -48t-158.5 -125t-110.5 -172 t-42 -189q0 -82 52 -138.5t136 -56.5q20 0 55 12.5t73 28.5t72 32.5t54 26.5h94q-2 -39 -32.5 -84t-77.5 -89t-107.5 -85t-121 -72.5t-118 -53t-100.5 -25.5l-76 -111q18 6 37 8.5t37 2.5q37 0 66.5 -7.5t49 -26t26 -47t-4.5 -69.5q-14 -53 -53 -88t-87 -54.5t-99 -27.5 t-92 -8q-39 0 -89.5 11t-80.5 24q-20 8 -33 18q-10 10 -13.5 22.5z" />
<glyph unicode="&#xe8;" horiz-adv-x="1024" d="M-2 293q0 80 34 182.5t95 210t145 210.5t183.5 184t210 131.5t225.5 50.5q35 0 69.5 -11.5t62.5 -30t44 -43t16 -53.5q0 -98 -67.5 -177t-178 -142.5t-252 -112.5t-288.5 -88q-18 -55 -18 -112q0 -211 190 -211q18 0 52 10t76 27.5t89 39t92 43.5v-92l2 -2 q0 -14 -25.5 -45t-63.5 -66.5t-80 -70.5t-74 -59q-23 -16 -62 -32t-81 -27t-80 -18t-56 -7q-84 0 -135 31.5t-79 78.5t-37 101.5t-9 99.5zM346 721q68 25 146.5 50.5t147.5 62t114 86.5t45 122q0 53 -24.5 68.5t-65.5 1.5t-90.5 -53t-100.5 -93.5t-96 -118t-76 -126.5z M535 1640q0 37 26.5 64t63.5 27q35 0 60.5 -11.5t47 -29t41 -40t39.5 -44.5l47 -47t71 -75t64.5 -80t28.5 -63q0 -29 -29 -28q-27 0 -80 27.5t-109 64.5t-108.5 72.5t-79.5 54.5q-31 20 -57 43.5t-26 64.5z" />
<glyph unicode="&#xe9;" horiz-adv-x="1024" d="M-2 293q0 80 34 182.5t95 210t145 210.5t183.5 184t210 131.5t225.5 50.5q35 0 69.5 -11.5t62.5 -30t44 -43t16 -53.5q0 -98 -67.5 -177t-178 -142.5t-252 -112.5t-288.5 -88q-18 -55 -18 -112q0 -211 190 -211q18 0 52 10t76 27.5t89 39t92 43.5v-92l2 -2 q0 -14 -25.5 -45t-63.5 -66.5t-80 -70.5t-74 -59q-23 -16 -62 -32t-81 -27t-80 -18t-56 -7q-84 0 -135 31.5t-79 78.5t-37 101.5t-9 99.5zM346 721q68 25 146.5 50.5t147.5 62t114 86.5t45 122q0 53 -24.5 68.5t-65.5 1.5t-90.5 -53t-100.5 -93.5t-96 -118t-76 -126.5z M659 1295q0 23 28.5 62.5t64.5 79.5t71 75l47 47q23 23 42.5 45t41 39.5t47 29t60.5 11.5q37 0 63.5 -26.5t26.5 -63.5q0 -41 -27 -64.5t-57 -44.5q-27 -18 -79 -54t-109.5 -73t-110 -64.5t-80.5 -27.5q-29 0 -29 29z" />
<glyph unicode="&#xea;" horiz-adv-x="1024" d="M-4 291q0 80 33.5 182t95 210t145.5 211t183.5 184t210 131.5t225.5 50.5q35 0 69.5 -11.5t62.5 -30t44 -43t16 -53.5q0 -98 -67.5 -177t-178 -142.5t-252 -112.5t-288.5 -88q-18 -55 -19 -113q0 -211 191 -210q18 0 52 10t76 27.5t89 39t92 43.5v-92l2 -2 q0 -14 -25.5 -45t-63.5 -66.5t-80 -70.5t-74 -60q-23 -16 -62 -31.5t-81 -26.5t-80 -18t-56 -7q-84 0 -135 31.5t-79 78.5t-37 101.5t-9 99.5zM344 719q68 25 146.5 50.5t147.5 62t114 86.5t45 122q0 53 -24.5 68.5t-65.5 1.5t-90.5 -53t-100.5 -93.5t-96 -118t-76 -126.5z M542 1335q-1 8 13 21l-2 -2q8 8 32.5 33.5t57.5 60.5t71 75t73.5 75.5t66.5 63.5t49 38q12 8 19.5 3t17.5 -12.5t27.5 -10.5t50.5 6q25 -82 45 -150q16 -59 31.5 -111.5t19.5 -68.5t-2 -28.5t-16.5 -11.5t-26.5 18.5t-35 60.5q-23 53 -42 92t-36 63q-18 29 -34 47 q-45 -35 -97 -75q-43 -35 -98 -80t-115 -94q-18 -14 -34.5 -19.5t-25.5 -3.5t-10 10z" />
<glyph unicode="&#xeb;" horiz-adv-x="1024" d="M-2 293q0 80 34 182.5t95 210t145 210.5t183.5 184t210 131.5t225.5 50.5q35 0 69.5 -11.5t62.5 -30t44 -43t16 -53.5q0 -98 -67.5 -177t-178 -142.5t-252 -112.5t-288.5 -88q-18 -55 -18 -112q0 -211 190 -211q18 0 52 10t76 27.5t89 39t92 43.5v-92l2 -2 q0 -14 -25.5 -45t-63.5 -66.5t-80 -70.5t-74 -59q-23 -16 -62 -32t-81 -27t-80 -18t-56 -7q-84 0 -135 31.5t-79 78.5t-37 101.5t-9 99.5zM346 721q68 25 146.5 50.5t147.5 62t114 86.5t45 122q0 53 -24.5 68.5t-65.5 1.5t-90.5 -53t-100.5 -93.5t-96 -118t-76 -126.5z M494.5 1351q-13.5 40 19.5 89q16 25 42 48t54.5 41.5t59 29t57.5 10.5q53 0 69.5 -38t-18.5 -91t-97.5 -91t-119.5 -38q-53 0 -66.5 40zM933 1351q-13 40 19 89q16 25 42 48t55.5 41.5t60.5 29t57 10.5q53 0 69 -38t-19 -91t-97.5 -91t-120.5 -38q-53 0 -66 40z" />
<glyph unicode="&#xec;" horiz-adv-x="569" d="M6 113q0 -12 2 -32t12.5 -37t30 -30.5t53.5 -13.5q39 0 84 22.5t86 55.5t76 70.5t53 68.5l-34 33q-31 -20 -60.5 -37.5t-58.5 -28.5l-21 21v37l355 536q0 10 -9 23l-8 12h-133q-25 0 -37 -16.5t-20 -26.5q-23 -59 -64 -128t-75 -122q-18 -27 -56.5 -82t-77 -116.5 t-68.5 -119t-30 -89.5zM47 1276q0 37 26.5 63.5t63.5 26.5q35 0 60.5 -11.5t47 -28.5t42 -39.5t41.5 -45.5l47 -47t70.5 -75t64.5 -80t29 -62q0 -31 -29 -31t-81 29t-109.5 65.5t-109.5 72.5t-79 54q-31 20 -57.5 44t-26.5 65z" />
<glyph unicode="&#xed;" horiz-adv-x="569" d="M6 113q0 33 30 90t68.5 118.5t76.5 117t57 81.5q35 53 75.5 122t63.5 128q8 10 20.5 26.5t36.5 16.5h133l8 -12q8 -12 9 -23l-355 -536v-37l21 -21q29 10 58.5 27.5t60.5 38.5l34 -33q-18 -31 -53 -68.5t-76 -70.5t-86 -55.5t-84 -22.5q-35 0 -54 13.5t-29.5 30.5 t-12.5 36.5t-2 32.5zM252 1038q0 23 28.5 63t64.5 80t71 74.5t47 47.5q23 23 42 45t40.5 39.5t47 28.5t58.5 11q37 0 63.5 -26.5t26.5 -63.5q0 -41 -26.5 -64.5t-57.5 -43.5q-27 -18 -79 -54t-108 -73t-108.5 -64.5t-80.5 -27.5q-29 0 -29 28z" />
<glyph unicode="&#xee;" horiz-adv-x="569" d="M6 113q0 33 30 90t68.5 118.5t76.5 117t57 81.5q35 53 75.5 122t63.5 128q8 10 20.5 26.5t36.5 16.5h133l8 -12q8 -12 9 -23l-355 -536v-37l21 -21q29 10 58.5 27.5t60.5 38.5l34 -33q-18 -31 -53 -68.5t-76 -70.5t-86 -55.5t-84 -22.5q-35 0 -54 13.5t-29.5 30.5 t-12.5 36.5t-2 32.5zM50 976q-1 7 13 19q8 8 33 34t57.5 60.5t70.5 74.5t74 76t66.5 63.5t49.5 37.5q12 8 19 3t17.5 -12t28 -11t49.5 4q25 -82 45 -149q16 -59 30.5 -111.5t17.5 -69.5q4 -16 -1.5 -28.5t-16.5 -11.5t-25.5 18.5t-32.5 60.5q-23 53 -42.5 92t-35.5 64 q-18 29 -35 47q-45 -37 -96 -76q-43 -35 -99.5 -79t-115.5 -93q-18 -14 -34.5 -19t-26 -3t-10.5 9z" />
<glyph unicode="&#xef;" horiz-adv-x="569" d="M6 113q0 -12 2 -32t12.5 -37t30 -30.5t53.5 -13.5q39 0 84 22.5t86 55.5t76 70.5t53 68.5l-34 33q-31 -20 -60.5 -37.5t-58.5 -28.5l-21 21v37l355 536q0 10 -9 23l-8 12h-133q-25 0 -37 -16.5t-20 -26.5q-23 -59 -64 -128t-75 -122q-18 -27 -56.5 -82t-77 -116.5 t-68.5 -119t-30 -89.5zM117 1077q16 53 63 96.5t101 47.5q53 4 82.5 -32t13.5 -91h-2q-16 -55 -65.5 -97.5t-104.5 -46.5q-53 -4 -78 34t-10 89zM547 1110q16 53 63 96t101 47q53 4 82.5 -32.5t13.5 -92.5h-2q-16 -55 -65.5 -97t-104.5 -46q-53 -4 -78 35t-10 90z" />
<glyph unicode="&#xf0;" />
<glyph unicode="&#xf1;" d="M-141 35q68 119 160 251t178 267q-8 8 -9 14q0 6 -2 11.5t-8 7.5t-26 2q-18 0 -42 -11.5t-48.5 -25.5t-51 -29.5t-51.5 -25.5q-10 4 -18 10q-8 4 -18.5 10t-18.5 16q61 53 138 110.5t159 118t160.5 123t144.5 128.5q47 47 76.5 123.5t50.5 144.5q41 35 96 53.5t96 18.5 q61 0 89 -13.5t36 -34t4 -43t-4 -42.5t10.5 -34t47.5 -14q20 0 65 21.5t96.5 46.5t96.5 46.5t65 21.5q55 0 86 -21.5t44.5 -51.5t15.5 -62.5t2 -55.5v-2q0 -63 -31 -134t-76 -143.5t-99 -145.5t-102.5 -140.5t-81 -129t-38.5 -112.5q8 -8 10 -15t5 -11t12 -7.5t30 -3.5 q18 0 39.5 11.5t45.5 26t48.5 29.5t46.5 21q10 -2 19 -6l18 -9t18 -15q-10 -27 -39.5 -65t-69.5 -80t-89 -82t-98.5 -72.5t-97.5 -53t-89 -20.5q-51 0 -84 28.5t-51 67.5t-25.5 79t-7.5 61q0 41 26.5 105t67.5 138t91.5 153t98.5 147.5t87 122.5t57 81l-2 59 q-16 16 -26.5 27.5t-51.5 11.5q-63 0 -133.5 -43t-142.5 -113.5t-142.5 -161.5t-134 -186.5t-119 -187.5t-95.5 -164.5t-63.5 -119t-23.5 -50.5q-12 -8 -33.5 -18t-47 -18.5t-52 -13.5t-47.5 -5q-39 0 -75.5 21.5t-71.5 56.5zM751 1398.5q-1 6.5 1 14.5t8 20q25 37 55.5 73 t67.5 63.5t78 45t82 17.5q33 2 59.5 -10t48.5 -29q25 -14 46.5 -24.5t41.5 -10.5q37 2 65.5 24.5t55.5 53.5q8 16 18 29q10 10 21.5 19.5t28.5 9.5q23 2 23.5 -8.5t-3.5 -20.5q-6 -13 -20 -29q-55 -76 -127 -137t-160 -64q-37 -2 -63.5 10.5t-49.5 28.5q-23 14 -45 24.5 t-49 8.5q-25 0 -56.5 -22.5t-52.5 -51.5q-8 -14 -18 -24t-20.5 -17.5t-24.5 -3.5q-10 4 -11 10.5z" />
<glyph unicode="&#xf2;" d="M-12 332q0 121 49 252t132 258t192.5 241.5t227.5 200.5t238.5 137.5t227.5 51.5q68 0 110.5 -17.5t67 -40t34 -47.5t9.5 -41q0 -53 -8 -112.5t-25 -122.5q-4 -20 17 -11q35 18 64.5 54t68.5 77q10 0 24.5 1t29.5 -2t25.5 -14t10.5 -34q0 -49 -28 -92t-68.5 -78 t-91 -62.5t-97.5 -45.5q-10 -4 -19.5 -13.5t-17.5 -27.5q-59 -143 -143 -282.5t-178.5 -253t-191.5 -191.5t-187 -103q-29 -8 -75 -19t-97 -11q-90 0 -148.5 36.5t-92.5 90t-47 114t-13 107.5zM373 586q0 -57 19.5 -95t49 -59.5t64.5 -30t61 -8.5q70 0 133.5 45t118.5 110.5 t103.5 142.5t87.5 140q6 10 7 20.5t-9 14.5q-35 16 -69 39t-58 45v115q12 8 23 20.5t26.5 24.5t36 20.5t47.5 8.5q29 0 57 -17q22 -9 16 11q-20 72 -64 125t-97 53q-37 0 -84 -27t-97.5 -70t-99.5 -95t-89 -102t-67.5 -93t-35.5 -66q-12 -31 -25.5 -69.5t-26 -75.5 t-20.5 -71t-8 -56zM862 1853q0 35 26.5 62t63.5 27q35 0 60.5 -10.5t47 -28t42 -39t41.5 -43.5q12 -14 47 -49t70.5 -76t64.5 -81t29 -63q0 -29 -29 -28q-27 0 -80 28.5t-109.5 65.5t-108.5 74t-79 55q-33 18 -59.5 41.5t-26.5 64.5z" />
<glyph unicode="&#xf3;" d="M-12 332q0 121 49 252t132 258t192.5 241.5t227.5 200.5t238.5 137.5t227.5 51.5q68 0 110.5 -17.5t67 -40t34 -47.5t9.5 -41q0 -53 -8 -112.5t-25 -122.5q-4 -20 17 -11q35 18 64.5 54t68.5 77q10 0 24.5 1t29.5 -2t25.5 -14t10.5 -34q0 -49 -28 -92t-68.5 -78 t-91 -62.5t-97.5 -45.5q-10 -4 -19.5 -13.5t-17.5 -27.5q-59 -143 -143 -282.5t-178.5 -253t-191.5 -191.5t-187 -103q-29 -8 -75 -19t-97 -11q-90 0 -148.5 36.5t-92.5 90t-47 114t-13 107.5zM373 586q0 -57 19.5 -95t49 -59.5t64.5 -30t61 -8.5q70 0 133.5 45t118.5 110.5 t103.5 142.5t87.5 140q6 10 7 20.5t-9 14.5q-35 16 -69 39t-58 45v115q12 8 23 20.5t26.5 24.5t36 20.5t47.5 8.5q29 0 57 -17q22 -9 16 11q-20 72 -64 125t-97 53q-37 0 -84 -27t-97.5 -70t-99.5 -95t-89 -102t-67.5 -92t-35.5 -67q-12 -31 -25.5 -69.5t-26 -75.5 t-20.5 -71t-8 -56zM1163 1573q0 23 28.5 62.5t64.5 79.5t71 75l47 47q23 23 42.5 45t41 39.5t47 29t60.5 11.5q37 0 63.5 -26.5t26.5 -63.5q0 -41 -27 -64.5t-57 -44.5q-27 -18 -79 -54t-109.5 -73t-110 -64.5t-80.5 -27.5q-29 0 -29 29z" />
<glyph unicode="&#xf4;" d="M-12 330q0 121 49 252t132 258t192.5 241.5t227.5 200.5t238.5 137t227.5 51q68 0 110.5 -17t67 -39.5t34 -47.5t9.5 -41q0 -53 -8 -112.5t-25 -122.5q-4 -20 17 -11q35 18 64.5 54t68.5 77q10 0 24.5 1t29.5 -2t25.5 -14t10.5 -34q0 -49 -28 -92t-68.5 -78t-91 -62.5 t-97.5 -45.5q-10 -4 -19.5 -13.5t-17.5 -27.5q-59 -143 -143 -282.5t-178.5 -253t-191.5 -191.5t-187 -103q-29 -8 -75 -19t-97 -11q-90 0 -148.5 36.5t-92.5 90t-47 114t-13 107.5zM373 584q0 -57 19.5 -95t49 -59.5t64.5 -30t61 -8.5q70 0 133.5 45t118.5 110.5 t103.5 142.5t87.5 140q6 10 7 20.5t-9 14.5q-35 16 -69 39t-58 45v115q12 8 23 20.5t26.5 24.5t36 20.5t47.5 8.5q29 0 57 -17q22 -10 16 10q-20 72 -64 125.5t-97 53.5q-37 0 -84 -27t-97.5 -70t-99.5 -95t-89 -102t-67.5 -93t-35.5 -66q-12 -31 -25.5 -69.5t-26 -75.5 t-20.5 -71t-8 -56zM837 1570q-1 7 13 19v-2q12 12 59 61.5t102.5 108t109 110.5t79.5 68q12 8 19.5 3t17.5 -12t27.5 -11t50.5 4q25 -82 45 -150q16 -59 30.5 -111t16.5 -69q4 -16 -1 -28.5t-16.5 -11.5t-25.5 18.5t-33 60.5q-23 53 -42 92t-36 64q-18 29 -34 47 q-45 -37 -97 -76q-43 -35 -99 -79t-116 -93q-18 -14 -34.5 -19t-25.5 -3t-10 9z" />
<glyph unicode="&#xf5;" d="M-12 332q0 121 49 252t132 258t192.5 241.5t227.5 200.5t238.5 137.5t227.5 51.5q68 0 110.5 -17.5t67 -40t34 -47.5t9.5 -41q0 -53 -8 -112.5t-25 -122.5q-4 -20 17 -11q35 18 64.5 54t68.5 77q10 0 24.5 1t29.5 -2t25.5 -14t10.5 -34q0 -49 -28 -92t-68.5 -78 t-91 -62.5t-97.5 -45.5q-10 -4 -19.5 -13.5t-17.5 -27.5q-59 -143 -143 -282.5t-178.5 -253t-191.5 -191.5t-187 -103q-29 -8 -75 -19t-97 -11q-90 0 -148.5 36.5t-92.5 90t-47 114t-13 107.5zM373 586q0 -57 19.5 -95t49 -59.5t64.5 -30t61 -8.5q70 0 133.5 45t118.5 110.5 t103.5 142.5t87.5 140q6 10 7 20.5t-9 14.5q-35 16 -69 39t-58 45v115q12 8 23 20.5t26.5 24.5t36 20.5t47.5 8.5q29 0 57 -17q22 -9 16 11q-20 72 -64 125t-97 53q-37 0 -84 -27t-97.5 -70t-99.5 -95t-89 -102t-67.5 -92t-35.5 -67q-12 -31 -25.5 -69.5t-26 -75.5 t-20.5 -71t-8 -56zM829 1517.5q-1 6.5 1 14.5t8 20q25 37 55.5 73t67.5 63.5t78 45t82 17.5q33 2 59.5 -10t48.5 -29q25 -14 46.5 -24.5t41.5 -10.5q37 2 65.5 24.5t55.5 53.5q8 16 18 29q10 10 21.5 19.5t28.5 9.5q23 2 23.5 -8.5t-3.5 -20.5q-6 -13 -20 -29 q-55 -76 -127 -137t-160 -64q-37 -2 -63.5 10.5t-49.5 28.5q-23 14 -45 24.5t-49 8.5q-25 0 -56.5 -22.5t-52.5 -51.5q-8 -14 -18 -24t-20.5 -17.5t-24.5 -3.5q-10 4 -11 10.5z" />
<glyph unicode="&#xf6;" d="M-12 332q0 121 49 252t132 258t192.5 241.5t227.5 200.5t238.5 137.5t227.5 51.5q68 0 110.5 -17.5t67 -40t34 -47.5t9.5 -41q0 -53 -8 -112.5t-25 -122.5q-4 -20 17 -11q35 18 64.5 54t68.5 77q10 0 24.5 1t29.5 -2t25.5 -14t10.5 -34q0 -49 -28 -92t-68.5 -78 t-91 -62.5t-97.5 -45.5q-10 -4 -19.5 -13.5t-17.5 -27.5q-59 -143 -143 -282.5t-178.5 -253t-191.5 -191.5t-187 -103q-29 -8 -75 -19t-97 -11q-90 0 -148.5 36.5t-92.5 90t-47 114t-13 107.5zM373 586q0 -57 19.5 -95t49 -59.5t64.5 -30t61 -8.5q70 0 133.5 45t118.5 110.5 t103.5 142.5t87.5 140q6 10 7 20.5t-9 14.5q-35 16 -69 39t-58 45v115q12 8 23 20.5t26.5 24.5t36 20.5t47.5 8.5q29 0 57 -17q22 -9 16 11q-20 72 -64 125t-97 53q-37 0 -84 -27t-97.5 -70t-99.5 -95t-89 -102t-67.5 -93t-35.5 -66q-12 -31 -25.5 -69.5t-26 -75.5 t-20.5 -71t-8 -56zM789.5 1559.5q-11.5 39.5 21.5 91.5q35 51 97.5 91t115.5 40q55 0 70.5 -38t-19.5 -91h-2q-18 -27 -43.5 -51.5t-55.5 -43t-60.5 -28.5t-59.5 -10q-53 0 -64.5 39.5zM1223.5 1564q-11.5 40 21.5 91q35 51 97.5 91t115.5 40t68.5 -38t-19.5 -91 q-18 -27 -43.5 -51.5t-55.5 -43t-60.5 -28.5t-59.5 -10q-53 0 -64.5 40z" />
<glyph unicode="&#xf7;" horiz-adv-x="1024" />
<glyph unicode="&#xf8;" />
<glyph unicode="&#xf9;" d="M-37 221q0 76 46 183.5t113.5 225.5t145.5 237.5t143.5 219t105.5 171t30 94.5q-4 10 10 25.5t37.5 28.5t52.5 23.5t51 10.5q18 0 49 -3t61 -11.5t51.5 -22.5t21.5 -37q0 -10 -23.5 -54t-62.5 -108.5t-89.5 -144.5t-102.5 -162t-102 -162t-89 -144.5t-62.5 -108.5 t-23.5 -56q0 -23 3 -30t7 -11t6 -9t2 -24q10 0 16.5 -3t14.5 -8t21.5 -8t35.5 -3q59 0 136 67.5t159 172t163 230.5t146.5 240.5t109.5 203.5t54 120q16 8 32.5 20.5t35 24.5t38 20.5t42.5 8.5q4 0 34.5 -3t67.5 -12.5t74 -25.5t53 -41l-674 -1037l41 -36q43 10 87 47t97 73 q18 0 44 -7t45 -25q-4 -12 -34 -51t-75 -89.5t-98.5 -104.5t-104.5 -99t-94 -75t-68 -30h-170q-8 12 -14 35t-10 50.5t-5 58t-1 57.5q-8 10 -9.5 13t-2.5 4t-8 0t-29 -1q-23 0 -73 -33.5t-107.5 -74.5t-108.5 -75t-74 -34q-57 0 -91 47t-50.5 103.5t-21.5 102.5zM860 1892 q0 37 26.5 63.5t63.5 26.5q35 0 60.5 -11t47 -28.5t41 -40t40.5 -44.5l47 -47t70.5 -75t64.5 -80t29 -63q0 -31 -29 -30q-27 0 -80 28.5t-109.5 65.5t-108.5 72.5t-79 54.5q-31 20 -57.5 43.5t-26.5 64.5z" />
<glyph unicode="&#xfa;" d="M-37 221q0 76 46 183.5t113.5 225.5t145.5 237.5t143.5 219t105.5 171t30 94.5q-4 10 10 25.5t37.5 28.5t52.5 23.5t51 10.5q18 0 49 -3t61 -11.5t51.5 -22.5t21.5 -37q0 -10 -23.5 -54t-62.5 -108.5t-89.5 -144.5t-102.5 -162t-102 -162t-89 -144.5t-62.5 -108.5 t-23.5 -56q0 -23 3 -30t7 -11t6 -9t2 -24q10 0 16.5 -3t14.5 -8t21.5 -8t35.5 -3q59 0 136 67.5t159 172t163 230.5t146.5 240.5t109.5 203.5t54 120q16 8 32.5 20.5t35 24.5t38 20.5t42.5 8.5q4 0 34.5 -3t67.5 -12.5t74 -26t53 -40.5l-674 -1037l41 -36q43 10 87 47t97 73 q18 0 44 -7t45 -25q-4 -12 -34 -51t-75 -89.5t-98.5 -104.5t-104.5 -99t-94 -75t-68 -30h-170q-8 12 -14 35t-10 50.5t-5 58t-1 57.5q-8 10 -9.5 13t-2.5 4t-8 0t-29 -1q-23 0 -73 -33.5t-107.5 -74.5t-108.5 -75t-74 -34q-57 0 -91 47t-50.5 103.5t-21.5 102.5zM1046 1594 q0 23 28.5 62.5t64.5 79.5t71 75l47 47q23 23 42.5 45t41 39.5t47 29t60.5 11.5q37 0 63.5 -26.5t26.5 -63.5q0 -41 -27 -64.5t-57 -44.5q-27 -18 -79 -54t-109.5 -73t-110 -64.5t-80.5 -27.5q-29 0 -29 29z" />
<glyph unicode="&#xfb;" d="M-37 221q0 76 46 183.5t113.5 225.5t145.5 237.5t143.5 219t105.5 171t30 94.5q-4 10 10 25.5t37.5 28.5t52.5 23.5t51 10.5q18 0 49 -3t61 -11.5t51.5 -22.5t21.5 -37q0 -10 -23.5 -54t-62.5 -108.5t-89.5 -144.5t-102.5 -162t-102 -162t-89 -144.5t-62.5 -108.5 t-23.5 -56q0 -23 3 -30t7 -11t6 -9t2 -24q10 0 16.5 -3t14.5 -8t21.5 -8t35.5 -3q59 0 136 67.5t159 172t163 230.5t146.5 240.5t109.5 203.5t54 120q16 8 32.5 20.5t35 24.5t38 20.5t42.5 8.5q4 0 34.5 -3t67.5 -12.5t74 -25.5t53 -41l-674 -1037l41 -36q43 10 87 47t97 73 q18 0 44 -7t45 -25q-4 -12 -34 -51t-75 -89.5t-98.5 -104.5t-104.5 -99t-94 -75t-68 -30h-170q-8 12 -14 35t-10 50.5t-5 58t-1 57.5q-8 10 -9.5 13t-2.5 4t-8 0t-29 -1q-23 0 -73 -33.5t-107.5 -74.5t-108.5 -75t-74 -34q-57 0 -91 47t-50.5 103.5t-21.5 102.5zM763 1561.5 q-1 11.5 17 25.5q12 10 44 43t76 78t95.5 97.5t99.5 98.5t89 81.5t63 50.5q18 10 27.5 5t23 -14.5t38 -15.5t69.5 6q33 -106 59 -194q23 -76 44.5 -145.5t23.5 -92.5q4 -20 -3 -36.5t-21.5 -14.5t-36 25.5t-46.5 78.5q-29 72 -56.5 121t-49.5 82q-25 37 -45 62 q-61 -45 -129 -99q-59 -45 -134 -103.5t-153 -121.5q-25 -18 -46 -25.5t-34.5 -5.5t-14.5 13.5z" />
<glyph unicode="&#xfc;" d="M-37 221q0 76 46 183.5t113.5 225.5t145.5 237.5t143.5 219t105.5 171t30 94.5q-4 10 10 25.5t37.5 28.5t52.5 23.5t51 10.5q18 0 49 -3t61 -11.5t51.5 -22.5t21.5 -37q0 -10 -23.5 -54t-62.5 -108.5t-89.5 -144.5t-102.5 -162t-102 -162t-89 -144.5t-62.5 -108.5 t-23.5 -56q0 -23 3 -30t7 -11t6 -9t2 -24q10 0 16.5 -3t14.5 -8t21.5 -8t35.5 -3q59 0 136 67.5t159 172t163 230.5t146.5 240.5t109.5 203.5t54 120q16 8 32.5 20.5t35 24.5t38 20.5t42.5 8.5q4 0 34.5 -3t67.5 -12.5t74 -25.5t53 -41l-674 -1037l41 -36q43 10 87 47t97 73 q18 0 44 -7t45 -25q-4 -12 -34 -51t-75 -89.5t-98.5 -104.5t-104.5 -99t-94 -75t-68 -30h-170q-8 12 -14 35t-10 50.5t-5 58t-1 57.5q-8 10 -9.5 13t-2.5 4t-8 0t-29 -1q-23 0 -73 -33.5t-107.5 -74.5t-108.5 -75t-74 -34q-57 0 -91 47t-50.5 103.5t-21.5 102.5zM837.5 1525 q-10.5 42 24.5 91q18 25 45 48.5t56.5 41.5t60.5 28.5t57 10.5q53 0 67.5 -39t-22.5 -92l-2 -2q-18 -27 -44.5 -50.5t-57.5 -42t-61.5 -27.5t-59.5 -9q-53 0 -63.5 42zM1270 1521q-10 42 24 91q18 25 45 48t56.5 41.5t60.5 29t57 10.5q53 0 67.5 -39t-21.5 -92h-3 q-18 -27 -44.5 -51.5t-57.5 -43t-61.5 -27.5t-59.5 -9q-53 0 -63 42z" />
<glyph unicode="&#xfd;" horiz-adv-x="1024" d="M-63 -440q0 80 39.5 163.5t117.5 165.5t190.5 159t260.5 140q10 10 17 21.5t16 21.5q2 0 2 5q0 6 -13 14q-14 -10 -35.5 -22.5t-42 -22.5t-40 -17.5t-31.5 -7.5q-33 0 -51.5 17.5t-27.5 42t-11 50t-2 40.5q0 82 43 161.5t99 159.5t109.5 163t73.5 171q23 20 64 32.5 t65 12.5q23 0 37 -3t37 -13l2 -47q0 -12 -36 -71.5t-87 -137.5t-106.5 -164t-91.5 -154q8 -14 22 -25.5t41 -11.5q39 0 88 42t100.5 104.5t98.5 136.5t85 138.5t61.5 108.5t23.5 46q18 16 48 33.5t54 17.5h100q0 -10 8.5 -15t8.5 -32v-2q0 -10 -25.5 -52t-64.5 -99.5 t-84 -125t-86 -130t-70 -112.5t-33 -77l23 -23q27 8 70 33t73 35l-2 -65q-63 -41 -139 -88.5t-139 -98.5q-39 -33 -83 -76t-79 -86q-10 -14 -44 -65t-82 -121t-107.5 -147.5t-121 -143t-124 -108.5t-115.5 -43q-35 0 -55.5 21.5t-31.5 51t-14 58t-3 41.5zM88 -322 q0 -27 13.5 -36t23.5 -19q53 37 98 84t84 100.5t74 110.5t70 115v2q6 10 4 19t-13 3q-72 -39 -136 -88t-112.5 -99t-77 -100.5t-28.5 -91.5zM909 1160q0 23 28.5 62.5t64.5 79.5t71 75l47 47q23 23 42.5 45t41 39.5t47 29t60.5 11.5q37 0 63.5 -26.5t26.5 -63.5 q0 -41 -27 -64.5t-57 -44.5q-27 -18 -79 -54t-109.5 -73t-110 -64.5t-80.5 -27.5q-29 0 -29 29z" />
<glyph unicode="&#xfe;" />
<glyph unicode="&#xff;" horiz-adv-x="1024" d="M-63 -440q0 80 39.5 163.5t117.5 165.5t190.5 159t260.5 140q10 10 17 21.5t16 21.5q2 0 2 5q0 6 -13 14q-14 -10 -35.5 -22.5t-42 -22.5t-40 -17.5t-31.5 -7.5q-33 0 -51.5 17.5t-27.5 42t-11 50t-2 40.5q0 82 43 161.5t99 159.5t109.5 163t73.5 171q23 20 64 32.5 t65 12.5q23 0 37 -3t37 -13l2 -47q0 -12 -36 -71.5t-87 -137.5t-106.5 -164t-91.5 -154q8 -14 22 -25.5t41 -11.5q39 0 88 42t100.5 104.5t98.5 136.5t85 138.5t61.5 108.5t23.5 46q18 16 48 33.5t54 17.5h100q0 -10 8.5 -15t8.5 -32v-2q0 -10 -25.5 -52t-64.5 -99.5 t-84 -125t-86 -130t-70 -112.5t-33 -77l23 -23q27 8 70 33t73 35l-2 -65q-63 -41 -139 -88.5t-139 -98.5q-39 -33 -83 -76t-79 -86q-10 -14 -44 -65t-82 -121t-107.5 -147.5t-121 -143t-124 -108.5t-115.5 -43q-35 0 -55.5 21.5t-31.5 51t-14 58t-3 41.5zM88 -322 q0 -27 13.5 -36t23.5 -19q53 37 98 84t84 100.5t74 110.5t70 115v2q6 10 4 19t-13 3q-72 -39 -136 -88t-112.5 -99t-77 -100.5t-28.5 -91.5zM680 1292q12 53 58 93t99 40t85 -37.5t20 -91.5l-2 -2q-12 -53 -59.5 -92t-102.5 -39q-53 0 -81 40t-17 89zM1114 1299q12 53 58 93 t100 40q53 0 84.5 -38t19.5 -91l-2 -2q-12 -53 -59.5 -92.5t-102.5 -39.5q-53 0 -80.5 40t-17.5 90z" />
<glyph unicode="&#x152;" horiz-adv-x="1990" />
<glyph unicode="&#x153;" horiz-adv-x="1593" />
<glyph unicode="&#x178;" horiz-adv-x="1251" d="M-152 10q0 68 32 129.5t73 85.5q10 -2 31.5 -14t27.5 -23q-6 -33 6.5 -60.5t33 -47t46 -29.5t47.5 -10q45 0 98.5 26.5t106.5 69.5t104.5 97.5t92.5 108.5t67.5 103.5t30.5 81.5q-20 20 -51 29.5t-64 40.5q-6 80 15.5 162t50.5 164t53.5 161.5t24.5 155.5q0 12 -1 26.5 t-7.5 26t-19.5 18.5t-36 7q-29 0 -58.5 -10.5t-62.5 0.5v86q0 35 26 68.5t62.5 62t76.5 46t67 17.5q43 0 67.5 -27.5t33.5 -69.5t8 -93t-6 -98.5t-11 -83t-8 -48.5q-6 -78 -11.5 -168t5.5 -167q6 -6 7 -10l1 -3h6h16q35 0 84.5 39t102.5 99.5t106.5 133t98.5 138t75.5 117 t38.5 67.5q2 2 12.5 30t27 59.5t40 58t49.5 26.5h115q10 -10 21.5 -23t11.5 -40q0 -6 -42 -67.5t-110.5 -160t-155.5 -222.5t-177.5 -254t-175.5 -255t-148 -225q-76 -121 -159 -226.5t-173 -182t-187.5 -120.5t-201.5 -44q-55 0 -99 21.5t-74 56t-45.5 77.5t-15.5 86z M20 295v67q23 25 59 53.5t76 53.5t77.5 40t64.5 15q41 0 73.5 -23.5t32.5 -62.5t-17 -66.5t-42 -45t-50.5 -24.5t-39.5 -7q-29 0 -93.5 6t-140.5 -6zM831 1896q20 51 72.5 89t106.5 38q53 -2 78.5 -39t5.5 -90t-73.5 -91t-111.5 -36q-53 0 -74.5 40t-3.5 89zM1264 1894 q18 51 71.5 89t106.5 38q53 -2 78.5 -39t5.5 -90t-73.5 -91t-109.5 -36q-53 0 -75.5 40t-3.5 89z" />
<glyph unicode="&#x2c6;" d="M251 881.5q-1 11.5 17 25.5q12 10 45 43t77 78t95.5 97.5t98.5 98.5t88 81.5t63 50.5q18 10 27.5 5t23 -14.5t38 -15.5t69.5 6q33 -106 59 -194q23 -76 44.5 -145.5t23.5 -92.5q4 -20 -3 -36.5t-21.5 -14.5t-35 25.5t-45.5 78.5q-29 72 -59.5 110t-52.5 54q-27 20 -51 23 q-57 -23 -125 -60q-57 -31 -130 -76.5t-151 -109.5q-25 -18 -46 -25.5t-34.5 -5.5t-14.5 13.5z" />
<glyph unicode="&#x2dc;" horiz-adv-x="681" d="M-11 1093.5q-1 6.5 1 14.5t8 20q25 37 55.5 73t67.5 63.5t78 45t82 17.5q33 2 59.5 -10t48.5 -29q25 -14 46.5 -24.5t41.5 -10.5q37 2 65.5 24.5t55.5 53.5q8 16 18 29q10 10 21.5 19.5t28.5 9.5q23 2 23.5 -8.5t-3.5 -20.5q-6 -13 -20 -29q-55 -76 -127 -137t-160 -64 q-37 -2 -63.5 10.5t-49.5 28.5q-23 14 -45 24.5t-49 8.5q-25 0 -56.5 -22.5t-52.5 -51.5q-8 -14 -18 -24t-20.5 -17.5t-24.5 -3.5q-10 4 -11 10.5z" />
<glyph unicode="&#x2000;" horiz-adv-x="1108" />
<glyph unicode="&#x2001;" horiz-adv-x="2216" />
<glyph unicode="&#x2002;" horiz-adv-x="1108" />
<glyph unicode="&#x2003;" horiz-adv-x="2216" />
<glyph unicode="&#x2004;" horiz-adv-x="738" />
<glyph unicode="&#x2005;" horiz-adv-x="554" />
<glyph unicode="&#x2006;" horiz-adv-x="369" />
<glyph unicode="&#x2007;" horiz-adv-x="369" />
<glyph unicode="&#x2008;" horiz-adv-x="277" />
<glyph unicode="&#x2009;" horiz-adv-x="443" />
<glyph unicode="&#x200a;" horiz-adv-x="123" />
<glyph unicode="&#x2010;" horiz-adv-x="681" d="M-23 492q0 35 41 51q25 10 58 15t65.5 6t61 0t43.5 -1h172t172 -8q27 -4 54.5 -19.5t27.5 -43.5q0 -31 -42 -44.5t-96.5 -18.5t-105.5 -3t-72 2h-2h-67t-97.5 1t-95.5 3t-61 6q-20 6 -38 18.5t-18 35.5z" />
<glyph unicode="&#x2011;" horiz-adv-x="681" d="M-23 492q0 35 41 51q25 10 58 15t65.5 6t61 0t43.5 -1h172t172 -8q27 -4 54.5 -19.5t27.5 -43.5q0 -31 -42 -44.5t-96.5 -18.5t-105.5 -3t-72 2h-2h-67t-97.5 1t-95.5 3t-61 6q-20 6 -38 18.5t-18 35.5z" />
<glyph unicode="&#x2012;" horiz-adv-x="681" d="M-23 492q0 35 41 51q25 10 58 15t65.5 6t61 0t43.5 -1h172t172 -8q27 -4 54.5 -19.5t27.5 -43.5q0 -31 -42 -44.5t-96.5 -18.5t-105.5 -3t-72 2h-2h-67t-97.5 1t-95.5 3t-61 6q-20 6 -38 18.5t-18 35.5z" />
<glyph unicode="&#x2013;" horiz-adv-x="1024" />
<glyph unicode="&#x2014;" horiz-adv-x="2034" d="M-23 492q0 35 121 51q73 10 170.5 15t193.5 6t179.5 0t128.5 -1h507q253 0 506 -8q80 -4 161 -19.5t81 -43.5q0 -31 -124 -44.5t-284.5 -18.5t-310.5 -3t-212 2h-6h-198q-138 0 -287 1t-281.5 3t-179.5 6q-59 6 -112 18.5t-53 35.5z" />
<glyph unicode="&#x2018;" horiz-adv-x="569" d="M117 1038q18 74 66 139.5t112.5 118t139.5 91t145 63.5l8 -43q-51 -23 -110.5 -54.5t-114 -72.5t-95.5 -90t-55 -107q-2 -8 -6 -24.5t-7 -33.5t-5 -31.5t2 -18.5q33 -37 64.5 -49.5t47.5 0.5q8 6 7 29.5t1 52t14.5 55.5t49.5 39q35 10 58.5 1t34.5 -32.5t13 -54.5t-6 -64 q-8 -31 -28.5 -59.5t-48 -51t-60.5 -35.5t-63 -13q-92 0 -141.5 67.5t-22.5 177.5z" />
<glyph unicode="&#x2019;" d="M307 815q51 23 110.5 55.5t113 74.5t93.5 92t52 108q2 8 6 24.5t8 34t5 32.5t-3 19q-33 35 -64.5 46.5t-47.5 -3.5q-8 -6 -6.5 -29.5t-0.5 -52t-14 -55t-49 -39.5q-35 -12 -58.5 -2t-36 33t-13.5 53.5t6 63.5q6 31 26.5 59.5t48 52t60 38t63.5 14.5q92 2 142.5 -64.5 t25.5 -177.5q-16 -74 -64 -139.5t-113 -119.5t-138.5 -95t-143.5 -66z" />
<glyph unicode="&#x201a;" horiz-adv-x="681" d="M137 -326q49 18 106.5 47t107.5 67t86 86t44 106q2 8 6.5 24t7.5 33.5t4 33t-3 19.5q-35 41 -68 54.5t-49 -1.5q-8 -6 -4 -29.5t4 -52.5t-11.5 -54t-48.5 -34q-35 -10 -58 1.5t-35.5 35t-16.5 55t2 62.5t23.5 59.5t44 50t57.5 34t61 10.5q92 -6 146.5 -78t38.5 -183 q-12 -74 -56.5 -137t-104 -113.5t-129 -87t-132.5 -61.5z" />
<glyph unicode="&#x201c;" d="M86 903q-37 68 10 178q31 72 92.5 133.5t137 110.5t158.5 85t159 56v-43q-55 -20 -121.5 -48.5t-129 -66.5t-114 -85t-75.5 -103q-2 -8 -10.5 -24.5t-14.5 -32.5t-10 -30.5t-2 -18.5q27 -37 56.5 -50.5t47.5 -2.5q10 6 13.5 29.5t10.5 51t25.5 53t57.5 35.5t60.5 -1 t28.5 -33.5t3 -54t-16 -64.5q-12 -31 -39 -57.5t-59.5 -47t-68.5 -32t-69 -9.5q-94 4 -131 72zM524 901q-37 68 11 178q31 72 92 133.5t137 110.5t159 85t156 56l2 -43q-55 -20 -121.5 -49t-129 -66.5t-113.5 -84.5t-78 -103q-2 -8 -10 -24.5t-14.5 -33t-10.5 -30.5t-2 -18 q27 -37 56.5 -50.5t50.5 -0.5q10 6 13 29.5t10 51t25.5 53t57.5 35.5t60.5 -1t28.5 -33.5t3 -54t-18 -64.5q-12 -31 -39 -57.5t-59.5 -47t-68.5 -33t-67 -10.5q-94 4 -131 72z" />
<glyph unicode="&#x201d;" d="M162 821q51 23 111.5 52.5t113.5 69.5t94 88t54 106q2 8 8 24.5t11 33.5t8 31.5t-1 18.5q-33 39 -64.5 52.5t-47.5 2.5q-8 -6 -7.5 -30.5t-2.5 -53t-16 -56t-50 -38.5q-35 -10 -57.5 0.5t-35 34t-13.5 55t7 64.5q8 31 29 59.5t49.5 50t61 34t63.5 12.5q47 0 83 -18.5 t58.5 -51.5t28.5 -79t-8 -101q-18 -74 -68.5 -138.5t-116 -115.5t-140 -89t-144.5 -61zM610 825q51 23 111.5 52.5t114 69.5t94.5 89t55 107q2 8 7 24.5t10.5 34t7.5 31.5t-2 16q-33 39 -65 52.5t-48 3.5q-8 -6 -7 -31t-2 -53.5t-16.5 -55t-50.5 -37.5q-35 -10 -57.5 0.5 t-33.5 33t-12 54t7 64.5q8 31 28.5 59.5t49 50t61.5 34t64 12.5q92 -2 140 -71t19 -179q-18 -74 -68 -138.5t-115.5 -115.5t-140.5 -89t-145 -61z" />
<glyph unicode="&#x201e;" horiz-adv-x="681" d="M-154 -336q51 23 112.5 54.5t116 72.5t97.5 90t57 107q2 8 8.5 24.5t11.5 33.5t8 31.5t-1 18.5q-31 37 -62.5 49.5t-48.5 -0.5q-8 -6 -8 -30q0 -23 -3 -51.5t-17.5 -55t-50.5 -39.5q-37 -10 -59.5 -1t-33 33t-11.5 54.5t9 63.5q8 31 30 59.5t51.5 51t62 36t63.5 13.5 q92 0 138 -68t16 -178q-20 -74 -71.5 -139.5t-119 -117.5t-144.5 -91t-147 -64zM293 -307q53 23 113.5 54.5t114.5 72.5t97.5 90t57.5 106q2 8 8 24.5t11 34t8.5 32t-1.5 18.5q-31 37 -62.5 49t-47.5 0q-8 -6 -8 -31q0 -23 -3 -51.5t-17.5 -55t-51.5 -38.5q-37 -10 -59.5 -1 t-32.5 32.5t-10 54.5t8 63q8 31 29.5 60t51 51.5t62.5 35.5t64 13q92 0 138 -67.5t15 -178.5q-20 -74 -71.5 -139t-119 -117.5t-143 -91.5t-147.5 -63z" />
<glyph unicode="&#x2022;" horiz-adv-x="1241" d="M266 649q14 66 54 127.5t97.5 110.5t127 83t141.5 44t131.5 -6.5t97 -53t54 -91t2.5 -120.5l2 -2q-14 -66 -54 -127t-97.5 -110t-127 -82t-141.5 -43t-131.5 6t-98 53t-54 91.5t-3.5 119.5z" />
<glyph unicode="&#x2026;" horiz-adv-x="2048" d="M135 133q10 35 31.5 65.5t51.5 54t63.5 38t66.5 14.5q68 2 105.5 -46t17.5 -118q-20 -72 -83.5 -121t-133.5 -51t-104.5 47.5t-14.5 116.5zM817 150q10 35 31.5 65.5t51.5 54t63.5 38t66.5 14.5q68 2 105.5 -46t17.5 -118q-20 -72 -83.5 -121t-133.5 -51t-104.5 47 t-14.5 117zM1499 164q10 35 32.5 65.5t51.5 54t62.5 38t66.5 14.5q35 2 61.5 -10.5t44 -35t22.5 -52t-5 -64.5q-20 -72 -83.5 -121t-133.5 -51t-103.5 47t-15.5 115z" />
<glyph unicode="&#x202f;" horiz-adv-x="443" />
<glyph unicode="&#x2039;" horiz-adv-x="681" d="M119 424q0 8 13 15t24 16l344 256q10 8 20 15t21 7q16 0 16 -18q0 -20 -19.5 -51t-54.5 -66l-178 -186l80 -142q25 -43 41 -81.5t16 -59.5q0 -18 -18 -18q-12 0 -28.5 13t-33.5 32l-210 231q-8 10 -20.5 19.5t-12.5 17.5z" />
<glyph unicode="&#x203a;" horiz-adv-x="681" d="M125 129q0 20 19.5 51t54.5 66l178 186l-80 141q-25 43 -41 82t-16 60q0 18 18 18q12 0 28.5 -13t32.5 -32l211 -231q8 -10 20.5 -19.5t12.5 -17.5t-13 -15.5t-24 -15.5l-344 -256q-10 -8 -20 -15t-21 -7q-16 0 -16 18z" />
<glyph unicode="&#x205f;" horiz-adv-x="554" />
<glyph unicode="&#x2122;" horiz-adv-x="1251" d="M51 612q0 6 3 19.5t8.5 27t13.5 23.5t18 10q16 0 20.5 -9t7.5 -19.5t12 -18.5t36 -6q53 0 119 82q29 35 52.5 75t51 83t65.5 88t93 90q10 8 24.5 19t24.5 11t14 -3t9 -3v-18v2q0 -8 -25 -32.5t-41 -43.5q-29 -41 -58.5 -89t-58.5 -95q-33 -51 -54 -104.5t-73 -100.5 q-12 -10 -34.5 -22.5t-48 -22.5t-50 -17.5t-43.5 -7.5q-45 0 -66.5 27t-19.5 55zM104 735q0 6 10.5 18.5t14.5 16.5q16 14 48 29.5t46 15.5q10 0 21.5 -6t11.5 -16q0 -14 -16.5 -38t-38.5 -24q-8 0 -13.5 3t-15.5 5q-10 0 -27.5 -9t-29.5 -13q-4 4 -8.5 6t-2.5 12zM307 1038 q0 10 16.5 36t26.5 36q20 23 51 38t65 25.5t66.5 16.5t57.5 6q8 0 25.5 -3t27.5 -5q39 0 70.5 9t52.5 24l18 2q4 -4 6.5 -5t2.5 -12v-2q0 -25 -27 -42t-59.5 -28.5t-60.5 -17.5t-32 -6h-182q-25 0 -25.5 -17.5t1.5 -38t-8.5 -38t-53.5 -17.5q-23 0 -31 12.5t-8 26.5z M381 623q0 10 3 15t7 9q4 27 21.5 50.5t41 41t49 27.5t46.5 10q18 0 27.5 -8t11.5 -18q0 -25 -19.5 -34t-36.5 -9q-10 0 -17 3t-17 3q-25 0 -36 -19.5t-11 -25.5q0 -12 10 -22.5t28 -10.5q37 0 92.5 43t119 106.5t133 137t136 137t127 105.5t105.5 42q10 0 17.5 -3t11.5 -1 q0 -4 3 -5t3 -11q0 -16 -12.5 -25.5t-28.5 -15.5t-32.5 -9t-22.5 -8q-63 -49 -126 -112.5t-119 -129t-106.5 -126t-91.5 -103.5q-55 -59 -107 -98t-112 -39q-33 0 -53 9.5t-29.5 24.5t-12.5 33.5t-3 35.5zM731 575q0 23 21.5 65t50 83t58.5 68.5t46 21.5q4 4 10.5 2t10.5 -2 l2 -25q0 -4 -7.5 -13t-16.5 -20.5t-16 -21.5t-7 -14q0 -10 5 -13.5t9 -7.5q45 35 78 79t61.5 86t56 76t62.5 46q20 -10 21 -31h-2q0 -6 -25 -38.5t-54.5 -74.5t-54 -86t-24.5 -71q0 -20 28 -16q10 0 17.5 2t15.5 6q4 -4 9.5 -8t5.5 -15q0 -18 -15.5 -40.5t-37 -42t-45 -34 t-42.5 -14.5q-16 0 -28.5 6.5t-14.5 22.5q0 10 10.5 31.5t20.5 42.5l-16 16q-20 -10 -39 -29.5t-36.5 -40t-36.5 -36t-42 -15.5q-27 0 -34 22.5t-5 32.5z" />
<glyph unicode="&#x25fc;" horiz-adv-x="1259" d="M0 0v1260h1260v-1260h-1260z" />
<glyph unicode="&#xfb01;" horiz-adv-x="1251" />
<glyph unicode="&#xfb02;" horiz-adv-x="1251" />
</font>
</defs>
</svg>
