<?xml version="1.0" encoding="utf-8"?>
<!-- Generator: Adobe Illustrator 15.0.0, SVG Export Plug-In . SVG Version: 6.00 Build 0)  -->
<!DOCTYPE svg PUBLIC "-//W3C//DTD SVG 1.1//EN" "http://www.w3.org/Graphics/SVG/1.1/DTD/svg11.dtd">
<svg version="1.1" id="Calque_1" xmlns="http://www.w3.org/2000/svg" xmlns:xlink="http://www.w3.org/1999/xlink" x="0px" y="0px"
	 width="600px" height="442px" viewBox="0 0 600 442" enable-background="new 0 0 600 442" xml:space="preserve">
<g>
	<path d="M123.948,145.957c0.47,1.853,0.48,4.425,0.042,7.721c-0.441,3.297-1.274,6.98-2.502,11.055
		c-1.229,4.074-2.845,8.334-4.849,12.778c-2.001,4.44-4.354,8.651-7.053,12.636c-2.698,3.982-5.729,7.56-9.1,10.727
		c-3.367,3.17-7.013,5.48-10.927,6.932c-0.764,0.192-1.318,0.739-1.67,1.636c-1.972,5.945-3.898,11.962-5.772,18.05
		c-1.876,6.091-3.538,11.666-4.979,16.718c-1.444,5.056-2.57,9.31-3.376,12.755c-0.809,3.446-1.115,5.552-0.923,6.312
		c0.331,1.309,0.879,2.214,1.641,2.712c0.762,0.502,1.595,0.811,2.494,0.932c0.899,0.12,1.736,0.114,2.513-0.026
		c0.775-0.135,1.271-0.234,1.489-0.291c1.414-0.354,3.184-1.498,5.302-3.426c2.118-1.923,4.183-3.719,6.194-5.387l3.877-1.153
		c0.215-0.055,0.459,0.003,0.735,0.162c0.543,0.328,0.971,1.087,1.271,2.283c0.387,1.525,0.097,3.25-0.863,5.171
		c-0.963,1.921-2.265,3.872-3.906,5.851c-1.643,1.979-3.523,3.931-5.642,5.855c-2.119,1.926-4.172,3.659-6.151,5.205
		c-1.986,1.541-3.69,2.812-5.117,3.812c-1.429,0.995-2.359,1.55-2.794,1.661c-1.851,0.465-3.727,0.478-5.636,0.034
		c-1.908-0.446-3.628-1.194-5.173-2.253c-1.541-1.057-2.868-2.312-3.992-3.767c-1.12-1.454-1.861-2.887-2.218-4.304
		c-0.468-1.848-0.326-5.067,0.423-9.663c0.752-4.585,1.951-10.043,3.593-16.365c1.645-6.321,3.715-13.242,6.215-20.765
		c2.499-7.522,5.26-15.142,8.291-22.854c3.027-7.715,6.291-15.197,9.783-22.451c3.493-7.248,7.071-13.827,10.73-19.735
		c3.659-5.903,7.398-10.815,11.213-14.732c3.812-3.917,7.519-6.333,11.111-7.241c1.307-0.331,2.502-0.168,3.596,0.481
		C122.907,143.675,123.618,144.65,123.948,145.957z M112.518,162.568c-0.358-1.413-0.925-2.166-1.702-2.26
		c-0.778-0.094-1.507-0.342-2.187-0.752c-1.85,1.398-3.565,3.42-5.152,6.08c-1.585,2.66-2.812,5.258-3.676,7.791
		c-0.675,1.908-1.698,4.857-3.06,8.85c-1.363,3.994-2.882,8.633-4.558,13.92c-0.082,0.604-0.078,1.062,0.003,1.389
		c0.055,0.219,0.312,0.096,0.776-0.369c2.716-2.076,5.35-4.709,7.902-7.902c2.551-3.191,4.768-6.444,6.652-9.762
		c1.882-3.312,3.305-6.509,4.264-9.587C112.738,166.888,112.986,164.422,112.518,162.568z"/>
	<path d="M155.212,197.438c0.771,3.056,0.961,6.025,0.569,8.912c-0.394,2.886-1.105,5.736-2.135,8.55
		c-1.031,2.813-2.257,5.621-3.677,8.418c-1.423,2.798-2.784,5.6-4.087,8.406c-1.302,2.807-2.406,5.64-3.307,8.499
		c-0.902,2.86-1.36,5.8-1.368,8.821c0.473,0.036,0.795,0.091,0.968,0.161c0.173,0.071,0.325,0.133,0.453,0.177
		c0.126,0.045,0.286,0.062,0.475,0.052c0.192-0.007,0.577-0.086,1.16-0.234c0.657-0.168,1.242-0.524,1.759-1.083
		c0.518-0.556,0.971-1.212,1.36-1.969c0.389-0.755,0.74-1.503,1.058-2.242c0.315-0.736,0.601-1.37,0.856-1.899l5.407,0.258
		c-0.469,2.132-1.403,4.635-2.806,7.502c-1.403,2.87-3.058,5.669-4.961,8.396c-1.904,2.726-3.968,5.125-6.191,7.194
		c-2.225,2.073-4.464,3.395-6.719,3.966c-0.654,0.164-1.356,0.302-2.1,0.413c-0.749,0.111-1.444,0.114-2.09,0.006
		c-0.646-0.106-1.229-0.347-1.747-0.72c-0.521-0.37-0.893-0.992-1.112-1.867c-0.166-0.655-0.26-1.325-0.279-2.019
		c-0.021-0.691-0.111-1.365-0.277-2.019c-0.258-1.019-0.729-1.576-1.412-1.677c-0.682-0.098-1.424-0.046-2.225,0.156
		c-0.509,0.13-1.145,0.833-1.903,2.107c-0.764,1.278-1.654,2.722-2.679,4.333c-1.025,1.615-2.171,3.124-3.44,4.529
		c-1.272,1.403-2.709,2.311-4.308,2.715c-1.454,0.367-2.887,0.283-4.299-0.248c-1.413-0.532-2.717-1.328-3.912-2.382
		c-1.195-1.049-2.23-2.236-3.107-3.565c-0.875-1.326-1.482-2.645-1.813-3.955c-0.643-2.546-0.831-5.206-0.565-7.981
		c0.264-2.778,0.666-5.396,1.207-7.854c1.132-5.006,2.797-9.897,5-14.674c2.197-4.771,4.809-9.286,7.837-13.534
		c3.029-4.249,6.44-8.206,10.234-11.874c3.794-3.67,7.863-6.865,12.206-9.588c0.473-0.275,1.145-0.677,2.018-1.208
		c0.87-0.526,1.798-1.073,2.781-1.631c0.978-0.557,1.903-1.042,2.765-1.456c0.863-0.408,1.514-0.672,1.95-0.781
		c0.728-0.184,1.741-0.306,3.043-0.363c1.302-0.059,2.611-0.002,3.931,0.168c1.322,0.168,2.508,0.508,3.566,1.014
		c1.057,0.506,1.705,1.234,1.944,2.177L155.212,197.438z M139.754,205.642c-0.092-0.364-0.291-0.605-0.591-0.724
		c-0.301-0.115-0.633-0.129-0.995-0.035c-1.965,0.496-4.029,1.598-6.189,3.304c-2.163,1.705-4.272,3.771-6.33,6.187
		c-2.059,2.417-3.995,5.095-5.807,8.027c-1.813,2.938-3.339,5.855-4.578,8.763c-1.239,2.906-2.119,5.701-2.639,8.389
		c-0.523,2.687-0.533,5.011-0.035,6.976c0.182,0.728,0.462,1.45,0.837,2.168c0.373,0.718,0.844,1.354,1.411,1.905
		c0.565,0.555,1.19,0.961,1.875,1.213c0.683,0.251,1.462,0.267,2.335,0.047c1.308-0.331,2.643-1.325,4.002-2.986
		c1.361-1.658,2.689-3.678,3.985-6.059c1.293-2.377,2.517-4.97,3.666-7.776c1.149-2.806,2.212-5.551,3.199-8.24
		c0.984-2.686,1.823-5.182,2.52-7.484c0.692-2.307,1.23-4.087,1.61-5.344c0.125-0.416,0.302-1.023,0.527-1.816
		c0.223-0.791,0.44-1.622,0.648-2.486c0.207-0.863,0.367-1.678,0.485-2.443C139.804,206.46,139.826,205.933,139.754,205.642z"/>
	<path d="M264.283,171.358c1.03,4.079,1.029,8.918-0.001,14.515c-1.034,5.602-2.679,11.187-4.94,16.764
		c-2.259,5.576-4.906,10.833-7.939,15.771c-3.033,4.939-6.023,8.839-8.971,11.694c3.068,3.785,5.173,7.926,6.31,12.417
		c0.873,3.45,1.07,7.32,0.6,11.612c-0.475,4.29-1.445,8.704-2.908,13.246c-1.466,4.54-3.395,9.007-5.79,13.392
		c-2.395,4.39-5.07,8.428-8.029,12.122c-2.959,3.696-6.113,6.83-9.466,9.4c-3.353,2.574-6.81,4.308-10.361,5.206
		c-1.884,0.477-3.957,0.747-6.218,0.82c-2.261,0.07-4.457-0.147-6.591-0.669c-2.132-0.518-4.077-1.388-5.832-2.613
		c-1.756-1.223-3.066-2.896-3.937-5.01c-2.107,4.426-4.587,8.251-7.443,11.476c-2.852,3.226-6.792,5.469-11.807,6.738
		c-4.916,1.241-9.065,0.653-12.459-1.771c-3.393-2.425-5.684-5.986-6.872-10.692c-0.608-2.401-0.513-5.649,0.286-9.747
		c0.801-4.095,2.08-8.172,3.833-12.229s3.842-7.672,6.267-10.846c2.423-3.169,4.94-5.086,7.554-5.748l9.566-2.417
		c0.444,0.891,0.892,1.555,1.337,1.995c0.447,0.447,0.803,1.19,1.066,2.234c0.212,0.84,0.187,1.733-0.07,2.688
		c-0.261,0.956-0.678,1.837-1.25,2.651c-0.574,0.812-1.225,1.533-1.956,2.163c-0.732,0.631-1.464,1.036-2.193,1.219
		c-1.152,0.292-2.261,0.409-3.335,0.345c-1.072-0.062-2.183,0.053-3.331,0.343c-1.047,0.264-2.109,0.895-3.192,1.89
		c-1.083,0.997-2.015,2.153-2.796,3.461c-0.781,1.31-1.362,2.653-1.734,4.026c-0.377,1.375-0.417,2.636-0.128,3.785
		c0.186,0.732,0.657,1.392,1.417,1.976c0.758,0.591,1.636,1.088,2.632,1.503c0.995,0.419,1.981,0.693,2.963,0.837
		c0.981,0.143,1.787,0.134,2.413-0.025c1.778-0.449,3.54-1.616,5.287-3.507c1.748-1.886,3.441-4.203,5.082-6.955
		c1.64-2.751,3.189-5.754,4.644-9.016c1.453-3.259,2.812-6.465,4.073-9.622c1.261-3.153,2.35-6.098,3.271-8.835
		c0.92-2.733,1.627-4.886,2.122-6.456c0.62-1.937,1.204-3.919,1.749-5.949c0.542-2.026,1.207-3.918,1.985-5.673
		c1.351-3.009,2.578-6.074,3.682-9.188c1.103-3.113,2.214-6.202,3.33-9.267c2.52-6.753,5.133-13.447,7.851-20.086
		c2.715-6.635,5.765-13.162,9.146-19.58c0.158-0.262,0.346-0.612,0.568-1.06c0.22-0.442,0.292-0.824,0.212-1.139
		c-0.264-0.155-0.708-0.155-1.335,0.004c-0.315,0.079-0.81,0.316-1.488,0.71c-0.679,0.396-1.37,0.846-2.076,1.359
		c-0.703,0.512-1.392,0.994-2.054,1.438c-0.667,0.447-1.13,0.813-1.39,1.102c-2.951,2.415-5.5,5.201-7.648,8.356
		c-2.149,3.159-3.938,6.528-5.366,10.114c-0.784,1.756-1.496,3.549-2.142,5.38c-0.652,1.833-1.247,3.652-1.791,5.457
		c-0.288,1.074-0.7,2.625-1.244,4.652c-0.545,2.03-1.165,4.078-1.866,6.144c-0.701,2.07-1.54,3.923-2.514,5.558
		c-0.977,1.64-2.04,2.602-3.19,2.891c-2.195,0.555-4.065,0.418-5.61-0.416c-1.545-0.832-2.595-2.346-3.152-4.541
		c-0.846-3.345-0.73-6.959,0.345-10.848c1.073-3.884,2.75-7.812,5.026-11.782c2.278-3.966,5.002-7.936,8.167-11.906
		c3.169-3.971,6.447-7.719,9.835-11.246c3.391-3.523,6.689-6.75,9.901-9.676c3.207-2.922,5.972-5.288,8.296-7.102
		c1.018-0.813,2.185-1.691,3.504-2.639c1.318-0.941,2.712-1.908,4.189-2.895c1.477-0.982,2.951-1.855,4.426-2.621
		c1.476-0.762,2.839-1.301,4.094-1.617c6.586-1.666,12.066-0.993,16.44,2.016C259.713,160.448,262.696,165.089,264.283,171.358z
		 M236.039,245.731c-0.21-0.834-1.045-1.93-2.5-3.288c-1.454-1.355-3.092-2.665-4.913-3.93c-1.821-1.266-3.589-2.318-5.306-3.164
		c-1.713-0.843-2.939-1.176-3.669-0.99c-0.732,0.186-1.26,0.626-1.584,1.318c-0.324,0.695-0.633,1.359-0.918,1.984
		c-0.286,0.629-0.863,1.968-1.736,4.026c-0.871,2.055-1.858,4.416-2.96,7.087c-1.105,2.672-2.28,5.495-3.528,8.483
		c-1.247,2.982-2.377,5.771-3.391,8.362c-1.012,2.593-1.858,4.751-2.531,6.48c-0.676,1.728-0.987,2.697-0.935,2.904
		c0.157,0.186,1.098,0.28,2.826,0.288c1.725,0.01,3.678-0.069,5.864-0.232c2.182-0.16,4.28-0.33,6.293-0.508
		c2.014-0.175,3.333-0.343,3.961-0.5c2.716-0.689,5.154-2.054,7.305-4.098c2.151-2.049,3.911-4.434,5.276-7.175
		c1.365-2.734,2.281-5.606,2.743-8.616C236.799,251.157,236.7,248.345,236.039,245.731z M249.605,184.579
		c-0.211-0.833-0.617-1.786-1.224-2.859c-0.603-1.07-1.328-2.054-2.163-2.956c-0.841-0.898-1.772-1.609-2.793-2.133
		c-1.022-0.518-2.056-0.645-3.1-0.382c-0.52,0.132-0.864,0.413-1.03,0.845c-0.165,0.434-0.316,0.83-0.443,1.195
		c-2.207,7.011-4.317,14.08-6.329,21.203c-2.014,7.129-4.603,14.038-7.775,20.733c-0.31,0.526-0.437,0.891-0.385,1.099
		c1.274,0.234,2.315,0.415,3.122,0.545c0.806,0.129,1.579,0.244,2.323,0.331c0.74,0.09,1.242,0.216,1.503,0.37
		c1.731-2.327,3.786-5.018,6.168-8.064c2.379-3.048,4.599-6.307,6.651-9.773c2.055-3.465,3.672-6.935,4.855-10.404
		C250.164,190.861,250.373,187.612,249.605,184.579z"/>
	<path d="M329.321,185.6c1.008,3.987,1.253,7.865,0.743,11.632c-0.516,3.767-1.442,7.484-2.785,11.158
		c-1.345,3.672-2.944,7.335-4.801,10.985c-1.855,3.653-3.632,7.311-5.333,10.974c-1.698,3.662-3.136,7.358-4.315,11.089
		c-1.178,3.734-1.775,7.57-1.785,11.515c0.615,0.047,1.036,0.115,1.263,0.209s0.422,0.174,0.589,0.231
		c0.166,0.059,0.373,0.084,0.624,0.067c0.249-0.009,0.751-0.113,1.515-0.306c0.854-0.215,1.617-0.688,2.293-1.413
		c0.673-0.724,1.267-1.581,1.775-2.567c0.509-0.99,0.966-1.964,1.383-2.929c0.413-0.96,0.782-1.789,1.114-2.479l7.056,0.336
		c-0.611,2.784-1.831,6.049-3.66,9.791c-1.835,3.747-3.989,7.4-6.475,10.956c-2.487,3.559-5.181,6.689-8.081,9.393
		c-2.904,2.703-5.825,4.43-8.771,5.173c-0.852,0.217-1.77,0.397-2.741,0.54c-0.973,0.146-1.883,0.148-2.726,0.007
		c-0.844-0.139-1.604-0.451-2.282-0.938c-0.678-0.485-1.162-1.298-1.449-2.438c-0.217-0.854-0.338-1.732-0.364-2.634
		c-0.027-0.903-0.146-1.783-0.362-2.637c-0.336-1.33-0.95-2.055-1.841-2.186s-1.858-0.063-2.903,0.204
		c-0.664,0.166-1.495,1.086-2.487,2.75c-0.995,1.668-2.158,3.552-3.495,5.653c-1.336,2.107-2.832,4.078-4.491,5.912
		c-1.657,1.83-3.532,3.014-5.619,3.542c-1.9,0.48-3.772,0.371-5.612-0.325c-1.843-0.692-3.545-1.73-5.105-3.104
		c-1.558-1.37-2.908-2.924-4.056-4.657c-1.143-1.729-1.934-3.45-2.366-5.159c-0.839-3.321-1.086-6.795-0.739-10.42
		c0.347-3.622,0.872-7.039,1.576-10.247c1.477-6.536,3.651-12.918,6.522-19.15c2.871-6.229,6.28-12.119,10.233-17.663
		c3.951-5.547,8.405-10.71,13.355-15.498c4.947-4.788,10.259-8.959,15.928-12.515c0.615-0.356,1.494-0.881,2.632-1.575
		c1.138-0.688,2.348-1.398,3.629-2.129c1.279-0.727,2.482-1.359,3.612-1.898c1.125-0.533,1.976-0.877,2.543-1.021
		c0.947-0.238,2.272-0.396,3.973-0.473c1.697-0.076,3.406-0.004,5.13,0.219c1.724,0.221,3.273,0.663,4.653,1.321
		c1.38,0.661,2.225,1.612,2.538,2.843L329.321,185.6z M309.146,196.307c-0.118-0.475-0.377-0.789-0.769-0.943
		c-0.393-0.15-0.827-0.169-1.301-0.048c-2.562,0.647-5.256,2.085-8.075,4.315c-2.824,2.226-5.575,4.919-8.264,8.073
		c-2.688,3.154-5.214,6.647-7.58,10.478c-2.365,3.831-4.356,7.641-5.972,11.435s-2.768,7.441-3.445,10.948
		c-0.682,3.504-0.695,6.537-0.048,9.103c0.24,0.95,0.604,1.892,1.096,2.827c0.488,0.938,1.102,1.77,1.841,2.489
		c0.735,0.724,1.55,1.25,2.443,1.581c0.894,0.331,1.909,0.352,3.047,0.064c1.708-0.435,3.451-1.73,5.229-3.897
		c1.773-2.166,3.506-4.801,5.196-7.906c1.689-3.103,3.285-6.489,4.785-10.15c1.499-3.661,2.888-7.246,4.176-10.754
		c1.283-3.506,2.381-6.761,3.286-9.77c0.906-3.008,1.607-5.332,2.101-6.971c0.166-0.548,0.396-1.337,0.688-2.372
		c0.292-1.034,0.576-2.115,0.845-3.246c0.271-1.127,0.482-2.189,0.635-3.189C309.214,197.377,309.244,196.688,309.146,196.307z"/>
	<path d="M421.516,177.066c-0.597,3.637-1.515,7.406-2.748,11.303c-1.238,3.9-2.689,7.852-4.352,11.857
		c-1.664,4.008-3.218,7.859-4.655,11.556c-1.439,3.699-2.56,7.163-3.356,10.395c-0.8,3.235-1.041,6.076-0.727,8.518
		c0.475,0.286,0.804,0.581,0.984,0.891c0.178,0.309,0.363,0.538,0.553,0.692c0.191,0.154,0.518,0.247,0.98,0.281
		c0.463,0.036,1.17-0.067,2.119-0.307c0.856-0.215,1.714-0.714,2.579-1.486s1.76-1.631,2.685-2.572
		c0.92-0.94,1.863-1.914,2.822-2.912c0.96-1,1.924-1.775,2.898-2.325c0.498-0.021,0.963,0.012,1.391,0.104
		c0.427,0.097,0.909,0.202,1.441,0.318c0.534,0.116,1.054,0.365,1.555,0.745c-0.165,1.354-0.712,3.085-1.643,5.188
		c-0.935,2.105-2.08,4.366-3.438,6.778c-1.361,2.416-2.946,4.839-4.756,7.263c-1.812,2.427-3.664,4.693-5.558,6.786
		c-1.896,2.096-3.84,3.898-5.831,5.411c-1.992,1.515-3.937,2.511-5.834,2.99c-2.376,0.601-4.489,0.429-6.344-0.515
		c-1.855-0.946-3.438-2.212-4.747-3.8c-1.312-1.589-2.368-3.266-3.167-5.035c-0.803-1.765-1.323-3.124-1.562-4.074
		c-0.479-1.898-0.481-4.499-0.004-7.805c0.479-3.303,1.233-6.9,2.271-10.8c1.033-3.898,2.25-7.966,3.652-12.213
		c1.401-4.242,2.818-8.237,4.244-11.983c1.427-3.743,2.724-7.102,3.892-10.074c1.168-2.971,2.025-5.184,2.567-6.635l-1.188-4.095
		c-0.952-0.565-1.732-1.053-2.337-1.452c-0.609-0.403-1.862-0.363-3.757,0.115c-2.944,0.744-5.804,2.525-8.575,5.35
		c-2.772,2.821-5.403,6.291-7.901,10.405c-2.494,4.116-4.842,8.704-7.051,13.755c-2.207,5.054-4.228,10.16-6.051,15.319
		c-1.83,5.158-3.484,10.2-4.968,15.12c-1.483,4.922-2.725,9.304-3.723,13.138c-1,3.841-1.776,6.967-2.327,9.379
		c-0.555,2.411-0.805,3.713-0.757,3.901c-0.474,0.525-1.147,1.153-2.025,1.876c-0.877,0.727-1.862,1.432-2.951,2.111
		c-1.092,0.679-2.226,1.296-3.396,1.844c-1.176,0.547-2.238,0.945-3.187,1.185c-1.803,0.453-3.688,0.401-5.646-0.165
		c-1.962-0.563-3.953-1.447-5.976-2.654c1.74-6.298,3.972-13.051,6.698-20.256c2.724-7.204,5.287-14.445,7.69-21.719
		c-0.479-0.282-0.75-0.568-0.822-0.854c-0.071-0.285-0.186-0.531-0.339-0.745c-0.157-0.212-0.388-0.331-0.696-0.355
		c-0.309-0.022-0.939,0.087-1.888,0.326c-0.855,0.215-1.763,0.723-2.721,1.521c-0.963,0.798-1.927,1.676-2.897,2.627
		c-0.972,0.954-1.988,1.94-3.038,2.966c-1.053,1.023-2.092,1.918-3.112,2.679c-0.521-0.068-1.008-0.198-1.461-0.387
		c-0.426-0.094-0.914-0.224-1.461-0.389c-0.547-0.166-1.069-0.436-1.57-0.815c2.226-3.187,4.78-6.562,7.667-10.121
		c2.892-3.557,5.878-7.217,8.97-10.979c3.088-3.761,6.093-7.551,9.019-11.371c2.921-3.822,5.52-7.633,7.79-11.443
		c1.632-2.732,2.685-6.057,3.163-9.965c0.474-3.91,0.792-7.551,0.948-10.924c1.492-2.094,3.411-3.893,5.76-5.395
		c2.349-1.504,4.47-2.492,6.37-2.973c2.849-0.722,4.99-0.934,6.429-0.643c1.438,0.293,2.467,0.869,3.086,1.721
		c0.62,0.854,0.967,1.826,1.042,2.918c0.073,1.094,0.231,2.115,0.471,3.062c0.24,0.95,0.673,1.674,1.306,2.172
		c0.631,0.496,1.802,0.527,3.51,0.096c0.947-0.239,2.342-1.123,4.179-2.647c1.835-1.526,3.798-3.157,5.885-4.897
		c2.085-1.739,4.048-3.371,5.884-4.895c1.835-1.527,3.228-2.409,4.181-2.65c2.562-0.648,4.681-0.654,6.357-0.016
		c1.678,0.638,2.998,1.566,3.964,2.786c0.965,1.222,1.688,2.579,2.166,4.073c0.479,1.495,0.85,2.766,1.114,3.809l0.036,0.145
		C422.038,170.143,422.109,173.433,421.516,177.066z"/>
	<path d="M468.878,214.623l2.138,1.277c0.991-0.854,2.029-2.024,3.105-3.509c1.079-1.48,2.041-3.177,2.891-5.087l4.097-1.037
		l0.864,4.14c-1.104,2.82-2.515,5.625-4.224,8.419c-1.718,2.794-3.554,5.349-5.511,7.656c-1.958,2.312-3.943,4.266-5.959,5.865
		c-2.02,1.597-3.821,2.599-5.411,3.002c-2.165,0.547-3.736,0.672-4.719,0.377c-0.982-0.3-1.652-0.795-2.008-1.493
		c-0.361-0.694-0.534-1.498-0.521-2.408c0.01-0.909-0.083-1.764-0.283-2.562l-0.776-3.07c-0.428-0.254-0.657-0.438-0.687-0.553
		l-0.044-0.17l-0.34,0.085c-0.229,0.06-0.683,0.174-1.364,0.345c-1.024,0.261-1.996,1.08-2.918,2.461
		c-0.92,1.387-1.935,2.885-3.039,4.49c-1.108,1.614-2.376,3.175-3.808,4.687c-1.433,1.515-3.176,2.527-5.22,3.045
		c-1.823,0.458-3.475,0.396-4.954-0.203c-1.482-0.591-2.766-1.48-3.85-2.654c-1.083-1.177-1.966-2.5-2.636-3.964
		c-0.671-1.465-1.152-2.762-1.439-3.902c-0.746-2.955-0.787-6.579-0.115-10.864c0.671-4.282,1.85-8.846,3.528-13.688
		c1.681-4.845,3.75-9.691,6.214-14.554c2.462-4.857,5.11-9.336,7.947-13.446c2.836-4.103,5.771-7.567,8.807-10.397
		c3.037-2.821,5.926-4.581,8.652-5.27c0.343-0.087,0.873-0.25,1.601-0.496c0.725-0.244,1.6-0.496,2.622-0.756
		c1.024-0.258,2.088-0.464,3.199-0.626c1.11-0.157,2.16-0.185,3.159-0.071c0.969,0,1.548-0.574,1.746-1.714
		c2.621-9.253,5.559-18.586,8.804-28.004c3.248-9.414,6.026-18.406,8.335-26.978c0.51-1.82,1.851-3.461,4.023-4.919
		c2.175-1.458,4.052-2.388,5.647-2.79c1.25-0.317,2.412-0.519,3.478-0.607c1.065-0.087,2.241,0.01,3.523,0.291l1.249,4.946
		L468.878,214.623z M466.16,171.562c0.198-0.651,0.253-1.153,0.167-1.496c-0.113-0.45-0.631-0.564-1.539-0.335
		c-2.815,0.833-5.431,1.857-7.845,3.072c-2.414,1.219-3.879,2.012-4.39,2.379c-2.445,1.83-4.68,4.241-6.704,7.234
		c-2.028,2.992-3.758,6.213-5.184,9.66c-1.428,3.447-2.375,6.895-2.832,10.337c-0.46,3.446-0.358,6.476,0.303,9.091
		c0.519,2.048,1.129,3.74,1.827,5.074c0.7,1.34,2.357,1.674,4.976,1.012c2.047-0.517,4.132-2.554,6.259-6.12
		c2.122-3.562,4.126-7.731,6.005-12.5c1.883-4.771,3.604-9.687,5.169-14.741C463.938,179.174,465.202,174.953,466.16,171.562z"/>
	<path d="M549.06,127.073c1.153,4.557,0.625,9.062-1.583,13.507c-2.211,4.448-5.506,8.793-9.889,13.032
		c-4.386,4.24-9.562,8.327-15.539,12.26c-5.975,3.938-12.152,7.673-18.533,11.203c-0.206,2.778,0.027,5.498,0.699,8.157
		c2.473,9.781,8.124,13.552,16.955,11.319c0.854-0.217,2.006-0.757,3.451-1.63c1.446-0.868,3.04-1.954,4.784-3.255
		c1.74-1.295,3.576-2.721,5.511-4.272c1.93-1.548,3.809-3.108,5.635-4.682l1.621,6.409l0.179,0.106
		c0.168,0.665-0.165,1.86-0.988,3.582c-0.831,1.726-1.911,3.643-3.246,5.746c-1.337,2.106-2.774,4.214-4.312,6.317
		c-1.536,2.108-2.923,3.923-4.154,5.445c-0.853,1.026-2.091,2.121-3.713,3.287c-1.626,1.169-3.345,2.261-5.158,3.276
		c-1.815,1.01-3.56,1.906-5.229,2.685c-1.675,0.776-2.937,1.271-3.791,1.488c-3.895,0.986-7.215,1.042-9.96,0.169
		c-2.746-0.868-5.034-2.237-6.87-4.096c-1.833-1.861-3.282-3.994-4.346-6.404c-1.062-2.405-1.857-4.655-2.388-6.743
		c-0.934-3.704-1.22-8.125-0.853-13.27c0.365-5.145,1.344-10.568,2.932-16.273c1.589-5.705,3.721-11.447,6.403-17.226
		c2.679-5.778,5.848-11.125,9.506-16.042c3.656-4.914,7.754-9.181,12.293-12.805c4.538-3.622,9.466-6.106,14.785-7.452
		c1.611-0.407,3.292-0.551,5.04-0.441c1.744,0.117,3.368,0.436,4.865,0.967s2.769,1.271,3.818,2.217
		C548.031,124.606,548.724,125.742,549.06,127.073z M530.703,137.773c-0.622-2.468-1.594-3.914-2.914-4.338
		c-1.32-0.424-2.846-0.062-4.576,1.082c-1.731,1.145-3.506,2.909-5.329,5.287c-1.823,2.381-3.604,5.13-5.34,8.245
		c-1.739,3.117-3.282,6.412-4.624,9.883c-1.346,3.471-2.357,6.857-3.037,10.161c2.845-1.932,5.945-3.952,9.303-6.065
		c3.353-2.108,6.404-4.422,9.154-6.938c2.746-2.512,4.871-5.193,6.372-8.05C531.213,144.188,531.545,141.098,530.703,137.773z"/>
</g>
</svg>
