<?xml version="1.0" encoding="utf-8"?>
<!-- Generator: Adobe Illustrator 15.0.0, SVG Export Plug-In . SVG Version: 6.00 Build 0)  -->
<!DOCTYPE svg PUBLIC "-//W3C//DTD SVG 1.1//EN" "http://www.w3.org/Graphics/SVG/1.1/DTD/svg11.dtd">
<svg version="1.1" id="Calque_1" xmlns="http://www.w3.org/2000/svg" xmlns:xlink="http://www.w3.org/1999/xlink" x="0px" y="0px"
	 width="600px" height="442px" viewBox="0 0 600 442" enable-background="new 0 0 600 442" xml:space="preserve">
<g>
	<path fill="#45FF7A" d="M142.378,196.579c0.009,0.034,0.015,0.068,0.023,0.103c0.001,0.005,0.004,0.009,0.005,0.013
		L142.378,196.579z"/>
	<path fill="#45FF7A" d="M141.825,245.292l-5.875-0.28c-0.277,0.575-0.588,1.264-0.93,2.064c-0.346,0.804-0.728,1.616-1.15,2.437
		c-0.423,0.822-0.916,1.535-1.479,2.14c-0.562,0.606-1.198,0.994-1.912,1.177c-0.633,0.161-1.052,0.247-1.26,0.255
		c-0.206,0.012-0.379-0.008-0.517-0.057c-0.139-0.048-0.304-0.114-0.492-0.192c-0.188-0.076-0.538-0.136-1.052-0.175
		c0.008-3.283,0.506-6.478,1.487-9.586c0.979-3.107,2.178-6.187,3.593-9.236c1.417-3.05,2.896-6.095,4.442-9.135
		c1.543-3.04,2.875-6.091,3.996-9.148c1.119-3.058,1.892-6.155,2.32-9.291c0.422-3.104,0.222-6.298-0.595-9.582
		c-0.263-1.018-0.964-1.805-2.108-2.353c-1.149-0.55-2.439-0.919-3.875-1.102c-1.434-0.185-2.856-0.246-4.271-0.183
		c-1.415,0.062-2.516,0.195-3.307,0.395c-0.474,0.119-1.181,0.405-2.119,0.85c-0.937,0.449-1.942,0.977-3.005,1.582
		c-1.068,0.605-2.077,1.2-3.022,1.772c-0.949,0.577-1.679,1.013-2.193,1.312c-4.719,2.959-9.141,6.431-13.264,10.419
		c-4.122,3.986-7.83,8.286-11.121,12.904c-3.291,4.616-6.129,9.522-8.517,14.707c-2.393,5.191-4.203,10.507-5.433,15.946
		c-0.554,2.52-0.969,5.199-1.256,8.029c-0.179-0.061-0.349-0.091-0.5-0.053l-4.213,1.254c-2.186,1.812-4.429,3.764-6.731,5.854
		c-2.302,2.095-4.226,3.338-5.762,3.723c-0.236,0.062-0.776,0.17-1.618,0.316c-0.844,0.152-1.754,0.159-2.731,0.028
		c-0.976-0.131-1.881-0.467-2.709-1.012c-0.828-0.542-1.424-1.525-1.784-2.947c-0.208-0.826,0.124-3.114,1.003-6.859
		c0.876-3.744,2.1-8.366,3.669-13.86c1.566-5.49,3.372-11.549,5.411-18.168c2.037-6.615,4.13-13.154,6.273-19.614
		c0.383-0.975,0.985-1.569,1.815-1.778c4.253-1.577,8.215-4.088,11.874-7.532c3.663-3.441,6.957-7.329,9.889-11.657
		c2.933-4.33,5.49-8.905,7.665-13.731c2.178-4.829,3.934-9.459,5.269-13.886c1.334-4.428,2.24-8.431,2.719-12.014
		c0.476-3.582,0.465-6.377-0.046-8.391c-0.359-1.419-1.131-2.479-2.315-3.19c-1.189-0.706-2.487-0.882-3.908-0.523
		c-3.904,0.987-7.932,3.612-12.075,7.869c-4.146,4.256-8.209,9.595-12.186,16.01c-3.976,6.421-7.864,13.57-11.66,21.447
		c-3.795,7.883-7.342,16.014-10.632,24.397c-3.293,8.381-6.294,16.66-9.009,24.835c-2.717,8.175-4.967,15.696-6.754,22.565
		c-1.784,6.871-3.086,12.802-3.904,17.784c-0.814,4.994-0.969,8.493-0.46,10.501c0.388,1.54,1.193,3.097,2.41,4.678
		c1.222,1.58,2.664,2.944,4.338,4.093c1.679,1.15,3.549,1.963,5.622,2.448c2.074,0.481,4.113,0.468,6.124-0.037
		c0.473-0.121,1.484-0.724,3.037-1.805c1.55-1.087,3.402-2.468,5.56-4.143c2.151-1.68,4.382-3.563,6.685-5.656
		c2.303-2.092,4.346-4.213,6.131-6.363c1.64-1.977,2.952-3.927,3.969-5.851c0.035,0.147,0.055,0.3,0.092,0.447
		c0.359,1.425,1.019,2.857,1.97,4.299c0.953,1.444,2.079,2.734,3.377,3.874c1.298,1.146,2.716,2.011,4.251,2.589
		c1.534,0.577,3.092,0.668,4.671,0.27c1.737-0.439,3.298-1.426,4.681-2.95c1.379-1.527,2.625-3.167,3.739-4.922
		c1.113-1.751,2.082-3.32,2.911-4.709c0.825-1.385,1.515-2.149,2.068-2.29c0.87-0.22,1.677-0.276,2.418-0.17
		c0.743,0.109,1.253,0.715,1.534,1.822c0.18,0.71,0.279,1.442,0.301,2.193c0.021,0.754,0.123,1.481,0.304,2.193
		c0.239,0.951,0.642,1.627,1.208,2.029c0.562,0.405,1.196,0.666,1.898,0.782c0.702,0.118,1.458,0.114,2.271-0.007
		c0.808-0.121,1.57-0.271,2.282-0.448c2.451-0.621,4.884-2.057,7.302-4.31c2.416-2.249,4.658-4.856,6.728-7.818
		c2.069-2.963,3.867-6.005,5.392-9.124C140.3,250.329,141.316,247.608,141.825,245.292z M73.884,195.231
		c1.82-5.746,3.471-10.787,4.953-15.127c1.479-4.339,2.591-7.544,3.325-9.617c0.939-2.753,2.273-5.576,3.995-8.467
		c1.725-2.891,3.589-5.088,5.599-6.607c0.739,0.445,1.532,0.715,2.377,0.817c0.844,0.102,1.459,0.92,1.849,2.455
		c0.509,2.015,0.24,4.694-0.801,8.039c-1.042,3.346-2.588,6.82-4.634,10.419c-2.047,3.604-4.457,7.14-7.229,10.607
		c-2.774,3.471-5.637,6.332-8.588,8.588c-0.503,0.505-0.784,0.639-0.843,0.401C73.799,196.386,73.795,195.887,73.884,195.231z
		 M125.51,207.215c-0.128,0.832-0.303,1.717-0.527,2.655c-0.227,0.938-0.462,1.842-0.705,2.701
		c-0.244,0.862-0.437,1.522-0.572,1.975c-0.413,1.365-0.998,3.3-1.75,5.807c-0.758,2.503-1.669,5.215-2.739,8.134
		c-1.072,2.923-2.228,5.905-3.476,8.955s-2.578,5.867-3.983,8.45c-1.408,2.587-2.852,4.782-4.331,6.584
		c-1.477,1.806-2.928,2.886-4.349,3.245c-0.949,0.239-1.795,0.222-2.538-0.051c-0.744-0.273-1.423-0.715-2.037-1.318
		c-0.616-0.6-1.128-1.29-1.533-2.07c-0.408-0.78-0.712-1.565-0.91-2.355c-0.541-2.136-0.531-4.661,0.038-7.581
		c0.565-2.92,1.521-5.958,2.868-9.116c1.347-3.159,3.005-6.33,4.975-9.522c1.969-3.187,4.073-6.097,6.311-8.724
		c2.237-2.625,4.529-4.869,6.879-6.723c2.348-1.854,4.59-3.051,6.726-3.59c0.394-0.103,0.755-0.087,1.082,0.038
		c0.326,0.128,0.542,0.391,0.642,0.786C125.658,205.811,125.634,206.384,125.51,207.215z"/>
	<path fill="#45FF7A" d="M255.538,202.229c2.458-6.061,4.245-12.13,5.368-18.217c1.119-6.082,1.12-11.341,0.001-15.773
		c-1.724-6.813-4.966-11.856-9.72-15.126c-4.753-3.27-10.708-4.001-17.866-2.19c-1.364,0.344-2.845,0.93-4.449,1.758
		c-1.604,0.832-3.206,1.78-4.81,2.848c-1.605,1.072-3.121,2.123-4.553,3.146c-1.434,1.03-2.701,1.983-3.808,2.868
		c-2.526,1.971-5.531,4.542-9.016,7.717c-3.49,3.18-7.075,6.687-10.76,10.515c-3.682,3.834-7.245,7.907-10.688,12.222
		c-3.44,4.315-6.399,8.629-8.875,12.938c-2.473,4.315-4.296,8.584-5.462,12.805c-1.168,4.226-1.294,8.153-0.375,11.788
		c0.605,2.386,1.746,4.03,3.425,4.935c1.679,0.906,3.711,1.055,6.096,0.452c1.25-0.314,2.405-1.359,3.467-3.142
		c1.059-1.776,1.971-3.789,2.732-6.039c0.762-2.245,1.436-4.47,2.028-6.677c0.592-2.203,1.039-3.889,1.352-5.056
		c0.591-1.961,1.237-3.938,1.946-5.93c0.703-1.99,1.477-3.938,2.328-5.847c1.553-3.897,3.496-7.559,5.832-10.991
		c2.334-3.429,5.104-6.457,8.311-9.081c0.282-0.313,0.785-0.711,1.51-1.197c0.719-0.481,1.468-1.006,2.232-1.562
		c0.768-0.558,1.518-1.046,2.256-1.477c0.738-0.428,1.275-0.686,1.618-0.771c0.681-0.174,1.164-0.174,1.451-0.005
		c0.086,0.342,0.008,0.757-0.231,1.237c-0.242,0.486-0.446,0.867-0.617,1.151c-3.675,6.975-6.989,14.068-9.939,21.278
		c-2.953,7.214-5.793,14.489-8.531,21.828c-1.213,3.33-2.42,6.687-3.619,10.069c-1.199,3.385-2.533,6.716-4.001,9.985
		c-0.846,1.907-1.567,3.963-2.157,6.165c-0.593,2.206-1.228,4.36-1.901,6.465c-0.538,1.707-1.306,4.046-2.306,7.017
		c-1,2.975-2.184,6.174-3.554,9.601c-1.37,3.431-2.847,6.915-4.426,10.456c-1.581,3.545-3.265,6.809-5.047,9.798
		c-1.783,2.99-3.624,5.509-5.522,7.559c-1.898,2.054-3.813,3.322-5.745,3.811c-0.68,0.173-1.556,0.183-2.622,0.027
		c-1.067-0.155-2.139-0.454-3.221-0.909c-1.082-0.451-2.036-0.991-2.86-1.633c-0.827-0.635-1.338-1.352-1.541-2.147
		c-0.314-1.249-0.271-2.619,0.139-4.113c0.405-1.492,1.036-2.952,1.885-4.376c0.849-1.421,1.861-2.677,3.038-3.761
		c1.177-1.081,2.331-1.767,3.469-2.054c1.247-0.314,2.454-0.439,3.62-0.372c1.167,0.07,2.373-0.058,3.625-0.375
		c0.792-0.198,1.588-0.639,2.383-1.324c0.794-0.685,1.501-1.468,2.125-2.351c0.622-0.885,1.074-1.843,1.358-2.881
		c0.28-1.037,0.307-2.008,0.076-2.921c-0.286-1.135-0.672-1.942-1.158-2.429c-0.484-0.479-0.971-1.2-1.453-2.168l-10.396,2.627
		c-2.841,0.72-5.577,2.803-8.209,6.246c-2.636,3.449-4.906,7.378-6.811,11.786c-1.905,4.409-3.294,8.84-4.165,13.289
		c-0.868,4.453-0.971,7.983-0.31,10.593c1.291,5.114,3.781,8.984,7.468,11.619c3.689,2.634,8.198,3.273,13.54,1.924
		c5.451-1.379,9.732-3.816,12.831-7.322c3.104-3.504,5.799-7.661,8.089-12.471c0.946,2.298,2.369,4.115,4.278,5.444
		c1.907,1.332,4.021,2.277,6.337,2.84c2.319,0.566,4.705,0.804,7.163,0.727c2.457-0.079,4.71-0.373,6.757-0.891
		c3.859-0.977,7.617-2.86,11.26-5.658c3.644-2.793,7.071-6.198,10.287-10.215c3.215-4.015,6.123-8.403,8.725-13.174
		c2.604-4.765,4.699-9.619,6.292-14.553c1.59-4.936,2.645-9.732,3.161-14.395c0.511-4.664,0.296-8.87-0.652-12.619
		c-1.236-4.881-3.522-9.381-6.857-13.494c3.203-3.103,6.453-7.341,9.749-12.708C250.206,214.001,253.083,208.289,255.538,202.229z
		 M230.537,258.226c-0.501,3.271-1.497,6.392-2.98,9.363c-1.483,2.979-3.396,5.57-5.734,7.797c-2.337,2.222-4.987,3.704-7.938,4.453
		c-0.682,0.171-2.116,0.354-4.305,0.543c-2.187,0.193-4.467,0.378-6.838,0.552c-2.375,0.178-4.499,0.264-6.373,0.253
		c-1.877-0.009-2.899-0.111-3.07-0.313c-0.057-0.225,0.282-1.278,1.016-3.155c0.73-1.88,1.65-4.226,2.75-7.043
		c1.101-2.816,2.33-5.847,3.685-9.087c1.356-3.248,2.633-6.315,3.834-9.22c1.198-2.902,2.271-5.469,3.217-7.701
		c0.949-2.237,1.575-3.692,1.886-4.376c0.31-0.679,0.645-1.4,0.998-2.156c0.352-0.752,0.926-1.23,1.721-1.433
		c0.793-0.201,2.125,0.16,3.987,1.076c1.866,0.919,3.787,2.063,5.766,3.438c1.979,1.374,3.758,2.798,5.339,4.271
		c1.581,1.477,2.488,2.667,2.716,3.573C230.933,251.9,231.04,254.957,230.537,258.226z M244.283,193.2
		c-1.285,3.771-3.043,7.541-5.276,11.306c-2.23,3.768-4.643,7.31-7.228,10.621c-2.589,3.312-4.822,6.235-6.703,8.764
		c-0.284-0.167-0.829-0.305-1.633-0.401c-0.808-0.095-1.648-0.22-2.524-0.36c-0.876-0.141-2.007-0.337-3.392-0.592
		c-0.056-0.227,0.081-0.622,0.418-1.194c3.448-7.275,6.262-14.784,8.45-22.531c2.187-7.74,4.48-15.423,6.878-23.042
		c0.139-0.396,0.303-0.827,0.482-1.299c0.181-0.469,0.554-0.774,1.12-0.918c1.135-0.285,2.258-0.147,3.369,0.415
		c1.109,0.569,2.121,1.342,3.035,2.318c0.908,0.98,1.695,2.049,2.35,3.212c0.66,1.166,1.101,2.202,1.33,3.107
		C245.791,185.901,245.564,189.433,244.283,193.2z"/>
	<path fill="#45FF7A" d="M323.195,246.926c-0.361,0.749-0.762,1.649-1.211,2.693c-0.453,1.048-0.95,2.106-1.503,3.183
		c-0.553,1.071-1.198,2.003-1.93,2.79c-0.734,0.788-1.563,1.302-2.491,1.535c-0.83,0.209-1.376,0.322-1.646,0.332
		c-0.272,0.019-0.497-0.01-0.678-0.073c-0.182-0.062-0.394-0.149-0.64-0.251c-0.247-0.103-0.704-0.177-1.372-0.228
		c0.01-4.286,0.659-8.455,1.939-12.513c1.282-4.055,2.844-8.071,4.689-12.051c1.849-3.98,3.779-7.955,5.796-11.925
		c2.018-3.967,3.756-7.948,5.217-11.938c1.459-3.992,2.467-8.032,3.026-12.126c0.549-4.051,0.291-8.221-0.777-12.507
		c-0.344-1.327-1.258-2.355-2.75-3.069c-1.499-0.716-3.184-1.196-5.057-1.437c-1.873-0.242-3.73-0.32-5.575-0.237
		c-1.848,0.083-3.287,0.255-4.316,0.514c-0.617,0.157-1.541,0.53-2.764,1.11c-1.228,0.585-2.535,1.273-3.926,2.062
		c-1.393,0.794-2.707,1.566-3.943,2.313c-1.237,0.755-2.192,1.324-2.861,1.712c-6.161,3.864-11.933,8.396-17.309,13.6
		c-5.38,5.203-10.221,10.814-14.514,16.842c-4.296,6.025-8,12.426-11.121,19.195c-3.119,6.772-5.483,13.708-7.087,20.811
		c-0.765,3.486-1.335,7.2-1.712,11.136c-0.377,3.939-0.108,7.715,0.803,11.323c0.469,1.857,1.329,3.729,2.571,5.607
		c1.247,1.883,2.714,3.572,4.407,5.061c1.695,1.492,3.545,2.62,5.548,3.373c1.999,0.757,4.033,0.875,6.098,0.354
		c2.268-0.574,4.306-1.86,6.106-3.85c1.803-1.993,3.428-4.135,4.88-6.425c1.453-2.284,2.717-4.331,3.798-6.144
		c1.078-1.809,1.981-2.808,2.703-2.988c1.135-0.291,2.186-0.364,3.155-0.222c0.969,0.142,1.635,0.93,2.001,2.375
		c0.235,0.928,0.364,1.884,0.394,2.865c0.028,0.979,0.16,1.934,0.396,2.862c0.312,1.238,0.837,2.121,1.574,2.648
		c0.737,0.529,1.563,0.868,2.48,1.02c0.917,0.153,1.906,0.151,2.962-0.008c1.056-0.155,2.053-0.352,2.979-0.587
		c3.201-0.808,6.375-2.684,9.531-5.621c3.151-2.938,6.079-6.34,8.781-10.207c2.701-3.864,5.042-7.835,7.036-11.906
		c1.988-4.067,3.313-7.614,3.978-10.641L323.195,246.926z M309.569,197.596c-0.165,1.087-0.395,2.241-0.689,3.466
		c-0.292,1.229-0.601,2.403-0.918,3.527c-0.317,1.125-0.567,1.982-0.748,2.578c-0.536,1.78-1.298,4.307-2.283,7.575
		c-0.983,3.27-2.176,6.807-3.57,10.616c-1.401,3.812-2.91,7.708-4.539,11.687c-1.63,3.979-3.364,7.659-5.2,11.031
		c-1.836,3.374-3.72,6.237-5.646,8.592c-1.933,2.354-3.826,3.763-5.683,4.235c-1.237,0.312-2.34,0.289-3.312-0.07
		c-0.97-0.359-1.856-0.932-2.655-1.718c-0.803-0.782-1.47-1.686-2-2.705c-0.534-1.018-0.93-2.04-1.19-3.073
		c-0.704-2.787-0.689-6.084,0.052-9.892c0.736-3.811,1.988-7.774,3.744-11.897s3.92-8.263,6.49-12.426
		c2.571-4.162,5.316-7.959,8.237-11.387c2.922-3.428,5.912-6.354,8.98-8.773c3.063-2.424,5.992-3.985,8.775-4.689
		c0.515-0.132,0.987-0.111,1.414,0.052c0.425,0.168,0.706,0.51,0.835,1.025C309.768,195.765,309.734,196.513,309.569,197.596z"/>
	<path fill="#45FF7A" d="M331.585,183.715c0.011,0.044,0.02,0.088,0.03,0.133c0.002,0.007,0.006,0.013,0.008,0.02L331.585,183.715z"
		/>
	<path fill="#45FF7A" d="M492.083,207.302c-0.924,2.075-1.969,3.919-3.142,5.528c-1.169,1.612-2.298,2.884-3.375,3.812l-2.322-1.388
		l38.91-124.654l-1.357-5.375c-1.394-0.305-2.671-0.411-3.829-0.316c-1.157,0.097-2.421,0.316-3.779,0.66
		c-1.733,0.438-3.773,1.448-6.137,3.032c-2.361,1.584-3.818,3.368-4.372,5.346c-2.509,9.314-5.528,19.086-9.059,29.317
		c-3.526,10.234-6.718,20.377-9.566,30.433c-0.216,1.238-0.845,1.862-1.897,1.862c-1.086-0.123-2.227-0.094-3.434,0.077
		c-1.208,0.177-2.363,0.4-3.477,0.681c-1.111,0.282-2.062,0.556-2.85,0.821c-0.79,0.268-1.366,0.444-1.739,0.539
		c-2.963,0.748-6.102,2.66-9.402,5.727c-3.3,3.075-6.488,6.841-9.57,11.299c-3.083,4.467-5.961,9.334-8.637,14.612
		c-2.678,5.284-4.926,10.551-6.753,15.816c-1.824,5.261-3.104,10.221-3.834,14.874c-0.237,1.516-0.385,2.947-0.459,4.311
		c-0.153-0.004-0.304-0.013-0.464-0.006c-1.06,0.597-2.106,1.439-3.15,2.526c-1.042,1.085-2.067,2.143-3.066,3.165
		c-1.005,1.022-1.978,1.956-2.918,2.795c-0.94,0.84-1.872,1.382-2.803,1.615c-1.031,0.26-1.8,0.373-2.303,0.333
		c-0.503-0.037-0.857-0.138-1.065-0.306c-0.206-0.167-0.407-0.417-0.601-0.752c-0.196-0.337-0.554-0.657-1.069-0.968
		c-0.342-2.653-0.08-5.74,0.789-9.257c0.866-3.512,2.083-7.275,3.647-11.296c1.562-4.017,3.251-8.202,5.059-12.558
		c1.807-4.353,3.384-8.646,4.729-12.886c1.34-4.234,2.338-8.33,2.986-12.282c0.646-3.949,0.567-7.524-0.242-10.723l-0.039-0.157
		c-0.288-1.134-0.691-2.515-1.211-4.139c-0.521-1.624-1.306-3.1-2.354-4.427c-1.05-1.325-2.484-2.335-4.308-3.027
		c-1.822-0.694-4.124-0.688-6.909,0.017c-1.035,0.262-2.549,1.221-4.543,2.88c-1.995,1.656-4.128,3.429-6.395,5.319
		c-2.268,1.891-4.4,3.663-6.395,5.322c-1.996,1.656-3.512,2.617-4.541,2.877c-1.856,0.469-3.129,0.435-3.814-0.104
		c-0.688-0.541-1.157-1.327-1.419-2.36c-0.26-1.029-0.432-2.139-0.512-3.327c-0.081-1.187-0.458-2.244-1.132-3.172
		c-0.673-0.925-1.791-1.551-3.354-1.869c-1.563-0.316-3.891-0.086-6.986,0.698c-2.065,0.521-4.37,1.596-6.923,3.23
		c-2.552,1.632-4.637,3.587-6.259,5.862c-0.17,3.665-0.516,7.621-1.03,11.871c-0.521,4.247-1.664,7.859-3.438,10.829
		c-2.468,4.141-5.291,8.281-8.466,12.436c-3.18,4.151-6.444,8.27-9.801,12.356c-3.359,4.088-6.604,8.065-9.747,11.931
		c-3.137,3.867-5.913,7.536-8.332,10.999c0.545,0.413,1.112,0.706,1.707,0.886c0.594,0.18,1.124,0.321,1.587,0.423
		c0.493,0.205,1.021,0.346,1.588,0.42c1.109-0.826,2.238-1.799,3.382-2.911c1.142-1.114,2.246-2.186,3.302-3.223
		c1.055-1.033,2.103-1.987,3.148-2.854c1.041-0.867,2.027-1.419,2.957-1.652c1.03-0.261,1.716-0.379,2.052-0.354
		c0.335,0.026,0.586,0.155,0.756,0.386c0.167,0.232,0.291,0.5,0.369,0.81c0.078,0.311,0.373,0.621,0.894,0.928
		c-2.612,7.904-5.397,15.773-8.357,23.603c-2.963,7.83-5.389,15.168-7.279,22.012c2.197,1.312,4.361,2.272,6.493,2.885
		c2.129,0.615,4.178,0.672,6.137,0.18c1.03-0.26,2.185-0.693,3.463-1.287c1.272-0.596,2.504-1.267,3.69-2.004
		c1.184-0.738,2.255-1.505,3.208-2.295c0.953-0.785,1.686-1.467,2.2-2.038c-0.052-0.205,0.22-1.62,0.823-4.24
		c0.598-2.621,1.441-6.018,2.528-10.191c1.085-4.167,2.434-8.929,4.046-14.277c1.611-5.347,3.409-10.826,5.398-16.432
		c1.981-5.606,4.177-11.155,6.575-16.647c2.4-5.488,4.952-10.475,7.662-14.947c2.715-4.472,5.574-8.242,8.587-11.308
		c3.012-3.069,6.119-5.005,9.318-5.813c2.06-0.521,3.421-0.563,4.083-0.125c0.657,0.434,1.505,0.963,2.539,1.577l1.291,4.45
		c-0.589,1.577-1.521,3.981-2.79,7.21c-1.27,3.23-2.679,6.88-4.229,10.948c-1.549,4.07-3.089,8.412-4.612,13.022
		c-1.523,4.615-2.846,9.035-3.969,13.271c-1.128,4.238-1.948,8.147-2.469,11.736c-0.519,3.593-0.517,6.419,0.005,8.481
		c0.259,1.033,0.824,2.51,1.696,4.428c0.868,1.923,2.017,3.745,3.442,5.472c1.423,1.726,3.142,3.102,5.158,4.13
		c2.016,1.024,4.312,1.212,6.894,0.559c2.062-0.521,4.176-1.604,6.34-3.249c2.164-1.645,4.277-3.604,6.337-5.881
		c2.058-2.274,4.071-4.737,6.04-7.374c1.966-2.635,3.688-5.268,5.168-7.893c0.915-1.626,1.73-3.181,2.469-4.679
		c0.253,0.677,0.551,1.391,0.897,2.149c0.729,1.591,1.688,3.029,2.864,4.308c1.178,1.275,2.572,2.242,4.184,2.885
		c1.607,0.651,3.402,0.719,5.384,0.221c2.221-0.562,4.115-1.663,5.672-3.31c1.557-1.643,2.934-3.338,4.139-5.093
		c1.2-1.744,2.303-3.372,3.302-4.879c1.002-1.501,2.059-2.392,3.172-2.675c0.74-0.186,1.232-0.31,1.482-0.375l0.369-0.092
		l0.048,0.185c0.031,0.124,0.281,0.325,0.746,0.601l0.844,3.337c0.217,0.867,0.318,1.795,0.308,2.783
		c-0.015,0.989,0.173,1.862,0.565,2.617c0.387,0.759,1.114,1.297,2.182,1.623c1.067,0.32,2.775,0.185,5.128-0.41
		c1.728-0.438,3.686-1.527,5.881-3.262c2.19-1.738,4.348-3.862,6.476-6.374c2.127-2.508,4.122-5.284,5.988-8.32
		c1.857-3.036,3.39-6.084,4.59-9.149l-0.938-4.498L492.083,207.302z M480.29,168.459c-1.041,3.686-2.414,8.272-4.116,13.766
		c-1.7,5.493-3.571,10.835-5.617,16.02c-2.042,5.182-4.22,9.712-6.525,13.584c-2.312,3.875-4.577,6.089-6.802,6.65
		c-2.846,0.72-4.646,0.356-5.407-1.1c-0.759-1.449-1.422-3.288-1.985-5.514c-0.719-2.842-0.829-6.134-0.329-9.879
		c0.496-3.741,1.526-7.487,3.077-11.233c1.55-3.746,3.43-7.246,5.634-10.498c2.199-3.253,4.628-5.873,7.285-7.862
		c0.555-0.398,2.146-1.261,4.771-2.585c2.623-1.32,5.465-2.434,8.524-3.339c0.987-0.249,1.55-0.125,1.673,0.364
		C480.565,167.206,480.506,167.751,480.29,168.459z"/>
	<path fill="#45FF7A" d="M541.025,162.275c6.496-4.273,12.12-8.715,16.887-13.323c4.763-4.606,8.344-9.328,10.746-14.162
		c2.399-4.831,2.974-9.726,1.72-14.678c-0.364-1.446-1.117-2.681-2.255-3.711c-1.141-1.029-2.522-1.833-4.149-2.41
		c-1.627-0.578-3.392-0.923-5.287-1.051c-1.899-0.12-3.726,0.037-5.478,0.479c-5.78,1.462-11.135,4.162-16.066,8.098
		c-4.934,3.938-9.386,8.575-13.359,13.915c-3.976,5.342-7.419,11.153-10.33,17.433c-2.915,6.279-5.232,12.52-6.959,18.719
		c-1.726,6.2-2.789,12.095-3.186,17.685c-0.399,5.591-0.088,10.396,0.927,14.421c0.576,2.269,1.44,4.714,2.595,7.327
		c1.155,2.619,2.73,4.938,4.723,6.96c1.995,2.02,4.481,3.508,7.466,4.451c2.982,0.948,6.591,0.888,10.823-0.184
		c0.929-0.235,2.3-0.773,4.12-1.617c1.814-0.846,3.71-1.82,5.683-2.918c1.971-1.104,3.839-2.29,5.605-3.561
		c1.763-1.267,3.108-2.456,4.035-3.572c1.338-1.654,2.845-3.626,4.515-5.917c1.671-2.286,3.233-4.576,4.687-6.865
		c1.45-2.286,2.624-4.369,3.527-6.244c0.895-1.871,1.256-3.17,1.074-3.893l-0.194-0.116l-1.762-6.965
		c-1.984,1.71-4.026,3.405-6.124,5.088c-2.102,1.687-4.097,3.235-5.988,4.643c-1.896,1.414-3.627,2.594-5.199,3.537
		c-1.57,0.949-2.822,1.536-3.75,1.771c-9.597,2.426-15.738-1.672-18.426-12.301c-0.729-2.89-0.983-5.846-0.76-8.865
		C527.819,170.613,534.532,166.554,541.025,162.275z M525.671,153.647c1.458-3.772,3.136-7.353,5.025-10.74
		c1.886-3.385,3.821-6.373,5.803-8.96c1.981-2.584,3.909-4.501,5.791-5.746c1.881-1.242,3.538-1.636,4.974-1.175
		c1.435,0.46,2.49,2.032,3.166,4.714c0.915,3.614,0.555,6.971-1.077,10.071c-1.631,3.104-3.94,6.019-6.925,8.748
		c-2.988,2.734-6.305,5.248-9.947,7.539c-3.648,2.297-7.019,4.492-10.109,6.592C523.109,161.1,524.209,157.419,525.671,153.647z"/>
</g>
</svg>
